<svg xmlns="http://www.w3.org/2000/svg" xmlns:xlink="http://www.w3.org/1999/xlink" width="51.03" height="51.67" viewBox="0 0 51.03 51.67">
  <defs>
    <clipPath id="clip-path">
      <rect id="Прямоугольник_26" data-name="Прямоугольник 26" width="49.295" height="23.336" fill="#022c32"/>
    </clipPath>
  </defs>
  <g id="Arrow" transform="matrix(-0.695, 0.719, -0.719, -0.695, 51.03, 16.21)">
    <g id="Сгруппировать_350" data-name="Сгруппировать 350" transform="translate(0 0)" clip-path="url(#clip-path)">
      <path id="Контур_247" data-name="Контур 247" d="M20.01,17.447c6.313,4.576,15.379,3.1,24.295-3.946-1.983-.478-4.038,1.594-5.749-.22.039-.345,0-.68.094-.724,2.845-1.318,5.675-2.678,8.576-3.862a1.42,1.42,0,0,1,2.065,1.3A19.588,19.588,0,0,1,48.3,17.75l-1.87-2.463c-2.751,1.826-5.316,3.852-8.16,5.352-6.713,3.541-13.518,3.771-20.132-.368a3.017,3.017,0,0,0-2.923-.174A13.518,13.518,0,0,1,2.575,18.3C1.167,17.3-.317,16.14.06,13.488a11.017,11.017,0,0,0,7,4.724,11.185,11.185,0,0,0,7.917-.67A46.667,46.667,0,0,1,13.759,10.3a22.72,22.72,0,0,1,1.051-7.1A4.54,4.54,0,0,1,19.748.03c2.068.223,3.627,1.747,4.075,4.235a15.132,15.132,0,0,1-2.24,10.9c-.485.787-1.049,1.526-1.573,2.282m-1.945-1.91a12.789,12.789,0,0,0,3.228-10.09c-.112-1.191-.444-2.389-1.918-2.459-1.265-.06-1.83.95-2.12,1.982a15.387,15.387,0,0,0,.81,10.568" transform="translate(0 0)" fill="#022c32"/>
    </g>
  </g>
</svg>
