<svg version="1.2" xmlns="http://www.w3.org/2000/svg" viewBox="0 0 319 549" width="319" height="549">
	<title>Flower Elements-svg</title>
	<defs>
		<clipPath clipPathUnits="userSpaceOnUse" id="cp1">
			<path d="m162.88 104l-43.15-73.26l68.5-40.4l43.15 73.27z" />
		</clipPath>
		<clipPath clipPathUnits="userSpaceOnUse" id="cp2">
			<path d="m1429.83 479.4l-136.29 53.76l-134.41-341.26l136.28-53.76z" />
		</clipPath>
		<clipPath clipPathUnits="userSpaceOnUse" id="cp3">
			<path d="m1110.87 223.88l84.98-0.75l0.71 79.55l-84.98 0.76z" />
		</clipPath>
		<clipPath clipPathUnits="userSpaceOnUse" id="cp4">
			<path d="m1249.17-487.67l43.15 73.26l-68.5 40.39l-43.15-73.26z" />
		</clipPath>
		<clipPath clipPathUnits="userSpaceOnUse" id="cp5">
			<path d="m-17.78-863.08l136.28-53.75l134.42 341.26l-136.29 53.76z" />
		</clipPath>
		<clipPath clipPathUnits="userSpaceOnUse" id="cp6">
			<path d="m215.49-686.36l84.97-0.76l0.72 79.56l-84.98 0.76z" />
		</clipPath>
	</defs>
	<style>
		.s0 { fill: #dbc4b4 } 
	</style>
	<g id="Flower_Elements">
		<g id="Сгруппировать_370" style="opacity: .5">
			<g id="Elements_5">
				<g id="Сгруппировать_290">
					<path id="Контур_2" fill-rule="evenodd" class="s0" d="m305.1 419.7q-0.5 1.1-1 2.1q-0.6 1-1.2 2q-0.6 0.9-1.4 1.8q-0.7 1-1.5 1.8c-4.1 4.8-8.4 9.3-12.6 13.9c-11.6 12.5-25.5 16.7-41.8 11.8c-3.9-1.1-7.1-0.6-10.6 1c-17.7 8.1-32.2 20.2-44.3 35.2c-1.4 1.7-2.7 3.6-4.5 6c5.4-0.6 9.8-1.9 13.9-1.4c7.3 0.9 13-2 18.7-5.7c13.4-8.8 27.8-8.5 42.5-4.7c2.9 0.8 7.7 2.3 7.7 2.3c0 0-2.9 4.6-4.5 6.9q-1.6 2.2-3.5 4.3q-1.8 2-3.9 3.8q-2.1 1.9-4.4 3.4q-2.2 1.6-4.7 2.9c-7.9 4.2-16.2 4.8-24.4 1.3c-4.8-2-9.7-4.5-13.2-8c-4-4-8.1-4.6-12.9-4.2c-2.8 0.3-5.6 0.7-8.4 1.2q-1.4 0.2-2.8 0.7q-1.3 0.5-2.5 1.4q-1.2 0.8-2.2 1.9q-1 1.1-1.6 2.4c-1.7 3.3-4 6.2-5.8 9.4c-3.2 5.4-6.3 10.9-9.2 16.4c-2.5 4.6-5 9.2-7.5 13.8l-4.4 0.5c6.1-11.1 12-22.2 18.7-33q2.3-3.8 4.4-7.7q2.1-4 3.9-8.1q1.8-4 3.3-8.2q1.5-4.2 2.8-8.5c3.3-10.8 4.9-21.9 3.9-33.3c-0.3-3.5-1.2-5.8-5.1-7.2c-3.2-1.2-6.3-3.9-8.6-6.5c-5.8-6.5-7.4-14.7-7.1-23.1q0-1.8 0.2-3.7q0.2-1.8 0.5-3.6q0.3-1.9 0.8-3.7q0.4-1.8 0.9-3.6c0.4-1.5 1.1-5.8 1.5-5.5q0.6 0.5 1.2 1q0.6 0.5 1.2 1.1q0.6 0.5 1.2 1q0.6 0.6 1.2 1.1q0.9 1 1.8 2.1q0.9 1.1 1.7 2.2q0.9 1 1.7 2.2q0.8 1.1 1.5 2.2c6.6 9.7 9.6 20.1 8.3 32c-0.9 8.3-0.5 16.8-0.6 25.3c3.1-4.6 5.3-9.2 7.8-13.7q0.7-1.2 1.3-2.4q0.6-1.3 0.9-2.6q0.4-1.3 0.7-2.6q0.2-1.4 0.2-2.8c0.6-23.6 18.4-35.9 36.4-38.4q0.9-0.1 1.9-0.2q0.9 0 1.9-0.1q0.9 0 1.9-0.1q0.9 0 1.9 0q-0.2 1.2-0.5 2.3q-0.3 1.2-0.6 2.3q-0.3 1.1-0.7 2.2q-0.4 1.1-0.8 2.2q-1.1 2.7-2.5 5.3q-1.3 2.6-2.8 5.2q-1.4 2.5-3.1 4.9q-1.6 2.4-3.4 4.8c-4.9 6.4-11.6 11.3-19.7 13q-1.8 0.3-3.5 1q-1.7 0.8-3.1 1.9q-1.5 1.2-2.6 2.7q-1.1 1.4-1.8 3.2c-2.8 5.8-5.7 11.6-8.1 17.6c-3.1 7.5-5.7 15-8.4 22.6c-0.5 1.1-0.6 2.4-1.2 5c15.5-19.3 32.9-34 55.1-42.1c2.5-0.9 3.5-2.8 4.7-5q1.4-2.7 3.2-5.2q1.8-2.5 3.9-4.8q2.1-2.3 4.5-4.2q2.4-2 5-3.6c12.2-7.7 24.1-8.9 38.2-8.6c1.1 0.1 4.3 0.2 6 1.5zm-98.6 13.7c9.1-8.3 18.7-16.1 27.9-24.4c-8.2 8.3-16 17-24.8 25.9c13.2-1.2 30.5-20.2 33.6-36.3c-18 0.8-38 16.1-36.7 34.8zm-26.6-20.4l10.3 19.2c2.7-10.1-3.1-26.7-15.5-39.1c-7.9 14.6-1.4 35.9 12.7 42.2c-1.2-8.2-6.3-14.5-7.5-22.3zm67.6 80.8c-11.5 8.1-24.2 3.8-36.8 3.2c16.5 16.8 40.2 13 52.8-8.7c-11.8-8.3-36.3-5.6-48.8 6.1c11.2 2.2 22 3 32.8-0.6zm53.9-72.7c-24.7-2.3-47.2 8.8-54.9 26.2l30.4-10.9c-9 6.8-19.8 9.5-30 13.8c9.7 2.4 19.2 2.6 27.9-2.8c10.5-6.4 18.2-15.8 25.9-25.1c0.4-0.7 0.9-1.5 0.7-1.2z" />
					<path id="Контур_3" fill-rule="evenodd" class="s0" d="m7.8 491c7.9-5.1 15.8-10 23.5-15.3c4.3-2.9 8.8-6 12-10q3.6-4.3 6.3-9.2q2.7-4.9 4.3-10.3q1.7-5.3 2.3-10.9q0.6-5.5 0-11.1c-0.2-2.8-0.9-4.7-3.7-6.2q-3.2-1.7-5.8-4q-2.7-2.4-4.7-5.3q-2-2.9-3.3-6.2q-1.3-3.3-1.8-6.9c-2.7-17.7 3.5-32.2 16.9-43.7q0.5-0.5 1.1-0.9q0.5-0.5 1.1-0.9q0.5-0.4 1.1-0.7q0.6-0.4 1.2-0.7c0.5 0.9-0.1 3.5-0.2 4c-1.2 8.5 1.2 16.5 3.7 24.5q0.6 1.9 1.2 3.9q0.6 1.9 1.1 3.9q0.5 2 1 4q0.5 2 0.9 4c1.8 8.9 0.7 17.5-5 24.9c-1.8 2.4-1.9 4.7-1.7 7.4q0.2 3 0.1 5.9q-0.1 3-0.4 5.9q-0.4 2.9-1.1 5.8q-0.7 2.9-1.6 5.7c-0.8 2.1-3.5 7.5-4.3 9.6c3.5-2.1 8-8 10.2-10.8q3.8-4.9 7.1-9.9q3.3-5.1 6.3-10.4q2.9-5.3 5.4-10.9q2.5-5.5 4.6-11.2c5.6-14.9 10.3-30.2 16.3-45q1.7-4.2 3.1-8.5q1.4-4.3 2.5-8.6q1.1-4.4 1.9-8.8q0.9-4.5 1.4-8.9c1.4-11.4 1.2-22.7-1.7-33.9c-0.9-3.4-2.2-5.6-6.3-6.3c-3.5-0.7-6.9-2.8-9.7-5c-6.9-5.5-9.9-13.4-11-21.8q-0.2-1.8-0.4-3.7q-0.1-1.9-0.1-3.7q0-1.9 0.1-3.8q0.1-1.9 0.3-3.7c0.2-1.6 0.1-6 0.6-5.8q0.7 0.4 1.4 0.8q0.7 0.4 1.4 0.8q0.7 0.5 1.3 0.9q0.7 0.4 1.4 0.9q1.1 0.9 2.1 1.8q1.1 0.9 2.1 1.8q1 1 2 1.9q1 1 2 2c8.2 8.5 12.9 18.4 13.6 30.4c0.5 8.5 2.4 16.9 3.6 25.4c2.4-5.1 3.8-10.1 5.6-15q0.5-1.3 0.8-2.6q0.4-1.3 0.5-2.7q0.2-1.4 0.2-2.8q0-1.4-0.2-2.7c-3.4-23.7 12.3-38.9 29.7-44.5q1-0.2 1.9-0.5q0.9-0.2 1.9-0.4q0.9-0.2 1.9-0.4q0.9-0.2 1.9-0.3q-0.1 1.1-0.2 2.3q0 1.2-0.2 2.4q-0.1 1.1-0.3 2.3q-0.2 1.2-0.4 2.3q-0.7 2.9-1.6 5.7q-0.9 2.9-1.9 5.6q-1.1 2.8-2.3 5.5q-1.2 2.7-2.6 5.3c-3.8 7.3-9.6 13.3-17.4 16.3q-1.8 0.6-3.3 1.7q-1.6 1-2.8 2.4q-1.3 1.4-2.1 3q-0.9 1.7-1.3 3.5c-1.7 6.3-3.7 12.6-5.1 19c-1.7 7.9-3.1 15.9-4.5 23.9c-0.3 1.2-0.2 2.5-0.4 5.2c12.2-21.9 27.1-39.4 47.8-51.3c2.4-1.3 3.1-3.4 3.8-5.7q1-3 2.4-5.8q1.3-2.8 3-5.4q1.7-2.6 3.8-5q2-2.3 4.4-4.4c10.9-9.8 22.5-13 36.6-15c1.1-0.1 4.3-0.5 6.2 0.5q-0.3 1.1-0.6 2.2q-0.4 1.1-0.9 2.2q-0.5 1.1-1 2.1q-0.6 1-1.2 2c-3.3 5.4-6.9 10.7-10.3 16c-9.4 14.4-22.5 21-39.6 18.8c-4.1-0.5-7.2 0.6-10.4 2.8c-16.2 11-28.6 25.5-38.2 42.6c-1.1 1.9-2.1 4-3.4 6.6c5.2-1.5 9.4-3.5 13.6-3.7c7.4-0.3 12.6-4.1 17.6-8.8c11.8-11 26.3-13.2 41.6-11.8c2.9 0.2 8 0.9 8 0.9c0 0-2.1 5.1-3.3 7.6q-1.2 2.5-2.7 4.9q-1.5 2.4-3.3 4.5q-1.7 2.2-3.8 4.1q-2 2-4.2 3.7c-7.1 5.5-15.4 7.5-24.1 5.4c-5.1-1.2-10.4-2.8-14.5-5.7c-4.6-3.3-8.8-3.3-13.5-2c-2.8 0.7-5.5 1.6-8.2 2.6c-3.9 1.4-6.7 3.8-8 7.9c-1.1 3.6-2.9 6.9-4.2 10.3c-2.2 6-4.4 12-6.4 18c-6.7 20-13.7 40-25.8 59c6.9-2.6 12.3-5.4 18.1-6.7c8.4-1.8 13.5-6.5 16.7-14q0.1-0.1 0.2-0.3q0-0.1 0.1-0.3q0.1-0.1 0.2-0.3q0-0.1 0.1-0.3c4.8-7.8 9.8-15.5 17.2-21.3q2.2-1.7 4.6-3.2q2.3-1.5 4.8-2.7q2.5-1.3 5.2-2.2q2.6-1 5.3-1.7q0.9-0.2 1.9-0.4q1-0.1 1.9-0.2q1-0.2 2-0.2q0.9-0.1 1.9-0.1c0 0-0.7 4.1-1.1 7.2q-0.1 0.2-0.1 0.4q0 0.1-0.1 0.3q0 0.1 0 0.3q-0.1 0.2-0.1 0.3q-0.8 3.5-1.9 7q-1.1 3.4-2.4 6.8q-1.3 3.3-2.8 6.6q-1.5 3.3-3.2 6.5c-5.9 10.3-14.9 15.1-26.6 14.8c-3.3-0.1-6.7-0.1-9.7-1.1c-6-2-11.1-0.2-16.6 2.3c3.8 2.8 7.3 5.2 10.7 7.8c3 2.5 6 3 9.7 1.4c18.2-8 35.5-3.9 52.4 4.3q1 0.5 2 1.1q0.9 0.5 1.9 1.1q1 0.6 1.9 1.3q0.9 0.6 1.9 1.3c0 0-4.1 3.1-6.5 4.8c-8.5 6.1-17.7 10.5-28.2 11.8c-13.1 1.6-24-3.8-29.8-15.7c-3.7-7.6-10.2-11.6-16.6-16.1q-0.8-0.6-1.7-1q-0.9-0.3-1.9-0.4q-1-0.1-2 0.1q-0.9 0.2-1.8 0.6c-6.1 2.6-11.6 5.6-15.9 11.1c-14.4 18.1-33.4 30.6-53.8 40.9q-0.3 0.1-0.6 0.2q-0.3 0.1-0.6 0.2q-0.3 0.1-0.5 0.2q-0.3 0.1-0.6 0.1zm99.1-41.9c9.6 5.6 20 7 30.6 7.9c-11.3 3.6-21.7 0.1-32.1-4.5c1 2.5 2.3 4.8 4 6.8c1.7 2 3.6 3.8 5.9 5.2c2.2 1.5 4.6 2.5 7.1 3.2c2.6 0.7 5.2 1 7.9 0.8c11.9-0.5 22.1-5.8 32.1-13c-14.3-11.8-39.6-14.6-55.5-6.4zm9.1-16.8c8.6-0.3 15.6-3.8 20.5-11.2c6.3-9.6 10-20.9 13-33.1q-0.8 0.1-1.6 0.3q-0.9 0.1-1.7 0.3q-0.9 0.2-1.7 0.4q-0.8 0.2-1.6 0.5q-4.3 1.3-8.2 3.3q-4 2-7.5 4.7q-3.6 2.7-6.6 5.9q-3 3.3-5.4 7c-3.1 4.8-8.6 13.5-11.6 18.4c8.4-2.6 26.6-11.3 37-28.5c-1.1 5.8-6.6 13.9-14.1 18.9c-6.8 4.5-14.3 8.2-22.8 13c5 0 8.7 0.2 12.3 0.1zm49.6-148.3c9.9-5.5 19.1-10.7 28.3-15.9c-7.7 8.2-18.1 12.8-27.5 18.8c10.1 0.8 19.6-0.7 27.4-7.5c9.3-8.2 15.4-18.8 21.5-29.4c0.3-0.8 0.6-1.7 0.5-1.4c-25 2-45.6 16.8-50.2 35.4zm-110.9 130.7c-1.9-14.2-8.1-27.6-5.2-42q0.1-0.3 0.2-0.6q0.2-0.3 0.4-0.6q0.2-0.2 0.4-0.4q0.2-0.3 0.5-0.4c-2 16 4.6 30.4 7.3 46.6q0.4-0.3 0.7-0.7q0.3-0.3 0.6-0.7q0.3-0.3 0.5-0.7q0.3-0.3 0.6-0.7q1.2-2.4 2-5q0.8-2.6 1.1-5.3q0.4-2.7 0.3-5.4q-0.1-2.7-0.7-5.4c-0.9-4.7-2.3-9.3-3.6-13.9c-2-7.4-4-14.7-6.1-22.5c-18.1 14.3-19.6 48.3 1 57.7zm119.7-84.5c-10 10-23.4 7.9-36.2 9.4c19.4 14 42.3 6.2 51.2-17.6c-13.2-6.3-37.1 0.6-47.5 14.3c11.5 0.4 22.4-0.7 32.5-6.1zm-51.1-53.2c7.8-9.9 16-19.3 23.7-29.1c-6.8 9.7-13.1 19.7-20.3 30c12.9-3.4 26.9-25.2 27.3-41.8c-17.7 3.9-35.1 22.5-30.7 40.9zm-18.7 5.1c-2.5-8-8.7-13.4-11.2-21l13.5 17.5c1-10.6-7.6-26.2-22-36.4c-5.5 15.9 4.6 36 19.7 39.9z" />
					<path id="Контур_4" fill-rule="evenodd" class="s0" d="m30.1 284.2c-3.1 3.1-6.2 6.1-9.5 8.9c-3.1 2.8-6.5 5.3-9.7 7.9c5.8-6.3 11.9-11.6 17.4-18c3.3-3.8 6.2-7.2 6.2-7.2c-1.1-6.8-3.3-20.7-4.1-27.6q-0.1-0.7-0.1-1.5q0.1-0.8 0.1-1.6q0.1-0.8 0.3-1.5q0.1-0.8 0.4-1.5q0.1-0.5 0.4-0.9q0.2-0.4 0.6-0.7q0.3-0.3 0.7-0.5q0.4-0.2 0.9-0.3q0.5 0.1 0.9 0.2q0.5 0.2 0.9 0.5q0.4 0.2 0.7 0.6q0.3 0.3 0.6 0.8q0.3 0.6 0.5 1.3q0.3 0.7 0.5 1.4q0.2 0.7 0.3 1.4q0.2 0.7 0.3 1.4q0.4 2.8 0.6 5.6q0.2 2.9 0.1 5.7q-0.1 2.8-0.5 5.6q-0.3 2.9-0.9 5.6c-0.2 0.9-0.7 3.7-0.8 4.6c-0.1-0.1-0.2-0.1 0 0c0.1 0 0 0 0 0q0 0 0 0q0 0 0 0q0 0 0 0q0 0 0 0c3.6-4.9 8.5-11.4 12.2-16.2q0.5-0.7 1-1.5q0.5-0.7 0.9-1.5q0.5-0.8 0.9-1.6q0.4-0.8 0.7-1.6c-0.9-5.2-2.5-14.7-2.9-20c-0.2-2.2 0.1-5.5 2.4-5.6c3.3 0 3.5 5.8 3.6 9.4c0.1 3.9-0.5 8.8-0.8 12.7c3.6-7.1 8.1-15 11.6-21.8q-1.7-2.3-3-4.8q-1.3-2.6-2.4-5.2q-1-2.7-1.7-5.5q-0.7-2.7-1-5.6c-0.3-1.9-0.5-4.3 1.8-4.9c2.4-0.7 3.4 1.6 3.9 3.4c1.2 4.6 2.1 9.3 3.1 14q0.3 1.5 0.7 2.9c2.7-4.7 4.2-9.7 6.3-14.3c1.7-4.7 2.4-7.2 2.4-7.2c-1.9-2.8-11.4-18.7-7.3-20.3c3.6-1.7 5.8 5.4 6.6 9.3c0.4 1.9 1.4 6.3 1.9 8.2q0 0 0 0q0 0 0 0q0 0 0 0q0 0 0 0q0 0 0 0q0 0 0 0c0 0-0.1 0 0 0c0.2 0 0.1 0 0 0c2.6-10.6 6-23.8 8.6-34.3c-1.2-1.1-7.9-8.8-10.3-12c-0.8-1.2-3.7-5.9-0.9-7.6c3.1-1.8 5.5 3.1 6.1 4.2c1.3 2.6 4.6 9.5 5.6 11.3c1.1-6 2.1-10.8 3-15.7c1.6-8.6 3.8-17 8.3-24.6c1.1-1.8 3.2-4.4 4.4-1.3c2 5.1-5.1 28-11.8 42.1c3.3-3 24.1-13.5 25.8-7.7c1.3 4.4-9.5 7.6-12.3 8.4c-3.7 1.2-10.8 2.6-14.4 3.9q-0.6 1.5-1.1 2.9q-0.6 1.5-1 3q-0.5 1.5-1 3q-0.4 1.5-0.8 3c1.2-1.1 3.2-3.5 4.2-4.4c2.4-2 4.7-4 7.2-5.8c1.6-1.1 3.8-2.9 5.5-0.7c1.7 2.1-0.5 4-1.9 5.4c-2.6 2.5-11.4 8.5-12.2 9.2c5.4 1 11.7 1.1 16.7 2.3c2.5 0.5 9.8 2.3 8.8 5.9c-1.1 4-5.4 3.2-7.6 2.9q-2.4-0.3-4.7-0.9q-2.4-0.5-4.7-1.2q-2.3-0.7-4.5-1.6q-2.2-1-4.4-2c-1.4-0.7-2.8-1.3-4.4-2c-1.8 6.3-3.5 12.2-5.2 18.4c4.7-2.1 8.7-4.1 12.9-5.8c1.6-0.6 5.8-2.9 7 0.3c0.9 2.6-3.1 3.6-4.5 4c-4.5 1.4-11.3 2.3-15.7 3.7c0 0-3.2 7.3-4.2 10.4q1-0.9 2.1-1.8q1.1-0.8 2.2-1.6q1.1-0.8 2.3-1.5q1.2-0.7 2.4-1.4c2.9-1.4 7.3-4.7 9.1-0.5c2.6 6-14.2 8.8-20.1 13.5c3.3 0.8 15.5 0.5 21.2 5.9c2.3 1.8 1.4 4.4-1.4 5q-0.6 0.1-1.3 0.2q-0.6 0.1-1.3 0.1q-0.7 0-1.3-0.1q-0.7-0.1-1.3-0.3c-4.5-1.2-15.3-6.4-16.9-7.1q-2.5 5.6-5.3 11.1q-2.8 5.5-5.8 10.8q-3.1 5.4-6.4 10.6q-3.4 5.1-7 10.1c2.1-0.5 3.2-0.9 4.3-1c3.8-0.5 7.6-1.1 11.4-1.4c2.2-0.1 4.8-0.2 5.6 2.6c0.5 1.8-1.6 3.1-5.4 3.7c-1.1 0.2-2.2 0.2-3.4 0.3c-1.4 0.1-2.8 0.1-5.4 0.2q0.6 0.4 1.1 0.8q0.6 0.4 1.2 0.8q0.5 0.4 1.1 0.9q0.6 0.4 1.1 0.9q1.2 1 2.4 2.2q1.1 1.1 2.3 2.2q1.1 1.2 2.2 2.3q1.1 1.2 2.2 2.4q0.3 0.5 0.5 1q0.2 0.6 0.2 1.2q0 0.5-0.1 1.1q-0.1 0.6-0.4 1.1q-0.4 0.4-0.8 0.7q-0.5 0.3-1.1 0.5q-0.5 0.1-1.1 0.2q-0.5 0-1.1-0.1q-1.1-0.2-2.2-0.5q-1.1-0.4-2.1-0.8q-1.1-0.4-2.1-0.9q-1-0.5-2-1.1c-5.1-3.3-9.9-7.1-15-10.8c-2.9 3.1-5.8 6.3-8.8 9.3zm10.1-10.9c7.6 4.7 21.2 15.5 23.8 12.5c2.1-2.4-12.3-12.7-20.7-16.6zm51.8-44.9c1.7-2.2-21-6.6-21-6.6c0 0 19.4 8.8 21 6.6zm-4.9-47.2c4.6 3.4 23.7 8.1 23.9 5.5c0.2-2.5-16.9-5.3-23.9-5.5zm-52.8 61.6c-4.6-1.1 0 17.9 1.5 26.3c0.6-7.1 1.1-25.7-1.5-26.3zm66.5-124.3c-2.7-0.2-9 19.5-11.9 38.8c2.2-5.4 14.3-38.6 11.9-38.8zm12.4 33.4c-0.9-1.4-16.9 5.7-20.8 8.3c4.9-1.8 22.4-5.7 20.8-8.3zm-23 55.5c-1.1-1.9-13.3 5.6-17.3 10.1c4.5-2.5 18.2-8.5 17.3-10.1zm10.6-41.3c-1.2-1.3-11.9 9.8-15 12.3c3.2-2.5 16-11.3 15-12.3zm-15 12.3q-0.1 0-0.1 0c-0.3-0.3 0.2 0.4 0 0q0 0 0.1 0zm-19.3 44.7c0.3-0.1-3.9-20.5-5.5-20.5c-2.7-0.1 2.1 16.4 5.5 20.5z" />
					<path id="Контур_5" fill-rule="evenodd" class="s0" d="m137.8 222.8c-1.4 1.8-4.6 1.4-6.5 0.1c-2.1-1.5-3.4-4.6-2.1-6.8q0.3-0.4 0.7-0.8q0.4-0.4 0.9-0.7q0.5-0.2 1.1-0.4q0.5-0.1 1.1-0.1c2.8 0 4.3 2.8 4.6 3.3c0.2 0.5 1.7 3.5 0.2 5.4zm-1.2-4.5c-0.6-1.7-2.7-2.1-3-2.1c-0.5-0.1-1.9-0.3-2.5 0.4c-0.9 1-0.1 3.3 1.4 4.4c0.1 0.1 2 1.3 3.3 0.3q0.3-0.2 0.5-0.6q0.2-0.3 0.4-0.7q0.1-0.4 0-0.9q0-0.4-0.1-0.8z" />
					<path id="Контур_6" fill-rule="evenodd" class="s0" d="m81.4 351.6c-2-1-2.4-4.2-1.6-6.4c1-2.3 3.7-4.3 6.1-3.5q0.6 0.2 1 0.5q0.5 0.3 0.9 0.7q0.3 0.5 0.6 1q0.2 0.5 0.4 1c0.6 2.8-1.8 4.9-2.3 5.2c-0.4 0.4-3 2.5-5.1 1.5zm4-2.2c1.6-1 1.5-3.1 1.5-3.4c-0.1-0.5-0.1-1.9-1-2.4c-1.2-0.6-3.2 0.7-3.9 2.4c-0.1 0.2-0.9 2.2 0.3 3.3q0.4 0.2 0.8 0.4q0.4 0.1 0.8 0.1q0.4 0 0.8-0.1q0.4-0.1 0.7-0.3z" />
					<path id="Контур_7" fill-rule="evenodd" class="s0" d="m44.2 173c-2-1-2.4-4.2-1.5-6.3c0.9-2.3 3.7-4.3 6.1-3.5q0.5 0.1 1 0.5q0.5 0.3 0.8 0.7q0.4 0.4 0.7 0.9q0.2 0.5 0.3 1.1c0.7 2.7-1.8 4.8-2.2 5.2c-0.4 0.3-3 2.5-5.2 1.4zm4.1-2.2c1.6-0.9 1.5-3 1.4-3.4c0-0.5-0.1-1.8-0.9-2.3c-1.2-0.6-3.3 0.7-4 2.4c0 0.1-0.8 2.2 0.4 3.3q0.4 0.2 0.7 0.3q0.4 0.2 0.9 0.2q0.4 0 0.8-0.1q0.4-0.1 0.7-0.4z" />
					<path id="Контур_8" fill-rule="evenodd" class="s0" d="m304.8 458.5c-2-1-2.4-4.2-1.5-6.3c0.9-2.3 3.6-4.3 6.1-3.5q0.5 0.1 0.9 0.5q0.5 0.3 0.9 0.7q0.3 0.4 0.6 0.9q0.3 0.5 0.4 1.1c0.6 2.7-1.8 4.8-2.2 5.2c-0.4 0.3-3.1 2.5-5.2 1.4zm4.1-2.2c1.5-0.9 1.4-3 1.4-3.4c0-0.5-0.1-1.8-1-2.3c-1.1-0.6-3.2 0.7-3.9 2.4c-0.1 0.1-0.9 2.2 0.4 3.3q0.3 0.2 0.7 0.3q0.4 0.2 0.8 0.2q0.4 0 0.8-0.1q0.4-0.1 0.8-0.4z" />
					<path id="Контур_9" class="s0" d="m77.6 317.9q0.1 0.2 0.2 0.3q0 0.2 0.1 0.4q0 0.1 0 0.3q0 0.1-0.1 0.3q0 0.1-0.1 0.2q-0.1 0.1-0.2 0.2q-0.1 0.1-0.2 0.2q-0.2 0.1-0.4 0.2q-0.3 0-0.5 0q-0.2 0-0.4 0q-0.2-0.1-0.4-0.2q-0.2-0.1-0.3-0.2q-0.1-0.1-0.3-0.2q-0.1-0.1-0.2-0.3q-0.1-0.1-0.1-0.3q-0.1-0.2-0.1-0.5q0-0.2 0-0.5q0.1-0.3 0.3-0.5q0.1-0.2 0.4-0.4c0.8-0.4 1.7 0.4 2.1 0.8q0.1 0.1 0.2 0.2z" />
					<path id="Контур_10" class="s0" d="m164.5 203.4q0.1 0.1 0.2 0.3q0.1 0.1 0.1 0.3q0 0.2 0 0.3q0 0.2-0.1 0.3q0 0.2-0.1 0.3q-0.1 0.1-0.2 0.2q-0.1 0.1-0.2 0.2q-0.2 0.1-0.4 0.1q-0.2 0.1-0.5 0.1q-0.2 0-0.4-0.1q-0.2-0.1-0.4-0.2q-0.2 0-0.3-0.1q-0.1-0.1-0.2-0.2q-0.2-0.2-0.2-0.3q-0.1-0.2-0.2-0.3q-0.1-0.3-0.1-0.5q0-0.3 0.1-0.6q0-0.2 0.2-0.4q0.2-0.3 0.4-0.4c0.8-0.5 1.7 0.3 2.1 0.7q0.1 0.1 0.2 0.3z" />
					<path id="Контур_11" class="s0" d="m220.7 344.9q0.1 0.1 0.2 0.3q0.1 0.2 0.1 0.3q0 0.2 0 0.4q0 0.1-0.1 0.3q0 0.1-0.1 0.2q-0.1 0.1-0.2 0.2q-0.1 0.1-0.2 0.2q-0.2 0.1-0.4 0.2q-0.2 0-0.4 0q-0.3 0-0.5-0.1q-0.2 0-0.4-0.1q-0.1-0.1-0.3-0.2q-0.1-0.1-0.2-0.2q-0.1-0.1-0.2-0.3q-0.1-0.1-0.2-0.3q-0.1-0.2-0.1-0.5q0-0.3 0.1-0.5q0.1-0.3 0.2-0.5q0.2-0.2 0.4-0.4c0.8-0.4 1.7 0.3 2.1 0.7q0.1 0.2 0.2 0.3z" />
					<path id="Контур_12" class="s0" d="m331.5 418.6q0.2 0.1 0.2 0.3q0.1 0.2 0.1 0.3q0 0.2 0 0.4q0 0.1 0 0.2q-0.1 0.2-0.2 0.3q-0.1 0.1-0.2 0.2q-0.1 0.1-0.2 0.2q-0.2 0.1-0.4 0.1q-0.2 0.1-0.4 0.1q-0.3 0-0.5-0.1q-0.2 0-0.4-0.1q-0.1-0.1-0.3-0.2q-0.1-0.1-0.2-0.2q-0.1-0.1-0.2-0.3q-0.1-0.1-0.2-0.3q-0.1-0.2-0.1-0.5q0-0.3 0.1-0.5q0.1-0.3 0.2-0.5q0.2-0.2 0.4-0.4c0.8-0.4 1.8 0.3 2.1 0.7q0.1 0.1 0.2 0.3z" />
				</g>
				<g id="Сгруппировать_309">
					<g id="Clip-Path: Сгруппировать_307" clip-path="url(#cp1)">
						<g id="Сгруппировать_307">
							<path id="Контур_234" fill-rule="evenodd" class="s0" d="m163.2 6.4c4.9 0.1 9.9 3.7 12.6 7.6q0.5 0.6 0.8 1.2q0.4 0.7 0.7 1.4q0.2 0.7 0.4 1.4q0.2 0.7 0.3 1.5c6-6.1 16-8.7 23.5-3.5c7.5 5.2 9.5 14.8 3.6 21.2q1 0 1.9 0.2q1 0.1 1.9 0.5q0.9 0.3 1.8 0.8q0.8 0.5 1.6 1.1c1.7 1.4 1.7 2.5 2.5 4.4c1.4 3.3 3.9 5.8 5.2 9c4.1 9.9-9.8 16.6-17.5 15.8q-0.8-0.1-1.6-0.2q-0.9-0.1-1.7-0.3q-0.8-0.1-1.7-0.3q-0.8-0.2-1.6-0.4c2.5 3.9 3.7 8.6 1.8 13.1c-2.6 6.2-9.1 7.8-14.9 6.1c-7.5-2.2-3-1.8-8.5-1.3q-0.5 0-0.9 0.1q-0.5 0-0.9 0q-0.5-0.1-0.9-0.2q-0.4 0-0.9-0.2q-0.8-0.3-1.5-0.8q-0.8-0.6-1.4-1.2q-0.6-0.6-1.1-1.4q-0.5-0.7-0.8-1.5q-0.4-0.9-0.7-1.8q-0.3-0.9-0.4-1.9q-0.1-0.9-0.1-1.9q0.1-1 0.3-1.9q-0.3 0.2-0.6 0.3c-2.8 1.5-6.6 2.5-9.7 1.8c-4.1-0.9-4.9-4.3-7.2-7.4c-2.8-3.7-7.8-3.5-10.6-7.8q-0.8-1.1-1.2-2.5q-0.5-1.4-0.6-2.8q0-1.4 0.3-2.8q0.4-1.4 1.1-2.6c3.7-6.4 11.9-9 19-8.6q-0.9-0.9-1.7-1.9q-0.9-1-1.7-2q-0.7-1.1-1.5-2.2q-0.7-1.1-1.4-2.2c-1.9-3.3-4.4-7.8-3.6-11.9c0.8-4.4 6.5-6.1 9.4-8.9c2.7-2.7 4-5.1 8.2-5.1zm38.1 30.9c5.1-3.3 7.3-9.6 3.5-15q-0.8-1.1-1.7-2.1q-1-1-2.1-1.7q-1.1-0.8-2.3-1.4q-1.2-0.6-2.5-0.9c-6.9-1.7-13.9 1.5-18.2 6.8q0 0.5-0.1 0.9q-0.1 0.5-0.1 0.9q-0.1 0.5-0.2 1q-0.1 0.4-0.2 0.9q-0.7 2.5-1.1 5.1q-0.4 2.6-0.5 5.2q-0.2 2.6 0 5.2q0.1 2.7 0.5 5.3q0.3-1.1 0.8-2.2q0.4-1 1-2q0.5-1 1.2-2q0.6-0.9 1.4-1.7c-0.4-1-0.5-2.2 0.6-2.6c1.3-0.5 2.7 0.5 3.4 1.6c0.4 0.8 0.8 2.2-0.1 2.9q-0.4 0.1-0.7 0.1q-0.4 0.1-0.7 0q-0.3 0-0.7-0.2q-0.3-0.1-0.5-0.3q-0.8 0.9-1.5 1.9q-0.6 1-1.2 2.1q-0.5 1.1-0.9 2.2q-0.3 1.1-0.6 2.3q0.9-0.5 1.9-1c6-3 11.7-7 17.7-9.9q0.4-0.2 0.8-0.3q0.5-0.2 0.9-0.4q0.4-0.1 0.9-0.2q0.4-0.2 0.9-0.3c0.2 0 0.3-0.1 0.4-0.2zm13 26.6c2.8-2.5 4.8-6.3 3.2-10.1c-0.6-1.3-2-2.5-2.8-3.7c-1.9-3.2-2.1-7.3-5.5-9.3q-0.7-0.5-1.6-0.8q-0.9-0.3-1.8-0.5q-0.9-0.2-1.8-0.1q-0.9 0-1.8 0.2q-0.1 0-0.1 0q-0.1 0-0.2 0q0 0-0.1 0q-0.1 0.1-0.1 0.1c-3.4 0.7-6.7 2.9-9.6 4.7q-1.1 0.7-2.3 1.4q-1.1 0.6-2.3 1.3q-1.2 0.6-2.4 1.2q-1.2 0.6-2.4 1.1c-1.2 0.6-3.7 1.3-4.7 2.6q5.3 0.7 10.5 1.4q0.2-0.2 0.5-0.5q0.3-0.2 0.7-0.3q0.3-0.1 0.7-0.2q0.3 0 0.7 0q0.5 0.1 0.9 0.3q0.5 0.3 0.8 0.7q0.3 0.4 0.4 0.9q0.2 0.5 0.1 1q-0.2 0.5-0.5 1q-0.4 0.4-0.9 0.7q-0.4 0.3-1 0.4q-0.5 0.1-1.1 0q-0.3 0-0.6-0.2q-0.3-0.1-0.6-0.4q-0.2-0.2-0.4-0.5q-0.1-0.3-0.2-0.7q-5.1-0.7-10.1-1.4c2 6.2 14 9.9 19.1 11.3c5.7 1.5 12.3 2.7 17.3-1.6zm-46.9 15.1c2.3 4.9 8.5 3 12.5 4.2c4.6 1.5 9.1 3.5 13.4-0.3c4.8-4.5 3.3-11.3-0.4-15.9c-5.8-1.7-12.2-4.5-15.5-8.4q0.2 0.9 0.4 1.8q0.2 1 0.6 1.8q0.3 0.9 0.8 1.7q0.4 0.8 1 1.6q0.2-0.1 0.6-0.2q0.3 0 0.6 0q0.3 0 0.6 0.2q0.3 0.1 0.5 0.3c0.5 0.5 0.8 1.2 0.8 1.9c0 0.6-0.2 1.3-0.6 1.8c-0.5 0.6-1.1 0.9-1.7 1.1c-0.7 0.1-1.4 0-2-0.4q-0.3-0.2-0.5-0.5q-0.2-0.4-0.2-0.7q-0.1-0.4-0.1-0.8q0.1-0.4 0.2-0.7q-0.6-0.8-1.1-1.7q-0.5-0.8-0.9-1.7q-0.5-0.9-0.8-1.9q-0.3-1-0.5-2q-0.5 1.4-1.2 2.7q-0.7 1.3-1.5 2.5q-0.7 1.2-1.6 2.4q-0.9 1.1-1.9 2.2c-1.7 2.5-2.8 6.2-1.5 9zm-28-29.5c-3.5 4.4-2.3 10.5 3.8 13.1c1 0.4 2.2 0.4 3.3 0.9q0.6 0.3 1.1 0.6q0.6 0.4 1.1 0.9q0.5 0.4 0.9 0.9q0.5 0.5 0.8 1.1c2.5 3.2 3.9 6.8 8.9 5.6q1.4-0.4 2.7-1q1.4-0.6 2.6-1.4q1.2-0.9 2.2-1.9q1.1-1 1.9-2.2q1-1.3 1.8-2.6q0.8-1.3 1.5-2.7q0.8-1.4 1.4-2.9q0.6-1.4 1-2.9q-1.6 0.7-3.4 1.3q-1.7 0.5-3.6 0.8q-1.8 0.2-3.6 0.3q-1.8 0-3.7-0.3q0 0.1 0 0.2q-0.1 0-0.1 0.1q0 0-0.1 0.1q0 0 0 0.1q-0.2 0.2-0.3 0.3q-0.2 0.2-0.4 0.3q-0.2 0-0.4 0.1q-0.3 0-0.5 0q-0.2-0.1-0.4-0.2q-0.2-0.1-0.3-0.3q-0.2-0.1-0.3-0.3q-0.2-0.1-0.3-0.3q-0.2-0.4-0.3-0.8q-0.1-0.4-0.2-0.8q0-0.4 0.1-0.8q0.1-0.4 0.3-0.8q0 0 0 0q0 0 0 0q0 0 0-0.1q0 0 0.1 0q0 0 0 0q0 0 0 0q0-0.1 0-0.1q0 0 0 0q0.1-0.2 0.3-0.4q0.2-0.1 0.4-0.2q0.2-0.2 0.4-0.2q0.2-0.1 0.5-0.1q0.3 0 0.5 0q0.3 0.1 0.5 0.3q0.2 0.1 0.4 0.3q0.2 0.3 0.3 0.5q0.1 0.1 0.1 0.3q0 0.1 0.1 0.2q0 0.2 0 0.3q0 0.2 0.1 0.3q1.7 0.3 3.4 0.2q1.7 0 3.4-0.2q1.7-0.3 3.4-0.8q1.6-0.5 3.2-1.3q-2.2-0.8-4.3-1.9q-2.1-1.1-4.1-2.3q-2.1-1.3-3.9-2.7q-1.9-1.4-3.7-3c-6.6-1-14.3 0.9-18.6 6.4zm16.2-35.1c-2.2 1.9-6.4 3.4-7.5 6.1c-1.9 4.3 2.7 10.9 5.1 14.2q1.7 2.4 3.7 4.6q2.1 2.2 4.4 4.1q2.3 1.9 4.8 3.5q2.6 1.6 5.3 2.8q-0.3-0.5-0.7-1q-0.3-0.5-0.6-1.1q-0.3-0.5-0.5-1.1q-0.3-0.6-0.5-1.1q-0.3 0-0.6 0q-0.3-0.1-0.6-0.2q-0.3-0.1-0.6-0.3q-0.2-0.1-0.5-0.4q-0.3-0.4-0.4-0.9q-0.2-0.6-0.1-1.1q0.1-0.6 0.4-1q0.3-0.5 0.7-0.8c0.5-0.4 1.1-0.6 1.7-0.6c0.6 0 1.1 0.2 1.6 0.6c0.5 0.4 0.8 0.9 0.9 1.5c0.1 0.6 0 1.2-0.2 1.7q0.2 0.8 0.5 1.5q0.3 0.7 0.7 1.4q0.4 0.7 0.8 1.4q0.5 0.6 1 1.2q-0.6-2.8-0.9-5.6q-0.3-2.8-0.3-5.6q0.1-2.8 0.5-5.6q0.3-2.8 1-5.6c0.7-2.6 1.7-5.3 1.2-8c-0.9-4.5-5.2-8.5-9.5-9.8c-5.7-1.7-7.2 2.1-10.8 5.2z" />
						</g>
					</g>
				</g>
			</g>
			<g id="Elements_6">
				<g id="Сгруппировать_7">
					<path id="Контур_2-2" fill-rule="evenodd" class="s0" d="m1158.4 316.9c2.6 1.8 5.1 4.9 6.9 7.4c3.9 5.6 7.6 11.4 11.4 17.2c10.2 15.5 11 31.4 1.4 47.4c-2.2 3.9-2.4 7.4-1.7 11.5c3.9 20.9 12.9 39.5 25.6 56.4c1.5 1.9 3.1 3.8 5.2 6.3c0.7-5.9 0.5-10.9 2.2-15.2c2.9-7.5 1.3-14.3-1.1-21.3c-5.8-16.5-1.7-31.7 6.2-46.3c1.6-2.9 4.5-7.6 4.5-7.6c0 0 4.1 4.3 6.1 6.6q1.9 2.3 3.6 4.8q1.7 2.5 3.1 5.2q1.4 2.7 2.4 5.5q1.1 2.9 1.8 5.8c2.4 9.5 0.8 18.5-5.1 26.3c-3.3 4.5-7.2 9.1-11.9 11.9c-5.3 3.1-7 7.3-7.8 12.6c-0.5 3-0.8 6.1-1 9.1c-0.3 4.5 0.8 8.3 4.4 11.5c3 2.6 5.5 5.8 8.4 8.6c4.9 4.8 9.9 9.5 15 14.1c4.2 3.8 8.5 7.7 12.6 11.6l-0.6 4.8c-10.1-9.4-20.4-18.7-30-28.6q-3.5-3.4-7.1-6.7q-3.7-3.2-7.5-6.2q-3.8-3-7.9-5.7q-4-2.8-8.2-5.2c-10.7-6.4-22-11.1-34.3-13c-3.8-0.6-6.5-0.2-9 3.5c-2.1 3.1-5.7 5.7-9.2 7.5c-8.4 4.4-17.5 4-26.3 1.4q-1.9-0.5-3.8-1.2q-1.9-0.7-3.8-1.5q-1.9-0.8-3.7-1.8q-1.8-0.9-3.5-1.9c-1.5-0.9-5.9-2.7-5.5-3q0.7-0.6 1.4-1.1q0.7-0.5 1.4-1q0.7-0.5 1.5-1q0.7-0.5 1.4-0.9q1.4-0.7 2.7-1.4q1.4-0.6 2.8-1.2q1.3-0.7 2.7-1.2q1.4-0.6 2.8-1.1c12-4.5 23.8-4.8 36.1-0.3c8.6 3.2 17.7 4.9 26.6 7.3c-3.9-4.5-8.3-8-12.4-11.9q-1-1.1-2.2-2q-1.2-0.9-2.4-1.7q-1.3-0.8-2.7-1.4q-1.4-0.6-2.8-1c-25-6.8-33.3-29-31.2-48.7q0.2-1.1 0.3-2.1q0.2-1 0.4-2q0.2-1.1 0.4-2.1q0.3-1 0.5-2q1.2 0.5 2.3 1.1q1.2 0.6 2.3 1.3q1.1 0.6 2.1 1.3q1.1 0.7 2.2 1.4q2.5 2 4.9 4q2.5 2.1 4.7 4.4q2.3 2.2 4.5 4.6q2.1 2.4 4.1 4.9c5.5 6.9 8.9 15.3 8.6 24.3q-0.1 2 0.2 4q0.4 2 1.2 3.9q0.8 1.8 2.1 3.4q1.3 1.6 2.9 2.8c5.5 4.4 10.9 9.1 16.6 13.2c7.1 5.2 14.4 10 21.7 14.9c1.1 0.8 2.4 1.3 5 2.6c-16.4-21.6-27.3-43.9-30.1-69.6c-0.3-3-2-4.6-4-6.3q-2.5-2.3-4.7-4.8q-2.2-2.6-4.1-5.4q-1.8-2.9-3.3-5.9q-1.4-3.1-2.4-6.3c-5-15-3.1-28 1-42.8c0.3-1.2 1.3-4.5 3.1-6zm-11.5 108.3c-6.4-11.9-12.2-24.1-18.5-36c6.6 10.9 13.8 21.4 20.9 33.1c2.2-14.3-13.3-37.7-29.6-45.2c-3.8 19.3 7.1 44.5 27.2 48.1zm-28.7 22.9l23.2-5.9c-10-5.5-29.2-3.8-45.6 6.1c13.4 12.3 37.7 11 48.1-2.3c-9-0.9-17 2.8-25.7 2.1zm103.6-50.5c5.5 14.3-2.4 26.7-6.3 40c22.2-13.1 24.4-39.3 4.6-58.4c-11.9 10.3-15.4 37.1-6.3 53.4c5.3-11.3 8.9-22.6 8-35zm-62.9-76.4c-8.9 25.6-3.1 52.5 13.3 65.2l-3.5-35.1c4.8 11.3 4.8 23.5 6.7 35.5c5.1-9.7 7.8-19.7 4.4-30.4c-4-12.8-11.9-23.5-19.8-34.1c-0.6-0.6-1.3-1.3-1.1-1.1z" />
					<path id="Контур_4-2" fill-rule="evenodd" class="s0" d="m1388.7 244.9c-5.5 4.1-10.6 8.4-16.1 12.1q-1.1 0.6-2.2 1.2q-1.1 0.6-2.2 1q-1.2 0.5-2.4 0.9q-1.1 0.4-2.4 0.7q-0.6 0.1-1.2 0.1q-0.6-0.1-1.2-0.3q-0.6-0.2-1.1-0.5q-0.6-0.3-1-0.7q-0.3-0.6-0.4-1.2q-0.2-0.6-0.1-1.2q0-0.7 0.2-1.3q0.1-0.6 0.4-1.1q1.2-1.3 2.4-2.6q1.2-1.3 2.4-2.6q1.2-1.3 2.5-2.5q1.3-1.3 2.5-2.5q0.6-0.5 1.2-1q0.6-0.5 1.2-0.9q0.6-0.5 1.3-1q0.6-0.4 1.2-0.8c-2.9-0.1-4.4-0.1-6-0.2c-1.2 0-2.4-0.1-3.6-0.2c-4.2-0.6-6.5-2-6-3.9c0.8-3.1 3.7-3.1 6-3c4.2 0.2 8.4 0.8 12.6 1.3c1.2 0.1 2.3 0.5 4.7 1q-4.1-5.4-7.8-10.9q-3.8-5.6-7.3-11.4q-3.4-5.8-6.5-11.7q-3.2-6-6-12.1c-1.8 0.8-13.5 6.7-18.3 8.2q-0.7 0.1-1.5 0.2q-0.7 0.1-1.4 0.1q-0.7 0.1-1.4 0q-0.8-0.1-1.5-0.2c-3.1-0.6-4-3.4-1.6-5.4c6.1-6 19.4-5.9 23.1-6.9c-6.6-5-24.9-7.7-22.3-14.4c1.9-4.5 6.8-1 10 0.5q1.3 0.6 2.6 1.4q1.3 0.7 2.6 1.6q1.2 0.8 2.4 1.7q1.2 1 2.3 1.9c-1.1-3.4-4.7-11.2-4.7-11.2c-4.9-1.5-12.4-2.4-17.3-3.8c-1.5-0.4-5.9-1.4-4.9-4.3c1.1-3.5 5.8-1.1 7.6-0.4c4.6 1.8 9 3.8 14.2 6.1c-2-6.8-4-13.2-6.1-20.1c-1.7 0.8-3.3 1.5-4.7 2.3q-2.4 1.2-4.8 2.2q-2.4 1.1-4.9 1.9q-2.5 0.8-5.1 1.5q-2.5 0.6-5.1 1c-2.4 0.4-7.1 1.3-8.4-3.1c-1.1-3.9 6.9-5.9 9.5-6.6c5.5-1.3 12.3-1.6 18.3-2.8c-0.9-0.8-10.7-7.1-13.6-9.8c-1.5-1.5-3.9-3.5-2.2-5.8c1.9-2.5 4.3-0.6 6.1 0.6c2.8 1.9 5.3 4.1 7.9 6.2c1.2 0.9 3.4 3.5 4.7 4.7q-0.4-1.6-0.9-3.3q-0.5-1.6-1.1-3.2q-0.6-1.6-1.2-3.2q-0.6-1.6-1.3-3.2c-4-1.3-11.8-2.8-15.8-4c-3.1-0.8-15-4.1-13.6-8.9c1.7-6.4 24.7 4.7 28.4 7.9c-7.7-15.3-15.8-40.2-13.8-45.8c1.3-3.4 3.6-0.7 4.8 1.4c5.1 8.2 7.7 17.3 9.6 26.6c1.1 5.3 2.3 10.7 3.6 17.1c1-1.9 4.5-9.6 5.9-12.4c0.6-1.3 3.1-6.7 6.6-4.7c3.1 1.8 0 7-0.9 8.3c-2.5 3.5-9.7 12.1-10.9 13.3c3 11.4 6.9 25.8 10 37.3c-0.1 0-0.2 0 0 0c0.1 0 0 0 0 0q0 0 0 0c0.5-2 1.5-6.9 1.9-9c0.8-4.2 3.1-12.1 7.1-10.2c4.5 1.6-5.6 19.2-7.6 22.3c0 0 0.8 2.8 2.7 7.8c2.4 5 4.2 10.4 7.2 15.5q0.4-1.6 0.7-3.1c1-5.2 1.8-10.4 3.1-15.5c0.5-1.9 1.6-4.5 4.2-3.7c2.6 0.6 2.4 3.3 2.1 5.3q-0.3 3.1-1 6.2q-0.7 3-1.8 5.9q-1.1 3-2.5 5.8q-1.4 2.7-3.1 5.3c3.9 7.4 8.9 15.9 13 23.6c-0.4-4.2-1.1-9.6-1.1-13.9c0-3.9 0.1-10.3 3.7-10.3c2.6 0 3 3.7 2.9 6.1c-0.4 5.7-2 16.2-2.9 21.9q0.4 0.9 0.8 1.7q0.5 0.9 1 1.7q0.5 0.9 1.1 1.7q0.5 0.8 1.1 1.6c4.1 5.2 9.6 12.2 13.7 17.4c-0.1 0.1-0.2 0.1 0 0c0.1 0 0 0 0 0c-0.2-0.9-0.8-4-1-4.9q-0.8-3-1.2-6.1q-0.4-3.1-0.6-6.2q-0.1-3.1 0-6.2q0.2-3.1 0.6-6.1q0.1-0.8 0.2-1.6q0.2-0.8 0.4-1.5q0.2-0.8 0.4-1.5q0.3-0.8 0.6-1.5q0.3-0.5 0.6-0.9q0.4-0.4 0.8-0.7q0.4-0.3 0.9-0.5q0.5-0.1 1-0.2q0.5 0.1 1 0.3q0.5 0.2 0.8 0.6q0.4 0.3 0.7 0.7q0.3 0.4 0.5 0.9q0.2 0.8 0.4 1.7q0.2 0.8 0.3 1.6q0.1 0.9 0.1 1.7q0.1 0.9 0 1.8c-0.7 7.5-2.8 22.7-4 30.2c0 0 3.3 3.6 7 7.7c6.1 6.9 12.8 12.6 19.4 19.3c-3.6-2.7-7.3-5.4-10.8-8.4c-3.6-3-7.1-6.2-10.5-9.5c-3.4-3.3-6.7-6.7-9.9-10zm-44-84.8q0 0 0 0q0 0 0 0q0 0 0 0zm46.3 84.1q0 0 0 0q0 0 0 0q0 0 0 0q0 0 0 0zm-7.1-5.4c-9.2 4.3-24.8 15.8-22.4 18.5c3 3.2 17.6-8.9 25.8-14.1zm-31.3-51.2c0 0-24.7 5.1-22.9 7.5c1.8 2.4 22.9-7.5 22.9-7.5zm-44.5-37.7c0.3 2.9 21.1-2.6 26.1-6.5c-7.7 0.4-26.3 3.9-26.1 6.5zm83.8 88.6c1.5-9.2 6.2-30 1.2-28.8c-2.9 0.8-1.9 21.1-1.2 28.8zm-60.2-121.1c-3.5-21.1-10.8-42.4-13.7-42.2c-2.6 0.3 11.3 36.4 13.7 42.2zm-3.7 3.3c-4.4-2.8-22-10.3-23-8.7c-1.6 2.8 17.6 6.8 23 8.7zm22.4 62.1c-4.4-4.8-17.9-12.8-19.1-10.6c-1 1.8 14.2 8 19.1 10.6zm-14.8-42.5c-3.5-2.6-15.4-14.6-16.7-13.1c-1 1.1 13.2 10.5 16.7 13.1zm0.1 0.1c-0.3 0.4 0.3-0.4 0 0q-0.1 0-0.1-0.1q0 0.1 0.1 0.1zm27.5 25.9c-1.8 0.1-6 22.5-5.6 22.6c3.6-4.6 8.5-22.7 5.6-22.6z" />
					<path id="Контур_5-2" fill-rule="evenodd" class="s0" d="m1258.7 433.3c0.3-0.6 1.9-3.7 4.9-3.8q0.7 0 1.3 0.2q0.6 0.1 1.1 0.4q0.5 0.2 1 0.7q0.5 0.4 0.8 0.9c1.5 2.3 0.1 5.8-2.1 7.4c-2.1 1.5-5.6 1.9-7.2 0c-1.7-2-0.1-5.3 0.2-5.8zm0.9 1.8q0 0.5 0.1 0.9q0.2 0.4 0.4 0.8q0.2 0.4 0.6 0.7c1.5 1 3.4-0.4 3.6-0.5c1.6-1.2 2.4-3.7 1.4-4.8c-0.7-0.8-2.1-0.5-2.7-0.4c-0.4 0.1-2.6 0.5-3.2 2.4q-0.2 0.5-0.2 0.9z" />
					<path id="Контур_14" fill-rule="evenodd" class="s0" d="m1211.5 318.1c0.6 0.3 3.8 1.7 4 4.8q0.1 0.6 0 1.2q-0.1 0.6-0.4 1.2q-0.2 0.5-0.6 1q-0.4 0.5-0.9 0.9c-2.3 1.6-5.8 0.4-7.5-1.8c-1.6-1.9-2.2-5.4-0.4-7.1c1.9-1.8 5.3-0.4 5.8-0.2zm-1.7 1.1q-0.5 0-0.9 0.1q-0.5 0.2-0.8 0.4q-0.4 0.3-0.7 0.7c-0.9 1.5 0.6 3.4 0.7 3.5c1.3 1.6 3.8 2.2 4.9 1.2c0.7-0.7 0.4-2.2 0.2-2.7c-0.1-0.4-0.6-2.6-2.6-3.1q-0.4-0.1-0.8-0.1z" />
					<path id="Контур_7-2" fill-rule="evenodd" class="s0" d="m1369.1 128.6c-0.5-0.3-3.2-2.6-2.5-5.6q0.1-0.6 0.4-1.2q0.2-0.5 0.6-1q0.4-0.5 0.9-0.8q0.5-0.4 1.1-0.6c2.6-0.9 5.6 1.2 6.7 3.7c1 2.4 0.7 5.9-1.5 7c-2.4 1.2-5.3-1.1-5.7-1.5zm2-0.4q0.4 0.1 0.9 0q0.4 0 0.9-0.1q0.4-0.2 0.7-0.4c1.4-1.3 0.5-3.5 0.4-3.6c-0.8-1.9-3.1-3.3-4.3-2.6c-1 0.6-1 2.1-1 2.6c-0.1 0.4-0.2 2.7 1.6 3.7q0.4 0.2 0.8 0.4z" />
					<path id="Контур_8-2" fill-rule="evenodd" class="s0" d="m1089.6 418.4c-0.4-0.4-3.1-2.6-2.5-5.7q0.1-0.6 0.4-1.1q0.3-0.6 0.7-1q0.3-0.5 0.8-0.9q0.5-0.3 1.1-0.5c2.7-1 5.7 1.2 6.8 3.7c1 2.3 0.6 5.8-1.6 7c-2.3 1.2-5.2-1.1-5.7-1.5zm2-0.5q0.5 0.1 0.9 0.1q0.5 0 0.9-0.2q0.4-0.1 0.8-0.4c1.3-1.2 0.4-3.4 0.3-3.6c-0.7-1.8-3-3.2-4.3-2.5c-0.9 0.5-1 2-1 2.5c0 0.4-0.1 2.7 1.6 3.7q0.4 0.3 0.8 0.4z" />
					<path id="Контур_9-2" class="s0" d="m1345.3 284.8c0.4-0.4 1.5-1.3 2.3-0.8q0.3 0.2 0.5 0.4q0.1 0.2 0.2 0.5q0.1 0.3 0.1 0.6q0 0.3-0.1 0.6q-0.1 0.1-0.2 0.3q-0.1 0.1-0.2 0.3q-0.1 0.1-0.2 0.2q-0.2 0.1-0.4 0.2q-0.2 0.1-0.4 0.2q-0.2 0.1-0.5 0.1q-0.2 0-0.5-0.1q-0.2 0-0.4-0.1q-0.1-0.1-0.2-0.2q-0.2-0.1-0.3-0.3q0-0.1-0.1-0.2q-0.1-0.2-0.1-0.3q0-0.2 0-0.4q0-0.2 0.1-0.4q0.1-0.1 0.2-0.3q0.1-0.2 0.2-0.3z" />
					<path id="Контур_10-2" class="s0" d="m1236.5 141.7c0.4-0.4 1.4-1.3 2.3-0.8q0.3 0.1 0.4 0.4q0.2 0.2 0.3 0.5q0.1 0.3 0.1 0.6q0 0.3-0.1 0.6q-0.1 0.1-0.2 0.3q-0.1 0.1-0.2 0.3q-0.1 0.1-0.3 0.2q-0.1 0.1-0.3 0.2q-0.2 0.1-0.4 0.2q-0.2 0.1-0.5 0.1q-0.2 0-0.5-0.1q-0.2 0-0.4-0.1q-0.2-0.1-0.3-0.2q-0.1-0.1-0.2-0.3q-0.1-0.1-0.1-0.2q-0.1-0.2-0.1-0.3q0-0.2 0-0.4q0-0.2 0.1-0.4q0.1-0.2 0.2-0.3q0.1-0.2 0.2-0.3z" />
					<path id="Контур_11-2" class="s0" d="m1201.7 290.7c0.4-0.4 1.4-1.3 2.3-0.8q0.2 0.2 0.4 0.4q0.2 0.3 0.3 0.5q0.1 0.3 0.1 0.6q0 0.3-0.1 0.6q-0.1 0.2-0.2 0.3q-0.1 0.2-0.2 0.3q-0.1 0.1-0.3 0.3q-0.1 0.1-0.3 0.1q-0.2 0.2-0.4 0.2q-0.3 0.1-0.5 0.1q-0.3 0-0.5 0q-0.2-0.1-0.5-0.2q-0.1-0.1-0.2-0.2q-0.1-0.1-0.2-0.2q-0.1-0.1-0.2-0.3q0-0.1-0.1-0.3q0-0.2 0.1-0.4q0-0.2 0.1-0.3q0-0.2 0.1-0.4q0.2-0.1 0.3-0.3z" />
					<path id="Контур_15" class="s0" d="m1298.9 192.7c0.4-0.4 1.4-1.3 2.3-0.8q0.2 0.1 0.4 0.4q0.2 0.2 0.3 0.5q0.1 0.3 0.1 0.6q0 0.3-0.1 0.5q-0.1 0.2-0.2 0.4q-0.1 0.1-0.2 0.3q-0.1 0.1-0.3 0.2q-0.1 0.1-0.3 0.2q-0.2 0.1-0.4 0.2q-0.3 0-0.5 0.1q-0.3 0-0.5-0.1q-0.2 0-0.4-0.2q-0.2 0-0.3-0.1q-0.1-0.1-0.2-0.3q-0.1-0.1-0.1-0.2q-0.1-0.2-0.1-0.3q-0.1-0.2 0-0.4q0-0.2 0.1-0.4q0-0.2 0.2-0.3q0.1-0.2 0.2-0.3z" />
					<path id="Контур_16" class="s0" d="m1292.4 446.5c0.4-0.4 1.4-1.3 2.3-0.8q0.3 0.2 0.4 0.4q0.2 0.2 0.3 0.5q0.1 0.3 0.1 0.6q0 0.3-0.1 0.6q-0.1 0.1-0.2 0.3q-0.1 0.1-0.2 0.3q-0.1 0.1-0.3 0.2q-0.1 0.1-0.3 0.2q-0.2 0.1-0.4 0.2q-0.2 0.1-0.5 0.1q-0.2 0-0.5-0.1q-0.2 0-0.4-0.1q-0.1-0.1-0.3-0.2q-0.1-0.1-0.2-0.2q-0.1-0.2-0.1-0.3q-0.1-0.2-0.1-0.3q0-0.2 0-0.4q0-0.2 0.1-0.4q0.1-0.1 0.2-0.3q0.1-0.2 0.2-0.3z" />
				</g>
				<g id="Сгруппировать_306">
					<g id="Clip-Path: Сгруппировать_305" clip-path="url(#cp2)">
						<g id="Сгруппировать_305">
							<path id="Контур_233" fill-rule="evenodd" class="s0" d="m1236.8 385.9c19.3-7.2 41.4-9.8 61.7-5.5q4.5 1 8.9 2.5q4.4 1.5 8.5 3.6q4.2 2.1 8 4.8q3.8 2.6 7.3 5.7q1.5 1.4 3 2.9q1.5 1.4 2.9 3q1.4 1.6 2.7 3.2q1.3 1.6 2.5 3.3c2.7 3.9 6.5 6.5 10.4 8.9c-13.5-21.6-28-42.2-44.9-61.4c-10.7 3.7-22.2 1.4-28.6-9.1c-0.4 2.5-1.1 4.8-2.1 7c-1.1 2.3-2.5 4.3-4.2 6.1c-1.6 1.8-3.6 3.3-5.8 4.4c-2.1 1.2-4.4 2-6.9 2.5c-11.6 2.1-21.8-6-30.2-13.1c-7.8-6.5-3.3-19.2 1.4-26.5q0.6-0.8 1.1-1.6q0.6-0.7 1.2-1.5q0.7-0.7 1.3-1.5q0.7-0.7 1.4-1.4c-10.8 1.3-22-4.6-23.4-16.6c-0.4-3.1 0.7-5.4 1.4-8.3c1.6-6.3-1.8-9.3-2.4-14.7c-0.8-6.2 3.4-12.3 8-16.1c6.5-5.2 14.8-5.8 22.7-3.9c-0.4-3.5-0.6-7.2 0.4-10.5q-1.9-4-3.5-8c-4.1 1.4-11.1-3.7-13.3-5.9c-1.7-1.6-10.5-11.9-4.9-13.8c3.6-1.2 9.1 5 11.4 7.1c0.8 0.7 2.1 1.8 3.5 3q-0.6-2.1-1.1-4.1q-0.4-2.1-0.8-4.2q-0.4-2.1-0.7-4.2q-0.3-2.1-0.5-4.2c-5.6-3.2-18.4-10.7-15.6-18.1c3-8.2 10.8 4.2 12.3 6.6c0.6 0.8 1.7 2.3 2.9 4q-0.1-1.6 0-3.1q0-1.5 0.1-3.1q0.1-1.5 0.2-3q0.1-1.5 0.3-3.1q0 0 0 0q-0.1 0-0.1 0q0-0.1 0-0.1q0 0 0 0q-1.9-2.1-3.5-4.4q-1.7-2.2-3.2-4.6q-1.5-2.3-2.8-4.8q-1.3-2.5-2.4-5.1c-0.8-1.9-4.4-8.5-1.3-10.2c3.4-1.8 8.2 5.5 9.6 7.4q0.9 1.4 1.8 2.9q0.8 1.4 1.5 3q0.6 1.5 1.2 3.1q0.5 1.6 0.9 3.3q0.4-1.8 0.8-3.5q0.2-0.4 0.3-0.8q0.1-0.4 0.2-0.8q0.2-0.4 0.3-0.8q0.2-0.4 0.4-0.8q0 0 0-0.1q-0.1 0-0.1 0q0 0 0 0q0-0.1 0-0.1q-0.1-1.8-0.1-3.7q0-1.8 0.3-3.6q0.2-1.8 0.7-3.6q0.4-1.8 1.1-3.5c1.2-3 3.4-8.7 6.9-9.5q0.2 0 0.4 0q0.2 0.1 0.4 0.2q0.1 0.1 0.3 0.2q0.1 0.2 0.2 0.4c1.9 3.4-1.2 10-2.5 13.3q-0.5 1.3-1.1 2.5q-0.5 1.2-1.2 2.4q-0.6 1.2-1.2 2.3q-0.6 1.2-1.3 2.4q-0.3 0.5-0.6 1.1q-0.3 0.6-0.5 1.2q-0.2 0.6-0.5 1.3q-0.2 0.6-0.3 1.2q0-0.1 0.1-0.1c2.1-2.7 9-10.2 13.3-8.9c4.6 1.4-14.4 21-15.8 21.3q-0.2 1.3-0.3 2.7q-0.1 1.3-0.2 2.7q-0.1 1.3-0.1 2.7q-0.1 1.4-0.1 2.7q0.4-0.6 0.9-1.2q0.4-0.6 0.8-1.2q0.5-0.6 0.9-1.2q0.5-0.6 1-1.1c1.8-2.3 10.3-11.1 13.9-8.2c3.3 2.6-3.2 10-4.7 11.7q-1.3 1.5-2.7 2.9q-1.4 1.3-3 2.5q-1.6 1.2-3.2 2.3q-1.7 1.1-3.4 2q0.2 2.1 0.5 4.3q0.3 2.1 0.7 4.3q0.4 2.1 0.9 4.2q0.5 2.1 1.1 4.2q0.2-0.6 0.5-1.2q0.2-0.6 0.4-1.2q0.3-0.6 0.6-1.2q0.2-0.6 0.5-1.2c1.6-3.2 7.1-12.2 11.9-10.6c4.3 1.4-0.5 10.8-1.7 13q-0.9 1.5-2 3q-1 1.4-2.2 2.8q-1.1 1.3-2.4 2.5q-1.3 1.2-2.7 2.3q1.3 3.3 2.8 6.4q0 0 0-0.1c3.9-6.4 13.2-3.3 14.1-12.4c0.2-2.2-1.1-3.4 0.2-5.7q0.4-0.5 0.8-1q0.5-0.4 1-0.8q0.5-0.3 1-0.6q0.6-0.3 1.2-0.4c5.1-1.9 11.5-0.7 16.2 1.8c9 5 14.8 15.2 16.5 25.5q1.7-1.7 3.8-3q2-1.3 4.2-2.3q2.2-0.9 4.6-1.5q2.4-0.5 4.8-0.6q-1.1-4.5-2.5-8.8q-0.4-0.1-0.8-0.1q-0.4-0.1-0.9-0.2q-0.4 0-0.8-0.1q-0.4-0.1-0.8-0.2q-1.3-0.2-2.6-0.5q-1.3-0.3-2.6-0.6q-1.3-0.3-2.5-0.6q-1.3-0.3-2.6-0.7c-2.7-0.8-10.7-2.7-8.2-7.4c2.1-3.9 10.1 0.4 12.6 1.5q1 0.5 2 1q0.9 0.5 1.9 1q0.9 0.5 1.8 1q1 0.5 1.9 1.1q-1.9-5.2-4.3-10.2q-2-0.5-3.9-1q-1.9-0.5-3.8-1.1q-1.9-0.6-3.8-1.3q-1.8-0.7-3.7-1.5c-2.1-1-14.8-5.9-13.2-9.6c0.9-1.9 5-1.1 6.5-0.9q1.7 0.2 3.4 0.6q1.8 0.4 3.4 1q1.7 0.5 3.3 1.2q1.6 0.7 3.2 1.5c0.8 0.4 2.2 1.2 3.9 2.2q-0.9-1.6-1.9-3.1q-1-1.5-2-3q-1-1.5-2-3q-1.1-1.5-2.2-2.9q-1.3-1.7-2.5-3.3c-4.7-1-9.3-4.1-13.4-6.6c-1.7-1.1-8.3-4.6-8.1-7.6c0.4-5.6 10.1 0 12.1 1.2c7.8 4.7 13.8 13 18.8 20.9q-1.7-4.7-3.1-9.5c-0.7-2.5-2.4-6.4-2-9.1c0.8-5.6 5.1 1.6 6.2 3.6q1.1 2 2 4q1 2.1 1.7 4.3q0.8 2.1 1.4 4.3q0.6 2.2 1 4.5c0.5 2.6 2.1 8 0.5 10.6q0 0 0 0q0 0 0 0.1q0 0 0 0q0 0 0 0c0-0.1 0.9 2.5 0.9 2.5q1.6 3.4 3 6.8q0.4-1.1 0.8-2.2q0.5-1.1 1-2.1q0.5-1.1 1.1-2.2q0.5-1 1.1-2c0.9-1.7 7.2-11.6 8.6-5.2c0.4 1.7-0.6 4-1.2 5.6q-0.4 1-0.8 2.1q-0.4 1-0.8 2q-0.5 1.1-1 2.1q-0.5 1-1 2c-0.6 1.2-2.7 6.5-4.9 8.2q1.5 4.8 2.7 9.7q0.6 0 1.2 0.1q0.6 0.1 1.2 0.2q0.6 0 1.2 0.2q0.6 0.1 1.2 0.2c3.6 0.9 7.5 2.8 9.2 6.3c2 4.1-0.5 7.6-0.5 11.8c0.1 6.5 7.6 10.5 10.2 16.2c1.8 3.9 3.1 8.5 1.6 12.7c-3.5 10.2-17.4 13.4-27.6 14.3c3 2 5.5 4.4 6.7 7.6q0.4 1 0.6 2.1q0.1 1 0.1 2.1q-0.1 1.1-0.3 2.1q-0.2 1.1-0.7 2c-0.7 2-1.8 3.8-2.3 5.8c-1 4.3 1.4 7.2 2.2 10.9c1.1 5.3-1.5 8.7-6.1 11.4q-1.4 0.8-2.9 1.5c9 10.3 17.5 21.1 25.4 32.1q-0.4-2.5-0.6-5.1q-0.1-2.6 0.1-5.2q0.2-2.6 0.7-5.2q0.5-2.5 1.3-5c-3.4-7.8-5.4-16.3-2.1-24.6c3.7-9.3 9.4-17.8 13.1-27.3q-0.7-1.3-1.4-2.6c-2.1-4.2-4.7-12.5-2.6-17.1c0.8-1.7 1.8-2.7 3.7-1.7c1.6 0.8 2.8 4.8 3.7 6.2c2.5 3.8 5.6 6.4 9 9.3c8.7 7.3 5.8 19.5 3.1 29.1q0 0.1 0 0.2q-0.1 0.1-0.1 0.1q-0.1 0.1-0.1 0.1q-0.1 0.1-0.1 0.2q0.1 1.3 0 2.7q-0.1 1.4-0.4 2.7q-0.3 1.4-0.8 2.6q-0.5 1.3-1.2 2.5c-4.3 8.2-12.1 14.3-20.6 17.7q-1.1 3-1.8 6.1q-0.7 3-0.9 6.2q-0.2 3.1 0 6.2q0.3 3.2 1 6.2q10.8 15.5 20.6 31.9c14.2 23.6 32 43.8 54.7 59.7c1.3 0.9-0.9 2.8-2 2c-22.3-15.6-40.1-35.3-54.1-58.5q-1.3-2.1-2.6-4.2c-3.7-2.3-8.3-4.5-11.4-7.4c-38.1 11.7-80 1.4-107.6-27.5c-0.6-0.6-0.7-2 0.2-2.3zm69.3-164.9q0 0 0 0q0 0 0 0zm-62.1-54.5c0.8-2.4 2.7-5.8-0.1-3.3c-3.5 3.2-4.6 9.3-4.8 14.6c0.8-1.4 1.6-2.8 2.3-4.3q0.4-0.9 0.7-1.7q0.4-0.9 0.7-1.8q0.4-0.8 0.7-1.7q0.3-0.9 0.5-1.8zm56.3 52.6q-0.9-0.8-1.9-1.5q-1-0.7-2-1.3q-1-0.6-2.1-1.2q-1.1-0.5-2.2-1q-1-0.5-2.1-0.9q-1.1-0.4-2.2-0.7q-1.1-0.4-2.3-0.6q-1.1-0.3-2.2-0.5q-0.4-0.1-0.8-0.1q-0.4-0.1-0.8-0.1q-0.5-0.1-0.9-0.1q-0.4-0.1-0.8-0.1q-2.1-0.3-0.4 0.8q0.3 0.2 0.6 0.4q0.3 0.3 0.6 0.5q0.3 0.2 0.6 0.3q0.3 0.2 0.6 0.4c6.6 4.1 13.7 6.5 21 8.5q-0.2-0.5-0.5-1c-0.9-0.8-1.8-1.6-2.2-1.8zm-25.5-31.3c-4.6-2.2-3.1-0.2 0.1 2.1q1.3 1 2.6 1.9q1.3 0.9 2.7 1.7q1.4 0.9 2.8 1.6q1.4 0.8 2.9 1.5q-1.1-1.4-2.4-2.6q-1.3-1.3-2.7-2.4q-1.4-1.1-2.9-2q-1.5-1-3.1-1.8zm28.4 22.3q-0.3-1.8-0.7-3.5q-0.5-1.7-1-3.4q-0.6-1.7-1.2-3.4q-0.7-1.7-1.5-3.3q-0.3-0.7-0.7-1.4q-0.3-0.7-0.7-1.3q-0.4-0.7-0.8-1.4q-0.4-0.6-0.8-1.3q0 0-0.1 0q0 0 0 0q0 0 0 0q0 0 0 0q0.1 0.6 0.2 1.1q0.1 0.6 0.2 1.1q0.2 0.6 0.3 1.1q0.2 0.6 0.3 1.1c1.3 4.7 2.8 9.4 4.5 14c0.3 1 2.2 6.8 3.2 8.7c0.4-2.3-0.8-6.4-1.2-8.1zm9.2 24.4c0.9-1.5 1.8-3.1 2.6-4.7q0.7-1.3 1.3-2.6q0.6-1.3 1.2-2.7q0.6-1.4 1.1-2.7q0.5-1.4 1-2.8q0-0.1 0-0.2q0.1 0 0.1-0.1q0-0.1 0-0.1q0-0.1 0-0.2q-0.1 0.2-0.3 0.4q-0.2 0.1-0.3 0.3q-0.2 0.2-0.3 0.4q-0.2 0.1-0.3 0.3q-0.4 0.5-0.7 1q-0.3 0.5-0.6 1q-0.3 0.6-0.6 1.1q-0.3 0.5-0.6 1.1q-0.3 0.7-0.7 1.4q-0.3 0.7-0.6 1.4q-0.4 0.7-0.7 1.4q-0.3 0.7-0.5 1.5q-0.3 0.6-0.6 1.2q-0.2 0.7-0.5 1.3q-0.2 0.7-0.4 1.4q-0.2 0.6-0.3 1.3q0.1 0.2 0.1 0.4q0.3-0.5 0.6-0.8zm27 105.5c-4.1 7.9-3.4 15.7-0.4 23.7c6-12.7 18.7-23.6 15.5-38.4c-1.5-2.4-3-4.7-4.4-7.1c-3.1 7.5-6.9 14.6-10.7 21.8zm23.6-23c-1.7-4.6-6-6.7-9.3-10q-0.9-1-1.8-2q-0.8-1-1.6-2.1q-0.8-1.1-1.5-2.3q-0.7-1.1-1.3-2.3q-0.3-0.6-0.5-1q-0.1 0.7-0.1 1.3q0 0.7 0 1.4q0 0.7 0.1 1.4q0.1 0.7 0.2 1.4c0.8 6.9 4.3 11.9 7.9 17.8c2.8 4.7 5.8 9 7.4 13.5c1.4-5.6 2.4-11.7 0.5-17.1zm-4.9 14.3q-0.3-0.6-0.7-1.3c0.2 8.9-4.7 15.9-9.8 24.1q-0.8 1.3-1.6 2.6q-0.8 1.3-1.5 2.6q-0.7 1.3-1.4 2.7q-0.6 1.4-1.3 2.7q2.2-1 4.3-2.3q2-1.2 3.9-2.8q1.9-1.5 3.5-3.3q1.7-1.7 3.1-3.6c5.3-7.3 5.7-13.8 1.5-21.4zm-118.9-8.5c-6.5 6-15.6 21.6-7.8 29.7c3.4 3.5 8.5 5.9 12.5 8.7q0.5 0.4 1.2 0.9q0.6 0.4 1.2 0.9q0.6 0.4 1.3 0.8q0.6 0.4 1.3 0.8c14.3 6.9 28.5-7.4 27.7-21.4q0 0 0-0.1q0 0 0-0.1q0 0 0 0q0-0.1 0-0.1c-4.5-10.3-5.3-22.8-3.6-33.9q-3.6 4.5-7.3 8.8q0.2 0.4 0.3 0.8q0.1 0.4 0.2 0.8q0.1 0.4 0.1 0.8q0 0.5-0.1 0.9q-0.2 0.6-0.5 1.1q-0.4 0.4-0.8 0.8q-0.5 0.3-1.1 0.5q-0.6 0.2-1.2 0.1c-2.3-0.2-3-2.7-2.5-4.6q0.2-0.6 0.5-1q0.2-0.5 0.7-0.8q0.4-0.4 0.9-0.6q0.5-0.2 1-0.3q4.5-5.1 8.6-10.5c-10.1 3.4-21.2 7.9-29.6 14.5q-0.2 0.1-0.3 0.2q-0.2 0.1-0.3 0.2q-0.2 0.2-0.3 0.3q-0.2 0.1-0.3 0.3q-0.9 0.7-1.8 1.5zm23-2.4q0 0 0 0.1q0 0 0 0.1q0 0 0 0.1q0 0 0 0q0 0.1 0 0.1q0 0 0.1 0q0.1 0 0.2 0.1q0.1 0 0.1-0.1q0.1 0 0.2 0q0.2 0 0.4-0.1q0.2-0.1 0.4-0.2q0.1-0.1 0.3-0.3q0.1-0.2 0.1-0.4c0.1-0.4 0-0.7-0.3-0.7c-0.7-0.1-1.3 0.7-1.5 1.3zm-48.1-39.5c0.2 5.3 4.2 8.8 3.3 14.3c-0.3 2.1-1.3 4-1.7 6q-0.4 1.9-0.3 3.8q0.2 1.9 0.8 3.7q0.6 1.8 1.6 3.4q1 1.5 2.4 2.8c5.6 5.3 13.4 6 20.4 3.5q0 0 0.1 0q0 0 0 0q0 0 0 0q0 0 0 0c9.4-7.3 21.8-11.9 32.4-15.2q-1.7-1.5-3.7-2.7q-2-1.2-4.2-2q-2.1-0.7-4.4-1.1q-2.3-0.4-4.6-0.3q-0.1 0.1-0.1 0.2q-0.4 0.4-1 0.8q-0.5 0.3-1.1 0.4q-0.7 0.1-1.3 0q-0.6-0.1-1.2-0.5q-0.4-0.3-0.7-0.8q-0.2-0.6-0.3-1.1q-0.1-0.6 0.1-1.2q0.1-0.5 0.5-1q0 0 0 0q0 0 0 0q0.1-0.1 0.1-0.1q0 0 0 0c0 0 0-0.1 0.1-0.1q0.4-0.5 0.9-0.9q0.5-0.3 1.2-0.4q0.6-0.1 1.2 0q0.6 0.1 1.2 0.4q0.2 0.2 0.5 0.4q0.2 0.3 0.3 0.6q0.2 0.2 0.2 0.6q0.1 0.3 0.1 0.6q2.3 0 4.6 0.4q2.2 0.3 4.4 1q2.2 0.8 4.2 1.8q2 1.1 3.9 2.5c-2.6-15.2-14.1-30.7-29.1-35.2q-0.2-0.1-0.4-0.2q-0.2 0-0.5-0.1q-0.2 0-0.4-0.1q-0.3-0.1-0.5-0.1q-1.6-0.4-3.2-0.6q-1.6-0.2-3.3-0.2q-1.6 0-3.2 0.1q-1.6 0.2-3.2 0.5c-6.7 1.4-16.5 8.2-16.1 16.1zm17.8-46.4q-0.9-0.8-1.7-1.6q-0.8-0.8-1.7-1.5q-0.9-0.7-1.8-1.4q-0.9-0.7-1.8-1.4c-0.7-0.5-1.4-0.9-2.1-1.4q0 0-0.1 0q0 0-0.1-0.1q0 0-0.1 0q0-0.1 0-0.1c1.2 2.6 2.1 5.1 4 7.4q0.8 0.8 1.6 1.6q0.8 0.8 1.7 1.5q0.9 0.7 1.9 1.3q0.9 0.6 1.9 1.2q0.5 0.2 1.1 0.5q0.5 0.3 1.1 0.5q0.5 0.2 1.1 0.4q0.5 0.2 1.1 0.4q-0.1-0.2-0.2-0.4q0-0.3-0.1-0.5q0-0.2 0-0.5q0-0.2 0-0.4q-0.7-0.8-1.4-1.5q-0.7-0.7-1.4-1.4q-0.8-0.7-1.5-1.3q-0.8-0.7-1.5-1.3zm-4.2-27.6c-1-1.5-3.3-6.5-5.5-6.7c-5-0.4-1.8 4-0.8 5.3q1.2 1.3 2.4 2.5q1.3 1.2 2.6 2.3q1.4 1.1 2.8 2.1q1.4 0.9 3 1.8c-0.3-0.4-0.5-0.9-0.7-1.3c-1.2-2-2.5-4-3.8-6zm2.6-24.2q-0.6-1.2-1.1-2.2q-0.6-1.1-1.3-2.1q-0.7-1.1-1.4-2.1q-0.8-0.9-1.6-1.9c-1-1.2-2.7-4-2.7-1.7c-0.1 3.5 3.3 8.7 4.9 11.7q0.7 1.2 1.3 2.4q0.7 1.1 1.5 2.2q0.7 1.1 1.5 2.2q0.8 1.1 1.6 2.2q-0.1-1.4-0.3-2.8q-0.3-1.4-0.6-2.7q-0.4-1.3-0.8-2.7q-0.5-1.3-1-2.5zm19.3 18.8c1.2-2 2.2-3.1-0.5-2q-0.8 0.4-1.6 0.8q-0.8 0.5-1.6 1q-0.7 0.5-1.4 1q-0.7 0.6-1.4 1.2q-0.8 0.7-1.6 1.5q-0.8 0.8-1.5 1.6q-0.7 0.8-1.4 1.7q-0.6 0.9-1.2 1.9q-0.3 0.4-0.6 0.9q-0.3 0.5-0.6 1q-0.3 0.6-0.6 1.1q-0.3 0.5-0.5 1q0 0.3 0 0.6q2.2-1.2 4.3-2.6q2-1.5 3.8-3.1q1.8-1.7 3.4-3.6q1.6-1.9 3-4zm1.6 21.8l0.1-0.9q0.3-1.8-0.5-0.5c-1 0-2.3 1.8-2.9 2.5q-0.7 0.7-1.4 1.5q-0.6 0.7-1.2 1.5q-0.5 0.9-1 1.7q-0.5 0.9-1 1.7q-0.5 1-0.9 2q-0.4 1-0.8 2q-0.3 1-0.6 2.1q-0.3 1-0.5 2.1q0.1 0.1 0.2 0.3q0 0.1 0.1 0.2q0.1 0.2 0.1 0.3q0.1 0.1 0.2 0.3c4.8-4.4 9-10.2 10.1-16.8zm31.5 13.3c-4.1-4.2-12.6-9.4-18.7-6.5c-4.9 2.4-0.7 10-4.2 13.5c-3.1 3.1-8.3 1.7-11.6 4.6c-3.9 3.6-3.2 10.4-2.5 15.2q1.9 0.6 3.7 1.4q1.8 0.8 3.5 1.7q1.7 0.9 3.3 2q1.7 1.1 3.2 2.3q3.2 2.7 6 5.9q2.7 3.2 4.8 6.8q2.1 3.6 3.5 7.5q1.5 4 2.2 8.1q0.9-2.6 1.2-5.3q0.3-2.7-0.1-5.4q-0.4-2.8-1.4-5.3q-1.1-2.5-2.7-4.7q-0.3 0-0.6-0.1q-0.4-0.1-0.7-0.2q-0.3-0.1-0.5-0.2q-0.3-0.2-0.6-0.4q-0.6-0.5-1-1.2q-0.5-0.7-0.6-1.5q-0.2-0.8 0-1.6q0.1-0.8 0.5-1.5q0.1 0 0.1-0.1q0 0 0.1 0q0-0.1 0-0.1q0.1 0 0.1-0.1q0.5-0.4 1.1-0.6q0.6-0.2 1.2-0.2q0.7-0.1 1.3 0.1q0.6 0.1 1.1 0.5q0.7 0.4 1.1 1q0.5 0.7 0.7 1.4q0.2 0.8 0.1 1.5q-0.1 0.8-0.5 1.5q0 0.1-0.1 0.2q-0.1 0.1-0.2 0.3q0 0.1-0.1 0.2q-0.1 0.1-0.2 0.1q1.5 2 2.5 4.2q1 2.2 1.6 4.5q0.6 2.4 0.7 4.8q0.1 2.4-0.3 4.8c12.1-18 20.3-41.5 3-59.1zm54.3 60.7c4.1-5.7 1-13.6-3.1-18.5c-2.1-2.4-4.7-3.9-6.1-6.8c-3.5-6.9 4.5-16.7-5.9-20.2q-0.9-0.3-1.8-0.5q-1-0.2-1.9-0.4q-1-0.1-2-0.2q-0.9-0.1-1.9 0q0 0-0.1 0q0 0-0.1 0q0 0 0 0q-0.1 0-0.1 0q-2.6 0.1-5.2 0.7q-2.5 0.7-4.8 1.8q-2.4 1.1-4.5 2.7q-2.1 1.5-3.8 3.5q0 0.4 0 0.9q0.1 0.5 0.1 0.9q0 0.5 0 1q0 0.4-0.1 0.9c-0.5 13.1-8.4 26.6-16.3 37.3q1.6-0.8 3.2-1.8q1.7-0.9 3.2-1.9q1.6-1 3.1-2.1q1.5-1.1 2.9-2.3c-0.3-1.4 0.1-3.2 1.7-3.7c1.7-0.7 3.8 0.6 4.5 2.2c0.7 1.5 0.4 3.6-1.2 4.3q-0.5 0.1-1 0.2q-0.4 0-0.9-0.1q-0.5-0.1-0.9-0.3q-0.4-0.2-0.7-0.5q-1.4 1-2.7 2q-1.4 1-2.8 1.9q-1.4 1-2.9 1.8q-1.4 0.9-2.9 1.7q2.5-0.1 5 0.1q2.6 0.1 5.1 0.5q2.5 0.4 4.9 1.1q2.5 0.6 4.9 1.5c2.2 0.8 4.8 1.8 7.3 3c9.5-0.4 22-2.4 27.8-10.7zm-65.6-23.5q-0.2 0.2-0.3 0.5q0 0.2 0 0.5q0.1 0.3 0.3 0.5q0.1 0.2 0.4 0.3q0.3 0.1 0.6 0.1q0.3 0 0.6-0.1q0.3-0.2 0.5-0.4q0.2-0.3 0.3-0.6c0.6-1.6-1.6-1.7-2.4-0.8zm45.3 71.5c0.4-3.3-1.2-5.1-1.8-8.2c-0.9-4.8 1-7.9 2.4-12.2c3.5-11.1-12-16.7-20.2-19q-2.4-0.6-4.9-1q-2.4-0.3-4.9-0.5q-2.4-0.1-4.9-0.1q-2.5 0.1-4.9 0.4q1.1 1.7 2.4 3.2q1.2 1.6 2.6 3.1q1.3 1.4 2.8 2.8q1.4 1.4 3 2.7q0.4-0.5 0.9-0.8q0.6-0.3 1.2-0.5q0.7-0.1 1.3 0q0.7 0.1 1.2 0.4q0.7 0.4 1.3 1q0.5 0.6 0.8 1.3q0.3 0.8 0.3 1.6q0 0.8-0.2 1.5q-0.3 0.7-0.8 1.2q-0.5 0.5-1.2 0.8q-0.6 0.3-1.4 0.3q-0.7 0.1-1.4-0.2q-0.7-0.2-1.2-0.7q-0.6-0.5-1-1.1q-0.4-0.6-0.6-1.3q-0.2-0.7-0.1-1.5q-1.6-1.2-3.1-2.6q-1.5-1.5-3-3q-1.4-1.5-2.7-3.1q-1.3-1.6-2.5-3.2q-0.8 3.9-1.2 8q-0.3 4.1-0.1 8.1q0.2 4.1 0.9 8.1q0.7 4 1.9 7.9q0.5 1.8 1.2 3.5q0.1 0.1 0.1 0.3q0.1 0.2 0.2 0.3q0 0.2 0.1 0.4q0.1 0.1 0.2 0.3c2.8 6.2 7.4 11.4 14.7 12.5c5.4 0.8 10.7-0.7 15.5-2.9c3.9-1.8 6.7-3.5 7.1-7.8zm-26.8-26.3c-0.2 0.8-0.1 1.6 0.9 1.7q0.3 0 0.6 0q0.3-0.1 0.6-0.2q0.3-0.2 0.5-0.4q0.2-0.3 0.3-0.6q0.1-0.2 0.1-0.4q0-0.3 0-0.5q-0.1-0.3-0.3-0.4q-0.1-0.2-0.3-0.4q-0.4 0-0.8 0q-0.3 0-0.6 0.2q-0.4 0.2-0.6 0.4q-0.2 0.3-0.4 0.6zm50.4 94.9c-18.4-8.6-48.5-14.5-58.3-17.5c20.2 2.1 39.6 6 58.1 14.5q-0.8-1.2-1.6-2.3q-0.8-1.1-1.6-2.2q-0.9-1.1-1.7-2.1q-0.9-1.1-1.8-2.1q-3.5-3.5-7.5-6.5q-3.9-3-8.2-5.4q-4.4-2.4-9-4.2q-4.7-1.7-9.5-2.8c-19.5-4.4-40.9-2-59.6 4.6c26.3 26.3 65.1 35.8 100.7 26z" />
						</g>
					</g>
				</g>
				<g id="Сгруппировать_308">
					<g id="Clip-Path: Сгруппировать_307-2" clip-path="url(#cp3)">
						<g id="Сгруппировать_307-2">
							<path id="Контур_234-2" fill-rule="evenodd" class="s0" d="m1112.3 253.6c2.5-4.2 8.1-6.8 12.8-7.2q0.8 0 1.5 0q0.8 0 1.5 0.1q0.7 0.1 1.5 0.3q0.7 0.2 1.4 0.5c-2.3-8.3 0.4-18.1 8.7-22c8.3-4 17.6-0.9 20.1 7.4q0.5-0.8 1.1-1.6q0.7-0.7 1.4-1.4q0.8-0.6 1.6-1.1q0.9-0.5 1.8-0.8c2.1-0.8 3.1-0.3 5.1 0c3.5 0.5 7-0.5 10.4 0c10.6 1.4 9.4 16.7 4.9 23q-0.5 0.7-1 1.4q-0.5 0.6-1.1 1.3q-0.5 0.6-1.1 1.2q-0.6 0.7-1.1 1.3c4.6-0.3 9.2 1.1 12.2 5c4.1 5.3 2.2 11.7-2.2 15.9c-5.6 5.4-3 1.7-5.4 6.7q-0.2 0.5-0.4 0.9q-0.2 0.4-0.4 0.7q-0.3 0.4-0.6 0.8q-0.3 0.3-0.6 0.6q-0.7 0.5-1.5 0.9q-0.8 0.4-1.7 0.6q-0.9 0.2-1.7 0.3q-0.9 0.1-1.8-0.1q-1 0-1.9-0.3q-0.9-0.2-1.8-0.6q-0.9-0.4-1.7-0.9q-0.8-0.5-1.5-1.1q0 0.3 0 0.7c-0.1 3.1-1.2 6.9-3.3 9.2c-2.9 3.1-6.2 2.1-10 2.6c-4.6 0.6-6.9 5-12.1 5.2q-1.4 0.2-2.8-0.1q-1.4-0.3-2.6-1q-1.3-0.6-2.3-1.6q-1.1-1-1.8-2.2c-3.6-6.5-1.8-14.9 2.1-20.8q-1.2 0.3-2.5 0.5q-1.3 0.2-2.6 0.4q-1.3 0.2-2.6 0.3q-1.3 0-2.6 0.1c-3.8 0-9-0.1-12.1-2.8c-3.5-2.9-2.1-8.7-3.1-12.7c-0.9-3.6-2.4-6-0.2-9.6zm45.8-17.5c-0.4-6.2-4.7-11.2-11.3-10.6q-1.4 0.1-2.7 0.5q-1.3 0.3-2.5 0.9q-1.2 0.5-2.3 1.3q-1.1 0.8-2.1 1.7c-4.9 5.1-5.6 12.8-3.2 19.2q0.4 0.2 0.8 0.5q0.3 0.3 0.7 0.6q0.3 0.3 0.7 0.6q0.3 0.3 0.7 0.7q1.8 1.8 3.9 3.5q2 1.6 4.2 3q2.2 1.4 4.6 2.6q2.3 1.2 4.7 2.2q-0.7-0.9-1.4-1.8q-0.7-0.9-1.3-1.8q-0.6-1-1.1-2.1q-0.4-1-0.8-2.1c-1-0.1-2.1-0.6-1.9-1.7c0.2-1.4 1.8-2.2 3-2.2c1 0 2.4 0.4 2.5 1.5q-0.1 0.4-0.2 0.7q-0.1 0.3-0.3 0.6q-0.3 0.3-0.5 0.5q-0.3 0.2-0.7 0.3q0.4 1.1 1 2.2q0.5 1.1 1.2 2.1q0.7 1 1.5 1.9q0.8 0.9 1.7 1.6q0-1 0-2.1c0.4-6.7-0.2-13.6 0.3-20.2q0.1-0.5 0.1-1q0.1-0.4 0.2-0.9q0.1-0.4 0.2-0.9q0.1-0.5 0.3-0.9c0-0.2 0-0.3 0-0.4zm29.4 2c-0.7-3.7-3-7.3-7.1-7.8c-1.4-0.2-3.1 0.5-4.6 0.5c-3.7 0.1-7.3-1.8-10.8 0.1q-0.8 0.4-1.5 1q-0.7 0.6-1.3 1.3q-0.6 0.7-1 1.5q-0.5 0.8-0.7 1.7q-0.1 0.1-0.1 0.1q0 0.1 0 0.2q-0.1 0-0.1 0.1q0 0.1 0 0.1c-1 3.3-0.8 7.2-0.7 10.7q0 1.3 0 2.6q0 1.4 0 2.7q-0.1 1.3-0.1 2.7q-0.1 1.3-0.2 2.6c-0.2 1.4-0.8 3.8-0.2 5.4q3.2-4.2 6.5-8.4q-0.1-0.3-0.2-0.7q0-0.4 0.1-0.7q0-0.4 0.2-0.7q0.1-0.3 0.3-0.6q0.3-0.5 0.8-0.7q0.4-0.3 0.9-0.4q0.5 0 1 0.1q0.5 0.2 0.9 0.5q0.4 0.4 0.6 0.9q0.2 0.5 0.2 1.1q0 0.6-0.1 1.1q-0.2 0.5-0.6 0.9q-0.2 0.3-0.5 0.5q-0.3 0.2-0.6 0.3q-0.3 0.1-0.7 0.1q-0.3-0.1-0.6-0.2q-3.2 4.1-6.3 8.1c6.3 1.4 15.5-7.3 19.2-10.9c4.3-4.2 8.6-9.3 7.3-15.8zm-10.3 48.2c5.3 0.4 6.8-5.9 9.9-8.7c3.5-3.3 7.6-6.2 6.4-11.8c-1.5-6.4-8.1-8.5-13.9-7.6c-4.4 4.2-10 8.3-15.1 9.2q0.9 0.3 1.8 0.6q0.9 0.2 1.9 0.4q0.9 0.1 1.8 0.1q1 0.1 1.9 0q0-0.3 0.1-0.6q0.1-0.3 0.3-0.6q0.2-0.3 0.5-0.4q0.2-0.2 0.5-0.3c0.7-0.2 1.4-0.1 2 0.2c0.6 0.4 1.1 0.9 1.3 1.5c0.3 0.6 0.3 1.3 0.1 2c-0.3 0.6-0.7 1.2-1.3 1.5q-0.4 0.1-0.7 0.1q-0.4 0-0.8-0.1q-0.3-0.1-0.6-0.3q-0.3-0.2-0.6-0.5q-0.9 0.1-2 0.1q-1 0-2-0.1q-1-0.1-1.9-0.3q-1-0.2-2-0.5q0.9 1.1 1.7 2.4q0.8 1.2 1.4 2.5q0.7 1.3 1.2 2.6q0.6 1.4 1 2.8c1.4 2.7 4 5.5 7.1 5.8zm-39.5 9.5c2 5.2 7.9 7.2 13.1 3.2c0.9-0.6 1.5-1.7 2.5-2.4q0.5-0.3 1.1-0.6q0.6-0.3 1.3-0.5q0.6-0.3 1.3-0.4q0.7-0.1 1.3-0.1c4-0.6 7.8 0.1 9.3-4.9q0.4-1.4 0.5-2.9q0.1-1.4 0-2.9q-0.1-1.5-0.5-2.9q-0.3-1.4-0.9-2.8q-0.7-1.4-1.4-2.8q-0.7-1.4-1.6-2.7q-0.8-1.3-1.8-2.6q-0.9-1.2-2-2.4q-0.2 1.9-0.6 3.7q-0.4 1.7-1.1 3.5q-0.6 1.7-1.6 3.3q-0.9 1.6-2 3q0.1 0.1 0.1 0.1q0 0.1 0.1 0.2q0 0 0 0.1q0.1 0 0.1 0.1q0.1 0.2 0.1 0.4q0.1 0.2 0 0.5q0 0.2-0.1 0.4q-0.1 0.2-0.2 0.4q-0.2 0.1-0.3 0.2q-0.2 0.1-0.4 0.2q-0.2 0.1-0.5 0.1q-0.2 0-0.4 0q-0.4 0-0.8 0q-0.4-0.1-0.8-0.3q-0.3-0.2-0.7-0.5q-0.3-0.2-0.5-0.6q0 0 0 0q0 0 0 0q0-0.1 0-0.1q0 0 0 0q-0.1 0-0.1 0q0-0.1 0-0.1q0 0 0 0q0 0 0 0q-0.1-0.2-0.2-0.5q0-0.2 0-0.4q0-0.3 0-0.5q0.1-0.2 0.2-0.5q0.1-0.2 0.3-0.4q0.2-0.2 0.4-0.3q0.3-0.1 0.6-0.2q0.2 0 0.5 0q0.1 0 0.3 0.1q0.1 0 0.3 0q0.1 0.1 0.2 0.1q0.1 0.1 0.3 0.1q1-1.3 1.9-2.8q0.9-1.5 1.5-3.1q0.6-1.6 1-3.3q0.4-1.7 0.5-3.4q-1.8 1.4-3.8 2.7q-2 1.3-4.1 2.5q-2.1 1.1-4.2 2q-2.2 0.9-4.5 1.7c-4.2 5.2-6.3 12.8-3.7 19.3zm-22.3-31.6c0.5 2.8-0.3 7.2 1.4 9.6c2.9 3.8 10.9 3 14.9 2.6q3-0.2 5.9-0.9q2.9-0.7 5.7-1.7q2.9-1.1 5.5-2.5q2.6-1.4 5.1-3.2q-0.6 0.1-1.3 0.1q-0.6 0.1-1.2 0q-0.6 0-1.2-0.1q-0.7 0-1.3-0.1q-0.1 0.2-0.3 0.5q-0.2 0.3-0.4 0.5q-0.2 0.2-0.5 0.3q-0.3 0.1-0.6 0.2q-0.6 0.1-1.1-0.1q-0.5-0.1-1-0.5q-0.4-0.3-0.7-0.8q-0.2-0.5-0.3-1c-0.1-0.6 0-1.2 0.3-1.7c0.3-0.6 0.8-1 1.4-1.2c0.5-0.2 1.2-0.2 1.7 0c0.6 0.2 1.1 0.6 1.4 1.1q0.8 0.2 1.6 0.3q0.8 0 1.5 0.1q0.8 0 1.6-0.1q0.8-0.1 1.6-0.2q-2.7-0.9-5.3-2q-2.6-1.2-5-2.6q-2.4-1.5-4.7-3.2q-2.2-1.7-4.2-3.7c-2-1.9-3.8-4.1-6.4-5c-4.4-1.5-10 0.3-13.2 3.3c-4.4 4.1-1.8 7.3-0.9 12z" />
						</g>
					</g>
				</g>
			</g>
		</g>
		<g id="Сгруппировать_371" style="opacity: .5">
			<g id="Elements_5-2">
				<g id="Сгруппировать_290-2">
					<path id="Контур_2-3" fill-rule="evenodd" class="s0" d="m1106.9-803.4q0.5-1 1.1-2.1q0.5-1 1.2-1.9q0.6-1 1.3-1.9q0.7-0.9 1.5-1.8c4.1-4.7 8.4-9.3 12.7-13.9c11.5-12.5 25.5-16.7 41.8-11.8c3.9 1.2 7 0.6 10.5-1c17.7-8.1 32.2-20.1 44.4-35.2c1.4-1.7 2.6-3.5 4.4-5.9c-5.4 0.6-9.7 1.9-13.9 1.3c-7.3-0.9-13 2-18.7 5.7c-13.3 8.8-27.8 8.5-42.5 4.7c-2.8-0.7-7.6-2.3-7.6-2.3c0 0 2.9-4.6 4.5-6.8q1.6-2.3 3.4-4.3q1.9-2.1 3.9-3.9q2.1-1.8 4.4-3.4q2.3-1.6 4.7-2.8c7.9-4.2 16.3-4.8 24.5-1.4c4.7 2.1 9.7 4.5 13.2 8c3.9 4 8 4.6 12.9 4.2c2.8-0.3 5.5-0.7 8.3-1.2q1.5-0.1 2.8-0.7q1.4-0.5 2.6-1.3q1.2-0.9 2.1-2q1-1.1 1.7-2.4c1.7-3.2 3.9-6.2 5.8-9.4c3.1-5.4 6.2-10.9 9.2-16.4c2.4-4.6 4.9-9.2 7.5-13.8l4.4-0.5c-6.2 11.1-12.1 22.3-18.7 33q-2.4 3.8-4.4 7.8q-2.1 3.9-3.9 8q-1.8 4.1-3.4 8.3q-1.5 4.1-2.7 8.4c-3.3 10.9-5 22-4 33.4c0.3 3.4 1.3 5.8 5.1 7.2c3.3 1.1 6.3 3.8 8.7 6.4c5.7 6.6 7.4 14.7 7.1 23.1q-0.1 1.8-0.3 3.7q-0.2 1.8-0.5 3.7q-0.3 1.8-0.7 3.6q-0.4 1.8-0.9 3.6c-0.5 1.5-1.1 5.8-1.5 5.5q-0.7-0.5-1.3-1q-0.6-0.5-1.2-1q-0.6-0.6-1.2-1.1q-0.5-0.5-1.1-1.1q-0.9-1-1.8-2.1q-0.9-1-1.8-2.1q-0.8-1.1-1.6-2.2q-0.8-1.2-1.6-2.3c-6.6-9.6-9.5-20.1-8.2-31.9c0.9-8.4 0.4-16.9 0.6-25.3c-3.2 4.5-5.3 9.2-7.9 13.6q-0.7 1.2-1.2 2.4q-0.6 1.3-1 2.6q-0.4 1.3-0.6 2.7q-0.2 1.3-0.3 2.7c-0.5 23.7-18.4 35.9-36.3 38.4q-1 0.1-1.9 0.2q-1 0.1-1.9 0.1q-1 0.1-1.9 0.1q-1 0-2 0q0.3-1.2 0.5-2.3q0.3-1.1 0.6-2.2q0.4-1.2 0.7-2.3q0.4-1.1 0.8-2.2q1.2-2.7 2.5-5.3q1.3-2.6 2.8-5.1q1.5-2.6 3.1-5q1.7-2.4 3.4-4.7c5-6.5 11.7-11.3 19.8-13q1.8-0.4 3.5-1.1q1.7-0.8 3.1-1.9q1.4-1.2 2.6-2.6q1.1-1.5 1.8-3.2c2.7-5.9 5.7-11.7 8.1-17.7c3-7.4 5.6-15 8.4-22.5c0.4-1.2 0.6-2.5 1.2-5.1c-15.6 19.4-32.9 34-55.1 42.1c-2.6 0.9-3.6 2.9-4.7 5q-1.5 2.7-3.3 5.2q-1.7 2.6-3.8 4.8q-2.1 2.3-4.5 4.3q-2.4 1.9-5 3.5c-12.3 7.8-24.2 8.9-38.2 8.6c-1.1 0-4.3-0.2-6.1-1.5zm98.7-13.7c-9.2 8.3-18.8 16.2-27.9 24.4c8.2-8.2 15.9-17 24.7-25.8c-13.2 1.1-30.4 20.1-33.5 36.2c17.9-0.8 37.9-16.1 36.7-34.8zm26.6 20.4l-10.4-19.2c-2.6 10.1 3.1 26.7 15.5 39.2c8-14.7 1.5-36-12.6-42.3c1.1 8.2 6.2 14.5 7.5 22.3zm-67.6-80.8c11.4-8.1 24.1-3.8 36.8-3.2c-16.5-16.8-40.2-13-52.8 8.8c11.7 8.3 36.3 5.5 48.7-6.2c-11.2-2.2-22-2.9-32.7 0.6zm-53.9 72.8c24.6 2.2 47.2-8.9 54.8-26.3l-30.3 10.9c8.9-6.7 19.8-9.5 30-13.8c-9.7-2.4-19.2-2.6-28 2.8c-10.4 6.4-18.1 15.8-25.8 25.1c-0.5 0.7-0.9 1.5-0.7 1.3z" />
					<path id="Контур_3-2" fill-rule="evenodd" class="s0" d="m1404.2-874.6c-7.8 5-15.8 9.9-23.4 15.2c-4.3 3-8.8 6-12.1 10q-3.6 4.3-6.3 9.2q-2.6 4.9-4.3 10.3q-1.6 5.3-2.2 10.9q-0.6 5.6-0.1 11.1c0.2 2.8 1 4.7 3.8 6.2q3.1 1.7 5.8 4q2.6 2.4 4.7 5.3q2 2.9 3.3 6.2q1.2 3.4 1.7 6.9c2.8 17.7-3.4 32.2-16.9 43.7q-0.5 0.5-1 0.9q-0.5 0.5-1.1 0.9q-0.6 0.4-1.2 0.8q-0.6 0.3-1.2 0.7c-0.4-1 0.1-3.6 0.2-4.1c1.2-8.5-1.2-16.5-3.6-24.4q-0.7-2-1.2-4q-0.6-1.9-1.1-3.9q-0.6-2-1.1-4q-0.4-2-0.9-4c-1.7-8.9-0.6-17.5 5.1-24.9c1.7-2.4 1.9-4.7 1.7-7.4q-0.2-2.9-0.2-5.9q0.1-2.9 0.5-5.9q0.3-2.9 1-5.8q0.7-2.9 1.7-5.7c0.7-2.1 3.5-7.5 4.3-9.6c-3.5 2.1-8.1 8-10.3 10.9q-3.7 4.8-7 9.9q-3.4 5-6.3 10.3q-2.9 5.4-5.5 10.9q-2.5 5.5-4.6 11.2c-5.5 15-10.3 30.3-16.3 45q-1.7 4.2-3.1 8.5q-1.4 4.3-2.5 8.7q-1.1 4.3-1.9 8.8q-0.8 4.4-1.3 8.9c-1.5 11.3-1.3 22.7 1.7 33.9c0.9 3.4 2.2 5.5 6.3 6.3c3.4 0.6 6.9 2.7 9.7 4.9c6.8 5.6 9.8 13.4 11 21.8q0.2 1.8 0.3 3.7q0.1 1.9 0.1 3.8q0 1.9-0.1 3.7q-0.1 1.9-0.3 3.8c-0.2 1.5-0.1 5.9-0.6 5.7q-0.7-0.4-1.4-0.8q-0.7-0.4-1.3-0.8q-0.7-0.4-1.4-0.9q-0.7-0.4-1.3-0.9q-1.1-0.8-2.2-1.7q-1-1-2.1-1.9q-1-0.9-2-1.9q-1-1-1.9-2c-8.2-8.5-12.9-18.4-13.6-30.4c-0.5-8.5-2.4-16.9-3.7-25.3c-2.4 5-3.7 10-5.5 14.9q-0.5 1.3-0.9 2.6q-0.3 1.4-0.5 2.7q-0.2 1.4-0.2 2.8q0.1 1.4 0.2 2.7c3.5 23.7-12.2 39-29.7 44.5q-0.9 0.3-1.8 0.5q-1 0.2-1.9 0.4q-1 0.2-1.9 0.4q-1 0.2-1.9 0.4q0-1.2 0.1-2.4q0.1-1.2 0.2-2.3q0.1-1.2 0.3-2.4q0.2-1.2 0.5-2.3q0.7-2.9 1.5-5.7q0.9-2.8 2-5.6q1-2.8 2.2-5.5q1.2-2.7 2.6-5.3c3.8-7.2 9.7-13.2 17.4-16.3q1.8-0.6 3.4-1.6q1.5-1.1 2.8-2.5q1.2-1.4 2.1-3q0.8-1.7 1.2-3.5c1.8-6.3 3.7-12.6 5.1-19c1.8-7.9 3.1-15.9 4.6-23.8c0.2-1.3 0.2-2.6 0.3-5.3c-12.2 21.9-27 39.4-47.7 51.3c-2.4 1.3-3.1 3.4-3.9 5.7q-1 3-2.3 5.8q-1.4 2.8-3.1 5.4q-1.7 2.6-3.7 5q-2.1 2.4-4.4 4.4c-10.9 9.8-22.6 13-36.6 15c-1.1 0.2-4.3 0.5-6.3-0.4q0.3-1.2 0.7-2.3q0.4-1.1 0.8-2.2q0.5-1 1.1-2.1q0.5-1 1.2-2c3.2-5.4 6.8-10.7 10.3-16c9.3-14.4 22.5-20.9 39.6-18.8c4.1 0.5 7.1-0.6 10.3-2.8c16.3-11 28.7-25.5 38.2-42.5c1.1-2 2.1-4 3.5-6.7c-5.3 1.5-9.4 3.5-13.6 3.7c-7.5 0.3-12.7 4.1-17.7 8.8c-11.8 11.1-26.2 13.2-41.5 11.9c-3-0.3-8-1-8-1c0 0 2.1-5.1 3.3-7.6q1.2-2.5 2.7-4.9q1.5-2.3 3.2-4.5q1.8-2.2 3.8-4.1q2-1.9 4.2-3.6c7.2-5.6 15.4-7.6 24.2-5.5c5 1.2 10.3 2.8 14.5 5.7c4.5 3.3 8.7 3.3 13.5 2c2.7-0.7 5.4-1.6 8.1-2.6c3.9-1.3 6.7-3.7 8-7.9c1.2-3.5 3-6.8 4.3-10.3c2.2-6 4.3-11.9 6.3-17.9c6.7-20.1 13.7-40 25.8-59.1c-6.8 2.6-12.3 5.4-18.1 6.7c-8.3 1.8-13.5 6.6-16.7 14q-0.1 0.2-0.1 0.3q-0.1 0.2-0.2 0.3q0 0.2-0.1 0.3q-0.1 0.2-0.2 0.3c-4.8 7.8-9.8 15.6-17.2 21.3q-2.2 1.7-4.5 3.2q-2.4 1.5-4.9 2.8q-2.5 1.2-5.1 2.2q-2.6 0.9-5.3 1.6q-1 0.2-1.9 0.4q-1 0.2-2 0.3q-0.9 0.1-1.9 0.2q-1 0-2 0c0 0 0.8-4.1 1.2-7.2q0-0.2 0-0.3q0.1-0.2 0.1-0.3q0-0.2 0.1-0.4q0-0.1 0.1-0.3q0.8-3.5 1.9-6.9q1-3.5 2.3-6.9q1.3-3.3 2.8-6.6q1.6-3.3 3.3-6.4c5.9-10.4 14.8-15.1 26.5-14.9c3.3 0.1 6.7 0.1 9.8 1.1c5.9 2 11 0.2 16.6-2.3c-3.8-2.7-7.4-5.2-10.7-7.8c-3.1-2.4-6-2.9-9.7-1.3c-18.2 8-35.5 3.9-52.4-4.3q-1-0.6-2-1.1q-1-0.6-1.9-1.2q-1-0.6-1.9-1.2q-1-0.7-1.9-1.3c0 0 4.1-3.2 6.5-4.9c8.4-6.1 17.7-10.5 28.1-11.7c13.1-1.6 24 3.7 29.8 15.6c3.8 7.6 10.3 11.7 16.6 16.2q0.8 0.6 1.8 0.9q0.9 0.4 1.9 0.4q0.9 0.1 1.9-0.1q1-0.2 1.8-0.6c6.1-2.6 11.6-5.6 15.9-11c14.5-18.2 33.4-30.7 53.9-41q0.3-0.1 0.5-0.2q0.3-0.1 0.6-0.2q0.3-0.1 0.6-0.2q0.3-0.1 0.6-0.1zm-99.2 42c-9.6-5.6-20-7.1-30.5-7.9c11.3-3.7 21.6-0.2 32 4.4c-0.9-2.4-2.3-4.7-3.9-6.8c-1.7-2-3.7-3.8-5.9-5.2c-2.2-1.4-4.7-2.5-7.2-3.2c-2.5-0.7-5.2-0.9-7.8-0.8c-12 0.6-22.1 5.8-32.1 13c14.2 11.9 39.5 14.7 55.4 6.5zm-9.1 16.7c-8.6 0.4-15.6 3.9-20.4 11.2c-6.4 9.6-10.1 20.9-13.1 33.1q0.8-0.1 1.7-0.2q0.8-0.2 1.7-0.4q0.8-0.2 1.6-0.4q0.9-0.2 1.7-0.5q4.2-1.3 8.2-3.3q3.9-2 7.5-4.7q3.5-2.6 6.5-5.9q3-3.3 5.4-7c3.1-4.7 8.6-13.4 11.6-18.4c-8.3 2.6-26.5 11.4-36.9 28.5c1-5.8 6.6-13.9 14.1-18.8c6.8-4.6 14.2-8.2 22.7-13.1c-4.9 0-8.6-0.2-12.3-0.1zm-49.5 148.3c-9.9 5.6-19.2 10.8-28.4 16c7.8-8.3 18.1-12.8 27.5-18.9c-10.1-0.7-19.5 0.7-27.3 7.5c-9.4 8.2-15.5 18.8-21.5 29.5c-0.3 0.7-0.7 1.6-0.5 1.3c24.9-1.9 45.5-16.8 50.2-35.4zm110.9-130.7c1.9 14.2 8.1 27.6 5.2 42q-0.1 0.3-0.3 0.6q-0.1 0.3-0.3 0.6q-0.2 0.2-0.4 0.5q-0.3 0.2-0.6 0.4c2.1-16.1-4.6-30.5-7.3-46.7q-0.3 0.3-0.6 0.7q-0.3 0.3-0.6 0.7q-0.3 0.3-0.6 0.7q-0.3 0.4-0.5 0.7q-1.2 2.5-2 5.1q-0.8 2.6-1.2 5.3q-0.3 2.6-0.2 5.3q0.1 2.8 0.6 5.4c1 4.7 2.4 9.3 3.6 13.9c2 7.4 4 14.7 6.2 22.5c18.1-14.3 19.6-48.2-1-57.7zm-119.8 84.5c10.1-10 23.5-7.8 36.2-9.4c-19.3-14-42.3-6.2-51.1 17.7c13.1 6.2 37.1-0.7 47.5-14.4c-11.5-0.3-22.4 0.7-32.6 6.1zm51.1 53.3c-7.7 9.8-15.9 19.2-23.7 29c6.8-9.6 13.1-19.7 20.3-30c-12.9 3.4-26.9 25.3-27.2 41.8c17.7-3.8 35-22.5 30.6-40.8zm18.7-5.2c2.5 8 8.7 13.4 11.3 21l-13.6-17.4c-0.9 10.5 7.6 26.1 22.1 36.4c5.4-15.9-4.7-36.1-19.8-40z" />
					<path id="Контур_4-3" fill-rule="evenodd" class="s0" d="m1382-667.9c3-3 6.2-6.1 9.4-8.9c3.2-2.7 6.5-5.3 9.7-7.9c-5.8 6.3-11.8 11.6-17.4 18c-3.3 3.9-6.2 7.2-6.2 7.2c1.2 6.8 3.4 20.7 4.1 27.6q0.1 0.8 0.1 1.6q0 0.7-0.1 1.5q-0.1 0.8-0.2 1.6q-0.2 0.7-0.4 1.5q-0.2 0.4-0.4 0.8q-0.3 0.4-0.6 0.7q-0.4 0.3-0.8 0.5q-0.4 0.2-0.9 0.3q-0.4 0-0.9-0.2q-0.4-0.2-0.8-0.4q-0.4-0.3-0.8-0.6q-0.3-0.4-0.5-0.8q-0.3-0.7-0.6-1.4q-0.2-0.6-0.4-1.3q-0.2-0.7-0.4-1.4q-0.1-0.7-0.2-1.5q-0.5-2.8-0.6-5.6q-0.2-2.8-0.1-5.7q0.1-2.8 0.4-5.6q0.3-2.8 1-5.6c0.1-0.8 0.7-3.7 0.8-4.5c0.1 0 0.1 0 0-0.1c-0.2 0-0.1 0 0 0.1q0 0 0 0q0-0.1 0-0.1q0 0 0 0.1q0 0 0 0c-3.6 4.8-8.6 11.3-12.2 16.1q-0.5 0.8-1 1.5q-0.5 0.8-1 1.5q-0.4 0.8-0.8 1.6q-0.4 0.8-0.8 1.7c1 5.2 2.6 14.7 3 19.9c0.2 2.2-0.2 5.6-2.5 5.6c-3.3 0.1-3.5-5.8-3.6-9.4c-0.1-3.8 0.5-8.8 0.8-12.6c-3.6 7-8 14.9-11.5 21.7q1.6 2.4 3 4.9q1.3 2.5 2.3 5.2q1 2.6 1.7 5.4q0.7 2.8 1.1 5.6c0.3 1.9 0.5 4.3-1.8 4.9c-2.5 0.7-3.5-1.6-4-3.3c-1.2-4.7-2.1-9.4-3.1-14.1q-0.3-1.4-0.6-2.9c-2.7 4.8-4.2 9.7-6.4 14.3c-1.7 4.7-2.4 7.2-2.4 7.2c2 2.8 11.5 18.7 7.4 20.3c-3.7 1.8-5.8-5.4-6.7-9.2c-0.4-2-1.3-6.4-1.9-8.3q0 0 0 0q0 0 0 0q0 0 0 0q0 0 0 0c-0.2 0-0.1 0 0 0c-2.6 10.6-6 23.9-8.5 34.3c1.1 1.1 7.8 8.9 10.2 12.1c0.9 1.1 3.7 5.9 1 7.5c-3.2 1.9-5.6-3-6.2-4.2c-1.3-2.5-4.6-9.5-5.5-11.2c-1.2 5.9-2.1 10.8-3 15.6c-1.7 8.6-3.9 17-8.4 24.6c-1.1 1.9-3.1 4.4-4.4 1.3c-1.9-5.1 5.1-28 11.9-42.1c-3.4 3-24.2 13.5-25.9 7.7c-1.3-4.3 9.6-7.6 12.3-8.4c3.7-1.2 10.8-2.6 14.4-3.9q0.6-1.5 1.2-2.9q0.5-1.5 1-3q0.5-1.4 0.9-2.9q0.5-1.5 0.9-3.1c-1.2 1.1-3.2 3.6-4.3 4.4c-2.3 2-4.6 4-7.1 5.8c-1.6 1.1-3.8 2.9-5.6 0.7c-1.6-2.1 0.6-4 1.9-5.3c2.7-2.6 11.5-8.5 12.3-9.3c-5.5-1-11.7-1.1-16.7-2.2c-2.5-0.6-9.8-2.3-8.8-5.9c1.1-4.1 5.3-3.3 7.5-3q2.4 0.4 4.8 0.9q2.3 0.5 4.6 1.2q2.3 0.8 4.6 1.7q2.2 0.9 4.3 2c1.4 0.7 2.8 1.3 4.4 2c1.8-6.4 3.5-12.3 5.3-18.5c-4.8 2.2-8.8 4.1-12.9 5.8c-1.6 0.6-5.9 3-7-0.2c-0.9-2.7 3.1-3.7 4.5-4.1c4.4-1.3 11.3-2.3 15.7-3.7c0 0 3.1-7.2 4.1-10.4q-1 0.9-2.1 1.8q-1 0.9-2.1 1.6q-1.2 0.8-2.3 1.5q-1.2 0.8-2.4 1.4c-2.9 1.4-7.4 4.7-9.1 0.5c-2.6-6 14.1-8.8 20-13.4c-3.3-0.9-15.5-0.6-21.2-6c-2.2-1.8-1.4-4.4 1.4-4.9q0.7-0.2 1.3-0.3q0.7 0 1.4 0q0.6 0 1.3 0q0.6 0.1 1.3 0.3c4.4 1.3 15.2 6.4 16.9 7.2q2.5-5.7 5.2-11.2q2.8-5.5 5.9-10.8q3-5.4 6.4-10.5q3.3-5.2 6.9-10.2c-2.1 0.5-3.1 0.9-4.2 1c-3.8 0.5-7.6 1.2-11.5 1.4c-2.1 0.2-4.7 0.2-5.5-2.6c-0.5-1.7 1.5-3.1 5.3-3.7c1.2-0.1 2.3-0.2 3.4-0.3c1.4 0 2.9-0.1 5.5-0.2q-0.6-0.4-1.2-0.8q-0.6-0.4-1.1-0.8q-0.6-0.4-1.2-0.8q-0.5-0.5-1-0.9q-1.2-1.1-2.4-2.2q-1.2-1.1-2.3-2.3q-1.2-1.1-2.3-2.3q-1.1-1.2-2.2-2.4q-0.3-0.5-0.4-1q-0.2-0.6-0.2-1.1q-0.1-0.6 0.1-1.2q0.1-0.5 0.3-1q0.4-0.4 0.9-0.8q0.5-0.3 1-0.4q0.5-0.2 1.1-0.3q0.6 0 1.1 0.1q1.2 0.2 2.2 0.6q1.1 0.3 2.2 0.7q1.1 0.4 2.1 0.9q1 0.6 2 1.1c5.1 3.3 9.8 7.1 14.9 10.8c2.9-3 5.8-6.2 8.9-9.3zm-47.8 87.5c0.1 0 0.2 0 0 0q0 0 0 0q0 0 0 0q0 0 0 0q0 0 0 0zm37.6-76.6c-7.6-4.7-21.1-15.5-23.7-12.5c-2.2 2.5 12.3 12.8 20.7 16.6zm-51.9 44.9c-1.6 2.3 21.1 6.6 21.1 6.6c0 0-19.5-8.7-21.1-6.6zm5 47.3c-4.7-3.5-23.8-8.2-24-5.5c-0.2 2.4 16.9 5.3 24 5.5zm52.8-61.6c4.5 1-0.1-17.9-1.6-26.3c-0.6 7-1.1 25.6 1.6 26.3zm-66.5 124.2c2.6 0.2 8.9-19.5 11.8-38.8c-2.1 5.4-14.2 38.6-11.8 38.8zm-12.5-33.4c0.9 1.4 16.9-5.7 20.9-8.3c-5 1.8-22.5 5.8-20.9 8.3zm23-55.5c1.2 2 13.4-5.5 17.3-10.1c-4.4 2.5-18.2 8.5-17.3 10.1zm-10.6 41.4c1.3 1.3 11.9-9.9 15.1-12.3c-3.2 2.4-16 11.3-15.1 12.3zm15.1-12.3q0-0.1 0.1-0.1c0.2 0.4-0.3-0.4 0 0q-0.1 0-0.1 0.1zm19.3-44.8c-0.3 0.1 3.8 20.5 5.5 20.5c2.7 0.1-2.1-16.3-5.5-20.5z" />
					<path id="Контур_5-3" fill-rule="evenodd" class="s0" d="m1274.2-606.5c1.5-1.7 4.7-1.4 6.6 0c2 1.4 3.4 4.5 2 6.7q-0.3 0.5-0.7 0.8q-0.4 0.4-0.9 0.7q-0.5 0.3-1 0.4q-0.6 0.1-1.1 0.1c-2.8 0-4.3-2.8-4.6-3.3c-0.3-0.5-1.8-3.5-0.3-5.4zm1.3 4.5c0.5 1.7 2.6 2.1 3 2.1c0.5 0.1 1.8 0.4 2.5-0.4c0.8-1 0-3.3-1.5-4.3c-0.1-0.1-1.9-1.4-3.3-0.4q-0.3 0.3-0.5 0.6q-0.2 0.4-0.3 0.8q-0.1 0.4-0.1 0.8q0 0.4 0.2 0.8z" />
					<path id="Контур_6-2" fill-rule="evenodd" class="s0" d="m1330.7-735.3c2 1 2.4 4.2 1.5 6.4c-0.9 2.3-3.7 4.3-6.1 3.5q-0.5-0.2-1-0.5q-0.4-0.3-0.8-0.7q-0.4-0.4-0.6-0.9q-0.3-0.5-0.4-1.1c-0.6-2.7 1.8-4.8 2.2-5.2c0.4-0.4 3-2.5 5.2-1.5zm-4.1 2.2c-1.6 1-1.4 3.1-1.4 3.5c0 0.5 0.1 1.8 1 2.3c1.1 0.6 3.2-0.7 3.9-2.4c0-0.1 0.8-2.2-0.4-3.3q-0.3-0.2-0.7-0.4q-0.4-0.1-0.8-0.1q-0.4 0-0.8 0.1q-0.4 0.1-0.8 0.3z" />
					<path id="Контур_7-3" fill-rule="evenodd" class="s0" d="m1367.8-556.7c2 1 2.4 4.2 1.5 6.4c-0.9 2.3-3.6 4.3-6.1 3.5q-0.5-0.2-1-0.5q-0.4-0.4-0.8-0.8q-0.4-0.4-0.6-0.9q-0.3-0.5-0.4-1c-0.6-2.8 1.8-4.9 2.2-5.3c0.4-0.3 3-2.5 5.2-1.4zm-4.1 2.2c-1.5 0.9-1.4 3-1.4 3.4c0 0.5 0.1 1.9 1 2.3c1.1 0.6 3.2-0.7 3.9-2.4c0.1-0.1 0.8-2.2-0.4-3.2q-0.3-0.3-0.7-0.4q-0.4-0.1-0.8-0.2q-0.4 0-0.8 0.1q-0.4 0.2-0.8 0.4z" />
					<path id="Контур_8-3" fill-rule="evenodd" class="s0" d="m1107.3-842.2c2 1 2.4 4.2 1.5 6.4c-0.9 2.3-3.7 4.3-6.1 3.5q-0.5-0.2-1-0.5q-0.5-0.3-0.8-0.8q-0.4-0.4-0.7-0.9q-0.2-0.5-0.3-1c-0.7-2.8 1.8-4.9 2.2-5.3c0.4-0.3 3-2.5 5.2-1.4zm-4.1 2.2c-1.6 0.9-1.5 3-1.4 3.4c0 0.5 0.1 1.9 0.9 2.3c1.2 0.6 3.3-0.6 4-2.3c0-0.2 0.8-2.2-0.4-3.3q-0.4-0.3-0.7-0.4q-0.4-0.1-0.9-0.1q-0.4-0.1-0.8 0.1q-0.4 0.1-0.7 0.3z" />
					<path id="Контур_9-3" class="s0" d="m1334.4-701.6q-0.1-0.1-0.1-0.3q-0.1-0.2-0.1-0.3q-0.1-0.2 0-0.4q0-0.1 0-0.3q0.1-0.1 0.2-0.2q0.1-0.1 0.2-0.2q0.1-0.1 0.2-0.2q0.2-0.1 0.4-0.1q0.2-0.1 0.4-0.1q0.2 0 0.5 0.1q0.2 0 0.4 0.1q0.1 0.1 0.3 0.2q0.1 0.1 0.2 0.2q0.1 0.1 0.2 0.3q0.1 0.1 0.2 0.3q0.1 0.2 0.1 0.5q0 0.3-0.1 0.5q-0.1 0.3-0.2 0.5q-0.2 0.2-0.4 0.4c-0.8 0.4-1.8-0.3-2.1-0.7q-0.2-0.1-0.3-0.3z" />
					<path id="Контур_10-3" class="s0" d="m1247.5-587q-0.1-0.2-0.1-0.3q-0.1-0.2-0.1-0.4q-0.1-0.1-0.1-0.3q0.1-0.2 0.1-0.3q0.1-0.1 0.2-0.2q0-0.2 0.1-0.3q0.1-0.1 0.3-0.1q0.2-0.1 0.4-0.2q0.2 0 0.4 0q0.2 0 0.4 0q0.3 0.1 0.4 0.2q0.2 0.1 0.3 0.2q0.2 0.1 0.3 0.2q0.1 0.1 0.2 0.2q0.1 0.2 0.1 0.3q0.1 0.3 0.1 0.6q0.1 0.2 0 0.5q-0.1 0.2-0.3 0.5q-0.1 0.2-0.3 0.3c-0.8 0.5-1.8-0.3-2.1-0.7q-0.2-0.1-0.3-0.2z" />
					<path id="Контур_11-3" class="s0" d="m1191.3-728.6q-0.1-0.1-0.2-0.3q0-0.1-0.1-0.3q0-0.2 0-0.4q0.1-0.1 0.1-0.2q0.1-0.2 0.1-0.3q0.1-0.1 0.2-0.2q0.1-0.1 0.2-0.2q0.2-0.1 0.5-0.1q0.2-0.1 0.4-0.1q0.2 0 0.4 0.1q0.2 0 0.4 0.1q0.2 0.1 0.3 0.2q0.2 0.1 0.3 0.2q0.1 0.2 0.2 0.3q0.1 0.1 0.1 0.3q0.1 0.2 0.1 0.5q0 0.3 0 0.5q-0.1 0.3-0.3 0.5q-0.1 0.2-0.3 0.4c-0.8 0.4-1.8-0.3-2.2-0.7q-0.1-0.1-0.2-0.3z" />
					<path id="Контур_12-2" class="s0" d="m1080.5-802.3q-0.1-0.1-0.2-0.3q0-0.1-0.1-0.3q0-0.2 0-0.3q0-0.2 0.1-0.3q0.1-0.1 0.1-0.3q0.1-0.1 0.2-0.2q0.1-0.1 0.2-0.2q0.2-0.1 0.4-0.1q0.3-0.1 0.5-0.1q0.2 0 0.4 0.1q0.2 0.1 0.4 0.2q0.2 0 0.3 0.1q0.1 0.1 0.3 0.3q0.1 0.1 0.2 0.2q0.1 0.2 0.1 0.3q0.1 0.3 0.1 0.5q0 0.3 0 0.6q-0.1 0.2-0.3 0.4q-0.1 0.3-0.3 0.4c-0.8 0.5-1.8-0.3-2.2-0.7q-0.1-0.1-0.2-0.3z" />
				</g>
				<g id="Сгруппировать_309-2">
					<g id="Clip-Path: Сгруппировать_307-3" clip-path="url(#cp4)">
						<g id="Сгруппировать_307-3">
							<path id="Контур_234-3" fill-rule="evenodd" class="s0" d="m1248.9-390.1c-4.9-0.1-10-3.6-12.7-7.5q-0.4-0.7-0.8-1.3q-0.3-0.7-0.6-1.4q-0.3-0.7-0.5-1.4q-0.2-0.7-0.3-1.4c-6 6.1-15.9 8.6-23.4 3.4c-7.5-5.2-9.6-14.8-3.6-21.1q-1-0.1-2-0.2q-0.9-0.2-1.8-0.5q-1-0.4-1.8-0.9q-0.9-0.4-1.6-1c-1.7-1.5-1.8-2.6-2.6-4.5c-1.3-3.3-3.9-5.8-5.2-9c-4.1-9.9 9.8-16.6 17.5-15.8q0.8 0.1 1.7 0.2q0.8 0.2 1.6 0.3q0.9 0.2 1.7 0.3q0.8 0.2 1.6 0.4c-2.5-3.9-3.6-8.6-1.8-13.1c2.6-6.2 9.1-7.8 15-6.1c7.4 2.2 2.9 1.8 8.5 1.4q0.4-0.1 0.9-0.1q0.4-0.1 0.9 0q0.4 0 0.9 0.1q0.4 0.1 0.8 0.2q0.8 0.4 1.6 0.9q0.7 0.5 1.3 1.1q0.7 0.7 1.2 1.4q0.4 0.7 0.8 1.6q0.4 0.8 0.7 1.8q0.2 0.9 0.3 1.8q0.1 1 0.1 1.9q0 1-0.2 1.9q0.3-0.2 0.6-0.3c2.7-1.5 6.5-2.5 9.6-1.8c4.1 0.9 5 4.3 7.2 7.4c2.9 3.7 7.8 3.5 10.6 7.8q0.8 1.2 1.3 2.5q0.4 1.4 0.5 2.8q0.1 1.4-0.3 2.8q-0.3 1.4-1 2.7c-3.8 6.3-11.9 8.9-19.1 8.5q0.9 0.9 1.8 1.9q0.8 1 1.6 2.1q0.8 1 1.5 2.1q0.7 1.1 1.4 2.2c2 3.3 4.4 7.9 3.7 11.9c-0.8 4.5-6.5 6.2-9.5 9c-2.7 2.6-4 5.1-8.1 5zm-38.1-30.9c-5.2 3.4-7.3 9.6-3.5 15.1q0.7 1.1 1.7 2q0.9 1 2 1.8q1.1 0.7 2.3 1.3q1.3 0.6 2.6 0.9c6.8 1.7 13.9-1.5 18.1-6.8q0.1-0.4 0.1-0.9q0.1-0.5 0.2-0.9q0.1-0.5 0.2-0.9q0.1-0.5 0.2-0.9q0.7-2.6 1.1-5.2q0.4-2.6 0.5-5.2q0.1-2.6 0-5.2q-0.2-2.6-0.6-5.2q-0.3 1.1-0.7 2.1q-0.5 1.1-1 2q-0.6 1-1.2 2q-0.7 0.9-1.4 1.8c0.4 0.9 0.4 2.1-0.6 2.5c-1.3 0.6-2.8-0.4-3.4-1.5c-0.5-0.9-0.9-2.3 0.1-2.9q0.3-0.2 0.7-0.2q0.3-0.1 0.6 0q0.4 0 0.7 0.2q0.3 0.1 0.6 0.4q0.8-1 1.4-2q0.7-1 1.2-2.1q0.5-1 0.9-2.2q0.4-1.1 0.6-2.3q-0.9 0.5-1.9 1c-6 3-11.6 7-17.6 9.9q-0.5 0.2-0.9 0.4q-0.4 0.1-0.9 0.3q-0.4 0.1-0.9 0.3q-0.4 0.1-0.9 0.2c-0.1 0.1-0.2 0.1-0.3 0.2zm-13-26.5c-2.8 2.4-4.8 6.2-3.2 10c0.6 1.3 2 2.5 2.7 3.8c2 3.1 2.1 7.2 5.5 9.3q0.8 0.4 1.6 0.7q0.9 0.4 1.8 0.5q0.9 0.2 1.8 0.2q0.9 0 1.8-0.2q0.1 0 0.2-0.1q0.1 0 0.1 0q0.1 0 0.2 0q0 0 0.1 0c3.4-0.8 6.6-2.9 9.6-4.8q1.1-0.7 2.2-1.3q1.2-0.7 2.4-1.3q1.1-0.7 2.3-1.3q1.2-0.6 2.4-1.1c1.3-0.6 3.7-1.3 4.7-2.5q-5.2-0.8-10.5-1.5q-0.2 0.3-0.5 0.5q-0.3 0.2-0.6 0.3q-0.3 0.2-0.7 0.2q-0.4 0-0.7 0q-0.5 0-1-0.3q-0.4-0.2-0.8-0.7q-0.3-0.4-0.4-0.9q-0.1-0.5 0-1q0.2-0.5 0.5-1q0.3-0.4 0.8-0.7q0.5-0.3 1-0.4q0.6-0.1 1.1 0q0.3 0.1 0.6 0.2q0.4 0.2 0.6 0.4q0.3 0.2 0.4 0.5q0.2 0.3 0.2 0.7q5.1 0.7 10.2 1.4c-2-6.2-14.1-9.8-19.1-11.2c-5.8-1.6-12.3-2.8-17.3 1.6zm46.8-15.2c-2.2-4.9-8.5-2.9-12.4-4.2c-4.6-1.4-9.2-3.5-13.4 0.4c-4.8 4.4-3.3 11.2 0.3 15.8c5.9 1.7 12.2 4.5 15.5 8.4q-0.1-0.9-0.4-1.8q-0.2-0.9-0.5-1.8q-0.4-0.9-0.8-1.7q-0.5-0.8-1-1.6q-0.3 0.2-0.6 0.2q-0.3 0.1-0.6 0q-0.4 0-0.6-0.2q-0.3-0.1-0.6-0.3c-0.4-0.5-0.7-1.2-0.7-1.8c-0.1-0.7 0.2-1.4 0.6-1.9c0.4-0.5 1-0.9 1.7-1c0.7-0.2 1.3 0 1.9 0.3q0.3 0.2 0.5 0.6q0.2 0.3 0.3 0.7q0.1 0.3 0 0.7q0 0.4-0.2 0.7q0.6 0.8 1.2 1.7q0.5 0.8 0.9 1.8q0.4 0.9 0.7 1.8q0.3 1 0.5 2q0.6-1.4 1.2-2.7q0.7-1.2 1.5-2.5q0.8-1.2 1.7-2.3q0.9-1.2 1.9-2.2c1.6-2.6 2.7-6.3 1.4-9.1zm28.1 29.5c3.4-4.4 2.2-10.5-3.8-13c-1.1-0.5-2.3-0.5-3.3-0.9q-0.6-0.3-1.2-0.7q-0.5-0.4-1-0.8q-0.5-0.5-1-1q-0.4-0.5-0.8-1.1c-2.5-3.1-3.8-6.8-8.8-5.6q-1.4 0.4-2.8 1q-1.3 0.6-2.5 1.5q-1.2 0.8-2.3 1.8q-1 1.1-1.9 2.3q-0.9 1.2-1.8 2.5q-0.8 1.4-1.5 2.8q-0.7 1.4-1.3 2.8q-0.6 1.5-1.1 3q1.7-0.8 3.4-1.3q1.8-0.6 3.6-0.8q1.8-0.3 3.7-0.3q1.8 0 3.6 0.2q0-0.1 0.1-0.1q0-0.1 0-0.1q0.1-0.1 0.1-0.2q0.1 0 0.1-0.1q0.1-0.2 0.3-0.3q0.2-0.1 0.4-0.2q0.2-0.1 0.4-0.1q0.2-0.1 0.4 0q0.2 0 0.4 0.1q0.2 0.1 0.4 0.3q0.1 0.1 0.3 0.3q0.1 0.2 0.2 0.3q0.2 0.4 0.4 0.8q0.1 0.4 0.1 0.8q0 0.4 0 0.8q-0.1 0.4-0.3 0.8q0 0 0 0q0 0-0.1 0.1q0 0 0 0q0 0 0 0q0 0 0 0q0 0.1 0 0.1q0 0 0 0q-0.1 0-0.1 0q-0.1 0.2-0.3 0.4q-0.1 0.1-0.3 0.3q-0.2 0.1-0.5 0.2q-0.2 0-0.4 0.1q-0.3 0-0.6-0.1q-0.2-0.1-0.5-0.2q-0.2-0.2-0.4-0.4q-0.1-0.2-0.2-0.5q-0.1-0.1-0.1-0.3q-0.1-0.1-0.1-0.2q-0.1-0.2-0.1-0.3q0-0.1 0-0.3q-1.7-0.2-3.4-0.2q-1.8 0-3.5 0.2q-1.7 0.3-3.3 0.8q-1.7 0.5-3.2 1.3q2.2 0.9 4.3 1.9q2.1 1.1 4.1 2.3q2 1.3 3.9 2.7q1.9 1.4 3.6 3c6.7 1 14.3-0.9 18.7-6.4zm-16.2 35.1c2.2-1.8 6.3-3.3 7.5-6c1.8-4.4-2.8-10.9-5.1-14.2q-1.7-2.5-3.8-4.7q-2-2.2-4.3-4.1q-2.4-1.9-4.9-3.5q-2.6-1.6-5.3-2.8q0.4 0.5 0.7 1q0.3 0.5 0.6 1.1q0.3 0.5 0.6 1.1q0.2 0.6 0.4 1.2q0.3-0.1 0.7 0q0.3 0 0.6 0.1q0.3 0.1 0.5 0.3q0.3 0.2 0.5 0.4q0.3 0.4 0.5 1q0.1 0.5 0 1q-0.1 0.6-0.3 1.1q-0.3 0.4-0.7 0.8c-0.5 0.3-1.1 0.5-1.7 0.5c-0.6 0-1.2-0.2-1.7-0.6c-0.4-0.3-0.8-0.9-0.9-1.5c-0.1-0.6 0-1.2 0.3-1.7q-0.3-0.8-0.6-1.5q-0.3-0.7-0.7-1.4q-0.3-0.7-0.8-1.3q-0.4-0.7-1-1.3q0.7 2.8 0.9 5.6q0.3 2.8 0.3 5.6q0 2.9-0.4 5.7q-0.4 2.8-1.1 5.5c-0.6 2.6-1.7 5.3-1.1 8.1c0.8 4.5 5.2 8.4 9.4 9.7c5.8 1.8 7.2-2 10.9-5.2z" />
						</g>
					</g>
				</g>
			</g>
			<g id="Elements_6-2">
				<g id="Сгруппировать_7-2">
					<path id="Контур_2-4" fill-rule="evenodd" class="s0" d="m253.6-700.6c-2.6-1.7-5-4.8-6.8-7.4c-4-5.6-7.6-11.4-11.4-17.1c-10.2-15.6-11-31.5-1.5-47.5c2.3-3.8 2.5-7.4 1.7-11.5c-3.8-20.9-12.8-39.5-25.6-56.3c-1.4-2-3.1-3.8-5.1-6.3c-0.8 5.8-0.6 10.8-2.2 15.1c-2.9 7.5-1.4 14.3 1.1 21.3c5.8 16.5 1.7 31.8-6.3 46.4c-1.5 2.8-4.4 7.5-4.4 7.5c0 0-4.1-4.3-6.1-6.6q-2-2.3-3.7-4.8q-1.7-2.5-3-5.2q-1.4-2.7-2.5-5.5q-1-2.8-1.7-5.8c-2.4-9.5-0.8-18.5 5-26.3c3.4-4.4 7.3-9.1 12-11.9c5.2-3.1 7-7.3 7.8-12.5c0.4-3.1 0.7-6.1 0.9-9.2c0.4-4.5-0.8-8.3-4.3-11.4c-3-2.7-5.5-5.9-8.4-8.7c-5-4.8-9.9-9.5-15-14.1c-4.3-3.8-8.5-7.7-12.7-11.6l0.7-4.8c10.1 9.5 20.4 18.7 30 28.6q3.4 3.5 7.1 6.7q3.6 3.2 7.4 6.2q3.9 3 7.9 5.8q4.1 2.7 8.3 5.2c10.6 6.3 21.9 11 34.3 13c3.8 0.6 6.5 0.2 9-3.6c2.1-3.1 5.7-5.6 9.1-7.4c8.4-4.4 17.5-4 26.3-1.5q2 0.6 3.9 1.3q1.9 0.7 3.8 1.5q1.8 0.8 3.6 1.7q1.8 0.9 3.6 1.9c1.5 0.9 5.9 2.7 5.4 3.1q-0.7 0.5-1.4 1q-0.7 0.5-1.4 1q-0.7 0.5-1.4 1q-0.7 0.5-1.5 0.9q-1.3 0.7-2.7 1.4q-1.3 0.7-2.7 1.3q-1.4 0.6-2.8 1.2q-1.4 0.5-2.8 1c-11.9 4.5-23.8 4.9-36 0.4c-8.6-3.2-17.8-5-26.7-7.4c4 4.6 8.4 8.1 12.4 11.9q1.1 1.1 2.2 2q1.2 1 2.5 1.7q1.3 0.8 2.7 1.4q1.3 0.6 2.8 1c24.9 6.8 33.2 29 31.1 48.7q-0.1 1.1-0.3 2.1q-0.2 1-0.4 2.1q-0.2 1-0.4 2q-0.2 1-0.5 2q-1.1-0.5-2.3-1.1q-1.1-0.6-2.2-1.2q-1.1-0.7-2.2-1.4q-1.1-0.7-2.1-1.4q-2.6-1.9-5-4q-2.4-2.1-4.7-4.4q-2.3-2.2-4.4-4.6q-2.2-2.3-4.2-4.8c-5.5-7-8.9-15.4-8.6-24.4q0.2-2-0.2-4q-0.3-2-1.2-3.8q-0.8-1.9-2.1-3.5q-1.2-1.5-2.9-2.7c-5.5-4.5-10.9-9.1-16.6-13.3c-7-5.2-14.4-10-21.6-14.9c-1.2-0.7-2.5-1.2-5.1-2.6c16.4 21.6 27.3 43.9 30.1 69.6c0.3 3 2.1 4.6 4.1 6.4q2.5 2.2 4.7 4.8q2.2 2.5 4 5.4q1.9 2.8 3.3 5.8q1.5 3.1 2.5 6.3c4.9 15 3.1 28-1 42.8c-0.4 1.2-1.4 4.5-3.2 6zm11.6-108.3c6.3 11.9 12.1 24.2 18.5 36.1c-6.7-10.9-13.9-21.5-20.9-33.1c-2.3 14.3 13.3 37.6 29.5 45.1c3.9-19.2-7-44.5-27.1-48.1zm28.6-22.9l-23.1 5.9c10 5.5 29.1 3.8 45.6-6.1c-13.4-12.3-37.8-11-48.1 2.3c8.9 1 17-2.8 25.6-2.1zm-103.6 50.5c-5.5-14.3 2.4-26.6 6.4-40c-22.2 13.1-24.4 39.3-4.7 58.4c11.9-10.3 15.5-37.1 6.4-53.4c-5.3 11.3-9 22.6-8.1 35zm63 76.4c8.8-25.6 3-52.5-13.4-65.1l3.6 35c-4.8-11.3-4.9-23.5-6.8-35.5c-5.1 9.7-7.8 19.8-4.4 30.5c4.1 12.7 12 23.4 19.8 34c0.7 0.7 1.4 1.4 1.2 1.1z" />
					<path id="Контур_4-4" fill-rule="evenodd" class="s0" d="m23.3-628.6c5.5-4.1 10.7-8.3 16.2-12q1-0.7 2.1-1.3q1.1-0.5 2.3-1q1.1-0.5 2.3-0.9q1.2-0.4 2.4-0.7q0.6-0.1 1.2 0q0.7 0 1.3 0.2q0.5 0.2 1.1 0.5q0.5 0.3 1 0.8q0.2 0.5 0.4 1.1q0.1 0.6 0.1 1.3q0 0.6-0.2 1.2q-0.2 0.6-0.5 1.1q-1.2 1.4-2.3 2.7q-1.2 1.3-2.5 2.6q-1.2 1.2-2.4 2.5q-1.3 1.2-2.6 2.4q-0.6 0.5-1.2 1q-0.6 0.5-1.2 1q-0.6 0.4-1.2 0.9q-0.6 0.4-1.3 0.9c2.9 0 4.5 0 6 0.1c1.2 0 2.5 0.1 3.7 0.2c4.2 0.6 6.5 2 5.9 4c-0.8 3-3.6 3-6 2.9c-4.2-0.2-8.4-0.8-12.5-1.3c-1.2-0.1-2.4-0.5-4.7-1q4 5.4 7.8 11q3.7 5.6 7.2 11.3q3.5 5.8 6.6 11.8q3.1 5.9 6 12c1.7-0.8 13.4-6.6 18.3-8.1q0.7-0.2 1.4-0.3q0.7-0.1 1.5-0.1q0.7 0 1.4 0q0.7 0.1 1.4 0.3c3.1 0.5 4.1 3.4 1.7 5.3c-6.2 6-19.5 5.9-23.1 7c6.6 4.9 24.9 7.7 22.2 14.3c-1.9 4.6-6.8 1.1-9.9-0.4q-1.4-0.7-2.7-1.5q-1.3-0.7-2.5-1.5q-1.3-0.9-2.5-1.8q-1.2-0.9-2.3-1.9c1.2 3.4 4.7 11.3 4.7 11.3c4.9 1.4 12.4 2.3 17.3 3.7c1.5 0.4 5.9 1.4 5 4.3c-1.2 3.5-5.9 1.1-7.7 0.4c-4.5-1.7-8.9-3.8-14.2-6c2.1 6.7 4 13.1 6.2 20c1.7-0.8 3.2-1.5 4.7-2.2q2.3-1.3 4.7-2.3q2.5-1.1 5-1.9q2.5-0.8 5-1.4q2.6-0.7 5.2-1.1c2.4-0.3 7-1.3 8.3 3.1c1.2 3.9-6.8 5.9-9.5 6.6c-5.4 1.4-12.2 1.6-18.2 2.8c0.9 0.8 10.6 7.1 13.5 9.9c1.6 1.4 4 3.4 2.2 5.8c-1.8 2.4-4.2 0.5-6-0.7c-2.8-1.9-5.4-4.1-8-6.1c-1.1-1-3.4-3.6-4.7-4.8q0.5 1.7 1 3.3q0.5 1.6 1.1 3.2q0.5 1.6 1.1 3.2q0.7 1.6 1.3 3.2c4 1.4 11.8 2.8 15.9 4c3 0.9 14.9 4.2 13.6 9c-1.8 6.3-24.7-4.8-28.4-8c7.6 15.3 15.8 40.2 13.7 45.8c-1.3 3.4-3.5 0.7-4.8-1.3c-5.1-8.2-7.6-17.4-9.6-26.7c-1.1-5.3-2.2-10.6-3.6-17.1c-1 1.9-4.5 9.6-5.9 12.4c-0.6 1.3-3.1 6.7-6.6 4.7c-3-1.7 0-7 0.9-8.2c2.6-3.6 9.7-12.2 11-13.4c-3-11.4-7-25.8-10-37.3c0.1 0 0.2 0 0 0c-0.2 0-0.1 0 0 0q0 0 0 0q0 0 0 0c-0.6 2.1-1.5 6.9-1.9 9c-0.9 4.3-3.1 12.1-7.1 10.2c-4.5-1.6 5.5-19.2 7.6-22.3c0 0-0.8-2.7-2.7-7.8c-2.5-5-4.2-10.4-7.3-15.5q-0.3 1.6-0.6 3.1c-1 5.2-1.9 10.4-3.2 15.5c-0.4 1.9-1.5 4.5-4.2 3.8c-2.5-0.7-2.3-3.3-2.1-5.4q0.4-3.1 1.1-6.1q0.7-3.1 1.7-6q1.1-2.9 2.5-5.7q1.4-2.8 3.2-5.4c-4-7.4-9-15.9-13.1-23.6c0.4 4.3 1.2 9.7 1.2 13.9c-0.1 3.9-0.2 10.3-3.8 10.3c-2.5 0-3-3.6-2.8-6c0.4-5.8 1.9-16.2 2.9-21.9q-0.4-0.9-0.9-1.8q-0.5-0.9-1-1.7q-0.5-0.9-1-1.7q-0.6-0.8-1.2-1.6c-4-5.2-9.6-12.2-13.6-17.4q0 0 0 0q0 0 0 0q0 0 0 0q0 0 0 0c0.1-0.1 0.2-0.1 0 0c-0.2 0.1-0.1 0 0 0c0.1 0.9 0.8 4 1 4.9q0.7 3 1.1 6.1q0.5 3.1 0.6 6.2q0.2 3.1 0 6.2q-0.1 3.1-0.6 6.2q0 0.7-0.2 1.5q-0.1 0.8-0.3 1.6q-0.2 0.7-0.5 1.5q-0.2 0.7-0.6 1.4q-0.2 0.5-0.6 0.9q-0.3 0.4-0.7 0.7q-0.5 0.3-1 0.5q-0.5 0.2-1 0.2q-0.5-0.1-0.9-0.3q-0.5-0.2-0.9-0.5q-0.4-0.4-0.7-0.8q-0.3-0.4-0.4-0.9q-0.3-0.8-0.5-1.6q-0.2-0.9-0.3-1.7q-0.1-0.9-0.1-1.7q0-0.9 0.1-1.7c0.7-7.5 2.8-22.8 3.9-30.2c0 0-3.2-3.6-6.9-7.8c-6.2-6.9-12.9-12.5-19.4-19.3c3.6 2.8 7.3 5.5 10.8 8.4c3.6 3 7.1 6.3 10.5 9.6c3.4 3.2 6.6 6.7 9.8 9.9zm44.1 84.8q0 0 0 0q0 0 0 0q0 0 0 0zm-39.2-78.6c9.1-4.4 24.7-15.9 22.3-18.5c-2.9-3.2-17.5 8.8-25.7 14zm31.2 51.3c0 0 24.8-5.2 22.9-7.6c-1.8-2.3-22.9 7.6-22.9 7.6zm44.5 37.6c-0.3-2.9-21.1 2.6-26.1 6.5c7.8-0.4 26.4-3.8 26.1-6.5zm-83.8-88.6c-1.4 9.2-6.1 30-1.2 28.8c2.9-0.7 2-21.1 1.2-28.8zm60.2 121.1c3.6 21.1 10.9 42.5 13.8 42.2c2.6-0.3-11.3-36.3-13.8-42.2zm3.8-3.2c4.3 2.8 22 10.2 22.9 8.6c1.7-2.7-17.5-6.7-22.9-8.6zm-22.4-62.2c4.4 4.8 17.9 12.8 19.1 10.6c0.9-1.7-14.2-8-19.1-10.6zm14.7 42.5c3.6 2.6 15.4 14.6 16.8 13.1c1-1.1-13.2-10.5-16.8-13.1zm0-0.1c0.2-0.4-0.3 0.4 0 0q0 0.1 0 0.1q0 0 0-0.1zm-27.5-25.9c1.8-0.1 5.9-22.5 5.6-22.6c-3.6 4.7-8.5 22.7-5.6 22.6z" />
					<path id="Контур_5-4" fill-rule="evenodd" class="s0" d="m153.4-816.9c-0.3 0.5-1.9 3.6-5 3.7q-0.6 0-1.2-0.1q-0.6-0.2-1.1-0.4q-0.6-0.3-1-0.7q-0.5-0.4-0.8-0.9c-1.5-2.4-0.1-5.8 2.1-7.4c2-1.6 5.5-2 7.1-0.1c1.7 2 0.1 5.3-0.1 5.9zm-1-1.9q0-0.4-0.1-0.9q-0.1-0.4-0.3-0.8q-0.3-0.4-0.6-0.7c-1.5-1-3.5 0.4-3.6 0.5c-1.6 1.2-2.4 3.7-1.5 4.8c0.7 0.8 2.2 0.5 2.7 0.4c0.4-0.1 2.7-0.5 3.3-2.4q0.1-0.4 0.1-0.9z" />
					<path id="Контур_14-2" fill-rule="evenodd" class="s0" d="m200.5-701.8c-0.6-0.3-3.8-1.7-4-4.8q0-0.6 0.1-1.2q0.1-0.6 0.3-1.2q0.3-0.5 0.7-1q0.3-0.5 0.8-0.8c2.3-1.6 5.8-0.4 7.5 1.7c1.6 2 2.3 5.4 0.5 7.1c-2 1.8-5.4 0.4-5.9 0.2zm1.8-1.1q0.4 0 0.9-0.1q0.4-0.2 0.8-0.4q0.3-0.3 0.6-0.6c0.9-1.6-0.5-3.5-0.6-3.6c-1.3-1.5-3.9-2.2-4.9-1.2c-0.8 0.7-0.4 2.2-0.3 2.7c0.1 0.4 0.7 2.7 2.6 3.1q0.4 0.2 0.9 0.1z" />
					<path id="Контур_7-4" fill-rule="evenodd" class="s0" d="m43-512.3c0.4 0.4 3.1 2.6 2.5 5.7q-0.1 0.6-0.4 1.1q-0.3 0.6-0.7 1q-0.4 0.5-0.9 0.8q-0.5 0.4-1 0.6c-2.7 0.9-5.7-1.2-6.8-3.7c-1-2.4-0.6-5.9 1.6-7c2.3-1.2 5.2 1.1 5.7 1.5zm-2 0.5q-0.5-0.1-0.9-0.1q-0.5 0-0.9 0.2q-0.4 0.1-0.8 0.4c-1.3 1.2-0.4 3.4-0.3 3.6c0.7 1.8 3 3.2 4.3 2.5c0.9-0.5 1-2 1-2.6c0-0.4 0.1-2.7-1.6-3.7q-0.4-0.2-0.8-0.3z" />
					<path id="Контур_8-4" fill-rule="evenodd" class="s0" d="m322.4-802.1c0.5 0.4 3.2 2.7 2.5 5.7q-0.1 0.6-0.3 1.2q-0.3 0.5-0.7 1q-0.4 0.4-0.9 0.8q-0.5 0.3-1.1 0.6c-2.6 0.9-5.6-1.2-6.7-3.7c-1-2.4-0.6-5.9 1.5-7c2.4-1.2 5.3 1.1 5.7 1.4zm-2 0.5q-0.4-0.1-0.9-0.1q-0.4 0.1-0.9 0.2q-0.4 0.2-0.7 0.4c-1.4 1.2-0.5 3.5-0.4 3.6c0.8 1.9 3.1 3.2 4.4 2.5c0.9-0.5 0.9-2 1-2.5c0-0.4 0.1-2.7-1.7-3.7q-0.3-0.3-0.8-0.4z" />
					<path id="Контур_9-4" class="s0" d="m66.7-668.5c-0.4 0.5-1.4 1.3-2.3 0.8q-0.2-0.1-0.4-0.4q-0.2-0.2-0.3-0.5q-0.1-0.3-0.1-0.6q0-0.3 0.1-0.5q0.1-0.2 0.2-0.4q0.1-0.1 0.2-0.3q0.1-0.1 0.3-0.2q0.1-0.1 0.3-0.2q0.2-0.1 0.4-0.2q0.3 0 0.5 0q0.3 0 0.5 0q0.2 0.1 0.5 0.2q0.1 0 0.2 0.1q0.1 0.2 0.2 0.3q0.1 0.1 0.2 0.2q0 0.2 0 0.3q0.1 0.2 0 0.4q0 0.2-0.1 0.4q0 0.2-0.1 0.3q-0.2 0.2-0.3 0.3z" />
					<path id="Контур_10-4" class="s0" d="m175.5-525.4c-0.4 0.5-1.4 1.3-2.3 0.9q-0.2-0.2-0.4-0.5q-0.2-0.2-0.3-0.5q-0.1-0.3 0-0.6q0-0.2 0.1-0.5q0-0.2 0.1-0.4q0.1-0.1 0.2-0.2q0.2-0.2 0.3-0.3q0.2-0.1 0.3-0.2q0.2-0.1 0.5-0.2q0.2 0 0.4 0q0.3 0 0.5 0q0.2 0.1 0.5 0.2q0.1 0.1 0.2 0.2q0.1 0.1 0.2 0.2q0.1 0.1 0.2 0.3q0 0.1 0.1 0.2q0 0.2-0.1 0.4q0 0.2 0 0.4q-0.1 0.2-0.2 0.3q-0.1 0.2-0.3 0.3z" />
					<path id="Контур_11-4" class="s0" d="m210.4-674.4c-0.4 0.4-1.5 1.3-2.3 0.8q-0.3-0.2-0.5-0.4q-0.1-0.2-0.2-0.5q-0.1-0.3-0.1-0.6q0-0.3 0.1-0.6q0.1-0.1 0.2-0.3q0-0.1 0.2-0.3q0.1-0.1 0.2-0.2q0.2-0.1 0.4-0.2q0.2-0.1 0.4-0.2q0.2-0.1 0.5-0.1q0.2 0 0.4 0.1q0.3 0 0.5 0.1q0.1 0.1 0.2 0.2q0.2 0.1 0.2 0.3q0.1 0.1 0.2 0.2q0.1 0.2 0.1 0.3q0 0.2 0 0.4q0 0.2-0.1 0.4q-0.1 0.1-0.2 0.3q-0.1 0.2-0.2 0.3z" />
					<path id="Контур_15-2" class="s0" d="m113.1-576.4c-0.3 0.5-1.4 1.3-2.3 0.9q-0.2-0.2-0.4-0.4q-0.2-0.3-0.2-0.6q-0.1-0.2-0.1-0.5q0-0.3 0.1-0.6q0-0.2 0.1-0.3q0.1-0.2 0.3-0.3q0.1-0.2 0.2-0.3q0.2-0.1 0.3-0.2q0.3-0.1 0.5-0.2q0.2 0 0.5 0q0.2 0 0.4 0q0.3 0.1 0.5 0.2q0.1 0.1 0.2 0.2q0.1 0.1 0.2 0.2q0.1 0.1 0.2 0.3q0.1 0.1 0.1 0.3q0 0.1 0 0.3q-0.1 0.2-0.1 0.4q-0.1 0.2-0.2 0.4q-0.1 0.1-0.3 0.2z" />
					<path id="Контур_16-2" class="s0" d="m119.6-830.2c-0.4 0.5-1.4 1.3-2.3 0.8q-0.2-0.1-0.4-0.4q-0.2-0.2-0.3-0.5q-0.1-0.3 0-0.6q0-0.3 0.1-0.5q0-0.2 0.1-0.4q0.1-0.1 0.2-0.3q0.2-0.1 0.3-0.2q0.2-0.1 0.3-0.2q0.2-0.1 0.5-0.2q0.2 0 0.4 0q0.3-0.1 0.5 0q0.2 0.1 0.5 0.2q0.1 0 0.2 0.1q0.1 0.1 0.2 0.3q0.1 0.1 0.2 0.2q0 0.2 0.1 0.3q0 0.2-0.1 0.4q0 0.2-0.1 0.4q0 0.2-0.1 0.3q-0.1 0.2-0.3 0.3z" />
				</g>
				<g id="Сгруппировать_306-2">
					<g id="Clip-Path: Сгруппировать_305-2" clip-path="url(#cp5)">
						<g id="Сгруппировать_305-2">
							<path id="Контур_233-2" fill-rule="evenodd" class="s0" d="m175.2-769.6c-19.2 7.2-41.3 9.8-61.6 5.5q-4.6-0.9-9-2.5q-4.3-1.5-8.5-3.6q-4.1-2.1-8-4.7q-3.8-2.7-7.2-5.7q-1.6-1.4-3.1-2.9q-1.4-1.5-2.8-3.1q-1.4-1.5-2.7-3.2q-1.3-1.6-2.5-3.3c-2.8-3.8-6.5-6.4-10.4-8.9c13.5 21.6 28 42.2 44.9 61.4c10.6-3.7 22.1-1.4 28.6 9.1c0.3-2.4 1-4.8 2.1-7c1-2.2 2.4-4.3 4.1-6c1.7-1.8 3.7-3.3 5.8-4.5c2.2-1.2 4.5-2 6.9-2.4c11.7-2.2 21.9 5.9 30.3 13c7.7 6.6 3.3 19.3-1.5 26.5q-0.5 0.8-1.1 1.6q-0.6 0.8-1.2 1.5q-0.6 0.8-1.3 1.5q-0.6 0.7-1.3 1.4c10.7-1.2 21.9 4.7 23.3 16.6c0.4 3.2-0.6 5.4-1.3 8.3c-1.7 6.4 1.7 9.3 2.4 14.7c0.8 6.3-3.4 12.4-8.1 16.1c-6.4 5.2-14.8 5.9-22.7 4c0.4 3.4 0.6 7.1-0.4 10.5q2 3.9 3.6 8c4.1-1.5 11 3.7 13.3 5.8c1.7 1.6 10.5 11.9 4.8 13.8c-3.6 1.2-9-5-11.4-7.1c-0.7-0.7-2.1-1.7-3.5-3q0.6 2.1 1.1 4.2q0.5 2 0.9 4.1q0.4 2.1 0.7 4.2q0.3 2.1 0.5 4.2c5.6 3.3 18.3 10.8 15.6 18.1c-3.1 8.2-10.9-4.2-12.4-6.5c-0.5-0.8-1.7-2.3-2.8-4q0 1.5 0 3q0 1.5-0.1 3.1q-0.1 1.5-0.2 3q-0.2 1.6-0.4 3.1q0.1 0 0.1 0q0 0 0 0.1q0 0 0 0q0.1 0 0.1 0.1q1.8 2.1 3.5 4.3q1.7 2.2 3.1 4.6q1.5 2.4 2.8 4.8q1.3 2.5 2.4 5.1c0.8 2 4.4 8.5 1.4 10.2c-3.4 1.9-8.3-5.4-9.6-7.4q-1-1.4-1.8-2.8q-0.8-1.5-1.5-3q-0.7-1.6-1.2-3.2q-0.6-1.6-0.9-3.3q-0.4 1.8-0.9 3.6q-0.1 0.4-0.2 0.8q-0.2 0.4-0.3 0.8q-0.1 0.4-0.3 0.8q-0.2 0.3-0.3 0.7q0 0.1 0 0.1q0 0 0 0q0 0.1 0 0.1q0 0 0 0q0.2 1.9 0.2 3.7q-0.1 1.8-0.3 3.6q-0.3 1.9-0.7 3.6q-0.5 1.8-1.1 3.5c-1.2 3-3.5 8.7-7 9.5q-0.2 0-0.4 0q-0.1 0-0.3-0.1q-0.2-0.1-0.3-0.3q-0.2-0.1-0.2-0.3c-2-3.5 1.1-10.1 2.4-13.4q0.5-1.2 1.1-2.4q0.6-1.2 1.2-2.4q0.6-1.2 1.3-2.4q0.6-1.2 1.3-2.3q0.3-0.6 0.5-1.2q0.3-0.6 0.5-1.2q0.3-0.6 0.5-1.2q0.2-0.7 0.4-1.3q-0.1 0.1-0.1 0.1c-2.2 2.8-9 10.2-13.4 8.9c-4.6-1.3 14.4-20.9 15.8-21.2q0.2-1.4 0.3-2.7q0.2-1.4 0.2-2.8q0.1-1.3 0.2-2.7q0-1.3 0-2.7q-0.4 0.6-0.8 1.2q-0.4 0.6-0.9 1.2q-0.4 0.6-0.9 1.2q-0.4 0.6-0.9 1.2c-1.9 2.2-10.3 11-14 8.1c-3.3-2.6 3.2-9.9 4.7-11.7q1.3-1.5 2.7-2.8q1.5-1.4 3-2.6q1.6-1.2 3.3-2.3q1.6-1 3.4-1.9q-0.2-2.2-0.5-4.3q-0.3-2.2-0.7-4.3q-0.4-2.2-1-4.3q-0.5-2.1-1.1-4.2q-0.2 0.6-0.4 1.2q-0.3 0.6-0.5 1.2q-0.3 0.6-0.5 1.2q-0.3 0.6-0.6 1.2c-1.6 3.3-7.1 12.3-11.8 10.7c-4.4-1.5 0.5-10.8 1.7-13.1q0.9-1.5 1.9-2.9q1-1.5 2.2-2.8q1.2-1.4 2.5-2.6q1.3-1.2 2.7-2.3q-1.3-3.2-2.8-6.4q-0.1 0.1-0.1 0.1c-3.8 6.4-13.2 3.3-14.1 12.4c-0.2 2.3 1.2 3.5-0.2 5.8q-0.3 0.5-0.8 0.9q-0.4 0.4-0.9 0.8q-0.5 0.4-1.1 0.6q-0.6 0.3-1.1 0.5c-5.2 1.8-11.5 0.6-16.2-1.9c-9-4.9-14.9-15.2-16.5-25.5q-1.8 1.7-3.8 3q-2 1.4-4.3 2.3q-2.2 1-4.6 1.5q-2.3 0.5-4.7 0.7q1 4.4 2.4 8.8q0.4 0 0.9 0.1q0.4 0 0.8 0.1q0.4 0.1 0.8 0.2q0.5 0 0.9 0.1q1.3 0.3 2.6 0.5q1.2 0.3 2.5 0.6q1.3 0.3 2.6 0.6q1.3 0.4 2.5 0.7c2.8 0.9 10.8 2.8 8.2 7.5c-2.1 3.8-10.1-0.4-12.6-1.6q-1-0.5-1.9-1q-1-0.4-1.9-0.9q-1-0.5-1.9-1.1q-0.9-0.5-1.8-1q1.9 5.2 4.3 10.2q1.9 0.4 3.8 0.9q2 0.6 3.8 1.2q1.9 0.6 3.8 1.3q1.9 0.7 3.7 1.4c2.2 1 14.8 6 13.2 9.6c-0.8 2-5 1.1-6.4 0.9q-1.8-0.2-3.5-0.6q-1.7-0.4-3.4-0.9q-1.7-0.6-3.3-1.3q-1.6-0.6-3.1-1.5c-0.8-0.4-2.3-1.1-3.9-2.1q0.9 1.5 1.8 3q1 1.6 2 3.1q1 1.5 2.1 2.9q1 1.5 2.1 2.9q1.3 1.7 2.6 3.3c4.7 1.1 9.3 4.1 13.3 6.6c1.7 1.1 8.3 4.7 8.1 7.6c-0.4 5.6-10 0-12.1-1.2c-7.8-4.6-13.8-13-18.8-20.8q1.7 4.7 3.1 9.4c0.7 2.6 2.5 6.5 2.1 9.2c-0.8 5.6-5.2-1.7-6.3-3.6q-1.1-2-2-4.1q-0.9-2.1-1.7-4.2q-0.8-2.2-1.3-4.4q-0.6-2.2-1-4.4c-0.5-2.7-2.1-8-0.6-10.7q0 0 0 0q0 0 0 0q0 0 0 0q0 0 0 0c0 0-0.9-2.6-0.9-2.6q-1.6-3.4-2.9-6.8q-0.4 1.1-0.9 2.2q-0.5 1.1-1 2.2q-0.5 1-1 2.1q-0.6 1-1.2 2.1c-0.8 1.6-7.1 11.5-8.6 5.1c-0.4-1.7 0.6-4 1.2-5.5q0.4-1.1 0.8-2.1q0.4-1.1 0.9-2.1q0.4-1 0.9-2q0.5-1.1 1-2.1c0.6-1.2 2.7-6.5 4.9-8.2q-1.5-4.8-2.6-9.7q-0.6 0-1.3-0.1q-0.6 0-1.2-0.1q-0.6-0.1-1.2-0.2q-0.6-0.2-1.2-0.3c-3.6-0.9-7.5-2.7-9.2-6.3c-2-4 0.6-7.6 0.5-11.7c0-6.5-7.6-10.6-10.2-16.3c-1.7-3.9-3-8.5-1.6-12.7c3.5-10.1 17.4-13.4 27.7-14.3c-3-1.9-5.6-4.4-6.8-7.6q-0.4-1-0.5-2q-0.2-1.1-0.1-2.2q0-1 0.2-2.1q0.3-1 0.7-2c0.8-2 1.8-3.7 2.3-5.8c1-4.3-1.4-7.1-2.1-10.9c-1.1-5.3 1.5-8.7 6-11.3q1.5-0.9 3-1.5c-9.1-10.4-17.5-21.1-25.4-32.2q0.4 2.6 0.5 5.2q0.1 2.5-0.1 5.1q-0.2 2.6-0.7 5.2q-0.5 2.5-1.3 5c3.5 7.8 5.4 16.4 2.2 24.6c-3.8 9.4-9.5 17.8-13.1 27.3q0.7 1.3 1.3 2.6c2.1 4.3 4.7 12.5 2.7 17.1c-0.8 1.8-1.8 2.7-3.7 1.8c-1.6-0.8-2.8-4.8-3.8-6.3c-2.5-3.8-5.5-6.4-9-9.3c-8.6-7.3-5.8-19.5-3.1-29.1q0-0.1 0.1-0.2q0 0 0.1-0.1q0-0.1 0.1-0.1q0-0.1 0.1-0.1q-0.1-1.4 0-2.8q0-1.3 0.3-2.7q0.3-1.3 0.8-2.6q0.5-1.3 1.2-2.5c4.4-8.1 12.2-14.3 20.7-17.7q1.1-3 1.8-6q0.6-3.1 0.9-6.2q0.2-3.2-0.1-6.3q-0.2-3.1-0.9-6.2q-10.9-15.5-20.7-31.9c-14.2-23.6-32-43.8-54.7-59.7c-1.2-0.8 0.9-2.7 2-1.9c22.3 15.5 40.2 35.3 54.2 58.4q1.2 2.2 2.5 4.3c3.7 2.2 8.4 4.4 11.5 7.3c38-11.7 80-1.4 107.6 27.5c0.6 0.6 0.7 2-0.3 2.3zm-69.3 165q0 0 0 0q0 0 0 0zm62.1 54.4c-0.7 2.4-2.6 5.8 0.1 3.3c3.6-3.2 4.7-9.3 4.8-14.5c-0.7 1.3-1.5 2.7-2.2 4.3q-0.4 0.8-0.8 1.7q-0.3 0.8-0.7 1.7q-0.3 0.9-0.6 1.7q-0.3 0.9-0.6 1.8zm-56.3-52.6q0.9 0.8 1.9 1.5q1 0.7 2.1 1.3q1 0.6 2.1 1.2q1 0.6 2.1 1q1.1 0.5 2.2 0.9q1.1 0.4 2.2 0.8q1.1 0.3 2.2 0.6q1.1 0.2 2.3 0.4q0.4 0.1 0.8 0.2q0.4 0 0.8 0.1q0.4 0 0.8 0q0.4 0.1 0.8 0.1q2.2 0.3 0.4-0.7q-0.2-0.3-0.5-0.5q-0.3-0.2-0.6-0.4q-0.3-0.2-0.6-0.4q-0.3-0.2-0.7-0.3c-6.6-4.1-13.6-6.6-21-8.6q0.3 0.5 0.5 1c0.9 0.9 1.9 1.6 2.2 1.8zm25.5 31.3c4.7 2.2 3.1 0.2 0-2.1q-1.3-1-2.6-1.9q-1.4-0.9-2.8-1.7q-1.3-0.8-2.8-1.6q-1.4-0.8-2.9-1.5q1.2 1.4 2.5 2.7q1.2 1.2 2.6 2.3q1.4 1.1 2.9 2.1q1.5 0.9 3.1 1.7zm-28.4-22.3q0.3 1.8 0.8 3.5q0.4 1.8 1 3.5q0.5 1.7 1.2 3.3q0.7 1.7 1.4 3.3q0.4 0.7 0.7 1.4q0.4 0.7 0.8 1.4q0.4 0.6 0.8 1.3q0.4 0.6 0.8 1.3q0 0 0 0q0 0 0 0q0 0 0 0q0 0 0 0q-0.1-0.5-0.2-1.1q-0.1-0.6-0.2-1.1q-0.1-0.6-0.3-1.1q-0.1-0.6-0.3-1.1c-1.2-4.7-2.8-9.4-4.4-13.9c-0.4-1-2.3-6.9-3.2-8.8c-0.4 2.3 0.8 6.4 1.1 8.1zm-9.1-24.3c-1 1.5-1.8 3-2.6 4.6q-0.7 1.3-1.4 2.6q-0.6 1.4-1.2 2.7q-0.6 1.4-1.1 2.8q-0.5 1.3-1 2.7q0 0.1 0 0.2q0 0 0 0.1q0 0.1 0 0.1q-0.1 0.1-0.1 0.2q0.2-0.2 0.4-0.3q0.1-0.2 0.3-0.4q0.1-0.2 0.3-0.3q0.2-0.2 0.3-0.4q0.3-0.5 0.7-1q0.3-0.5 0.6-1q0.3-0.5 0.6-1.1q0.3-0.5 0.5-1q0.4-0.7 0.7-1.4q0.4-0.7 0.7-1.5q0.3-0.7 0.6-1.4q0.3-0.7 0.6-1.4q0.3-0.7 0.5-1.3q0.3-0.7 0.5-1.3q0.2-0.7 0.4-1.3q0.2-0.7 0.4-1.4q-0.1-0.2-0.2-0.3q-0.3 0.4-0.5 0.8zm-27-105.6c4.1-7.9 3.4-15.7 0.3-23.6c-6 12.6-18.7 23.5-15.4 38.3c1.4 2.4 3 4.8 4.4 7.1c3.1-7.5 6.9-14.5 10.7-21.8zm-23.6 23c1.6 4.7 5.9 6.7 9.2 10q1 1 1.8 2q0.9 1.1 1.7 2.2q0.7 1.1 1.4 2.2q0.7 1.1 1.4 2.3q0.3 0.7 0.5 1.1q0-0.7 0-1.4q0.1-0.7 0-1.4q0-0.7-0.1-1.4q0-0.7-0.1-1.3c-0.9-7-4.4-12-7.9-17.9c-2.9-4.6-5.8-9-7.4-13.5c-1.4 5.6-2.4 11.8-0.5 17.1zm4.8-14.3q0.4 0.7 0.8 1.3c-0.3-8.9 4.6-15.8 9.8-24.1q0.8-1.3 1.6-2.6q0.7-1.3 1.4-2.6q0.8-1.3 1.4-2.7q0.7-1.3 1.3-2.7q-2.2 1-4.2 2.3q-2.1 1.3-3.9 2.8q-1.9 1.5-3.6 3.3q-1.6 1.7-3.1 3.7c-5.2 7.2-5.7 13.7-1.5 21.3zm119 8.5c6.5-6 15.6-21.6 7.7-29.7c-3.4-3.5-8.5-5.9-12.4-8.6q-0.6-0.5-1.2-1q-0.6-0.4-1.2-0.8q-0.7-0.5-1.3-0.9q-0.6-0.4-1.3-0.8c-14.4-6.9-28.5 7.4-27.7 21.4q0 0.1 0 0.1q0 0 0 0.1q0 0 0 0.1q0 0-0.1 0c4.5 10.3 5.4 22.8 3.6 33.9q3.6-4.5 7.4-8.8q-0.2-0.3-0.3-0.7q-0.2-0.4-0.3-0.9q0-0.4 0-0.8q0-0.4 0.1-0.9q0.1-0.5 0.5-1q0.3-0.5 0.8-0.9q0.5-0.3 1.1-0.5q0.5-0.2 1.1-0.1c2.3 0.2 3 2.7 2.5 4.7q-0.1 0.5-0.4 0.9q-0.3 0.5-0.7 0.9q-0.4 0.3-0.9 0.5q-0.5 0.3-1 0.3q-4.5 5.1-8.7 10.5c10.2-3.3 21.2-7.9 29.7-14.5q0.1-0.1 0.3-0.2q0.1-0.1 0.3-0.2q0.1-0.1 0.3-0.3q0.1-0.1 0.3-0.2q0.9-0.8 1.8-1.6zm-23.1 2.4q0.1 0 0.1-0.1q0 0 0 0q0-0.1 0-0.1q0-0.1 0-0.1q0-0.1 0-0.1q-0.1 0-0.2 0q0 0-0.1 0q-0.1 0-0.2 0q-0.1 0-0.1 0q-0.3 0-0.5 0.1q-0.1 0.1-0.3 0.2q-0.2 0.2-0.3 0.3q-0.1 0.2-0.2 0.4c-0.1 0.4 0 0.7 0.4 0.8c0.7 0 1.3-0.8 1.4-1.4zm48.2 39.5c-0.3-5.3-4.2-8.8-3.4-14.3c0.3-2.1 1.3-3.9 1.8-6q0.4-1.8 0.2-3.7q-0.1-1.9-0.7-3.7q-0.6-1.8-1.6-3.4q-1.1-1.6-2.5-2.9c-5.6-5.3-13.3-6-20.4-3.5q0 0 0 0q0 0 0 0q0 0-0.1 0q0 0 0 0c-9.3 7.3-21.7 11.9-32.4 15.2q1.8 1.6 3.8 2.7q1.9 1.2 4.1 2q2.2 0.8 4.5 1.1q2.3 0.4 4.6 0.3q0-0.1 0.1-0.1q0.4-0.5 0.9-0.8q0.6-0.3 1.2-0.5q0.6-0.1 1.2 0.1q0.7 0.1 1.2 0.4q0.5 0.4 0.7 0.9q0.3 0.5 0.4 1.1q0 0.5-0.1 1.1q-0.2 0.5-0.5 1q0 0-0.1 0q0 0.1 0 0.1q0 0 0 0q0 0 0 0c-0.1 0.1-0.1 0.1-0.1 0.1q-0.4 0.5-0.9 0.9q-0.6 0.3-1.2 0.4q-0.6 0.1-1.2 0q-0.7-0.1-1.2-0.4q-0.3-0.2-0.5-0.4q-0.2-0.3-0.4-0.5q-0.1-0.3-0.2-0.6q-0.1-0.4-0.1-0.7q-2.2 0-4.5-0.3q-2.3-0.4-4.4-1.1q-2.2-0.7-4.2-1.8q-2.1-1.1-3.9-2.5c2.6 15.2 14 30.7 29 35.2q0.2 0.1 0.5 0.2q0.2 0.1 0.4 0.1q0.3 0.1 0.5 0.1q0.2 0.1 0.5 0.1q1.5 0.4 3.2 0.6q1.6 0.2 3.2 0.2q1.6 0 3.3-0.1q1.6-0.2 3.2-0.5c6.6-1.4 16.5-8.2 16.1-16.1zm-17.8 46.5q0.8 0.8 1.7 1.5q0.8 0.8 1.7 1.5q0.8 0.7 1.7 1.4q0.9 0.7 1.8 1.4c0.7 0.5 1.5 0.9 2.2 1.4q0 0 0 0q0.1 0.1 0.1 0.1q0.1 0 0.1 0.1q0.1 0 0.1 0c-1.2-2.6-2.1-5.1-4.1-7.4q-0.7-0.8-1.5-1.6q-0.8-0.8-1.7-1.5q-0.9-0.7-1.9-1.3q-1-0.6-2-1.1q-0.5-0.3-1-0.6q-0.5-0.2-1.1-0.5q-0.5-0.2-1.1-0.4q-0.6-0.2-1.1-0.4q0.1 0.2 0.1 0.5q0.1 0.2 0.1 0.4q0.1 0.3 0.1 0.5q0 0.2 0 0.5q0.7 0.7 1.4 1.4q0.7 0.7 1.4 1.4q0.7 0.7 1.5 1.4q0.7 0.6 1.5 1.3zm4.1 27.5c1.1 1.5 3.4 6.5 5.6 6.7c5 0.4 1.8-4 0.7-5.3q-1.1-1.3-2.4-2.5q-1.2-1.2-2.6-2.3q-1.3-1.1-2.8-2q-1.4-1-2.9-1.9c0.2 0.5 0.5 0.9 0.7 1.4c1.2 2 2.5 3.9 3.7 5.9zm-2.5 24.3q0.5 1.1 1.1 2.2q0.6 1 1.3 2.1q0.6 1 1.4 2q0.7 1 1.5 1.9c1.1 1.2 2.7 4 2.8 1.8c0.1-3.6-3.3-8.8-5-11.8q-0.6-1.2-1.3-2.3q-0.7-1.2-1.4-2.3q-0.8-1.1-1.5-2.2q-0.8-1.1-1.6-2.1q0.1 1.3 0.3 2.7q0.2 1.4 0.6 2.7q0.3 1.4 0.8 2.7q0.4 1.3 1 2.6zm-19.3-18.8c-1.2 2-2.2 3 0.5 1.9q0.8-0.4 1.6-0.8q0.8-0.4 1.5-0.9q0.8-0.5 1.5-1.1q0.7-0.6 1.4-1.2q0.8-0.7 1.6-1.5q0.7-0.8 1.5-1.6q0.7-0.8 1.3-1.7q0.7-0.9 1.3-1.8q0.3-0.5 0.6-1q0.3-0.5 0.6-1q0.3-0.5 0.5-1q0.3-0.6 0.6-1.1q-0.1-0.3-0.1-0.5q-2.2 1.1-4.2 2.5q-2 1.5-3.8 3.2q-1.9 1.6-3.5 3.6q-1.6 1.9-2.9 4zm-1.6-21.9l-0.1 0.9q-0.4 1.8 0.4 0.6c1-0.1 2.3-1.9 3-2.6q0.7-0.7 1.3-1.4q0.6-0.8 1.2-1.6q0.6-0.8 1.1-1.7q0.5-0.8 0.9-1.7q0.5-1 1-2q0.4-1 0.7-2q0.4-1 0.7-2.1q0.3-1 0.5-2.1q-0.1-0.1-0.2-0.2q-0.1-0.2-0.1-0.3q-0.1-0.1-0.2-0.3q0-0.1-0.1-0.2c-4.8 4.4-9 10.2-10.1 16.7zm-31.5-13.3c4.1 4.2 12.5 9.4 18.7 6.5c4.9-2.4 0.6-10 4.2-13.5c3.1-3.1 8.3-1.6 11.5-4.6c4-3.6 3.2-10.4 2.5-15.2q-1.8-0.6-3.6-1.4q-1.8-0.7-3.5-1.7q-1.8-0.9-3.4-2q-1.6-1.1-3.1-2.3q-3.3-2.6-6-5.8q-2.7-3.2-4.8-6.9q-2.1-3.6-3.6-7.5q-1.4-4-2.1-8.1q-1 2.6-1.3 5.3q-0.2 2.7 0.2 5.5q0.4 2.7 1.4 5.2q1 2.5 2.7 4.8q0.3 0 0.6 0q0.3 0.1 0.6 0.2q0.3 0.1 0.6 0.3q0.3 0.1 0.5 0.3q0.7 0.5 1.1 1.2q0.4 0.7 0.6 1.5q0.1 0.8 0 1.6q-0.1 0.8-0.6 1.5q0 0 0 0.1q-0.1 0-0.1 0.1q0 0-0.1 0q0 0-0.1 0.1q-0.5 0.4-1 0.6q-0.6 0.2-1.3 0.3q-0.6 0-1.2-0.2q-0.6-0.1-1.1-0.5q-0.7-0.4-1.2-1q-0.4-0.6-0.6-1.4q-0.2-0.8-0.1-1.5q0.1-0.8 0.4-1.5q0.1-0.1 0.2-0.2q0-0.1 0.1-0.2q0.1-0.1 0.2-0.2q0.1-0.1 0.2-0.2q-1.5-2-2.5-4.1q-1.1-2.2-1.7-4.6q-0.5-2.3-0.6-4.8q-0.1-2.4 0.3-4.8c-12.1 18-20.3 41.5-3 59.1zm-54.4-60.7c-4 5.8-1 13.6 3.2 18.5c2 2.4 4.7 3.9 6.1 6.8c3.5 7-4.6 16.7 5.8 20.2q1 0.3 1.9 0.5q0.9 0.3 1.9 0.4q1 0.1 1.9 0.2q1 0.1 2 0.1q0-0.1 0-0.1q0.1 0 0.1 0q0.1 0 0.1 0q0 0 0.1 0q2.6-0.1 5.1-0.7q2.5-0.6 4.9-1.8q2.4-1.1 4.4-2.6q2.1-1.6 3.9-3.6q-0.1-0.4-0.1-0.9q0-0.4 0-0.9q0-0.5 0-0.9q0-0.5 0-0.9c0.6-13.2 8.4-26.7 16.4-37.4q-1.7 0.8-3.3 1.8q-1.6 0.9-3.2 1.9q-1.5 1.1-3 2.2q-1.5 1.1-3 2.2c0.4 1.5-0.1 3.2-1.6 3.8c-1.8 0.6-3.8-0.7-4.6-2.3c-0.6-1.5-0.3-3.6 1.3-4.2q0.5-0.2 0.9-0.2q0.5-0.1 0.9 0q0.5 0.1 0.9 0.3q0.5 0.2 0.8 0.5q1.3-1 2.7-2q1.4-1 2.8-1.9q1.4-0.9 2.9-1.8q1.4-0.9 2.9-1.6q-2.5 0-5.1-0.1q-2.5-0.2-5-0.6q-2.5-0.4-5-1.1q-2.4-0.6-4.8-1.5c-2.3-0.8-4.9-1.8-7.3-3c-9.5 0.5-22 2.4-27.9 10.7zm65.7 23.6q0.2-0.3 0.2-0.5q0.1-0.3 0-0.6q0-0.2-0.2-0.4q-0.2-0.3-0.4-0.4q-0.3-0.1-0.7-0.1q-0.3 0-0.6 0.2q-0.3 0.1-0.5 0.4q-0.2 0.2-0.3 0.5c-0.6 1.6 1.7 1.8 2.5 0.9zm-45.4-71.5c-0.3 3.3 1.3 5.1 1.8 8.1c0.9 4.8-1 7.9-2.4 12.2c-3.5 11.1 12 16.8 20.3 19q2.4 0.6 4.8 1q2.5 0.4 4.9 0.5q2.5 0.2 5 0.1q2.4-0.1 4.9-0.4q-1.2-1.6-2.4-3.2q-1.3-1.6-2.6-3q-1.4-1.5-2.8-2.9q-1.5-1.4-3-2.7q-0.4 0.5-1 0.8q-0.6 0.4-1.2 0.5q-0.6 0.1-1.3 0q-0.6-0.1-1.2-0.4q-0.7-0.4-1.2-1q-0.5-0.6-0.8-1.3q-0.3-0.7-0.4-1.5q0-0.8 0.3-1.6q0.2-0.7 0.8-1.2q0.5-0.5 1.1-0.8q0.7-0.3 1.4-0.3q0.8 0 1.4 0.2q0.7 0.3 1.3 0.7q0.6 0.5 1 1.1q0.4 0.6 0.5 1.3q0.2 0.7 0.2 1.5q1.6 1.3 3.1 2.7q1.5 1.4 2.9 2.9q1.4 1.5 2.7 3.1q1.3 1.6 2.5 3.3q0.9-4 1.2-8.1q0.3-4 0.2-8.1q-0.2-4.1-0.9-8.1q-0.7-4-1.9-7.9q-0.5-1.7-1.2-3.4q-0.1-0.2-0.2-0.4q0-0.1-0.1-0.3q-0.1-0.2-0.2-0.3q0-0.2-0.1-0.4c-2.9-6.2-7.5-11.3-14.8-12.4c-5.3-0.8-10.7 0.6-15.5 2.9c-3.8 1.8-6.6 3.4-7.1 7.8zm26.8 26.2c0.3-0.8 0.1-1.6-0.8-1.7q-0.3 0-0.6 0q-0.3 0.1-0.6 0.3q-0.3 0.1-0.5 0.4q-0.2 0.2-0.3 0.5q-0.1 0.2-0.2 0.5q0 0.2 0.1 0.4q0.1 0.3 0.2 0.5q0.2 0.2 0.4 0.3q0.4 0.1 0.7 0q0.4 0 0.7-0.2q0.3-0.1 0.6-0.4q0.2-0.3 0.3-0.6zm-50.4-94.8c18.5 8.5 48.6 14.4 58.4 17.4c-20.2-2.1-39.7-6-58.1-14.5q0.7 1.2 1.5 2.3q0.8 1.1 1.7 2.2q0.8 1.1 1.7 2.1q0.9 1.1 1.8 2.1q3.5 3.5 7.4 6.5q4 3 8.3 5.4q4.3 2.4 9 4.2q4.6 1.8 9.4 2.8c19.6 4.4 41 2 59.7-4.6c-26.3-26.3-65.1-35.7-100.8-25.9z" />
						</g>
					</g>
				</g>
				<g id="Сгруппировать_308-2">
					<g id="Clip-Path: Сгруппировать_307-4" clip-path="url(#cp6)">
						<g id="Сгруппировать_307-4">
							<path id="Контур_234-4" fill-rule="evenodd" class="s0" d="m299.8-637.3c-2.6 4.2-8.1 6.8-12.9 7.2q-0.7 0.1-1.5 0q-0.7 0-1.5-0.1q-0.7-0.1-1.4-0.3q-0.7-0.2-1.4-0.5c2.3 8.3-0.5 18.2-8.7 22.1c-8.3 3.9-17.6 0.8-20.2-7.5q-0.5 0.9-1.1 1.6q-0.6 0.8-1.4 1.4q-0.7 0.6-1.6 1.1q-0.8 0.5-1.7 0.9c-2.2 0.7-3.1 0.2-5.1-0.1c-3.6-0.5-7.1 0.5-10.4 0.1c-10.6-1.4-9.5-16.8-5-23.1q0.5-0.7 1.1-1.3q0.5-0.7 1-1.3q0.6-0.7 1.1-1.3q0.6-0.6 1.2-1.2c-4.6 0.2-9.3-1.2-12.2-5c-4.1-5.4-2.2-11.8 2.2-16c5.6-5.4 3-1.7 5.4-6.7q0.1-0.4 0.3-0.8q0.2-0.4 0.5-0.8q0.2-0.4 0.5-0.7q0.3-0.4 0.6-0.7q0.8-0.5 1.6-0.9q0.8-0.4 1.6-0.6q0.9-0.2 1.8-0.3q0.9 0 1.8 0.1q0.9 0.1 1.8 0.3q1 0.2 1.9 0.6q0.8 0.4 1.6 0.9q0.9 0.5 1.6 1.2q0-0.4 0-0.7c0.1-3.1 1.1-6.9 3.3-9.3c2.8-3.1 6.2-2.1 10-2.6c4.6-0.5 6.9-4.9 12-5.2q1.4-0.1 2.8 0.2q1.4 0.2 2.7 0.9q1.3 0.7 2.3 1.6q1 1 1.7 2.3c3.7 6.4 1.9 14.8-2.1 20.7q1.3-0.3 2.6-0.5q1.2-0.2 2.5-0.4q1.3-0.1 2.6-0.2q1.3-0.1 2.6-0.1c3.9-0.1 9 0.1 12.2 2.7c3.4 3 2 8.8 3 12.7c0.9 3.7 2.4 6 0.3 9.6zm-45.8 17.6c0.3 6.1 4.7 11.1 11.3 10.5q1.3-0.1 2.6-0.4q1.3-0.4 2.5-0.9q1.3-0.6 2.4-1.4q1.1-0.7 2-1.7c4.9-5.1 5.7-12.8 3.2-19.1q-0.4-0.3-0.7-0.6q-0.4-0.3-0.7-0.6q-0.4-0.3-0.7-0.6q-0.4-0.3-0.7-0.6q-1.9-1.9-3.9-3.5q-2.1-1.7-4.3-3.1q-2.2-1.4-4.5-2.6q-2.3-1.2-4.8-2.1q0.8 0.8 1.5 1.7q0.7 0.9 1.2 1.9q0.6 0.9 1.1 2q0.5 1 0.9 2.1c1 0.1 2 0.6 1.9 1.8c-0.2 1.4-1.8 2.1-3.1 2.1c-0.9 0-2.4-0.4-2.4-1.5q0-0.3 0.1-0.7q0.2-0.3 0.4-0.6q0.2-0.2 0.5-0.4q0.3-0.2 0.6-0.4q-0.4-1.1-0.9-2.2q-0.6-1-1.3-2q-0.6-1-1.4-1.9q-0.8-0.9-1.7-1.7q0 1-0.1 2.1c-0.4 6.7 0.2 13.6-0.3 20.3q0 0.4-0.1 0.9q-0.1 0.5-0.1 0.9q-0.1 0.5-0.3 0.9q-0.1 0.5-0.2 0.9c0 0.2 0 0.3 0 0.5zm-29.5-2.1c0.8 3.7 3 7.4 7.1 7.8c1.5 0.2 3.2-0.4 4.7-0.5c3.6-0.1 7.3 1.9 10.7-0.1q0.8-0.4 1.5-1q0.7-0.6 1.3-1.3q0.6-0.7 1.1-1.5q0.4-0.8 0.7-1.6v-0.1q0 0 0-0.1q0.1-0.1 0.1-0.1q0-0.1 0-0.2q0.1 0 0.1-0.1c1-3.3 0.8-7.2 0.7-10.6q-0.1-1.4-0.1-2.7q0-1.3 0.1-2.7q0-1.3 0.1-2.6q0.1-1.4 0.2-2.7c0.1-1.4 0.7-3.8 0.2-5.3q-3.3 4.2-6.6 8.3q0.2 0.4 0.2 0.7q0 0.4 0 0.8q-0.1 0.3-0.2 0.6q-0.2 0.4-0.4 0.7q-0.3 0.4-0.7 0.7q-0.5 0.2-1 0.3q-0.5 0-1-0.1q-0.5-0.2-0.9-0.5q-0.3-0.4-0.6-0.9q-0.2-0.5-0.2-1.1q0-0.5 0.2-1q0.2-0.6 0.5-1q0.2-0.3 0.5-0.4q0.3-0.2 0.6-0.3q0.4-0.1 0.7-0.1q0.4 0 0.7 0.1q3.1-4 6.3-8.1c-6.4-1.4-15.6 7.3-19.3 11c-4.2 4.1-8.6 9.3-7.3 15.7zm10.3-48.1c-5.3-0.5-6.8 5.9-9.8 8.7c-3.6 3.2-7.7 6.1-6.4 11.8c1.4 6.4 8.1 8.5 13.9 7.6c4.4-4.3 10-8.4 15-9.2q-0.9-0.4-1.8-0.6q-0.9-0.3-1.8-0.4q-0.9-0.2-1.9-0.2q-0.9 0-1.8 0.1q-0.1 0.3-0.2 0.6q-0.1 0.3-0.3 0.5q-0.2 0.3-0.4 0.5q-0.3 0.2-0.6 0.3c-0.7 0.1-1.4 0-2-0.3c-0.6-0.3-1-0.9-1.3-1.5c-0.2-0.6-0.2-1.3 0-2c0.2-0.6 0.7-1.1 1.2-1.5q0.4-0.1 0.8-0.1q0.4 0 0.7 0.1q0.4 0.1 0.7 0.3q0.3 0.3 0.5 0.6q1-0.2 2-0.2q1 0 2 0.1q1 0.1 2 0.3q1 0.2 1.9 0.5q-0.9-1.1-1.6-2.3q-0.8-1.3-1.5-2.6q-0.7-1.3-1.2-2.6q-0.5-1.4-1-2.8c-1.3-2.6-3.9-5.5-7.1-5.7zm39.6-9.6c-2.1-5.2-8-7.2-13.2-3.2c-0.9 0.7-1.5 1.7-2.4 2.4q-0.6 0.4-1.2 0.7q-0.6 0.3-1.2 0.5q-0.7 0.2-1.3 0.3q-0.7 0.1-1.4 0.2c-3.9 0.5-7.8-0.1-9.2 4.8q-0.4 1.4-0.6 2.9q-0.1 1.5 0 2.9q0.1 1.5 0.5 2.9q0.4 1.4 1 2.8q0.6 1.4 1.3 2.8q0.8 1.4 1.6 2.7q0.9 1.3 1.8 2.6q1 1.2 2 2.4q0.2-1.8 0.6-3.6q0.5-1.8 1.1-3.5q0.7-1.7 1.6-3.3q0.9-1.6 2-3.1q0-0.1-0.1-0.1q0-0.1 0-0.1q-0.1-0.1-0.1-0.2q0 0 0-0.1q-0.1-0.2-0.2-0.4q0-0.2 0-0.4q0-0.2 0.1-0.5q0.1-0.2 0.2-0.3q0.2-0.2 0.4-0.3q0.2-0.1 0.4-0.2q0.2 0 0.4-0.1q0.2 0 0.4 0q0.4 0 0.8 0.1q0.4 0 0.8 0.2q0.4 0.2 0.7 0.5q0.3 0.3 0.5 0.6q0.1 0 0.1 0q0 0.1 0 0.1q0 0 0 0q0 0 0 0q0 0.1 0 0.1q0 0 0 0q0 0 0.1 0q0 0 0 0.1q0.1 0.2 0.1 0.4q0.1 0.2 0.1 0.5q0 0.2-0.1 0.4q0 0.3-0.1 0.5q-0.1 0.2-0.3 0.4q-0.2 0.2-0.5 0.3q-0.2 0.2-0.5 0.2q-0.3 0-0.6 0q-0.1 0-0.2 0q-0.2-0.1-0.3-0.1q-0.1-0.1-0.3-0.1q-0.1-0.1-0.2-0.1q-1.1 1.3-2 2.8q-0.8 1.5-1.5 3.1q-0.6 1.7-1 3.3q-0.3 1.7-0.5 3.5q1.9-1.5 3.9-2.8q1.9-1.3 4-2.4q2.1-1.2 4.3-2.1q2.2-0.9 4.4-1.6c4.2-5.3 6.4-12.9 3.8-19.4zm22.3 31.6c-0.5-2.8 0.3-7.2-1.5-9.5c-2.9-3.8-10.8-3.1-14.9-2.7q-2.9 0.3-5.9 0.9q-2.9 0.7-5.7 1.7q-2.8 1.1-5.5 2.5q-2.6 1.4-5 3.2q0.6-0.1 1.2-0.1q0.6 0 1.3 0q0.6 0 1.2 0.1q0.6 0.1 1.2 0.2q0.1-0.3 0.3-0.6q0.2-0.2 0.5-0.4q0.2-0.2 0.5-0.4q0.3-0.1 0.6-0.2q0.5 0 1 0.1q0.6 0.2 1 0.5q0.4 0.3 0.7 0.8q0.3 0.5 0.3 1c0.1 0.6 0 1.2-0.3 1.8c-0.3 0.5-0.8 0.9-1.3 1.1c-0.6 0.2-1.2 0.2-1.8 0c-0.6-0.2-1.1-0.6-1.4-1.1q-0.7-0.1-1.5-0.2q-0.8-0.1-1.6-0.1q-0.8 0-1.6 0q-0.7 0.1-1.5 0.2q2.7 0.9 5.3 2q2.5 1.2 5 2.6q2.4 1.5 4.6 3.2q2.3 1.7 4.3 3.7c1.9 1.9 3.7 4.1 6.4 5c4.3 1.5 9.9-0.2 13.2-3.3c4.3-4.1 1.8-7.2 0.9-12z" />
						</g>
					</g>
				</g>
			</g>
		</g>
	</g>
</svg>