<svg xmlns="http://www.w3.org/2000/svg" xmlns:xlink="http://www.w3.org/1999/xlink" width="483.437" height="530.62" viewBox="0 0 483.437 530.62">
  <defs>
    <clipPath id="clip-path">
      <rect id="Прямоугольник_13" data-name="Прямоугольник 13" width="146.59" height="366.812" fill="#707350"/>
    </clipPath>
    <clipPath id="clip-path-2">
      <rect id="Прямоугольник_14" data-name="Прямоугольник 14" width="85.039" height="79.561" transform="translate(0)" fill="#707350"/>
    </clipPath>
  </defs>
  <g id="Сгруппировать_368" data-name="Сгруппировать 368" transform="translate(-975 -135.816)">
    <g id="Сгруппировать_366" data-name="Сгруппировать 366" transform="matrix(-0.766, 0.643, -0.643, -0.766, 1458.437, 508.26)">
      <g id="Сгруппировать_305" data-name="Сгруппировать 305" transform="translate(0 0)" clip-path="url(#clip-path)">
        <path id="Контур_233" data-name="Контур 233" d="M145.412,157.839c-20.6-.4-42.117-6.079-59.446-17.542A71.012,71.012,0,0,1,61.6,112.877,75.621,75.621,0,0,1,55.84,97.223c-1.131-4.574-3.666-8.353-6.412-12.071,4.627,25.06,10.589,49.507,19.271,73.615,11.321.422,21.165,6.826,23.327,18.942a23.376,23.376,0,0,1,24.918-11.629c11.636,2.286,18.176,13.538,23.387,23.251,4.8,8.94-4,19.12-11.062,24.122a37.4,37.4,0,0,1-6.789,3.745c10.426,2.795,18.719,12.42,15.648,24.062-.808,3.061-2.582,4.76-4.328,7.188-3.828,5.321-1.789,9.3-3.13,14.56-1.559,6.123-7.711,10.24-13.4,12.017-7.91,2.47-15.93.037-22.611-4.647-.87,3.391-2.054,6.909-4.228,9.622q.4,4.377.416,8.754c4.347.139,8.888,7.5,10.239,10.319,1,2.093,5.385,14.929-.582,14.62-3.8-.2-6.583-7.947-7.979-10.766-.469-.947-1.326-2.413-2.171-4.055a94.907,94.907,0,0,1-3.2,16.674c4.029,5.069,13.122,16.707,7.9,22.538-5.855,6.544-8.569-7.871-9.114-10.628-.186-.94-.734-2.766-1.164-4.762A90.816,90.816,0,0,1,79.7,333.835a.813.813,0,0,1,.043.22A69.09,69.09,0,0,1,83.86,355.9c.056,2.148.974,9.588-2.455,10.011-3.881.479-5.684-8.086-6.235-10.377a34.589,34.589,0,0,1-.529-13.417c-.681.993-1.376,1.977-2.1,2.944a22.787,22.787,0,0,1-2.217,2.543,1.6,1.6,0,0,1-.027.2,32.041,32.041,0,0,1-7.089,12.677c-2.194,2.336-6.394,6.813-9.941,6.292a1.219,1.219,0,0,1-.913-1.157c-.518-3.955,4.747-8.93,7.175-11.553a94.624,94.624,0,0,1,8.024-7.09,26.876,26.876,0,0,0,3.564-3.8c-.043.024-.094.056-.133.079-3.008,1.749-12.122,6.128-15.7,3.356-3.8-2.942,21.105-14.206,22.508-13.966a87.321,87.321,0,0,0,4.616-9.872,40.915,40.915,0,0,1-5.048,3.145c-2.55,1.369-13.634,6.475-15.972,2.457-2.1-3.615,6.653-8.07,8.654-9.174a41.166,41.166,0,0,1,15.069-4.416,91.406,91.406,0,0,0,3.2-17.067,39.6,39.6,0,0,1-3.607,3.71c-2.693,2.44-11.1,8.8-14.94,5.587-3.543-2.965,4.408-9.871,6.357-11.509a37.51,37.51,0,0,1,12.559-6.484q-.009-3.482-.269-6.972c-.037.029-.066.064-.1.093-5.935,4.543-13.466-1.8-17.649,6.367-1.024,2-.192,3.626-2.3,5.272a7.324,7.324,0,0,1-4.725,1.133c-5.455-.146-10.941-3.595-14.355-7.68-6.575-7.868-8.25-19.575-6.038-29.742a27.217,27.217,0,0,1-18.951.528q-.629,4.531-.925,9.083a25.057,25.057,0,0,1,2.9,1.778,93.958,93.958,0,0,1,8.657,5.993c2.291,1.784,9.039,6.49,4.909,9.924-3.376,2.808-9.23-4.075-11.158-6.112a81.409,81.409,0,0,1-5.538-6.51q-.129,5.544.262,11.074a89.027,89.027,0,0,1,12.305,10.1c1.648,1.725,11.612,10.942,8.772,13.752-1.5,1.482-5.028-.792-6.339-1.519A39.7,39.7,0,0,1,27.33,296.7c-.564-.657-1.649-1.921-2.806-3.451a115.284,115.284,0,0,0,3.1,14.086c.389,1.356.774,2.7,1.173,4.026,4.005,2.685,7.155,7.219,10,11.021C40,324,44.811,329.737,43.535,332.441c-2.4,5.078-9.35-3.729-10.8-5.6-5.536-7.172-8.066-17.167-9.837-26.275-.126,3.316-.318,6.631-.624,9.934-.242,2.615-.054,6.9-1.4,9.255-2.811,4.928-4.215-3.407-4.511-5.64a56.6,56.6,0,0,1,.611-18.143c.516-2.662,1-8.209,3.394-10.117a.346.346,0,0,1,.023-.039c-.023.039.12-2.692.12-2.692-.16-2.476-.257-4.955-.263-7.435a54.856,54.856,0,0,1-6.894,6.5c-1.428,1.209-10.919,8.1-9.928,1.633.265-1.732,2.071-3.506,3.158-4.737a78.7,78.7,0,0,1,6.367-6.315c1.024-.921,4.939-5.106,7.592-5.876q.343-5,1.08-9.973a27.452,27.452,0,0,1-4.235-2.442c-3.045-2.15-6.009-5.3-6.3-9.219-.336-4.514,3.348-6.893,4.823-10.744,2.332-6.089-3.213-12.584-3.533-18.9-.215-4.262.247-9.031,3.131-12.384,7.016-8.155,21.139-6.06,30.973-3.141-2.074-2.928-3.53-6.142-3.492-9.551a11.158,11.158,0,0,1,3.359-7.644c1.4-1.553,3.051-2.8,4.254-4.546,2.487-3.616,1.31-7.152,1.984-10.951.943-5.31,4.591-7.5,9.791-8.293,1.116-.17,2.227-.265,3.333-.325-4.647-12.959-8.562-26.028-11.875-39.248a43.567,43.567,0,0,1-8.94,18.528c.33,8.542-.978,17.19-7.046,23.638-6.92,7.354-15.322,13.164-22.237,20.65.127.961.239,1.924.323,2.888.416,4.735-.163,13.34-3.8,16.891-1.376,1.342-2.663,1.825-4.055.267-1.194-1.337-.878-5.511-1.223-7.182-.915-4.443-2.841-8.013-4.953-11.936-5.38-9.991,1.736-20.306,7.778-28.261a1.088,1.088,0,0,1,.518-.36,18.218,18.218,0,0,1,6.052-8.961c7.067-5.982,16.548-8.874,25.725-8.92a42.512,42.512,0,0,0,10.643-22.332q-4.4-18.4-7.518-37.223C40.54,50.019,31.374,24.689,16.056,1.613,15.219.353,17.887-.64,18.645.5,33.67,23.137,43.051,48.068,47.59,74.783q.414,2.437.845,4.866c2.608,3.429,6.123,7.188,7.977,11.028,39.7,3.1,74.967,28.051,90.073,65.079.315.774-.087,2.1-1.074,2.083M58.232,359.259c-1.588,1.985-4.587,4.44-1.116,3.122,4.481-1.7,7.784-6.969,9.814-11.766-1.2,1-2.44,2.007-3.675,3.174a53.48,53.48,0,0,0-5.023,5.47M25.093,289.7a38.011,38.011,0,0,0,5.827,7.673,35.81,35.81,0,0,0,7.241,5.733,25.715,25.715,0,0,0,2.9,1.546q1.864,1.1.635-.546a9.671,9.671,0,0,0-1.622-2.366c-4.653-6.225-10.323-11.071-16.445-15.655.034.378.073.754.112,1.13.519,1.09,1.149,2.127,1.352,2.486M37.4,328.148c3.506,3.728,2.8,1.322.712-1.955a63.152,63.152,0,0,0-7.828-10.267A34.127,34.127,0,0,0,37.4,328.148M19.1,296.989a55.054,55.054,0,0,0-.863,14.261,45.714,45.714,0,0,0,.878,6.135.294.294,0,0,1,0,.05,28.355,28.355,0,0,0,.7-4.519c.584-4.823.858-9.7.994-14.557.029-1.067.412-7.189.223-9.312-1.193,1.95-1.6,6.256-1.931,7.941m.411-26.017c-1.42,1.051-2.768,2.208-4.092,3.376a65.134,65.134,0,0,0-8.293,8.383,4.83,4.83,0,0,0-.308.455A16.68,16.68,0,0,0,8.5,282.38a38.677,38.677,0,0,0,3.78-2.977,57.7,57.7,0,0,0,4.477-4.355,28.829,28.829,0,0,0,3.572-4.217c0-.133.016-.266.021-.4-.3.185-.6.359-.85.539m13.564-108.1c6.736-5.842,8.954-13.353,9.029-21.868-10.231,9.583-26.026,15.013-28.476,30.031.519,2.739,1.067,5.477,1.525,8.22,5.64-5.875,11.751-11.03,17.923-16.383M2.711,175.593c-.169,4.941,3.071,8.4,4.932,12.727a37.922,37.922,0,0,1,2.6,10.395c.059.476.087.84.1,1.126a20.822,20.822,0,0,0,1.818-5.179c1.767-6.787.38-12.733-.8-19.487-.944-5.4-2.088-10.52-1.948-15.3-3.346,4.683-6.507,10.071-6.7,15.718m9.751-11.524c.067.511.149,1.02.226,1.529,3.027-8.421,10.113-13.066,17.951-18.859a84.331,84.331,0,0,0,9.236-7.765A38.386,38.386,0,0,0,21.7,144.79c-7.57,4.782-10.37,10.673-9.242,19.279m107.625,51.566c8.223-3.164,22.458-14.381,18.093-24.8-1.868-4.457-5.733-8.552-8.386-12.582a38.292,38.292,0,0,0-3.4-5.029c-10.838-11.753-29.288-3.6-33.632,9.737a.841.841,0,0,1-.169.262c.39,11.216-3.377,23.181-9.076,32.871,3.318-1.914,6.673-3.763,10.086-5.508a4.585,4.585,0,0,1,.722-3.231,3.427,3.427,0,0,1,4.241-1.086c2.071,1.034,1.778,3.65.612,5.265a3.725,3.725,0,0,1-3.845,1.369c-4.029,2.054-7.979,4.251-11.878,6.54,10.7.657,22.637.472,32.9-2.563a9.024,9.024,0,0,0,1.489-.452c.757-.249,1.5-.511,2.24-.794m-22.109-6.607c.077-.195,0-.1,0,0m-.223.416a1.95,1.95,0,0,0,.179-.309c.014-.03.013-.031.023-.056a1.478,1.478,0,0,0-.586-.26,1.531,1.531,0,0,0-1.539.506c-.192.306-.237.655.079.824.6.323,1.476-.265,1.845-.705M128.1,263.826c1.695-5.033-.681-9.7,2.123-14.557,1.04-1.8,2.665-3.171,3.823-4.9a14.7,14.7,0,0,0,.77-14.442c-3.266-7-10.227-10.443-17.688-10.725a.8.8,0,0,1-.122-.034c-11.366,3.331-24.572,3.1-35.731,2.281A24.554,24.554,0,0,0,94.818,233.3c.054-.03.1-.072.157-.1a3.583,3.583,0,0,1,4.506.95,3.016,3.016,0,0,1-1.083,4.005,1.144,1.144,0,0,1-.136.059c-.043.031-.06.072-.112.1a3.515,3.515,0,0,1-4.527-.854,2.6,2.6,0,0,1-.247-2.449,28.043,28.043,0,0,1-13.782-11.566c-3.137,15.068,1.808,33.73,14.108,43.41a12.647,12.647,0,0,0,1.536,1.131,29.778,29.778,0,0,0,11.956,4.9c6.686,1.16,18.373-1.539,20.9-9.063M94.5,300.535A68.538,68.538,0,0,0,98.81,308.5c.465.709.988,1.369,1.476,2.06a2.5,2.5,0,0,1,.216.37v-.01c-.146-2.9-.074-5.516-1.06-8.356a23.645,23.645,0,0,0-4.57-7.8,22.746,22.746,0,0,0-3.379-3.318,5.535,5.535,0,0,1-.378,1.822,55.182,55.182,0,0,0,3.387,7.265m-6.236,27.124c.363,1.814.714,7.283,2.686,8.263,4.5,2.239,3.17-3.048,2.642-4.653A43.053,43.053,0,0,0,86.8,319.257c.05.509.082,1.026.157,1.5.363,2.31.844,4.6,1.3,6.9M76.991,349.3a33.988,33.988,0,0,0,1.945,9.619c.526,1.475,1.057,4.732,1.924,2.663,1.379-3.29.116-9.35-.293-12.785a62.453,62.453,0,0,0-2.206-10.459,32.955,32.955,0,0,0-1.37,10.961M65.93,324.722c-1.888,1.417-3.233,2.051-.3,1.994a22.914,22.914,0,0,0,7.047-1.5,29.919,29.919,0,0,0,7.744-4.119,30.982,30.982,0,0,0,3.642-2.927c.059-.174.113-.35.17-.526a38.33,38.33,0,0,0-18.3,7.08m6.508-20.893-.428.747q-1,1.553.2.707c.978.289,2.811-.88,3.686-1.272a25.221,25.221,0,0,0,6.6-4.334,31.385,31.385,0,0,0,5.626-6.547,7.582,7.582,0,0,1-.14-1.2c-6.1,2.317-12.161,6.169-15.542,11.9M47.988,279.9c2.291,5.391,8.222,13.331,15.007,12.846,5.451-.389,4.278-8.99,8.863-10.974,3.994-1.729,8.335,1.493,12.446-.072,4.982-1.9,6.773-8.452,7.907-13.189A43.311,43.311,0,0,1,82.182,256.6a47.112,47.112,0,0,1-4.975-32.382,22.129,22.129,0,0,0-4.8,20.4,3.909,3.909,0,0,1,1.861,1.651,4.384,4.384,0,0,1-1.08,5.8.881.881,0,0,1-.38.147,3.974,3.974,0,0,1-4.456-1.47,4.149,4.149,0,0,1,.675-5.567,3.518,3.518,0,0,1,.9-.546,23.553,23.553,0,0,1,2.527-18.643c-17.9,12.326-34.137,31.159-24.468,53.908m24.155-30.443a1.222,1.222,0,0,0,.273-1.864,1.518,1.518,0,0,0-2.274.2c-1.143,1.284.913,2.22,2,1.668m-52.51-46.022c-5.9,3.875-5.915,12.341-3.845,18.4,1.014,2.968,2.921,5.337,3.2,8.535.679,7.764-10.38,13.853-1.962,20.943a22.607,22.607,0,0,0,6.673,3.879,1.388,1.388,0,0,1,.3.1,26.067,26.067,0,0,0,20.221-1.375,35.183,35.183,0,0,1,1.3-3.457c5.337-12.041,17.581-21.7,28.941-28.746a72,72,0,0,0-14.606,3c-.2,1.459-1.252,2.929-2.854,2.871-1.9-.07-3.308-2.025-3.414-3.8-.1-1.6.988-3.426,2.728-3.463a3.484,3.484,0,0,1,3,1.92,75.15,75.15,0,0,1,13.227-2.725A53.713,53.713,0,0,1,55.157,209.21c-1.789-1.6-3.818-3.447-5.7-5.487-8.957-3.06-21.345-5.856-29.823-.292m36.483-37.122c-1.548,2.929-.721,5.175-1.312,8.272-.91,4.772-3.841,6.93-6.71,10.457C40.787,194.021,53.124,205,60,210.1a53.524,53.524,0,0,0,17.772,8.333,56.95,56.95,0,0,0-5.706-14.916,3.826,3.826,0,0,1-4.657-.907,4.548,4.548,0,0,1-.039-5.82,3.785,3.785,0,0,1,5.218-.185,4.49,4.49,0,0,1,1.038,5.311,59.38,59.38,0,0,1,6.1,15.285,64,64,0,0,0,10.452-30.455c.09-1.207.126-2.423.11-3.635a11.738,11.738,0,0,0-.046-1.452c-.366-6.839-2.749-13.325-9.176-17.033-4.667-2.693-10.171-3.336-15.489-2.991-4.218.273-7.426.807-9.465,4.67M71.453,200.54c.486-.637.654-1.435-.176-1.877a1.989,1.989,0,0,0-2.32.355,1.293,1.293,0,0,0-.109,1.769,1.955,1.955,0,0,0,2.6-.247M59.316,93.815c14.031,14.754,39.874,31.292,47.923,37.62-18.07-9.34-34.745-20.105-48.789-34.752A74.911,74.911,0,0,0,61.526,107.2a69.052,69.052,0,0,0,24.843,30.151c16.584,11.221,37.374,16.847,57.243,17.565-14.854-34.1-47.533-57.136-84.3-61.1" transform="translate(0 0.001)" fill="#707350"/>
      </g>
    </g>
    <path id="Контур_248" data-name="Контур 248" d="M187.387,64.058c-14.835-3.969-27.8-5.759-42.786-.687A51,51,0,0,0,122.369,78.1c-1.748,1.975-3.336,3.751-6.285,4.094C90.4,85.169,68.2,96.262,46.741,112.852c1.3-2.578,1.806-3.9,2.569-5.048,4.837-7.3,9.557-14.685,14.659-21.8,4.131-5.757,8.72-11.187,13.151-16.728a15.949,15.949,0,0,1,13.972-6.521c9.024.267,17.387-3.2,24.282-8.776a103.426,103.426,0,0,0,17.707-18.427,56.17,56.17,0,0,0,5.051-8.87,78.8,78.8,0,0,0-8.2-1.56C110.2,23.205,88.082,31.678,81.439,56.706A23.122,23.122,0,0,1,75.48,66.918c-3.852,4.077-7.317,8.52-11.84,12.5,2.327-8.928,4.023-18.084,7.131-26.731,4.417-12.278,3.939-24.132-.622-36.046A83.261,83.261,0,0,0,65.17,5.661a57.007,57.007,0,0,0-4-5.661s-2.163,3.95-3,5.44a67.529,67.529,0,0,0-6.317,14.927c-2.454,8.839-2.775,17.908,1.68,26.295,1.83,3.441,4.377,7.014,7.54,9.1,3.758,2.475,4.169,5.194,3.608,8.959C62.836,77.1,58.222,88.479,51.963,99.162A148.629,148.629,0,0,1,28.34,130.054C18.528,139.766,9.372,150.137,0,160.3l4.811.622c3.9-4.2,7.716-8.461,11.513-12.738,4.556-5.13,9.231-10.155,13.96-15.126,2.77-2.911,5.961-5.44,8.583-8.469,3.1-3.58,6.916-4.776,11.389-4.478,3.064.2,6.134.46,9.172.9,5.273.753,9.463,2.5,12.628,7.708,2.841,4.678,7.493,8.525,11.994,11.863,7.83,5.806,16.874,7.3,26.344,4.847a50.784,50.784,0,0,0,21.2-11.1c2.264-2,6.507-6.148,6.507-6.148s-4.708-2.86-7.551-4.377c-14.666-7.826-29.95-11.849-46.406-5.89-6.986,2.529-13.782,4.089-21.307,1.264-4.279-1.607-9.254-1.354-15.14-2.093,2.5-2.074,4.33-3.695,6.263-5.177C70.732,99.028,89.222,89.877,110.11,85.83c4.1-.793,7.636-.608,11.464,1.628,16.116,9.412,32.026,8.5,47.464-1.856,5.7-3.824,11.481-7.528,17.04-11.544,2.543-1.837,5.625-4.293,7.382-6.892C191.915,65.36,188.588,64.38,187.387,64.058ZM132.93,28.922c-7.382,16.313-30.59,32.07-44.9,29.943C99.6,51.707,110.112,44.4,120.962,37.684c-11.856,6.46-24.047,12.33-35.922,18.8C88.488,36.354,113.652,25.2,132.93,28.922ZM64.248,53.636C50.835,43.373,49.394,19.03,61.539,5.515c10.057,16.379,11.915,35.53,6.482,45.6l-6.062-23.1C61.3,36.628,65.119,44.665,64.248,53.636Zm13.986,69.808c16.215-9.233,43.023-5.893,53.413,5.94-18.945,19.933-45.123,17.929-58.4-4.194,13.341,3.871,25.758,11.675,39.995,6.024C100.865,132.236,89.574,128.687,78.234,123.444Zm109.821-54.67c-10.545,7.981-21.141,15.973-33.9,20.118-10.655,3.462-20.719.875-30.452-4.187,11.95-1.971,24.181-2.116,35.429-7.009L124.11,81.516c12.534-16.522,39.371-22.532,65-13.876C189.391,67.422,188.7,68.14,188.056,68.774Z" transform="matrix(-0.998, -0.07, 0.07, -0.998, 1393.13, 666.436)" fill="#707350"/>
    <path id="Контур_249" data-name="Контур 249" d="M16.91,22.162c-2.624-3.955-5.336-7.863-8.218-11.634C5.934,6.915,2.91,3.5,0,0,4.894,8.015,10.225,15.008,14.755,23.1c2.7,4.816,5.106,9.051,5.106,9.051-2.753,7.035-8.107,21.444-10.432,28.631a17.481,17.481,0,0,0-.658,6.767,3.905,3.905,0,0,0,2.32,3.094,4.392,4.392,0,0,0,3.743-1.524,20.293,20.293,0,0,0,2.9-5.589,66.786,66.786,0,0,0,4.2-24.3c-.014-.934.023-4.106.1-5.046.35-.074-.35.078,0,0,2.781,6.008,6.694,14.032,9.534,20.008a33.174,33.174,0,0,1,2.486,7.43c-2.164,5.368-5.943,15.2-7.546,20.777-.663,2.311-1.022,5.934,1.446,6.482,3.526.783,5.013-5.428,5.893-9.249.944-4.116,1.367-9.553,1.878-13.765.322-.06-.318.055,0,0,2.348,8.4,5.409,17.766,7.665,25.845a51.11,51.11,0,0,0-13.282,20.809c-.7,1.971-1.469,4.489.875,5.7,2.463,1.275,4.061-1.017,4.94-2.776,2.343-4.7,4.3-9.585,6.418-14.4.428-.971.87-1.943,1.307-2.914,1.865,5.663,2.4,11.275,3.715,16.7.787,5.363.971,8.227.971,8.227-2.707,2.564-16.32,17.54-12.283,20.132,3.508,2.688,7.384-4.484,9.134-8.439.87-1.966,2.836-6.5,3.858-8.4.341.092-.341-.088,0,0,.474,11.91,1.2,26.817,1.671,38.6-1.482.925-10.358,7.734-13.609,10.662-1.142,1.027-5.267,5.5-2.679,7.84,3,2.716,6.62-2.021,7.486-3.1,1.98-2.468,7.035-9.221,8.443-10.879-.069,6.62-.124,12.043-.184,17.467-.1,9.548.382,19.023,3.591,28.138.787,2.237,2.408,5.386,4.4,2.325,3.241-4.972.649-31.075-3.522-47.667,2.942,3.918,22.941,19.727,26.053,13.917,2.353-4.4-8.577-10.207-11.348-11.726-3.7-2.026-11.008-5.138-14.612-7.315A105.666,105.666,0,0,1,53.1,151.049c1.05,1.432,2.656,4.466,3.609,5.649,2.09,2.6,4.107,5.281,6.395,7.7,1.5,1.584,3.462,3.959,5.778,1.989,2.242-1.906.318-4.374-.879-6.137-2.265-3.338-10.4-11.6-11.109-12.577,6.1.147,12.822,1.367,18.42,1.229,2.771-.064,11-.322,10.727-4.392-.3-4.581-5.055-4.641-7.477-4.811a63.223,63.223,0,0,0-20.878,2.168c-1.616.428-3.255.76-5.115,1.188-.571-7.251-1.091-13.908-1.644-20.933,4.622,3.342,8.512,6.316,12.582,9.023,1.57,1.04,5.653,4.438,7.536,1.271,1.561-2.62-2.527-4.567-3.895-5.3-4.489-2.417-11.611-4.931-16.072-7.4,0,0-1.759-8.462-2.168-12.053a45.442,45.442,0,0,0,8.255,8.683c2.771,2.159,6.823,6.625,9.631,2.564,4.07-5.888-13.25-12.522-18.59-18.8,3.752-.212,16.758,2.785,24.036-1.777,2.808-1.386,2.463-4.374-.433-5.589a12.535,12.535,0,0,0-5.626-1.133c-5.06.41-17.761,3.559-19.69,4A252.885,252.885,0,0,0,29.57,44.592c2.168,1.013,3.218,1.616,4.337,2.007,3.973,1.39,7.928,2.878,11.979,3.982,2.3.626,5.073,1.229,6.537-1.57.925-1.768-1.008-3.66-4.963-5.119-1.156-.423-2.353-.736-3.54-1.05-1.505-.4-3.029-.741-5.81-1.413a58.151,58.151,0,0,0,5.566-2.606A137.094,137.094,0,0,0,55.457,31a5.021,5.021,0,0,0,1.183-4.622,5.175,5.175,0,0,0-4.134-2.367,30.66,30.66,0,0,0-9.769,1.745c-6.174,2.417-12.117,5.423-18.383,8.291C21.932,30.159,19.52,26.094,16.91,22.162Zm8.5,13.848c9.157-3.306,26.016-11.928,28.2-8.158,1.782,3.084-15.984,10.962-25.832,13.236ZM71.234,95.486c1.28,2.73-24.032,2.4-24.032,2.4S69.977,92.8,71.234,95.486Zm-15.6,49.486c5.709-2.675,27.213-3.554,26.868-.654C82.191,146.952,63.256,146.3,55.632,144.972ZM12.43,67.459C7.315,67.6,16.412,48.3,19.838,39.633,18.921,47.322,15.432,67.376,12.43,67.459Zm44.26,147.624c-2.9-.364-5.377-22.825-4.3-44.141C53.542,177.157,59.292,215.4,56.691,215.083ZM77.32,182c-1.289,1.362-16.887-9.765-20.556-13.448C61.663,171.572,79.539,179.652,77.32,182Zm-12.6-64.485c-1.657,1.878-13.1-8.835-16.343-14.525h0C52.589,106.591,66.064,116,64.724,117.515Zm2.353,46.636c-1.63,1.146-10.768-13.388-13.549-16.551.364-.331-.364.327,0,0C56.29,150.791,68.315,163.281,67.077,164.151Zm-24.4-68.623c.313.166-8.6,21.131-10.381,20.8C29.418,115.793,38.119,99.257,42.681,95.528Z" transform="matrix(-0.978, 0.208, -0.208, -0.978, 1399.415, 349.706)" fill="#707350"/>
    <g id="Сгруппировать_367" data-name="Сгруппировать 367" transform="translate(975 170.553)">
      <g id="Сгруппировать_307" data-name="Сгруппировать 307" transform="translate(0 73.646) rotate(-60)" clip-path="url(#clip-path-2)">
        <path id="Контур_234" data-name="Контур 234" d="M83.9,29.766c-2.568-4.175-8.186-6.729-12.924-7.084a12.223,12.223,0,0,0-5.841.913c2.208-8.3-.641-18.145-8.918-21.966C47.9-2.214,38.61.909,36.147,9.247a11.722,11.722,0,0,0-5.9-4.867c-2.143-.745-3.1-.246-5.132.057-3.529.524-7.014-.429-10.4.057C4.118,6.014,5.427,21.373,10,27.606a51.587,51.587,0,0,0,4.394,5.11c-4.608-.188-9.261,1.2-12.186,5.095C-1.827,43.184.1,49.617,4.544,53.778c5.654,5.293,3.015,1.676,5.464,6.645a7.035,7.035,0,0,0,2.015,2.942,9.292,9.292,0,0,0,6.741,1.68,11.826,11.826,0,0,0,6.877-3.03c0,.229-.01.457,0,.686.135,3.112,1.221,6.906,3.4,9.228,2.871,3.056,6.23,2.053,10.015,2.485,4.631.53,6.957,4.906,12.094,5.134a10.017,10.017,0,0,0,9.5-5.062c3.576-6.46,1.684-14.831-2.322-20.741a47.492,47.492,0,0,0,10.358,1.171c3.851.01,9.008-.161,12.112-2.844,3.444-2.976,1.994-8.765,2.936-12.712.874-3.666,2.353-6.043.17-9.592M37.937,12.59C38.222,6.474,42.529,1.4,49.123,1.937a15.287,15.287,0,0,1,9.616,4.332c4.922,5.034,5.741,12.754,3.337,19.108a28.27,28.27,0,0,0-2.8,2.426,50.552,50.552,0,0,1-17.39,11.468,21.809,21.809,0,0,0,4.6-7.764c.988-.118,2.053-.671,1.888-1.808-.2-1.392-1.8-2.143-3.063-2.133-.943.009-2.382.405-2.433,1.553a2.413,2.413,0,0,0,1.636,2.04,18.743,18.743,0,0,1-5.263,7.911c.01-.7-.038-1.413-.087-2.138-.46-6.712.118-13.61-.471-20.245a16.59,16.59,0,0,0-.758-3.649c0-.184-.006-.3,0-.447M8.468,14.9c.7-3.709,2.948-7.357,7.027-7.858,1.443-.177,3.165.435,4.643.458,3.673.057,7.322-1.91,10.779-.012a9.806,9.806,0,0,1,4.617,5.451v.009a4.2,4.2,0,0,1,.185.527c1.046,3.3.877,7.171.791,10.644a86.633,86.633,0,0,0,.423,10.643c.136,1.371.785,3.813.228,5.338q-3.3-4.159-6.622-8.306a2.776,2.776,0,0,0-.43-2.718,2.436,2.436,0,0,0-3.6-.416,3.026,3.026,0,0,0-.075,4,2.232,2.232,0,0,0,2.466.694q3.2,4,6.387,8.012c-6.383,1.44-15.64-7.13-19.4-10.762-4.288-4.143-8.64-9.221-7.415-15.7M27.709,30.97l0,0h0l0,0m-8.5,31.994c-5.33.517-6.839-5.832-9.925-8.606-3.591-3.229-7.7-6.114-6.5-11.727,1.371-6.42,8-8.582,13.817-7.734,4.451,4.175,10.086,8.243,15.116,9.068a15.561,15.561,0,0,1-7.336,1.166,2.131,2.131,0,0,0-1.475-1.884A2.846,2.846,0,0,0,20.9,48.5a2.31,2.31,0,0,0,2.644-.883,17.171,17.171,0,0,0,7.926-.838A31.523,31.523,0,0,0,26.28,57.132c-1.369,2.692-3.951,5.529-7.072,5.832M58.88,72.148c-2.023,5.207-7.9,7.312-13.156,3.368-.908-.681-1.511-1.711-2.45-2.385a9.94,9.94,0,0,0-5.084-1.62c-3.974-.527-7.781.15-9.311-4.766A17,17,0,0,1,29.7,55.261,38.353,38.353,0,0,1,36.37,44.689a26.069,26.069,0,0,0,5.4,13.44,3.356,3.356,0,0,0-.251.477,1.505,1.505,0,0,0,.2,1.654,2.157,2.157,0,0,0,1.585.558,3.21,3.21,0,0,0,2.805-1.43.789.789,0,0,0,.052-.146,1.194,1.194,0,0,0,.07-.109,2.157,2.157,0,0,0,.012-1.821,1.788,1.788,0,0,0-1.87-.9,3.224,3.224,0,0,0-1.058.326A23.062,23.062,0,0,1,38.264,44.1a52.391,52.391,0,0,0,16.672,8.744c4.253,5.218,6.473,12.785,3.943,19.3M80.9,40.379c-.5,2.823.341,7.193-1.4,9.544-2.835,3.824-10.811,3.137-14.832,2.824A44.94,44.94,0,0,1,42.4,44.635a16.185,16.185,0,0,0,4.954-.228,2.518,2.518,0,0,0,1.873,1.536,2.762,2.762,0,0,0,3.045-2.429,2.629,2.629,0,0,0-4.841-1.759,15.511,15.511,0,0,1-6.239.14A48.336,48.336,0,0,0,60.314,30.268c1.935-1.9,3.687-4.144,6.338-5.09,4.319-1.54,9.954.186,13.226,3.212,4.416,4.081,1.871,7.228,1.026,11.989" transform="translate(0 0)" fill="#707350"/>
      </g>
    </g>
    <path id="Контур_250" data-name="Контур 250" d="M9.932,1.275C8.36-.619,4.85-.219,2.767,1.275.556,2.858-.866,6.263.6,8.657a4.86,4.86,0,0,0,4.127,2.177c3.1-.028,4.715-3.149,4.993-3.694C9.987,6.618,11.614,3.3,9.932,1.275Zm-1.3,4.888c-.594,1.905-2.86,2.316-3.26,2.388-.533.1-2.011.367-2.716-.433C1.711,7.04,2.545,4.5,4.177,3.336,4.311,3.241,6.3,1.875,7.76,2.9A2.986,2.986,0,0,1,8.632,6.163Z" transform="matrix(-0.375, 0.927, -0.927, -0.375, 1176.104, 402.694)" fill="#707350"/>
    <path id="Контур_251" data-name="Контур 251" d="M7.072.908C5.953-.441,3.453-.156,1.97.908.4,2.035-.616,4.46.424,6.164a3.461,3.461,0,0,0,2.939,1.55c2.211-.02,3.358-2.243,3.556-2.63C7.112,4.713,8.271,2.348,7.072.908ZM6.147,4.389a2.894,2.894,0,0,1-2.322,1.7c-.38.071-1.432.261-1.934-.309C1.219,5.013,1.812,3.2,2.975,2.375c.095-.067,1.511-1.04,2.551-.309A2.126,2.126,0,0,1,6.147,4.389Z" transform="matrix(0.545, 0.839, -0.839, 0.545, 1239.67, 521.466)" fill="#707350"/>
    <path id="Контур_253" data-name="Контур 253" d="M101.186,517.009c.387-.431,1.432-1.282,2.31-.8a1.775,1.775,0,0,1,.641,2.079,1.917,1.917,0,0,1-.969,1.048,1.958,1.958,0,0,1-1.846.033,1.509,1.509,0,0,1-.691-.98A1.716,1.716,0,0,1,101.186,517.009Z" transform="translate(1171.77 -249.357)" fill="#707350"/>
    <path id="Контур_254" data-name="Контур 254" d="M101.186,517.009c.387-.431,1.432-1.282,2.31-.8a1.775,1.775,0,0,1,.641,2.079,1.917,1.917,0,0,1-.969,1.048,1.958,1.958,0,0,1-1.846.033,1.509,1.509,0,0,1-.691-.98A1.716,1.716,0,0,1,101.186,517.009Z" transform="translate(1110.994 15.981)" fill="#707350"/>
  </g>
</svg>
