<svg xmlns="http://www.w3.org/2000/svg" xmlns:xlink="http://www.w3.org/1999/xlink" width="417.552" height="557.906" viewBox="0 0 417.552 557.906">
  <defs>
    <clipPath id="clip-path">
      <rect id="Прямоугольник_14" data-name="Прямоугольник 14" width="85.039" height="79.561" transform="translate(0 0)" fill="#707350"/>
    </clipPath>
  </defs>
  <g id="Elements_5" transform="translate(0 0)">
    <g id="Сгруппировать_290" data-name="Сгруппировать 290" transform="translate(0 113.426)">
      <path id="Контур_2" data-name="Контур 2" d="M171.409,58.6c-13.57-3.631-25.428-5.268-39.138-.629a46.652,46.652,0,0,0-20.336,13.474c-1.6,1.807-3.051,3.431-5.749,3.744C82.692,77.907,62.382,88.054,42.756,103.23c1.187-2.358,1.652-3.564,2.35-4.618,4.425-6.678,8.742-13.433,13.409-19.939,3.779-5.266,7.976-10.233,12.03-15.3a14.589,14.589,0,0,1,12.781-5.965c8.255.245,15.9-2.929,22.211-8.028a94.607,94.607,0,0,0,16.2-16.856,51.38,51.38,0,0,0,4.62-8.113,72.078,72.078,0,0,0-7.5-1.427c-18.046-1.755-38.277,6-44.354,28.889a21.151,21.151,0,0,1-5.45,9.341c-3.523,3.729-6.693,7.794-10.83,11.437,2.129-8.167,3.68-16.542,6.523-24.452,4.041-11.231,3.6-22.074-.569-32.973A76.161,76.161,0,0,0,59.613,5.178,52.146,52.146,0,0,0,55.957,0S53.978,3.614,53.21,4.976A61.772,61.772,0,0,0,47.432,18.63c-2.245,8.086-2.539,16.381,1.536,24.053,1.674,3.148,4,6.416,6.9,8.324,3.438,2.264,3.813,4.751,3.3,8.195-1.687,11.321-5.907,21.733-11.633,31.505a135.954,135.954,0,0,1-21.609,28.259C16.948,127.849,8.573,137.336,0,146.629l4.4.569c3.569-3.843,7.058-7.74,10.532-11.652,4.167-4.693,8.444-9.289,12.77-13.836,2.534-2.663,5.453-4.976,7.852-7.746a11.813,11.813,0,0,1,10.418-4.1c2.8.187,5.611.421,8.39.82,4.824.689,8.656,2.287,11.551,7.051,2.6,4.279,6.854,7.8,10.972,10.852,7.163,5.311,15.435,6.68,24.1,4.433a46.453,46.453,0,0,0,19.392-10.152c2.071-1.833,5.953-5.624,5.953-5.624s-4.307-2.616-6.907-4c-13.416-7.158-27.4-10.839-42.449-5.388-6.39,2.313-12.607,3.74-19.491,1.157-3.914-1.47-8.465-1.238-13.849-1.914,2.287-1.9,3.961-3.38,5.729-4.736C64.7,90.584,81.615,82.213,100.721,78.512c3.753-.725,6.985-.556,10.487,1.489,14.742,8.609,29.295,7.777,43.417-1.7,5.212-3.5,10.5-6.886,15.587-10.56a28.628,28.628,0,0,0,6.753-6.3C175.551,59.787,172.508,58.89,171.409,58.6ZM121.6,26.456c-6.753,14.922-27.982,29.336-41.067,27.389,10.577-6.547,20.194-13.231,30.119-19.375-10.845,5.91-22,11.278-32.859,17.2C80.943,33.254,103.961,23.051,121.6,26.456ZM58.77,49.062C46.5,39.674,45.183,17.407,56.292,5.045c9.2,14.982,10.9,32.5,5.929,41.715L56.676,25.626C56.073,33.505,59.566,40.857,58.77,49.062Zm12.793,63.856c14.832-8.446,39.355-5.39,48.858,5.433-17.33,18.233-41.275,16.4-53.425-3.837,12.2,3.541,23.561,10.68,36.584,5.511C92.264,120.961,81.936,117.714,71.564,112.918ZM172.021,62.909c-9.645,7.3-19.338,14.611-31.012,18.4-9.746,3.167-18.952.8-27.855-3.83,10.931-1.8,22.119-1.936,32.409-6.412l-32.035,3.5c11.465-15.113,36.014-20.611,59.457-12.693C173.242,61.673,172.613,62.33,172.021,62.909Z" transform="translate(204.559 296.91) rotate(-13)" fill="#707350"/>
      <path id="Контур_3" data-name="Контур 3" d="M144.588,319.8a15.128,15.128,0,0,0,.921-2.211c5.465-22.286,8.289-44.784,3.871-67.575-1.321-6.821-.046-12.949,1.938-19.254a7.04,7.04,0,0,1,5.293-5.217c7.565-1.928,14.867-4.246,23.07-2.146,12.833,3.284,23.991-1.528,31.283-12.494,5.829-8.775,8.517-18.688,9.4-29.046.248-2.925.5-8.1.5-8.1a69.9,69.9,0,0,0-8.648,2.707c-17.21,7.53-31.581,18.055-37.345,37.087-1.164,3.846-3.471,5.758-7.277,6.513-4.21.825-8.36,1.958-12.929,3.051,1.7-5.824,3.654-10.869,9.038-14.123,2.743-1.655,4.984-4.261,7.16-6.695,7.823-8.739,10.055-18.632,5.986-29.83a109.511,109.511,0,0,0-13.7-25.306,11.323,11.323,0,0,0-.81-1.032c-2.095-2.353-4.736-5.582-4.736-5.582a34.5,34.5,0,0,0-4.306,6.5,51.824,51.824,0,0,0-5.47,21.451c-.455,9.387,2.181,18.177,5.01,26.941a9.692,9.692,0,0,0,.516,1.2c3.557,7.3,3.866,14.316-.187,21.815-2.829,5.227-4.215,11.239-6.695,18.156-6.639-21.612-17.225-39.89-28.13-58.011-3.264-5.435-6.411-10.945-9.488-16.486-1.807-3.249-3.153-6.761-5.1-9.908-2.307-3.724-2.307-7.418-.815-11.285,1.027-2.646,2.1-5.283,3.325-7.844,2.115-4.443,4.812-7.656,10.283-9.012,4.908-1.214,9.584-4.256,13.774-7.307,7.282-5.308,11.1-12.873,11.543-21.9A47.018,47.018,0,0,0,137.918,73.1c-1.144-2.545-3.628-7.434-3.628-7.434s-3.826,3.36-5.946,5.45c-10.95,10.783-18.713,23.151-18,39.313.3,6.862-.192,13.283-4.762,19.143-2.6,3.33-3.745,7.793-6.022,12.777-1.139-2.773-2.065-4.837-2.839-6.953-6.73-18.344-9.7-37.178-7.51-56.721.43-3.836,1.569-6.9,4.6-9.665,12.747-11.618,16.33-25.9,11.451-42.38-1.8-6.077-3.471-12.2-5.48-18.212A29,29,0,0,0,95.741,0c-2.019.865-3.8,3.527-4.418,4.5-7.6,11.993-12.747,22.933-12.408,37.552a47.106,47.106,0,0,0,6.862,23.677c1.26,2.085,2.388,3.977,1.872,6.674-4.458,23.475-.794,46.119,7.919,69.625-1.913-1.857-2.94-2.667-3.745-3.659-5.106-6.28-10.318-12.484-15.186-18.946C72.7,114.19,69.174,108.644,65.51,103.21a14.738,14.738,0,0,1-1.9-14.123c2.722-7.889,1.974-16.223-1.042-23.839A95.833,95.833,0,0,0,51.2,44.541a52.443,52.443,0,0,0-6.432-6.9,73.217,73.217,0,0,0-3.638,6.806c-7.135,16.876-5.764,38.721,14.483,51.488A21.334,21.334,0,0,1,62.975,104c2.535,4.524,5.5,8.8,7.768,13.9-7.236-4.519-14.847-8.537-21.618-13.668-9.61-7.282-20.2-10.13-31.966-9.392A76.327,76.327,0,0,0,6.1,96.2,53.1,53.1,0,0,0,0,98.165s2.889,3,3.967,4.149A62.187,62.187,0,0,0,15.4,112c7.115,4.6,15.029,7.388,23.657,5.774,3.537-.668,7.393-1.928,10.105-4.144,3.218-2.626,5.728-2.242,8.9-.708,10.409,5.04,19.179,12.251,26.875,20.722A137.229,137.229,0,0,1,105.669,163c7.322,14.169,15.859,27.7,23.591,41.667a157.861,157.861,0,0,1,17.013,45.279c.719,3.568,2.252,10.869,1.574,14.837-1.1-1.948-3.38-7.565-4.509-9.493a57.225,57.225,0,0,0-15.763-17.382c-2.176-1.6-3.856-3.224-4.478-6.1-1.968-9.154-7.768-15.565-15.7-20.023A157.859,157.859,0,0,0,92.6,204.719c-7.671-3.309-15.257-6.674-20.95-13.132-.349-.395-1.918-2.479-2.975-2.763a23.543,23.543,0,0,0-.471,5.531c.035,17.731,7.064,31.849,22.306,41.261a29.713,29.713,0,0,0,27.1,2.7c2.981-1.128,4.873-.481,7.135,1.159a56.528,56.528,0,0,1,23.212,36.8c.906,5.05.294,10.475-.243,15.662-.967,9.27-2.4,18.49-3.638,27.736Zm73-140.813c-1.058,12.281-3.664,23.409-11.026,32.857a25.138,25.138,0,0,1-28.312,8.486c10.272-4.893,19.644-10.51,24.219-21.486-7.5,7.5-15.348,14.447-25.858,18.1C180.713,199.552,199.289,182.11,217.592,178.987Zm-55.906,29.461c1.882-9.625,3.907-17.64,4.919-25.777,1.108-8.921-1.473-18.384-5.2-23,6.29,19.067,1.118,38.635-2.368,46.651-1.761-5.5-4.807-15.333-6.4-20.778a49.822,49.822,0,0,1,2.054-34.6,41.448,41.448,0,0,1,3.183-6.082c7.327,10.222,13.557,20.418,16.714,31.5,2.4,8.435.531,16.016-4.812,22.786C167.5,202.037,164.945,204.719,161.686,208.448ZM94.956,3.967c-.116-.309.329.5.708,1.245,4.134,11.5,8.258,23.055,8.4,35.452.116,10.359-4.939,18.521-12.094,25.712,1.559-11.087,4.807-21.916,3.593-33.19-2.049,10.4-4.094,20.793-6.29,31.951C78.151,49.52,80.251,24.188,94.956,3.967ZM72.038,197.69c7.292,3.436,14.174,6.664,21.036,9.923,4.337,2.059,8.764,3.962,12.944,6.305a32.732,32.732,0,0,1,14.23,15.773,19.1,19.1,0,0,1,.627,3.613c-14.047-8.451-29.365-12.757-40.229-24.73a3.637,3.637,0,0,0,.582,2.505c9.073,11.573,23.3,15.565,35.306,23.348C95.943,243.936,71.1,220.755,72.038,197.69Zm41.56-80.524c-3.674-16.851,6.669-39.576,19.973-45.477,12.357,22.21,3.37,44.748-19.811,50.365,7.095-10.7,17.4-19.5,16.35-33.621C127.6,99.627,121.351,108.609,113.6,117.166ZM45.3,42.845c12.357,11.011,19.852,35.832,14.032,47.86-3.127-12.17-6.669-23.46-9.6-34.886h0c2.429,12.241,4.246,24.613,6.68,36.874C39.6,84.1,36.7,58.826,45.3,42.845ZM4.964,99.364c17.225-4.352,34.633-.708,42.016,6.862L24.927,105.2c7.418,2.96,15.56,1.807,23.232,5.05C35.407,119.251,13.536,113.806,4.964,99.364Z" transform="translate(244.981 69.723) rotate(50)" fill="#707350"/>
      <path id="Контур_4" data-name="Контур 4" d="M15.468,179.751c-2.4,3.617-4.881,7.193-7.517,10.642C5.428,193.7,2.661,196.819,0,200.024,4.476,192.692,9.353,186.3,13.5,178.9c2.468-4.4,4.67-8.279,4.67-8.279-2.518-6.435-7.416-19.616-9.543-26.19a15.991,15.991,0,0,1-.6-6.19,3.572,3.572,0,0,1,2.122-2.83,4.018,4.018,0,0,1,3.424,1.394,18.563,18.563,0,0,1,2.657,5.112,61.091,61.091,0,0,1,3.841,22.231c-.013.855.021,3.756.093,4.615.32.067-.32-.072,0,0,2.544-5.5,6.123-12.836,8.721-18.3a30.346,30.346,0,0,0,2.274-6.8c-1.979-4.91-5.437-13.905-6.9-19.005-.606-2.114-.935-5.428,1.322-5.929,3.226-.716,4.586,4.965,5.39,8.46.863,3.765,1.251,8.738,1.718,12.591.295.055-.291-.051,0,0,2.148-7.681,4.948-16.251,7.012-23.642A46.752,46.752,0,0,1,27.545,97.1c-.644-1.8-1.343-4.106.8-5.214,2.253-1.166,3.714.931,4.519,2.539,2.144,4.3,3.933,8.768,5.87,13.168.392.888.8,1.777,1.2,2.666,1.706-5.18,2.194-10.313,3.4-15.274.72-4.906.889-7.525.889-7.525-2.476-2.346-14.929-16.045-11.236-18.416,3.209-2.459,6.755,4.1,8.355,7.719.8,1.8,2.594,5.95,3.529,7.685.312-.084-.312.08,0,0,.434-10.894,1.1-24.53,1.529-35.311-1.356-.847-9.475-7.075-12.448-9.753-1.044-.939-4.818-5.033-2.451-7.172,2.746-2.485,6.056,1.849,6.847,2.838,1.811,2.257,6.435,8.435,7.723,9.951C46,38.95,45.953,33.989,45.9,29.028c-.093-8.734.35-17.4,3.285-25.739.72-2.047,2.2-4.927,4.026-2.127,2.965,4.548.594,28.426-3.222,43.6,2.691-3.584,20.984-18.045,23.831-12.731,2.152,4.026-7.845,9.336-10.381,10.726-3.386,1.853-10.069,4.7-13.366,6.692a96.655,96.655,0,0,0-1.5,12.4c.96-1.309,2.43-4.085,3.3-5.167,1.912-2.379,3.756-4.83,5.849-7.041,1.373-1.449,3.167-3.622,5.285-1.819,2.051,1.743.291,4-.8,5.614-2.072,3.053-9.513,10.608-10.162,11.505,5.576-.135,11.728-1.251,16.849-1.124,2.535.059,10.061.295,9.812,4.017-.278,4.19-4.624,4.245-6.839,4.4a57.832,57.832,0,0,1-19.1-1.983c-1.478-.392-2.977-.695-4.679-1.087-.522,6.633-1,12.722-1.5,19.148,4.228-3.057,7.787-5.778,11.509-8.254C59.53,79.112,63.265,76,64.987,78.9c1.428,2.4-2.312,4.178-3.563,4.851-4.106,2.211-10.621,4.51-14.7,6.772,0,0-1.609,7.74-1.983,11.025a41.566,41.566,0,0,1,7.551-7.943c2.535-1.975,6.241-6.06,8.81-2.346,3.723,5.386-12.12,11.454-17,17.195,3.432.194,15.329-2.548,21.987,1.625,2.569,1.268,2.253,4-.4,5.112a11.466,11.466,0,0,1-5.146,1.036c-4.628-.375-16.247-3.255-18.011-3.66a231.323,231.323,0,0,1-15.48,46.664c1.983-.926,2.944-1.478,3.967-1.836,3.634-1.272,7.252-2.632,10.958-3.643,2.1-.573,4.641-1.124,5.98,1.436.846,1.617-.922,3.348-4.54,4.683-1.057.387-2.152.674-3.238.96-1.377.362-2.771.678-5.314,1.293a53.19,53.19,0,0,1,5.091,2.384,125.41,125.41,0,0,1,10.776,7.155,4.593,4.593,0,0,1,1.082,4.228,4.733,4.733,0,0,1-3.782,2.165,28.046,28.046,0,0,1-8.936-1.6c-5.647-2.211-11.084-4.961-16.815-7.584C20.062,172.436,17.855,176.155,15.468,179.751Zm7.778-12.667c8.376,3.024,23.8,10.911,25.794,7.462,1.63-2.821-14.621-10.027-23.629-12.107Zm41.914-54.4c1.171-2.5-21.983-2.194-21.983-2.194S64.01,115.139,65.16,112.679ZM50.888,67.413c5.222,2.447,24.892,3.251,24.577.6C75.183,65.6,57.862,66.2,50.888,67.413Zm-39.518,70.9c-4.679-.131,3.643,17.527,6.776,25.453C17.308,156.737,14.116,138.393,11.37,138.317ZM51.857,3.281c-2.657.333-4.919,20.879-3.929,40.377C48.976,37.973,54.236,2.986,51.857,3.281Zm18.87,30.262c-1.179-1.246-15.447,8.932-18.8,12.3C56.4,43.081,72.757,35.69,70.727,33.542ZM59.205,92.529c-1.516-1.718-11.985,8.081-14.95,13.287h0C48.1,102.522,60.431,93.918,59.205,92.529Zm2.152-42.659c-1.491-1.049-9.85,12.246-12.394,15.139.333.3-.333-.3,0,0C51.49,62.09,62.49,50.665,61.357,49.869ZM39.042,112.641c.286-.151-7.866-19.329-9.5-19.026C26.91,94.1,34.869,109.23,39.042,112.641Z" transform="matrix(0.978, 0.208, -0.208, 0.978, 139.066, 0)" fill="#707350"/>
      <path id="Контур_5" data-name="Контур 5" d="M102.859,517.019c-1.438,1.733-4.649,1.367-6.554,0-2.022-1.448-3.323-4.562-1.987-6.752a4.446,4.446,0,0,1,3.775-1.991c2.84.025,4.313,2.881,4.567,3.379C102.909,512.131,104.4,515.17,102.859,517.019Zm-1.189-4.471c-.544-1.742-2.616-2.118-2.982-2.185-.488-.091-1.839-.335-2.484.4-.864.986-.1,3.313,1.392,4.374.122.086,1.941,1.336,3.277.4A2.731,2.731,0,0,0,101.67,512.548Z" transform="translate(122.281 -398.445)" fill="#707350"/>
      <path id="Контур_6" data-name="Контур 6" d="M9.085,8.744c-1.438,1.733-4.649,1.367-6.554,0C.509,7.3-.792,4.181.544,1.992A4.446,4.446,0,0,1,4.319,0c2.84.026,4.313,2.881,4.567,3.379C9.136,3.856,10.624,6.895,9.085,8.744ZM7.9,4.273C7.352,2.53,5.279,2.154,4.914,2.088c-.488-.091-1.839-.335-2.484.4-.864.986-.1,3.313,1.392,4.374.122.086,1.941,1.336,3.277.4A2.731,2.731,0,0,0,7.9,4.273Z" transform="translate(174.003 236.021) rotate(77)" fill="#707350"/>
      <path id="Контур_7" data-name="Контур 7" d="M9.085,8.744c-1.438,1.733-4.649,1.367-6.554,0C.509,7.3-.792,4.181.544,1.992A4.446,4.446,0,0,1,4.319,0c2.84.026,4.313,2.881,4.567,3.379C9.136,3.856,10.624,6.895,9.085,8.744ZM7.9,4.273C7.352,2.53,5.279,2.154,4.914,2.088c-.488-.091-1.839-.335-2.484.4-.864.986-.1,3.313,1.392,4.374.122.086,1.941,1.336,3.277.4A2.731,2.731,0,0,0,7.9,4.273Z" transform="translate(138.448 57.155) rotate(77)" fill="#707350"/>
      <path id="Контур_8" data-name="Контур 8" d="M9.085,8.744c-1.438,1.733-4.649,1.367-6.554,0C.509,7.3-.792,4.181.544,1.992A4.446,4.446,0,0,1,4.319,0c2.84.026,4.313,2.881,4.567,3.379C9.136,3.856,10.624,6.895,9.085,8.744ZM7.9,4.273C7.352,2.53,5.279,2.154,4.914,2.088c-.488-.091-1.839-.335-2.484.4-.864.986-.1,3.313,1.392,4.374.122.086,1.941,1.336,3.277.4A2.731,2.731,0,0,0,7.9,4.273Z" transform="translate(396.607 344.967) rotate(77)" fill="#707350"/>
      <path id="Контур_9" data-name="Контур 9" d="M103.408,516.929c-.354-.394-1.31-1.172-2.113-.729a1.624,1.624,0,0,0-.586,1.9,1.754,1.754,0,0,0,.886.959,1.791,1.791,0,0,0,1.689.03,1.38,1.38,0,0,0,.632-.9A1.57,1.57,0,0,0,103.408,516.929Z" transform="translate(60.418 -304.049)" fill="#707350"/>
      <path id="Контур_10" data-name="Контур 10" d="M103.408,516.929c-.354-.394-1.31-1.172-2.113-.729a1.624,1.624,0,0,0-.586,1.9,1.754,1.754,0,0,0,.886.959,1.791,1.791,0,0,0,1.689.03,1.38,1.38,0,0,0,.632-.9A1.57,1.57,0,0,0,103.408,516.929Z" transform="translate(148.418 -417.828)" fill="#707350"/>
      <path id="Контур_11" data-name="Контур 11" d="M103.408,516.929c-.354-.394-1.31-1.172-2.113-.729a1.624,1.624,0,0,0-.586,1.9,1.754,1.754,0,0,0,.886.959,1.791,1.791,0,0,0,1.689.03,1.38,1.38,0,0,0,.632-.9A1.57,1.57,0,0,0,103.408,516.929Z" transform="translate(203.4 -275.786)" fill="#707350"/>
      <path id="Контур_12" data-name="Контур 12" d="M103.408,516.929c-.354-.394-1.31-1.172-2.113-.729a1.624,1.624,0,0,0-.586,1.9,1.754,1.754,0,0,0,.886.959,1.791,1.791,0,0,0,1.689.03,1.38,1.38,0,0,0,.632-.9A1.57,1.57,0,0,0,103.408,516.929Z" transform="translate(313.623 -201.119)" fill="#707350"/>
    </g>
    <g id="Сгруппировать_309" data-name="Сгруппировать 309" transform="translate(208.776 0)">
      <g id="Сгруппировать_307" data-name="Сгруппировать 307" transform="translate(42.519 113.426) rotate(-120)" clip-path="url(#clip-path)">
        <path id="Контур_234" data-name="Контур 234" d="M83.9,49.794c-2.568,4.175-8.186,6.729-12.924,7.084a12.223,12.223,0,0,1-5.841-.913c2.208,8.3-.641,18.145-8.918,21.966-8.321,3.844-17.609.72-20.072-7.617a11.722,11.722,0,0,1-5.9,4.867c-2.143.745-3.1.246-5.132-.057-3.529-.524-7.014.429-10.4-.057C4.118,73.546,5.427,58.187,10,51.954a51.587,51.587,0,0,1,4.394-5.11c-4.608.188-9.261-1.2-12.186-5.095C-1.827,36.376.1,29.943,4.544,25.782c5.654-5.293,3.015-1.676,5.464-6.645A7.035,7.035,0,0,1,12.023,16.2a9.292,9.292,0,0,1,6.741-1.68,11.826,11.826,0,0,1,6.877,3.03c0-.229-.01-.457,0-.686.135-3.112,1.221-6.906,3.4-9.228,2.871-3.056,6.23-2.053,10.015-2.485C43.687,4.616,46.013.24,51.15.012a10.017,10.017,0,0,1,9.5,5.062c3.576,6.46,1.684,14.831-2.322,20.741a47.492,47.492,0,0,1,10.358-1.171c3.851-.01,9.008.161,12.113,2.844,3.444,2.976,1.994,8.765,2.936,12.712.874,3.666,2.353,6.043.17,9.592M37.937,66.97c.285,6.116,4.592,11.192,11.187,10.653a15.287,15.287,0,0,0,9.616-4.332c4.922-5.034,5.741-12.754,3.337-19.108a28.271,28.271,0,0,1-2.8-2.426,50.552,50.552,0,0,0-17.39-11.468,21.81,21.81,0,0,1,4.6,7.764c.988.118,2.053.671,1.888,1.808-.2,1.392-1.8,2.143-3.063,2.133-.943-.009-2.382-.405-2.433-1.553a2.413,2.413,0,0,1,1.636-2.04,18.743,18.743,0,0,0-5.263-7.911c.01.7-.038,1.413-.087,2.138-.46,6.712.118,13.61-.471,20.245a16.59,16.59,0,0,1-.758,3.649c0,.184-.006.3,0,.447M8.468,64.664c.7,3.709,2.948,7.357,7.027,7.858,1.443.177,3.165-.435,4.643-.458,3.673-.057,7.322,1.91,10.779.012a9.806,9.806,0,0,0,4.617-5.451v-.009a4.2,4.2,0,0,0,.185-.527c1.046-3.3.877-7.171.791-10.644A86.634,86.634,0,0,1,36.932,44.8c.136-1.371.785-3.813.228-5.338q-3.3,4.159-6.622,8.306a2.776,2.776,0,0,1-.43,2.718,2.436,2.436,0,0,1-3.6.416,3.026,3.026,0,0,1-.075-4,2.232,2.232,0,0,1,2.466-.694q3.2-4,6.387-8.012c-6.383-1.44-15.64,7.13-19.4,10.762C11.6,53.1,7.243,58.182,8.468,64.664M27.709,48.59l0,0h0l0,0M19.208,16.6c-5.33-.517-6.839,5.832-9.925,8.606-3.591,3.229-7.7,6.114-6.5,11.727,1.371,6.42,8,8.582,13.817,7.734,4.451-4.175,10.086-8.243,15.116-9.068a15.561,15.561,0,0,0-7.336-1.166,2.132,2.132,0,0,1-1.475,1.884A2.846,2.846,0,0,1,20.9,31.061a2.31,2.31,0,0,1,2.644.883,17.171,17.171,0,0,1,7.926.838A31.523,31.523,0,0,1,26.28,22.428c-1.369-2.692-3.951-5.529-7.072-5.832M58.88,7.412C56.857,2.2,50.975.1,45.724,4.044c-.908.681-1.511,1.711-2.45,2.385a9.94,9.94,0,0,1-5.084,1.62c-3.974.527-7.781-.15-9.311,4.766A17,17,0,0,0,29.7,24.3,38.354,38.354,0,0,0,36.37,34.871a26.07,26.07,0,0,1,5.4-13.44,3.355,3.355,0,0,1-.251-.477,1.505,1.505,0,0,1,.2-1.654,2.157,2.157,0,0,1,1.585-.558,3.21,3.21,0,0,1,2.805,1.43.789.789,0,0,1,.052.146,1.194,1.194,0,0,1,.07.109,2.157,2.157,0,0,1,.012,1.821,1.788,1.788,0,0,1-1.87.9,3.224,3.224,0,0,1-1.058-.326,23.062,23.062,0,0,0-5.053,12.637,52.391,52.391,0,0,1,16.672-8.744c4.253-5.218,6.473-12.785,3.943-19.3M80.9,39.181c-.5-2.823.341-7.193-1.4-9.544C76.666,25.812,68.69,26.5,64.669,26.812A44.94,44.94,0,0,0,42.4,34.925a16.185,16.185,0,0,1,4.954.228,2.518,2.518,0,0,1,1.873-1.536,2.762,2.762,0,0,1,3.045,2.429,2.629,2.629,0,0,1-4.841,1.759,15.511,15.511,0,0,0-6.239-.14A48.336,48.336,0,0,1,60.314,49.292c1.935,1.9,3.687,4.144,6.338,5.09,4.319,1.54,9.954-.186,13.226-3.212,4.416-4.081,1.871-7.228,1.026-11.989" transform="translate(0 0.001)" fill="#707350"/>
      </g>
    </g>
  </g>
</svg>
