<svg xmlns="http://www.w3.org/2000/svg" xmlns:xlink="http://www.w3.org/1999/xlink" width="61.088" height="65.196" viewBox="0 0 61.088 65.196">
  <defs>
    <clipPath id="clip-path">
      <rect id="Прямоугольник_70" data-name="Прямоугольник 70" width="61.088" height="65.196" fill="#dbc4b4"/>
    </clipPath>
  </defs>
  <g id="Сгруппировать_421" data-name="Сгруппировать 421" transform="translate(0 0)">
    <g id="Сгруппировать_420" data-name="Сгруппировать 420" transform="translate(0 0)" clip-path="url(#clip-path)">
      <path id="Контур_258" data-name="Контур 258" d="M25.282,14.27a45.75,45.75,0,0,0-3.13-4.207c-2.63-3.143-4.283-5.118-6.874-6.31a13.221,13.221,0,0,0-8.722-.615c.8-1.988.117-2.961-.385-3.1-.878-.25-1.376.976-1.539,1.205A1.885,1.885,0,0,0,3.017.8,2.009,2.009,0,0,0,2.3,3.548a1.345,1.345,0,0,0-1.206.1c-.6.455-.591,1.8.147,3.432a1.285,1.285,0,0,1-.123,1.293A6.419,6.419,0,0,0,.291,9.807c-.359,1.04-.419,2.2.007,2.154.229-.027.659-.659,1.128-1,.564-.41,1.072-.965,1.54-.872.808.16,1.078,3.008,3.08,2.5.9-.227,1.385-1.282,1.358-2.657a8.776,8.776,0,0,1,.359,2.078,11.668,11.668,0,0,1-.59,3.822C6.51,18.341,6.3,18.91,6.146,19.554c-.594,2.484-.022,4.6.565,6.772a27.121,27.121,0,0,0,6.746,11.338,36.887,36.887,0,0,0,6.233,5.464,5.168,5.168,0,0,0-.642,1.59,5.581,5.581,0,0,0,.539,3.694,18.682,18.682,0,0,0-2.77-1.667,13.045,13.045,0,0,0-7.156-1.77A10.566,10.566,0,0,0,4.069,47.36a.959.959,0,0,0-.59.539.949.949,0,0,0,.026.744.911.911,0,0,0-.077.411.84.84,0,0,0,.36.692c.179.01.142-.426.231-.615C5.073,46.877,7.883,46.2,8.891,46a6.033,6.033,0,0,1-1.565,1.308c-.51.293-.885.4-1.077.821-.082,0-.16.6-.18,1.078-.005.127-.007.23-.007.288a1.77,1.77,0,0,0,.1.654c.067.191.2.364.326.327.222-.067,0-.656.135-.885a4.834,4.834,0,0,1,.75-.808,7.229,7.229,0,0,0,.655-.827,7.2,7.2,0,0,1,2.443-1.828,4.721,4.721,0,0,1,2.347.385,1.619,1.619,0,0,0-.288.6,2.43,2.43,0,0,0,.211,1.789.791.791,0,0,1,0,.808.736.736,0,0,1-.4.288,1.036,1.036,0,0,1-.751-.173c-.14-.1-.173-.309-.269-.308-.066,0-.142.293-.059.558a.8.8,0,0,0,.732.52,1.028,1.028,0,0,0,.366.173,1.107,1.107,0,0,0,1-.269,1.246,1.246,0,0,0,.347-.962,1.585,1.585,0,0,0-.347-.962,2.263,2.263,0,0,1,.231-1.808,6.709,6.709,0,0,1,1.578.481,11.239,11.239,0,0,1,2.193,1.424,8.587,8.587,0,0,0,1.654,1.154,2.192,2.192,0,0,0,1.732.25,1.624,1.624,0,0,0,.674-.5,6.419,6.419,0,0,0,1.173.1,7.355,7.355,0,0,0,4.444-1.693,4.816,4.816,0,0,1,1.674,1.712,10.1,10.1,0,0,1,.635,1.866c.7,2.186,1.026,2.589,1.192,2.77a3.65,3.65,0,0,0,1.617,1c-.029.475-.083,1.145-.193,1.943a6.625,6.625,0,0,1-.827,3.078,4.022,4.022,0,0,1-1.769,1.308,7.1,7.1,0,0,1-3.155.423c-.693-.03-1.385.091-2.078.077a1.023,1.023,0,0,0-.846.25.72.72,0,0,0-.116.519.836.836,0,0,0-.115.366c-.028.392.227.736.288.712.1-.038.026-.286.154-.443a.87.87,0,0,1,.616-.269,3.236,3.236,0,0,1,1.173.1,2.865,2.865,0,0,0,1.789-.289.955.955,0,0,0-.5.52.936.936,0,0,0-.02.6.939.939,0,0,0-.058.673c.045.141.091.331.173.308s.05-.245.135-.4c.15-.282.335-.367.577-.654a2.512,2.512,0,0,0,.327-.5A1.231,1.231,0,0,1,28,63.251a1.567,1.567,0,0,1,.885-.327,7.105,7.105,0,0,1,1.327-.077,4.522,4.522,0,0,0,1.829.827.771.771,0,0,1,.385.192c.293.276.2.7.23.731s.219-.109.309-.308a.664.664,0,0,0-.039-.577.6.6,0,0,0-.02-.423c-.088-.179-.256-.21-.711-.443-.558-.285-.581-.378-.6-.414a.359.359,0,0,1-.067-.187A2.572,2.572,0,0,1,32,60.885a6.193,6.193,0,0,0,.634-1.674,12.744,12.744,0,0,0,.328-1.616c.083-.512.185-1.212.269-2.059a4.8,4.8,0,0,0,1.443-.962c.477-.467.89-1.076,1.827-3.752.181-.519.432-1.256.711-2.155a8.412,8.412,0,0,0,1.424.135,7.315,7.315,0,0,0,2.117-.25,5.115,5.115,0,0,0,2.732-2.443,6.555,6.555,0,0,0,2.424-.116,7.848,7.848,0,0,0,4.309-3.155A10.228,10.228,0,0,0,52.2,38.588a9.749,9.749,0,0,0-.02-3.79A6.978,6.978,0,0,0,54,32.624a6.781,6.781,0,0,0,.712-2.058,6.65,6.65,0,0,0,.039-1.924,7.811,7.811,0,0,0,.846-2.578,9.378,9.378,0,0,0-.365-3.828,14.219,14.219,0,0,0-.808-2.328,5.02,5.02,0,0,0,3.078-1.289,4.913,4.913,0,0,0,.943-6.079,6.06,6.06,0,0,0,1.962-2.1,4.167,4.167,0,0,0,.673-2.308A3.857,3.857,0,0,0,60.219,5.9a4.065,4.065,0,0,0,.346-1.885,2.136,2.136,0,0,0-.4-1.347,2,2,0,0,0-1.54-.577,9.243,9.243,0,0,0-4.56,1.347,38.25,38.25,0,0,0-9.292,7.388c-1.17,1.285-2.045,2.4-2.577,3.1q-1.036.677-2.078,1.366-1.193.79-2.366,1.578a17.53,17.53,0,0,0-12.467-2.6" transform="translate(0 0)" fill="#dbc4b4"/>
    </g>
  </g>
</svg>
