<svg id="Icon_1" xmlns="http://www.w3.org/2000/svg" width="98.948" height="103.315" viewBox="0 0 98.948 103.315">
  <g id="Сгруппировать_11" data-name="Сгруппировать 11" transform="translate(10.807 16.03)">
    <path id="Контур_18" data-name="Контур 18" d="M824,129.525a33.553,33.553,0,1,0-57.542,23.531l-14.591,18.191,9.783,3.24,5.285,8.846,16.722-20.849a33.352,33.352,0,0,0,6.708.679h.045a33.989,33.989,0,0,0,6.812-.7l16.739,20.87,5.285-8.846,9.782-3.24-14.606-18.21A33.334,33.334,0,0,0,824,129.525ZM790.321,152.9a23.294,23.294,0,0,1,.223-46.588h.035a23.294,23.294,0,0,1-.258,46.588Z" transform="translate(-751.871 -96.047)" fill="#9b9d70"/>
  </g>
  <g id="Сгруппировать_12" data-name="Сгруппировать 12" transform="translate(29.721 29.915)">
    <path id="Контур_19" data-name="Контур 19" d="M791.527,110.657a19.672,19.672,0,0,0-.2,39.344h.049a19.672,19.672,0,0,0,.154-39.344Zm7.085,29.515-7.173-3.77-7.172,3.77,1.37-7.986-5.8-5.656,8.018-1.165,3.586-7.266,3.587,7.266,8.019,1.165-5.8,5.656Z" transform="translate(-771.772 -110.657)" fill="#9b9d70"/>
  </g>
  <g id="Сгруппировать_13" data-name="Сгруппировать 13">
    <path id="Контур_20" data-name="Контур 20" d="M756.273,156.591c-23.211-26.327-2.692-72.644,33.617-71.415,36.3-1.229,56.835,45.094,33.614,71.416l3.749,4.674a49.516,49.516,0,0,0-37.366-82.058c-41.807-1.427-64.975,52.463-37.414,82.119Z" transform="translate(-740.5 -79.181)" fill="#9b9d70"/>
  </g>
  <g id="Сгруппировать_14" data-name="Сгруппировать 14" transform="translate(36.668 92.323)">
    <path id="Контур_21" data-name="Контур 21" d="M791.8,177.179a43.483,43.483,0,0,1-8.578-.856c-1.373,1.714-2.769,3.454-4.142,5.164a50.336,50.336,0,0,0,25.44,0c-1.372-1.711-2.768-3.452-4.142-5.164A43.467,43.467,0,0,1,791.8,177.179Z" transform="translate(-779.082 -176.323)" fill="#9b9d70"/>
  </g>
</svg>
