<svg id="Icon_5" xmlns="http://www.w3.org/2000/svg" width="99.119" height="99.119" viewBox="0 0 99.119 99.119">
  <g id="Сгруппировать_19" data-name="Сгруппировать 19" transform="translate(7.4 41.728)">
    <path id="Контур_24" data-name="Контур 24" d="M494.39,155.7c-.207-.019-.417-.034-.626-.034a3.51,3.51,0,0,0-.36.018c-.067.007-.13.01-.189.01-.431,0-.62-.2-.709-.742q-2.432-14.763-4.923-29.518a2.509,2.509,0,0,0-2.763-2.345q-15.165,0-30.332,0t-30.332,0a2.512,2.512,0,0,0-2.75,2.36q-2.376,14.189-4.755,28.379c-.1.566-.024,1.315-.359,1.641a1.39,1.39,0,0,1-.938.211h-.33c-.124,0-.243,0-.356.011a2.5,2.5,0,0,0-2.326,2.266,2.47,2.47,0,0,0,2.041,2.6,5.556,5.556,0,0,0,1.024.066h.122q14.571,0,29.143,0h21.006q13.9,0,27.8,0a5.855,5.855,0,0,0,1.225-.091,2.442,2.442,0,0,0,1.944-2.585A2.489,2.489,0,0,0,494.39,155.7Zm-35.955-23.265.1,0c1.258,0,2.29,1.409,2.257,3.118-.037,1.9-1.248,3.589-2.634,3.589-.028,0-.055,0-.083,0-1.868-.09-2.031-1.571-2.251-2.81C455.814,134.3,457.063,132.515,458.435,132.435Zm-7.978,0,.1,0c1.371.08,2.621,1.868,2.613,3.892-.221,1.239-.383,2.72-2.253,2.81-.028,0-.055,0-.083,0-1.386,0-2.6-1.693-2.634-3.589C448.166,133.842,449.2,132.432,450.457,132.432Zm-5.07,11.21-.066,0c-1.521,0-3.114-2.133-3.008-4.041.07-1.251.462-2.406,1.989-2.515.042,0,.084,0,.125,0,1.521,0,3,1.963,3.01,4.225C447.414,142.421,447,143.576,445.387,143.642Zm12.829,7.364a25.788,25.788,0,0,1-7.442,0c-3.1-1-3.92-3.517-2.121-6.223a7.056,7.056,0,0,1,11.686,0C462.137,147.488,461.313,150.008,458.216,151.006Zm5.453-7.362-.066,0c-1.614-.067-2.027-1.221-2.051-2.333.01-2.263,1.49-4.225,3.011-4.225.042,0,.083,0,.125,0,1.527.108,1.919,1.264,1.989,2.515C466.783,141.511,465.189,143.644,463.669,143.644Z" transform="translate(-412.335 -123.087)" fill="#9b9d70"/>
  </g>
  <g id="Сгруппировать_20" data-name="Сгруппировать 20">
    <path id="Контур_25" data-name="Контур 25" d="M454.109,79.181a49.508,49.508,0,0,0-44.468,71.378,7.271,7.271,0,0,1,2.191-1.337q.529-3.156,1.058-6.313a43.593,43.593,0,1,1,82.431.022q.523,3.141,1.047,6.281a7.245,7.245,0,0,1,2.21,1.345,49.509,49.509,0,0,0-44.469-71.375Z" transform="translate(-404.549 -79.181)" fill="#9b9d70"/>
  </g>
  <g id="Сгруппировать_21" data-name="Сгруппировать 21" transform="translate(14.019 84.032)">
    <path id="Контур_26" data-name="Контур 26" d="M454.841,176.72A43.352,43.352,0,0,1,428.2,167.6h-8.9a49.406,49.406,0,0,0,71.082,0h-8.9A43.359,43.359,0,0,1,454.841,176.72Z" transform="translate(-419.3 -167.599)" fill="#9b9d70"/>
  </g>
  <g id="Сгруппировать_22" data-name="Сгруппировать 22" transform="translate(21.593 17.761)">
    <path id="Контур_27" data-name="Контур 27" d="M483.2,117.107a10.091,10.091,0,0,0-6.863-9.581,2.161,2.161,0,0,1-1.018-.815,9.867,9.867,0,0,0-8.42-4.785,1.73,1.73,0,0,1-1.383-.65,9.576,9.576,0,0,0-10.066-3.02,26.7,26.7,0,0,0-4.349,2c-.137.089-.346-.038-.558-.161a10.047,10.047,0,0,0-14.809,6.286,1.115,1.115,0,0,1-.951,1,9.463,9.463,0,0,0-4.976,3.033,9.983,9.983,0,0,0-2.5,7.749h55.809C483.155,117.761,483.2,117.434,483.2,117.107Z" transform="translate(-427.269 -97.869)" fill="#9b9d70"/>
  </g>
</svg>
