<svg id="Icon_4" xmlns="http://www.w3.org/2000/svg" width="99.118" height="99.119" viewBox="0 0 99.118 99.119">
  <g id="Сгруппировать_24" data-name="Сгруппировать 24">
    <path id="Контур_28" data-name="Контур 28" d="M286.179,79.181a49.56,49.56,0,1,0,49.558,49.56A49.616,49.616,0,0,0,286.179,79.181Zm0,93.153a43.593,43.593,0,1,1,43.592-43.593A43.643,43.643,0,0,1,286.179,172.334Z" transform="translate(-236.619 -79.181)" fill="#9b9d70"/>
  </g>
  <g id="Сгруппировать_25" data-name="Сгруппировать 25" transform="translate(16.792 20.903)">
    <path id="Контур_29" data-name="Контур 29" d="M319.228,119.367a29.52,29.52,0,0,0-3.375-8.745,19.2,19.2,0,0,0-16.69-9.448,19.638,19.638,0,0,0-9.7,2.554c-.784.445-2.093,1.261-2.41,1.459-.317-.2-1.625-1.014-2.409-1.459a19.646,19.646,0,0,0-9.7-2.554,19.2,19.2,0,0,0-16.69,9.448,29.55,29.55,0,0,0-3.376,8.745,30.865,30.865,0,0,0-.385,9.69,17,17,0,0,0,.393,2.348c4.023,16.062,14.7,26.51,28.9,33.9a24.873,24.873,0,0,0,3.264,1.225,24.828,24.828,0,0,0,3.265-1.225c14.206-7.388,24.879-17.837,28.9-33.9a17.151,17.151,0,0,0,.393-2.348A30.866,30.866,0,0,0,319.228,119.367Zm-26.08-1.766c.051,0,.1,0,.152,0,1.946,0,3.543,2.181,3.492,4.825-.057,2.931-1.93,5.55-4.073,5.55-.042,0-.085,0-.127,0-2.891-.14-3.142-2.429-3.483-4.347C289.094,120.493,291.028,117.725,293.149,117.6Zm-12.34,0c.051,0,.1,0,.153,0,2.12.124,4.054,2.891,4.039,6.02-.341,1.918-.591,4.207-3.483,4.347-.043,0-.085,0-.127,0-2.143,0-4.016-2.619-4.073-5.55C277.266,119.778,278.863,117.6,280.809,117.6Zm-7.841,17.34c-.034,0-.068,0-.1,0-2.351,0-4.817-3.3-4.651-6.25.107-1.935.715-3.721,3.075-3.89.065,0,.129-.007.194-.007,2.352,0,4.643,3.036,4.656,6.535C276.1,133.047,275.464,134.834,272.968,134.937Zm19.843,11.389a39.914,39.914,0,0,1-11.512,0c-4.79-1.544-6.065-5.44-3.282-9.626a10.913,10.913,0,0,1,18.074,0C298.875,140.886,297.6,144.782,292.811,146.326Zm8.434-11.388c-.034,0-.068,0-.1,0-2.5-.1-3.135-1.889-3.171-3.61.013-3.5,2.3-6.535,4.656-6.535.065,0,.128,0,.193.007,2.362.169,2.968,1.955,3.076,3.89C306.061,131.641,303.6,134.939,301.245,134.939Z" transform="translate(-254.288 -101.175)" fill="#9b9d70"/>
  </g>
</svg>
