<svg id="Сгруппировать_317" data-name="Сгруппировать 317" xmlns="http://www.w3.org/2000/svg" xmlns:xlink="http://www.w3.org/1999/xlink" width="513.099" height="706.251" viewBox="0 0 513.099 706.251">
  <defs>
    <clipPath id="clip-path">
      <rect id="Прямоугольник_13" data-name="Прямоугольник 13" width="218.846" height="547.617" fill="#efe6e1"/>
    </clipPath>
    <clipPath id="clip-path-2">
      <rect id="Прямоугольник_14" data-name="Прямоугольник 14" width="119.341" height="111.654" fill="#707350"/>
    </clipPath>
  </defs>
  <g id="Сгруппировать_7" data-name="Сгруппировать 7" transform="translate(0 33.353)">
    <path id="Контур_4" data-name="Контур 4" d="M25.244,293.367c-3.918,5.9-7.966,11.739-12.268,17.368C8.859,316.131,4.344,321.223,0,326.454c7.306-11.966,15.265-22.406,22.028-34.482,4.028-7.189,7.622-13.512,7.622-13.512-4.11-10.5-12.1-32.015-15.574-42.744a26.1,26.1,0,0,1-.983-10.1c.179-1.952,1.952-4.275,3.464-4.619a6.557,6.557,0,0,1,5.588,2.275,30.3,30.3,0,0,1,4.337,8.344A99.705,99.705,0,0,1,32.75,267.9c-.021,1.4.034,6.131.151,7.533.522.11-.522-.117,0,0,4.151-8.969,9.993-20.949,14.234-29.87a49.526,49.526,0,0,0,3.711-11.093c-3.23-8.014-8.873-22.695-11.265-31.018-.99-3.45-1.526-8.86,2.158-9.677,5.265-1.168,7.485,8.1,8.8,13.808,1.409,6.144,2.041,14.262,2.8,20.55.481.089-.474-.083,0,0,3.505-12.536,8.076-26.523,11.444-38.585-9.766-9.182-15.725-19.568-19.829-31.066-1.052-2.942-2.192-6.7,1.306-8.509,3.677-1.9,6.062,1.519,7.375,4.144,3.5,7.01,6.419,14.31,9.581,21.492.639,1.45,1.3,2.9,1.952,4.351,2.784-8.454,3.581-16.832,5.546-24.929,1.175-8.007,1.45-12.282,1.45-12.282C68.125,138.918,47.8,116.56,53.829,112.69c5.237-4.014,11.024,6.694,13.636,12.6,1.3,2.935,4.234,9.711,5.76,12.543.509-.137-.509.131,0,0,.708-17.78,1.794-40.035,2.495-57.63C73.507,78.82,60.255,68.655,55.4,64.284c-1.7-1.533-7.863-8.214-4-11.7,4.481-4.055,9.883,3.017,11.175,4.632,2.955,3.684,10.5,13.766,12.605,16.241-.1-9.884-.186-17.98-.275-26.076-.151-14.254.57-28.4,5.361-42.008,1.175-3.34,3.595-8.041,6.571-3.471,4.839,7.423.969,46.393-5.258,71.163,4.392-5.849,34.248-29.451,38.894-20.777,3.512,6.571-12.8,15.238-16.942,17.506C98.009,72.813,87.1,77.459,81.72,80.71a157.749,157.749,0,0,0-2.447,20.241c1.567-2.137,3.966-6.667,5.388-8.433,3.12-3.883,6.131-7.883,9.547-11.491,2.241-2.364,5.169-5.911,8.626-2.969,3.347,2.845.474,6.529-1.313,9.162C98.139,92.2,85.995,104.532,84.936,106c9.1-.22,19.141-2.042,27.5-1.835,4.137.1,16.42.481,16.014,6.557-.454,6.839-7.547,6.928-11.162,7.182a94.386,94.386,0,0,1-31.169-3.237c-2.412-.639-4.859-1.134-7.636-1.773-.852,10.825-1.629,20.763-2.454,31.251,6.9-4.99,12.708-9.429,18.784-13.471,2.344-1.553,8.44-6.625,11.251-1.9,2.33,3.911-3.773,6.818-5.815,7.918-6.7,3.608-17.334,7.361-23.994,11.052,0,0-2.625,12.633-3.237,17.994,4.8-6.151,8.062-9.643,12.323-12.963,4.138-3.223,10.186-9.89,14.378-3.828,6.076,8.791-19.781,18.695-27.753,28.063,5.6.316,25.018-4.158,35.884,2.653,4.193,2.069,3.677,6.529-.646,8.344a18.713,18.713,0,0,1-8.4,1.691c-7.553-.612-26.516-5.313-29.4-5.973a377.534,377.534,0,0,1-25.265,76.16c3.237-1.512,4.8-2.412,6.474-3,5.931-2.076,11.835-4.3,17.884-5.945,3.43-.935,7.574-1.835,9.76,2.344,1.381,2.639-1.505,5.464-7.409,7.643-1.725.632-3.512,1.1-5.285,1.567-2.247.591-4.522,1.106-8.674,2.11,3.842,1.773,6.227,2.591,8.309,3.89a204.656,204.656,0,0,1,17.588,11.677c1.567,1.217,2.522,5.079,1.766,6.9-.749,1.794-4.062,3.622-6.172,3.533A45.773,45.773,0,0,1,63.8,288c-9.217-3.608-18.09-8.1-27.444-12.378C32.743,281.429,29.141,287.5,25.244,293.367Zm12.694-20.674c13.67,4.935,38.839,17.808,42.1,12.179,2.66-4.6-23.863-16.365-38.564-19.76ZM106.346,183.9c1.911-4.076-35.877-3.581-35.877-3.581S104.469,187.915,106.346,183.9ZM83.053,110.023c8.523,3.993,40.626,5.306,40.111.976C122.7,107.068,94.435,108.037,83.053,110.023Zm-64.5,115.721c-7.636-.213,5.945,28.605,11.059,41.54C28.248,255.806,23.038,225.868,18.557,225.744ZM84.634,5.354c-4.337.543-8.028,34.076-6.412,65.9C79.933,61.974,88.517,4.873,84.634,5.354Zm30.8,49.389c-1.924-2.034-25.21,14.578-30.688,20.076C92.057,70.311,118.745,58.249,115.432,54.744Zm-18.8,96.27c-2.474-2.8-19.561,13.189-24.4,21.685h0C78.51,167.323,98.627,153.282,96.627,151.014Zm3.512-69.623c-2.433-1.711-16.076,19.987-20.227,24.709.543.495-.543-.488,0,0C84.036,101.336,101.988,82.689,100.139,81.39ZM63.719,183.839c.467-.247-12.839-31.547-15.5-31.052C43.918,153.584,56.908,178.272,63.719,183.839Z" transform="matrix(-0.978, -0.208, 0.208, -0.978, 433.077, 672.898)" fill="#707350"/>
    <path id="Контур_5" data-name="Контур 5" d="M94.9,510.179c2.347-2.827,7.587-2.23,10.7,0,3.3,2.363,5.423,7.446,3.242,11.02a7.256,7.256,0,0,1-6.161,3.25c-4.635-.042-7.04-4.7-7.454-5.514C94.814,518.156,92.385,513.2,94.9,510.179Zm1.94,7.3c.887,2.844,4.27,3.458,4.867,3.565.8.149,3,.547,4.055-.647,1.41-1.609.166-5.406-2.272-7.139-.2-.141-3.167-2.181-5.348-.647C96.572,513.7,96.365,515.958,96.837,517.476Z" transform="translate(141.84 -390.705)" fill="#707350"/>
    <path id="Контур_236" data-name="Контур 236" d="M94.9,510.179c2.347-2.827,7.587-2.23,10.7,0,3.3,2.363,5.423,7.446,3.242,11.02a7.256,7.256,0,0,1-6.161,3.25c-4.635-.042-7.04-4.7-7.454-5.514C94.814,518.156,92.385,513.2,94.9,510.179Zm1.94,7.3c.887,2.844,4.27,3.458,4.867,3.565.8.149,3,.547,4.055-.647,1.41-1.609.166-5.406-2.272-7.139-.2-.141-3.167-2.181-5.348-.647C96.572,513.7,96.365,515.958,96.837,517.476Z" transform="translate(-39.724 430.794) rotate(-106)" fill="#707350"/>
    <path id="Контур_14" data-name="Контур 14" d="M14.827,14.271c-2.347,2.828-7.587,2.231-10.7,0C.83,11.907-1.292,6.824.888,3.251A7.256,7.256,0,0,1,7.049,0c4.635.042,7.04,4.7,7.454,5.514C14.91,6.294,17.339,11.253,14.827,14.271Zm-1.94-7.3C12,4.13,8.616,3.516,8.019,3.408c-.8-.149-3-.547-4.055.647C2.555,5.664,3.8,9.462,6.237,11.194c.2.141,3.167,2.181,5.348.647C13.152,10.747,13.359,8.491,12.887,6.974Z" transform="translate(195.435 274.51) rotate(93)" fill="#707350"/>
    <path id="Контур_7" data-name="Контур 7" d="M14.827,14.271c-2.347,2.828-7.587,2.231-10.7,0C.83,11.907-1.292,6.824.888,3.251A7.256,7.256,0,0,1,7.049,0c4.635.042,7.04,4.7,7.454,5.514C14.91,6.294,17.339,11.253,14.827,14.271Zm-1.94-7.3C12,4.13,8.616,3.516,8.019,3.408c-.8-.149-3-.547-4.055.647C2.555,5.664,3.8,9.462,6.237,11.194c.2.141,3.167,2.181,5.348.647C13.152,10.747,13.359,8.491,12.887,6.974Z" transform="translate(424.924 584.89) rotate(-103)" fill="#707350"/>
    <path id="Контур_8" data-name="Контур 8" d="M14.827,14.271c-2.347,2.828-7.587,2.231-10.7,0C.83,11.907-1.292,6.824.888,3.251A7.256,7.256,0,0,1,7.049,0c4.635.042,7.04,4.7,7.454,5.514C14.91,6.294,17.339,11.253,14.827,14.271Zm-1.94-7.3C12,4.13,8.616,3.516,8.019,3.408c-.8-.149-3-.547-4.055.647C2.555,5.664,3.8,9.462,6.237,11.194c.2.141,3.167,2.181,5.348.647C13.152,10.747,13.359,8.491,12.887,6.974Z" transform="translate(3.588 156.074) rotate(-103)" fill="#707350"/>
    <path id="Контур_9" data-name="Контур 9" d="M101.467,519.934c.578.644,2.138,1.914,3.448,1.19a2.65,2.65,0,0,0,.957-3.1,2.861,2.861,0,0,0-1.446-1.565,2.922,2.922,0,0,0-2.756-.049,2.252,2.252,0,0,0-1.032,1.463A2.562,2.562,0,0,0,101.467,519.934Z" transform="translate(308.039 -177.196)" fill="#707350"/>
    <path id="Контур_10" data-name="Контур 10" d="M101.467,519.934c.578.644,2.138,1.914,3.448,1.19a2.65,2.65,0,0,0,.957-3.1,2.861,2.861,0,0,0-1.446-1.565,2.922,2.922,0,0,0-2.756-.049,2.252,2.252,0,0,0-1.032,1.463A2.562,2.562,0,0,0,101.467,519.934Z" transform="translate(127.365 31.862)" fill="#707350"/>
    <path id="Контур_11" data-name="Контур 11" d="M101.467,519.934c.578.644,2.138,1.914,3.448,1.19a2.65,2.65,0,0,0,.957-3.1,2.861,2.861,0,0,0-1.446-1.565,2.922,2.922,0,0,0-2.756-.049,2.252,2.252,0,0,0-1.032,1.463A2.562,2.562,0,0,0,101.467,519.934Z" transform="translate(73.343 -190.16)" fill="#707350"/>
    <path id="Контур_15" data-name="Контур 15" d="M101.467,519.934c.578.644,2.138,1.914,3.448,1.19a2.65,2.65,0,0,0,.957-3.1,2.861,2.861,0,0,0-1.446-1.565,2.922,2.922,0,0,0-2.756-.049,2.252,2.252,0,0,0-1.032,1.463A2.562,2.562,0,0,0,101.467,519.934Z" transform="translate(219.867 -45.087)" fill="#707350"/>
    <path id="Контур_16" data-name="Контур 16" d="M101.467,519.934c.578.644,2.138,1.914,3.448,1.19a2.65,2.65,0,0,0,.957-3.1,2.861,2.861,0,0,0-1.446-1.565,2.922,2.922,0,0,0-2.756-.049,2.252,2.252,0,0,0-1.032,1.463A2.562,2.562,0,0,0,101.467,519.934Z" transform="translate(197.81 -404.921)" fill="#707350"/>
    <path id="Контур_237" data-name="Контур 237" d="M101.467,519.934c.578.644,2.138,1.914,3.448,1.19a2.65,2.65,0,0,0,.957-3.1,2.861,2.861,0,0,0-1.446-1.565,2.922,2.922,0,0,0-2.756-.049,2.252,2.252,0,0,0-1.032,1.463A2.562,2.562,0,0,0,101.467,519.934Z" transform="translate(337.946 -202.921)" fill="#707350"/>
  </g>
  <g id="Сгруппировать_306" data-name="Сгруппировать 306" transform="translate(316.851 589.672) rotate(-159)">
    <g id="Сгруппировать_305" data-name="Сгруппировать 305" transform="translate(0 0)" clip-path="url(#clip-path)">
      <path id="Контур_233" data-name="Контур 233" d="M217.087,311.977c-30.754.6-62.877,9.076-88.748,26.189A106.014,106.014,0,0,0,91.96,379.1a112.9,112.9,0,0,0-8.6,23.37c-1.689,6.829-5.473,12.471-9.573,18.021,6.908-37.413,15.808-73.909,28.77-109.9,16.9-.63,31.6-10.19,34.824-28.279a34.9,34.9,0,0,0,37.2,17.361c17.372-3.412,27.135-20.212,34.914-34.711,7.162-13.346-5.971-28.544-16.515-36.012a55.841,55.841,0,0,0-10.135-5.591c15.565-4.173,27.946-18.542,23.362-35.922-1.206-4.57-3.854-7.107-6.462-10.731-5.714-7.944-2.671-13.882-4.672-21.736-2.328-9.142-11.512-15.288-20.007-17.94-11.809-3.688-23.782-.055-33.757,6.938-1.3-5.063-3.066-10.314-6.312-14.365q.6-6.534.621-13.069c6.49-.207,13.269-11.192,15.285-15.4,1.495-3.124,8.04-22.287-.869-21.826-5.676.293-9.827,11.864-11.911,16.073-.7,1.414-1.98,3.6-3.242,6.054a141.688,141.688,0,0,0-4.773-24.893c6.015-7.568,19.59-24.942,11.8-33.648-8.74-9.77-12.793,11.751-13.607,15.866-.278,1.4-1.1,4.13-1.738,7.109a135.58,135.58,0,0,0-7.587-16.635,1.213,1.213,0,0,0,.064-.329A103.144,103.144,0,0,0,125.2,16.3c.083-3.207,1.454-14.314-3.664-14.946-5.793-.715-8.486,12.072-9.308,15.492a51.639,51.639,0,0,0-.79,20.03c-1.016-1.482-2.054-2.951-3.128-4.395a34.015,34.015,0,0,0-3.31-3.8,2.387,2.387,0,0,0-.041-.3A47.834,47.834,0,0,0,94.37,9.456C91.095,5.969,84.825-.715,79.529.062A1.82,1.82,0,0,0,78.167,1.79c-.773,5.9,7.087,13.331,10.711,17.248,3.692,3.987,7.905,7.066,11.98,10.585a40.124,40.124,0,0,1,5.321,5.674c-.064-.036-.141-.083-.2-.117-4.491-2.612-18.1-9.148-23.443-5.01-5.676,4.393,31.508,21.209,33.6,20.85a130.363,130.363,0,0,1,6.891,14.739,61.082,61.082,0,0,0-7.536-4.7c-3.807-2.044-20.355-9.667-23.844-3.669-3.139,5.4,9.932,12.048,12.919,13.7,6.846,3.778,14.732,5.68,22.5,6.592a136.459,136.459,0,0,1,4.779,25.48,59.115,59.115,0,0,0-5.386-5.539c-4.021-3.643-16.571-13.139-22.3-8.341-5.289,4.427,6.581,14.737,9.49,17.182,5.364,4.512,12.1,7.512,18.749,9.68q-.013,5.2-.4,10.408c-.056-.043-.1-.1-.154-.139-8.86-6.782-20.1,2.688-26.349-9.5-1.529-2.983-.286-5.413-3.434-7.871-1.969-1.537-4.685-1.755-7.053-1.691-8.145.218-16.334,5.366-21.431,11.465-9.816,11.747-12.317,29.223-9.014,44.4a40.633,40.633,0,0,0-28.292-.788q-.939-6.765-1.382-13.56a37.416,37.416,0,0,0,4.331-2.654,140.261,140.261,0,0,0,12.924-8.947c3.421-2.663,13.494-9.688,7.329-14.816-5.04-4.192-13.78,6.084-16.658,9.125a121.537,121.537,0,0,0-8.268,9.718q-.192-8.277.391-16.532c6.4-4.651,12.9-9.353,18.371-15.076,2.46-2.575,17.335-16.336,13.1-20.53-2.236-2.212-7.506,1.183-9.464,2.268A59.271,59.271,0,0,0,40.8,104.674c-.841.98-2.462,2.868-4.19,5.153A172.108,172.108,0,0,1,41.235,88.8c.581-2.024,1.155-4.03,1.751-6.011,5.979-4.008,10.681-10.777,14.922-16.453,1.811-2.419,8.99-10.985,7.085-15.021-3.577-7.581-13.959,5.567-16.116,8.36C40.613,70.38,36.836,85.3,34.192,98.9c-.188-4.95-.474-9.9-.931-14.83-.361-3.9-.081-10.3-2.091-13.816-4.2-7.356-6.293,5.087-6.735,8.42a84.5,84.5,0,0,0,.912,27.086c.771,3.974,1.491,12.255,5.067,15.1a.515.515,0,0,0,.034.058c-.034-.058.179,4.019.179,4.019-.239,3.7-.384,7.4-.393,11.1a81.9,81.9,0,0,0-10.293-9.71c-2.131-1.8-16.3-12.093-14.822-2.439.4,2.586,3.092,5.234,4.715,7.073a117.491,117.491,0,0,0,9.5,9.428c1.529,1.375,7.374,7.623,11.335,8.772q.513,7.463,1.612,14.888a40.982,40.982,0,0,0-6.323,3.645c-4.546,3.21-8.971,7.914-9.407,13.763-.5,6.739,5,10.291,7.2,16.039,3.481,9.09-4.8,18.787-5.274,28.213-.32,6.364.369,13.483,4.674,18.488,10.474,12.174,31.559,9.048,46.24,4.689-3.1,4.371-5.27,9.169-5.213,14.258.053,4.617,1.992,8.059,5.014,11.412,2.091,2.319,4.555,4.177,6.351,6.786,3.714,5.4,1.956,10.677,2.962,16.349,1.407,7.927,6.855,11.194,14.617,12.381,1.666.254,3.325.4,4.976.485-6.938,19.347-12.783,38.858-17.728,58.594-2.447-10.2-6.522-19.671-13.346-27.66.493-12.753-1.461-25.663-10.519-35.29-10.331-10.978-22.875-19.652-33.2-30.829.19-1.435.357-2.872.483-4.311.621-7.068-.243-19.915-5.68-25.217-2.054-2-3.976-2.725-6.054-.4-1.783,2-1.311,8.228-1.826,10.722C8.871,262.8,6,268.13,2.842,273.987-5.189,288.9,5.435,304.3,14.455,316.179a1.625,1.625,0,0,0,.773.538A27.2,27.2,0,0,0,24.263,330.1c10.551,8.93,24.7,13.248,38.405,13.316,8.1,8.96,13.434,19.227,15.89,33.34q-6.563,27.476-11.224,55.57c-6.812,40.62-20.5,78.436-43.364,112.887-1.249,1.881,2.733,3.363,3.865,1.657,22.43-33.791,36.437-71.011,43.212-110.894q.618-3.639,1.262-7.265c3.893-5.119,9.142-10.73,11.909-16.464,59.268-4.625,111.919-41.878,134.471-97.157.47-1.155-.13-3.139-1.6-3.109M86.935,11.275c-2.37-2.964-6.848-6.628-1.666-4.662C91.96,9.153,96.89,17.018,99.92,24.18c-1.8-1.488-3.643-3-5.486-4.739a79.843,79.843,0,0,1-7.5-8.166M37.462,115.119a56.746,56.746,0,0,1,8.7-11.454,53.459,53.459,0,0,1,10.809-8.559A38.39,38.39,0,0,1,61.3,92.8q2.784-1.65.948.816c-.382,1.221-1.683,2.543-2.422,3.532-6.947,9.293-15.411,16.528-24.551,23.372.051-.564.109-1.125.167-1.687.775-1.627,1.715-3.175,2.018-3.711m18.375-57.4c5.234-5.565,4.185-1.973,1.063,2.919A94.281,94.281,0,0,1,45.213,75.968c2.387-6.6,5.484-12.783,10.624-18.247M28.508,104.239a82.19,82.19,0,0,1-1.288-21.29,68.248,68.248,0,0,1,1.311-9.159.439.439,0,0,0,0-.075,42.33,42.33,0,0,1,1.038,6.746c.871,7.2,1.281,14.485,1.484,21.732.043,1.593.615,10.733.333,13.9-1.781-2.911-2.394-9.34-2.883-11.856m.613,38.841c-2.12-1.57-4.132-3.3-6.109-5.04A97.238,97.238,0,0,1,10.63,125.525a7.209,7.209,0,0,1-.459-.679,24.905,24.905,0,0,1,2.526,1.2,57.741,57.741,0,0,1,5.644,4.444,86.135,86.135,0,0,1,6.684,6.5,43.04,43.04,0,0,1,5.332,6.3c.006.2.023.4.032.6-.444-.275-.9-.536-1.268-.805M49.371,304.47c10.056,8.721,13.368,19.934,13.479,32.646C47.575,322.809,24,314.7,20.338,292.284c.775-4.089,1.593-8.177,2.276-12.272,8.42,8.77,17.542,16.466,26.757,24.459m-45.324-19c-.252-7.376,4.585-12.541,7.363-19A56.613,56.613,0,0,0,15.3,250.953c.088-.711.13-1.253.145-1.681A31.087,31.087,0,0,1,18.155,257c2.637,10.133.568,19.01-1.2,29.093-1.409,8.063-3.118,15.706-2.908,22.84-4.995-6.991-9.714-15.035-10-23.466M18.6,302.677c.1-.762.222-1.523.337-2.283,4.519,12.571,15.1,19.507,26.8,28.156a125.9,125.9,0,0,1,13.788,11.593A57.307,57.307,0,0,1,32.4,331.458c-11.3-7.139-15.482-15.935-13.8-28.781m160.675-76.984c12.277,4.724,33.528,21.47,27.011,37.022-2.789,6.654-8.559,12.768-12.52,18.783-1.619,2.458-3.066,5.326-5.078,7.508-16.18,17.547-43.725,5.375-50.21-14.536a1.256,1.256,0,0,0-.252-.391c.583-16.744-5.042-34.607-13.549-49.074,4.954,2.857,9.962,5.618,15.057,8.224a6.846,6.846,0,0,0,1.078,4.824,5.116,5.116,0,0,0,6.331,1.621c3.092-1.544,2.654-5.45.914-7.86-1.333-1.589-3.735-2.787-5.74-2.044-6.015-3.066-11.911-6.346-17.733-9.763,15.973-.98,33.8-.7,49.123,3.827a13.473,13.473,0,0,1,2.223.675c1.13.372,2.246.762,3.344,1.185m-33.007,9.864c.115.29,0,.156,0,0m-.333-.621a2.914,2.914,0,0,1,.267.461c.021.045.019.047.034.083a2.206,2.206,0,0,1-.876.389,2.286,2.286,0,0,1-2.3-.756c-.286-.457-.354-.978.117-1.23.9-.483,2.2.4,2.755,1.053m45.3-81.186c2.531,7.514-1.016,14.487,3.169,21.732,1.552,2.684,3.978,4.734,5.708,7.312,4.294,6.4,4.405,14.574,1.149,21.561-4.875,10.457-15.268,15.591-26.407,16.011a1.193,1.193,0,0,0-.182.051c-16.968-4.973-36.684-4.632-53.343-3.406a36.657,36.657,0,0,1,20.218-17.686c.081.045.152.107.235.147,2.191,1.1,5.3.726,6.727-1.418,1.328-2,.261-4.734-1.617-5.979a1.7,1.7,0,0,0-.2-.088c-.064-.047-.09-.107-.167-.149a5.247,5.247,0,0,0-6.759,1.275,3.887,3.887,0,0,0-.369,3.656,41.865,41.865,0,0,0-20.575,17.267c-4.683-22.495,2.7-50.355,21.062-64.808a18.874,18.874,0,0,1,2.293-1.689,44.457,44.457,0,0,1,17.85-7.32c9.981-1.732,27.429,2.3,31.209,13.53m-50.159-54.8a102.326,102.326,0,0,1,6.432-11.894c.694-1.059,1.476-2.044,2.2-3.075a3.724,3.724,0,0,0,.322-.553l0,.015c-.218,4.328-.111,8.234-1.582,12.475a35.3,35.3,0,0,1-6.823,11.644,33.956,33.956,0,0,1-5.044,4.954,8.264,8.264,0,0,0-.564-2.72c1.256-3.991,4.292-9.251,5.057-10.846m-9.31-40.494c.542-2.708,1.066-10.874,4.01-12.336,6.722-3.342,4.732,4.551,3.944,6.947-2.1,6.385-6.009,12.46-10.135,17.933.075-.76.122-1.531.235-2.246.542-3.449,1.26-6.874,1.945-10.3M114.941,26.142a50.741,50.741,0,0,1,2.9-14.361c.786-2.2,1.578-7.064,2.872-3.976,2.059,4.911.173,13.959-.438,19.086a93.236,93.236,0,0,1-3.293,15.614,49.2,49.2,0,0,1-2.046-16.364M98.428,62.835c-2.819-2.116-4.826-3.062-.448-2.977A34.208,34.208,0,0,1,108.5,62.1a44.667,44.667,0,0,1,11.561,6.15A46.254,46.254,0,0,1,125.5,72.62c.088.261.169.523.254.786-9.878-1.3-19.274-4.525-27.325-10.57m9.716,31.192c-.214-.372-.425-.743-.639-1.115q-1.489-2.319.293-1.055c1.461-.431,4.2,1.313,5.5,1.9a37.652,37.652,0,0,1,9.857,6.47c1.45,1.313,6.278,5.894,8.4,9.774a11.321,11.321,0,0,0-.209,1.8c-9.112-3.459-18.155-9.21-23.2-17.769m-36.5,35.73c3.421-8.048,12.274-19.9,22.4-19.178,8.138.581,6.387,13.421,13.231,16.383,5.962,2.582,12.443-2.229,18.58.107,7.438,2.834,10.111,12.618,11.8,19.691a64.659,64.659,0,0,0-14.971,17.782,70.335,70.335,0,0,0-7.427,48.344,33.037,33.037,0,0,1-7.162-30.462,5.836,5.836,0,0,0,2.778-2.464c1.651-2.808,1.181-6.78-1.612-8.657a1.316,1.316,0,0,0-.568-.22,5.932,5.932,0,0,0-6.652,2.2,6.193,6.193,0,0,0,1.008,8.311,5.253,5.253,0,0,0,1.341.816,35.162,35.162,0,0,0,3.773,27.833c-26.716-18.4-50.964-46.518-36.528-80.48M107.7,175.205a1.824,1.824,0,0,1,.408,2.782,2.267,2.267,0,0,1-3.4-.293c-1.706-1.918,1.362-3.314,2.987-2.49M29.309,243.912c-8.813-5.785-8.83-18.424-5.74-27.472,1.514-4.431,4.361-7.967,4.777-12.742,1.014-11.591-15.5-20.682-2.93-31.267a33.751,33.751,0,0,1,9.962-5.791,2.073,2.073,0,0,0,.442-.152,38.915,38.915,0,0,1,30.188,2.052,52.519,52.519,0,0,0,1.935,5.161c7.967,17.976,26.246,32.4,43.206,42.916a107.483,107.483,0,0,1-21.8-4.48c-.305-2.178-1.868-4.373-4.26-4.286-2.84.1-4.939,3.024-5.1,5.672-.143,2.383,1.476,5.114,4.072,5.17a5.2,5.2,0,0,0,4.476-2.866,112.191,112.191,0,0,0,19.746,4.068,80.188,80.188,0,0,0-25.937,15.39c-2.671,2.39-5.7,5.146-8.512,8.191-13.372,4.568-31.867,8.742-44.523.436m54.466,55.421c-2.311-4.373-1.076-7.726-1.958-12.349-1.358-7.124-5.734-10.346-10.017-15.612-10.908-13.41,7.51-29.8,17.771-37.419A79.905,79.905,0,0,1,116.1,221.512a85.022,85.022,0,0,1-8.518,22.268,5.712,5.712,0,0,0-6.953,1.354,6.79,6.79,0,0,0-.058,8.689,5.651,5.651,0,0,0,7.79.275,6.7,6.7,0,0,0,1.55-7.929,88.648,88.648,0,0,0,9.114-22.819,95.55,95.55,0,0,1,15.6,45.467c.135,1.8.188,3.617.164,5.426a17.516,17.516,0,0,1-.068,2.167c-.547,10.209-4.1,19.894-13.7,25.429-6.968,4.021-15.185,4.98-23.124,4.465-6.3-.408-11.087-1.2-14.13-6.972m22.9-51.1c.726.95.976,2.142-.263,2.8a2.97,2.97,0,0,1-3.464-.53,1.93,1.93,0,0,1-.162-2.642c1.123-1.1,2.853-.534,3.889.369M88.554,407.56C109.5,385.533,148.083,360.843,160.1,351.4c-26.977,13.944-51.871,30.015-72.837,51.882,1.369-5.251,2.447-10.643,4.591-15.7a103.088,103.088,0,0,1,37.088-45.013c24.758-16.752,55.8-25.151,85.459-26.223-22.176,50.9-70.962,85.3-125.847,91.216" transform="translate(0 0)" fill="#707350"/>
    </g>
  </g>
  <g id="Сгруппировать_308" data-name="Сгруппировать 308" transform="translate(175.84 532.881) rotate(77)">
    <g id="Сгруппировать_307" data-name="Сгруппировать 307" transform="translate(0 0)" clip-path="url(#clip-path-2)">
      <path id="Контур_234" data-name="Контур 234" d="M1.6,69.879c3.6,5.859,11.488,9.443,18.138,9.941a17.154,17.154,0,0,0,8.2-1.281c-3.1,11.646.9,25.464,12.515,30.827,11.677,5.394,24.712,1.01,28.168-10.69a16.45,16.45,0,0,0,8.284,6.83c3.008,1.045,4.351.345,7.2-.08,4.952-.736,9.843.6,14.592-.08,14.87-2.134,13.033-23.688,6.623-32.436a72.394,72.394,0,0,0-6.167-7.172c6.466.264,13-1.677,17.1-7.15,5.656-7.54,2.953-16.568-3.286-22.407-7.935-7.428-4.231-2.352-7.668-9.325-.876-1.781-1.2-2.773-2.828-4.129-2.583-2.155-6.232-2.639-9.46-2.357a16.6,16.6,0,0,0-9.651,4.253c0-.322.015-.642,0-.963-.189-4.367-1.714-9.692-4.774-12.951C74.556,6.42,69.842,7.828,64.531,7.221c-6.5-.743-9.763-6.884-16.973-7.2a14.058,14.058,0,0,0-13.329,7.1c-5.018,9.065-2.363,20.813,3.259,29.108a66.649,66.649,0,0,0-14.536-1.643c-5.405-.015-12.642.225-17,3.991-4.833,4.176-2.8,12.3-4.12,17.84C.607,61.562-1.469,64.9,1.6,69.879M66.1,93.984c-.4,8.584-6.445,15.706-15.7,14.95a21.454,21.454,0,0,1-13.494-6.079C30,95.79,28.851,84.956,32.224,76.038a39.678,39.678,0,0,0,3.924-3.4,70.943,70.943,0,0,1,24.4-16.093,30.607,30.607,0,0,0-6.452,10.9c-1.387.165-2.881.941-2.65,2.537.284,1.954,2.53,3.008,4.3,2.993,1.323-.013,3.342-.569,3.415-2.179.058-1.279-1.081-2.294-2.3-2.862a26.3,26.3,0,0,1,7.386-11.1c-.015.978.053,1.983.122,3,.645,9.42-.165,19.1.662,28.412A23.282,23.282,0,0,0,66.1,93.356c0,.258.009.414,0,.627m41.355-3.235c-.983,5.205-4.136,10.325-9.861,11.028-2.025.249-4.442-.611-6.515-.643-5.154-.08-10.276,2.681-15.126.016a13.762,13.762,0,0,1-6.479-7.65l0-.013a5.9,5.9,0,0,1-.26-.74c-1.468-4.636-1.23-10.063-1.11-14.937a121.58,121.58,0,0,0-.594-14.936c-.191-1.925-1.1-5.351-.32-7.491q4.637,5.837,9.292,11.657a3.9,3.9,0,0,0,.6,3.815,3.418,3.418,0,0,0,5.056.583,4.246,4.246,0,0,0,.105-5.612,3.132,3.132,0,0,0-3.46-.974Q74.3,59.239,69.825,53.608c8.958-2.021,21.949,10.007,27.225,15.1,6.018,5.814,12.126,12.94,10.407,22.038m-27-22.558.005,0v0l-.005-.005m11.93-44.9c7.481-.725,9.6,8.184,13.929,12.077,5.04,4.531,10.8,8.58,9.116,16.457-1.925,9.009-11.221,12.044-19.39,10.854C89.793,56.819,81.886,51.11,74.827,49.953a21.838,21.838,0,0,1,10.3-1.636,2.991,2.991,0,0,0,2.07,2.644c2.048.609,4.311-1.12,4.747-3.093.322-1.454-.467-3.673-1.928-4.278A3.241,3.241,0,0,0,86.3,44.829a24.1,24.1,0,0,0-11.123,1.176,44.238,44.238,0,0,0,7.282-14.53C84.381,27.7,88,23.716,92.385,23.291M36.71,10.4C39.549,3.094,47.8.141,55.173,5.675c1.274.956,2.121,2.4,3.439,3.348,2.3,1.647,4.34,1.9,7.135,2.274,5.578.74,10.919-.211,13.067,6.688,1.676,5.38.918,10.961-1.16,16.117A53.824,53.824,0,0,1,68.3,48.937a36.585,36.585,0,0,0-7.577-18.861,4.71,4.71,0,0,0,.353-.669,2.112,2.112,0,0,0-.287-2.321,3.027,3.027,0,0,0-2.225-.783,4.5,4.5,0,0,0-3.937,2.006,1.108,1.108,0,0,0-.073.205,1.676,1.676,0,0,0-.1.153,3.027,3.027,0,0,0-.016,2.555,2.509,2.509,0,0,0,2.624,1.261,4.525,4.525,0,0,0,1.485-.458A32.365,32.365,0,0,1,65.642,49.76a73.524,73.524,0,0,0-23.4-12.271C36.276,30.166,33.16,19.547,36.71,10.4M5.8,54.985c.7-3.962-.478-10.094,1.968-13.394,3.978-5.367,15.172-4.4,20.815-3.964A63.068,63.068,0,0,1,59.837,49.013a22.714,22.714,0,0,0-6.952.32,3.534,3.534,0,0,0-2.628-2.155,3.877,3.877,0,0,0-4.273,3.41,3.689,3.689,0,0,0,6.794,2.468,21.767,21.767,0,0,1,8.756-.2A67.833,67.833,0,0,0,34.7,69.176c-2.715,2.664-5.174,5.816-8.894,7.142-6.061,2.161-13.969-.262-18.561-4.507C1.045,66.084,4.616,61.668,5.8,54.985" transform="translate(0 0.001)" fill="#707350"/>
    </g>
  </g>
</svg>
