<svg id="Сгруппировать_443" data-name="Сгруппировать 443" xmlns="http://www.w3.org/2000/svg" xmlns:xlink="http://www.w3.org/1999/xlink" width="57.979" height="57.979" viewBox="0 0 57.979 57.979">
  <defs>
    <clipPath id="clip-path">
      <rect id="Прямоугольник_86" data-name="Прямоугольник 86" width="57.979" height="57.979" fill="#f4a173"/>
    </clipPath>
  </defs>
  <g id="Сгруппировать_434" data-name="Сгруппировать 434" transform="translate(0 0)" clip-path="url(#clip-path)">
    <path id="Контур_266" data-name="Контур 266" d="M55.784,62.983c-.121-.011-.244-.019-.366-.019a2.058,2.058,0,0,0-.211.01c-.039,0-.076.006-.111.006-.252,0-.362-.117-.415-.434Q53.259,53.909,51.8,45.279a1.468,1.468,0,0,0-1.616-1.371H14.7a1.469,1.469,0,0,0-1.609,1.38q-1.39,8.3-2.781,16.6c-.056.331-.014.769-.21.96a.815.815,0,0,1-.549.124H9.359c-.072,0-.142,0-.208.007A1.465,1.465,0,0,0,7.79,64.3a1.444,1.444,0,0,0,1.194,1.518,3.256,3.256,0,0,0,.6.038h.071q8.522,0,17.046,0H38.989q8.131,0,16.262,0a3.423,3.423,0,0,0,.717-.053A1.428,1.428,0,0,0,57.1,64.293a1.456,1.456,0,0,0-1.32-1.311M34.752,49.374l.058,0c.736,0,1.34.824,1.32,1.825-.022,1.109-.73,2.1-1.54,2.1h-.048c-1.094-.053-1.189-.918-1.318-1.644-.006-1.183.726-2.23,1.528-2.277m-4.666,0,.058,0c.8.047,1.533,1.094,1.528,2.277-.129.725-.224,1.591-1.318,1.644h-.048c-.81,0-1.519-.99-1.54-2.1-.019-1,.585-1.825,1.321-1.825M27.12,55.93h-.039c-.889,0-1.821-1.248-1.759-2.364.041-.732.27-1.407,1.163-1.471l.073,0c.889,0,1.756,1.148,1.761,2.472-.014.65-.255,1.326-1.2,1.365m7.5,4.307a10.279,10.279,0,0,1-2.177.158,10.275,10.275,0,0,1-2.177-.158c-1.811-.584-2.293-2.057-1.241-3.64a4.128,4.128,0,0,1,6.836,0c1.052,1.583.57,3.056-1.241,3.64m3.189-4.306h-.039c-.944-.039-1.186-.715-1.2-1.365.005-1.323.871-2.472,1.761-2.472l.073,0c.893.064,1.122.739,1.163,1.471.062,1.116-.87,2.364-1.759,2.364" transform="translate(-3.458 -19.498)" fill="#f4a173"/>
    <path id="Контур_267" data-name="Контур 267" d="M28.989,0A28.961,28.961,0,0,0,2.978,41.752,4.274,4.274,0,0,1,4.26,40.97q.31-1.846.619-3.693A25.5,25.5,0,1,1,54.49,28.99a25.324,25.324,0,0,1-1.394,8.3c.2,1.225.411,2.449.614,3.674A4.236,4.236,0,0,1,55,41.751,28.959,28.959,0,0,0,28.989,0" transform="translate(0 0)" fill="#f4a173"/>
    <path id="Контур_268" data-name="Контур 268" d="M35.54,93.753a25.361,25.361,0,0,1-15.582-5.335H14.751a28.9,28.9,0,0,0,41.578,0H51.122A25.359,25.359,0,0,1,35.54,93.753" transform="translate(-6.55 -39.264)" fill="#f4a173"/>
    <path id="Контур_269" data-name="Контур 269" d="M55.438,29.941a5.9,5.9,0,0,0-4.015-5.6,1.268,1.268,0,0,1-.6-.478,5.771,5.771,0,0,0-4.925-2.8,1.014,1.014,0,0,1-.809-.38,5.6,5.6,0,0,0-5.888-1.767,15.683,15.683,0,0,0-2.544,1.172c-.079.052-.2-.022-.326-.094a5.877,5.877,0,0,0-8.662,3.677.652.652,0,0,1-.556.583,5.539,5.539,0,0,0-2.91,1.774,5.835,5.835,0,0,0-1.46,4.533H55.391c.018-.235.047-.426.047-.618" transform="translate(-10.089 -8.299)" fill="#f4a173"/>
  </g>
</svg>
