<svg id="Сгруппировать_445" data-name="Сгруппировать 445" xmlns="http://www.w3.org/2000/svg" xmlns:xlink="http://www.w3.org/1999/xlink" width="57.979" height="57.979" viewBox="0 0 57.979 57.979">
  <defs>
    <clipPath id="clip-path">
      <rect id="Прямоугольник_84" data-name="Прямоугольник 84" width="57.979" height="57.979" fill="#9b9d70"/>
    </clipPath>
  </defs>
  <g id="Сгруппировать_430" data-name="Сгруппировать 430" transform="translate(0 0.001)" clip-path="url(#clip-path)">
    <path id="Контур_262" data-name="Контур 262" d="M52.442,11.987a19.316,19.316,0,0,1-.682,4.073c-.087.312-.2.6-.3.9A25.4,25.4,0,0,1,48.2,45.731l-9.984-9.985a14.951,14.951,0,0,0,7.707-5.495,10.736,10.736,0,0,0-2.336-2.617,12.993,12.993,0,0,0-7.568-3.374c.648-.648.281-.232.728-.722a1.784,1.784,0,0,1,1.177-.569,24.48,24.48,0,0,0,3.408-.441,9.679,9.679,0,0,0,7.742-7.223,16.421,16.421,0,0,0,.542-6.025c-.026-.274-.1-.542-.151-.8a16.957,16.957,0,0,0-2.334-.164,16.157,16.157,0,0,0-4.411.615A9.554,9.554,0,0,0,35.937,15.1a15.91,15.91,0,0,0-.908,4.784,1.61,1.61,0,0,1-.205.913,11.678,11.678,0,0,1-1.078,1.1,11.986,11.986,0,0,0-1.991-5.612,14.178,14.178,0,0,0-4.032-4.233,15.854,15.854,0,0,0-1.254,1.1,29.316,29.316,0,0,0-2.281,2.612,12,12,0,0,0-1.957,3.993L12.248,9.78A25.406,25.406,0,0,1,41.065,6.547c.3-.1.587-.216.9-.3a19.121,19.121,0,0,1,4.065-.682A28.963,28.963,0,0,0,5.743,46.277a4.4,4.4,0,0,1,.786-1.066l1.6-1.595A25.406,25.406,0,0,1,9.78,12.248L45.731,48.2a25.408,25.408,0,0,1-31.365,1.656l-1.6,1.6a4.43,4.43,0,0,1-1.063.785,28.963,28.963,0,0,0,40.74-40.249" transform="translate(0 0)" fill="#9b9d70"/>
    <path id="Контур_263" data-name="Контур 263" d="M24.894,66.59a9.485,9.485,0,0,0,9.734.127A15.654,15.654,0,0,0,39.253,63c.247-.3.482-.6.74-.925-2.6-3.155-5.592-5.453-9.822-5.934l3.717-3.717L31.46,49.991,27.8,53.655a14.613,14.613,0,0,0-5.986-9.69,7.106,7.106,0,0,0-.9.707,34.145,34.145,0,0,0-2.675,2.985c-2.969,4.038-3.058,8.1-.34,12.32.465.722.994,1.4,1.561,2.195L14.914,66.71A1.62,1.62,0,0,0,17.2,69l4.512-4.505c1.127.749,2.114,1.49,3.177,2.095" transform="translate(-6.413 -19.524)" fill="#9b9d70"/>
  </g>
</svg>
