<svg id="Сгруппировать_451" data-name="Сгруппировать 451" xmlns="http://www.w3.org/2000/svg" xmlns:xlink="http://www.w3.org/1999/xlink" width="57.979" height="57.979" viewBox="0 0 57.979 57.979">
  <defs>
    <clipPath id="clip-path">
      <rect id="Прямоугольник_85" data-name="Прямоугольник 85" width="57.979" height="57.979" fill="#b04545"/>
    </clipPath>
  </defs>
  <g id="Сгруппировать_432" data-name="Сгруппировать 432" transform="translate(0)" clip-path="url(#clip-path)">
    <path id="Контур_264" data-name="Контур 264" d="M28.989,0a28.99,28.99,0,1,0,28.989,28.99A29.023,29.023,0,0,0,28.989,0m0,54.49a25.5,25.5,0,1,1,25.5-25.5,25.528,25.528,0,0,1-25.5,25.5" transform="translate(0 0)" fill="#b04545"/>
    <path id="Контур_265" data-name="Контур 265" d="M55.656,32.636a17.307,17.307,0,0,0-1.974-5.116,11.236,11.236,0,0,0-9.763-5.526,11.486,11.486,0,0,0-5.673,1.493c-.459.26-1.225.738-1.41.854-.185-.116-.951-.594-1.409-.854a11.493,11.493,0,0,0-5.673-1.493,11.232,11.232,0,0,0-9.763,5.526,17.279,17.279,0,0,0-1.975,5.116,18.054,18.054,0,0,0-.225,5.668,9.939,9.939,0,0,0,.228,1.373c2.354,9.4,8.6,15.507,16.907,19.829a14.655,14.655,0,0,0,1.909.717,14.6,14.6,0,0,0,1.909-.717C47.056,55.184,53.3,49.072,55.653,39.677a10.022,10.022,0,0,0,.228-1.373,18.021,18.021,0,0,0-.225-5.668M40.4,31.6l.09,0c1.139,0,2.073,1.275,2.043,2.822-.033,1.715-1.13,3.247-2.383,3.247l-.074,0c-1.691-.082-1.837-1.421-2.037-2.543-.008-1.83,1.122-3.449,2.363-3.521m-7.217,0,.089,0c1.24.072,2.371,1.691,2.363,3.521-.2,1.122-.347,2.461-2.039,2.543l-.073,0c-1.254,0-2.349-1.532-2.383-3.247-.029-1.547.9-2.822,2.043-2.822M28.6,41.743h-.061c-1.375,0-2.817-1.93-2.721-3.656.064-1.131.419-2.176,1.8-2.275.037,0,.075,0,.112,0,1.376,0,2.716,1.776,2.723,3.823-.021,1.006-.394,2.051-1.855,2.111M40.2,48.4a15.915,15.915,0,0,1-3.367.244,15.93,15.93,0,0,1-3.367-.244c-2.8-.9-3.547-3.182-1.919-5.63a6.384,6.384,0,0,1,10.572,0c1.628,2.448.883,4.727-1.92,5.63m4.933-6.661h-.06c-1.46-.06-1.833-1.106-1.855-2.111.008-2.047,1.347-3.823,2.723-3.823.038,0,.075,0,.113,0,1.381.1,1.736,1.144,1.8,2.275.1,1.727-1.345,3.656-2.721,3.656" transform="translate(-7.847 -9.767)" fill="#b04545"/>
  </g>
</svg>
