<svg id="Сгруппировать_447" data-name="Сгруппировать 447" xmlns="http://www.w3.org/2000/svg" xmlns:xlink="http://www.w3.org/1999/xlink" width="57.979" height="57.979" viewBox="0 0 57.979 57.979">
  <defs>
    <clipPath id="clip-path">
      <rect id="Прямоугольник_87" data-name="Прямоугольник 87" width="57.979" height="57.979" fill="#9b9d70"/>
    </clipPath>
  </defs>
  <g id="Сгруппировать_436" data-name="Сгруппировать 436" transform="translate(0 0.001)" clip-path="url(#clip-path)">
    <path id="Контур_270" data-name="Контур 270" d="M56.136,38.179a2.216,2.216,0,0,0-2.714-1.563c-2.045.549-4.058,1.087-6.076,1.606a1.458,1.458,0,0,1-.979-.111C44.546,37.1,42.75,36.043,40.949,35a4.125,4.125,0,0,1-.425-.336c1.478-.856,2.959-1.573,4.279-2.517a4.315,4.315,0,0,1,4.263-.549c1.43.48,2.9.854,4.381,1.229a2.216,2.216,0,0,0,2.685-1.575l.028-.106a2.215,2.215,0,0,0-1.555-2.71l-2.234-.612L54.1,26.816a2.214,2.214,0,0,0,.8-3.026l-.044-.077a2.215,2.215,0,0,0-3.017-.811l-1.748,1,.59-2.255a2.215,2.215,0,0,0-1.574-2.7l-.067-.018a2.214,2.214,0,0,0-2.706,1.554c-.51,1.865-1.234,4.519-1.669,6.094a1.263,1.263,0,0,1-.457.714c-1.921,1.14-3.864,2.243-5.8,3.351-.051.029-.135,0-.237,0,0-2.307-.011-4.592.016-6.877a1.161,1.161,0,0,1,.36-.688c1.176-1.2,2.373-2.389,3.564-3.578l.786-.783a2.215,2.215,0,0,0,.007-3.133l-.21-.211a2.216,2.216,0,0,0-3.148,0l-1.419,1.438V15.069a2.216,2.216,0,0,0-2.216-2.216h-.053a2.216,2.216,0,0,0-2.215,2.216v1.813l-.194.077-1.355-1.443a2.215,2.215,0,0,0-3.183-.049l-.061.061a2.214,2.214,0,0,0,.019,3.148c.423.414.847.831,1.268,1.25,1.156,1.152,2.3,2.318,3.45,3.477.021,1.654.045,3.308.062,4.962.008.765,0,1.53,0,2.424-2.143-1.239-4.163-2.4-6.165-3.585a1.1,1.1,0,0,1-.337-.629c-.411-1.509-1.141-4.194-1.656-6.087a2.214,2.214,0,0,0-2.712-1.555l-.074.02a2.215,2.215,0,0,0-1.569,2.7c.191.729.384,1.469.586,2.245l-1.742-1a2.216,2.216,0,0,0-3.022.817l-.044.077a2.214,2.214,0,0,0,.8,3.02l1.751,1.02-2.253.616a2.215,2.215,0,0,0-1.553,2.715l.017.064a2.214,2.214,0,0,0,2.7,1.564c1.859-.489,4.5-1.182,6.072-1.579a1.477,1.477,0,0,1,1.067.133c1.512.821,2.991,1.7,4.481,2.563l1.383.8c-2.144,1.24-4.155,2.411-6.181,3.555a.989.989,0,0,1-.648-.013c-.926-.24-3.947-1.048-6.163-1.641a2.215,2.215,0,0,0-2.711,1.567l-.021.081a2.214,2.214,0,0,0,1.557,2.711l2.243.612L17.714,42.6a2.215,2.215,0,0,0-.8,3.019l.045.078a2.216,2.216,0,0,0,3.015.817l1.747-.995-.583,2.234a2.215,2.215,0,0,0,1.578,2.7l.086.023a2.218,2.218,0,0,0,2.706-1.57c.529-1.971,1.046-3.9,1.543-5.827a1.777,1.777,0,0,1,1.155-1.31,15.186,15.186,0,0,0,2.386-1.266,33.175,33.175,0,0,1,3.057-1.872c0,2.323.021,4.512-.021,6.7a1.578,1.578,0,0,1-.445,1.068c-1.071,1.106-2.955,3-4.3,4.348a2.216,2.216,0,0,0,0,3.13l.123.122a2.215,2.215,0,0,0,3.2-.073l1.453-1.6v1.987a2.215,2.215,0,0,0,2.215,2.215H36a2.215,2.215,0,0,0,2.215-2.215V52.318l1.5,1.544a2.215,2.215,0,0,0,3.153.022l.032-.032a2.216,2.216,0,0,0,.005-3.13c-1.333-1.339-3.2-3.218-4.268-4.318a1.667,1.667,0,0,1-.445-1.025c-.041-2.035-.022-4.07-.018-6.106,0-.181.038-.361.066-.615,1.971,1.137,3.873,2.207,5.739,3.334a1.889,1.889,0,0,1,.71.955c.295.851.49,1.737.724,2.609.3,1.116.6,2.231.906,3.365a2.218,2.218,0,0,0,2.713,1.566l.083-.022a2.216,2.216,0,0,0,1.57-2.7c-.192-.735-.386-1.476-.589-2.255l1.749,1a2.215,2.215,0,0,0,3.019-.817l.044-.078A2.215,2.215,0,0,0,54.1,42.6l-1.742-1.012,2.237-.607a2.215,2.215,0,0,0,1.558-2.715Z" transform="translate(-6.922 -5.708)" fill="#9b9d70"/>
    <path id="Контур_271" data-name="Контур 271" d="M28.989,0A28.989,28.989,0,1,0,57.98,28.99,29.022,29.022,0,0,0,28.989,0m0,54.488a25.5,25.5,0,1,1,25.5-25.5,25.528,25.528,0,0,1-25.5,25.5" transform="translate(0 0)" fill="#9b9d70"/>
  </g>
</svg>
