<svg id="Сгруппировать_423" data-name="Сгруппировать 423" xmlns="http://www.w3.org/2000/svg" xmlns:xlink="http://www.w3.org/1999/xlink" width="65.697" height="72.058" viewBox="0 0 65.697 72.058">
  <defs>
    <clipPath id="clip-path">
      <rect id="Прямоугольник_71" data-name="Прямоугольник 71" width="65.697" height="72.058" fill="#dbc4b4"/>
    </clipPath>
  </defs>
  <g id="Сгруппировать_422" data-name="Сгруппировать 422" clip-path="url(#clip-path)">
    <path id="Контур_259" data-name="Контур 259" d="M65.389,27.487a4.863,4.863,0,0,0,0-3.005,4.707,4.707,0,0,0-.937-1.616,4.562,4.562,0,0,0-.291-4.749A4.4,4.4,0,0,0,61.544,16.5a3.224,3.224,0,0,0,.323-2.94,2.4,2.4,0,0,0-.678-.808A2.6,2.6,0,0,0,57.764,10.1a5.39,5.39,0,0,0-1.648-3.231A4.948,4.948,0,0,0,54.759,6a3.6,3.6,0,0,0-1.874-2.455,3.458,3.458,0,0,0-2.423-.178A4.633,4.633,0,0,0,49.3,1.38c-.946-.675-2.693.024-3.1.388a31.847,31.847,0,0,0-9.063,13.715A27.4,27.4,0,0,0,11.3,25.951a13.348,13.348,0,0,1-.388-4.41,20.306,20.306,0,0,1,1.648-5.671c1.316-3.46,1.78-3.894,2.374-6.155.582-2.21.872-3.316.533-4.7A6.682,6.682,0,0,0,11.205.362,6.26,6.26,0,0,0,5.971.847,5.946,5.946,0,0,0,3.694,3.561a5.5,5.5,0,0,0-.848.412c-.42.25-.644.388-.727.654a.864.864,0,0,0,.049.582A7.3,7.3,0,0,0,.008,8.886.265.265,0,0,0,.4,9.181c.054-.032.112-.063.173-.1.673-.357,1.217-.645,1.672-.485a1.373,1.373,0,0,1,.7.872c.533,1.381-.025,2.969-.63,4.628a4.693,4.693,0,0,0-.581,2.472,3.2,3.2,0,0,0,.678,1.478,2.976,2.976,0,0,0-.1,1.405A3.094,3.094,0,0,0,3.427,21.3a10.638,10.638,0,0,0-1.793,2.666,10.942,10.942,0,0,0-.969,5.6A37.135,37.135,0,0,0,.01,36.129C-.031,40.2-.075,44.684,2.676,48.682A14.5,14.5,0,0,0,6.6,52.51a10.526,10.526,0,0,0,7.851,3.732,9.451,9.451,0,0,0,2.035,1.017,10.634,10.634,0,0,0,7.076-.146,31.6,31.6,0,0,0,.145,3.393c.059.606.133,1.188.218,1.744a4.047,4.047,0,0,1-.678,2.69,4.683,4.683,0,0,1-2.642,1.575,9.944,9.944,0,0,1-4.192.412,1.049,1.049,0,0,0-1.211.291.814.814,0,0,0-.121.509,1.254,1.254,0,0,0-1.042,1.6.933.933,0,0,1,.412-.461.978.978,0,0,1,.824-.024.944.944,0,0,0,.581.266.931.931,0,0,0,.485-.1,1.329,1.329,0,0,0-.218.436c-.182.648.186,1.33.315,1.309.1-.016-.048-.414.194-.8.206-.328.5-.344,1.236-.655.939-.4.838-.532,1.357-.654a3.934,3.934,0,0,1,1.551.024c.8.112.948.261,1.551.315a4.337,4.337,0,0,0,1.678-.19l.357.311-.056.315c0,.073.005.146.008.218a.876.876,0,0,0-.493.194,1,1,0,0,0-.3.872,1.1,1.1,0,0,1,1.163-.533.77.77,0,0,0,.129.283.969.969,0,0,0,.784.331.97.97,0,0,0-.67.323,1.027,1.027,0,0,0-.162.945,1.1,1.1,0,0,1,.557-.582A1.088,1.088,0,0,1,26,71.411a1.52,1.52,0,0,0,.791.169,1.618,1.618,0,0,0,1.123-.606,10.608,10.608,0,0,0,2.092-.129c.349-.056.906-.215,2.02-.533.719-.205.937-.281,1.13-.5a1.925,1.925,0,0,0,.323-1.373,10.244,10.244,0,0,1,.453-2.988,3.685,3.685,0,0,0,.84.339,3.934,3.934,0,0,0,2.294-.113,5.6,5.6,0,0,0,2.488,1.486c.863.242,2.034.461,2.165.161.079-.181-.285-.4-.953-1.179a6.565,6.565,0,0,1-1.211-1.761c.05-.042.48.5,1.276,1.2a5.488,5.488,0,0,0,2.973,1.615c.326.033.9.083,1.179-.274a.882.882,0,0,0,.146-.63c.44.407.957.395,1.115.194.128-.164.063-.507-.162-.808a3.088,3.088,0,0,0,2.036.565c.208-.022,1.066-.113,1.2-.549.1-.336-.291-.682-1.082-1.486-.423-.431-1.009-1.042-1.7-1.809a8.887,8.887,0,0,0,.905.453,3.462,3.462,0,0,0,1.357.387c.353.01.628.017.743-.113.217-.247-.05-1.092-2.2-3.731q1.669.292,1.809-.049.169-.411-1.89-1.744c2.246.694,5.244.755,5.784.4a1.878,1.878,0,0,0,.727-1.244,3.186,3.186,0,0,0,2-.21A3.491,3.491,0,0,0,57.586,54a3.224,3.224,0,0,0,1.632-.791,3.348,3.348,0,0,0,1.034-2.327A3.488,3.488,0,0,0,62.449,46a3.923,3.923,0,0,0,.678-4.943,3.46,3.46,0,0,0,1-1.809,3.412,3.412,0,0,0-.065-1.583,4.352,4.352,0,0,0,1.324-3.2,4.2,4.2,0,0,0-.937-2.456,4.288,4.288,0,0,0,1.228-2.585,4.163,4.163,0,0,0-.291-1.938M7.309,9.371c-.1.573-.236,1.3-.417,2.138-.413,1.908-.66,3.046-.856,3.037s-.418-1.22-.5-6.446a1.267,1.267,0,0,1,.985-.113,1.19,1.19,0,0,1,.568.405,1.244,1.244,0,0,1,.221.978M32.013,67.1a2.88,2.88,0,0,1-1.05,1.147,3.17,3.17,0,0,1-1.551.388,18.65,18.65,0,0,1-2.165-.194,7.186,7.186,0,0,0-1.7.146,2.131,2.131,0,0,1-.776-.937,3,3,0,0,1,.048-1.922,5.815,5.815,0,0,1,.323-.953,23.208,23.208,0,0,0,.874-2.367A3.406,3.406,0,0,1,27.2,60.7a1.509,1.509,0,0,0,.456-.546,1.628,1.628,0,0,0,.08-1.179,16.28,16.28,0,0,0,4.523,5.122,4.047,4.047,0,0,1-.242,3" transform="translate(0 0)" fill="#dbc4b4"/>
  </g>
</svg>
