<svg width="150" height="176" viewBox="0 0 150 176" fill="none" xmlns="http://www.w3.org/2000/svg">
<path d="M0 10C0 4.47715 4.47715 0 10 0H140C145.523 0 150 4.47715 150 10V166C150 171.523 145.523 176 140 176H10C4.47715 176 0 171.523 0 166V10Z" fill="white"/>
<path d="M101.499 106.589C101.093 104.44 100.359 103.78 100.588 102.363C100.635 102.073 100.693 101.928 100.698 101.589C100.712 100.687 100.322 100.164 100.008 99.3517C99.8551 98.9573 99.7584 98.4162 99.5656 97.3352C98.942 93.8379 99.621 87.6391 99.621 87.6391C99.7302 86.6461 99.8041 83.6442 99.9524 77.6394C100.147 69.7832 99.8796 70.6307 100.118 66.3142C100.291 63.195 100.326 60.0698 100.478 56.9495C100.553 55.3839 100.606 54.4708 100.367 53.1654C99.8437 50.3091 98.4253 48.3225 97.3834 46.8949C96.5322 45.7281 95.1627 44.112 93.1017 42.5578C92.9132 42.2134 92.5878 41.7169 92.0522 41.2595C90.9087 40.2833 89.6044 40.167 89.0688 40.1268C87.6732 40.022 86.7438 40.4387 85.6437 40.7901C84.2759 41.2269 82.8255 41.3757 79.9257 41.674C78.0141 41.8706 75.2638 41.9673 71.8045 41.4621C71.711 41.1193 71.629 40.6174 71.7675 40.0627C71.8572 39.7037 71.9968 39.4918 72.1212 39.2707C72.3015 39.3348 72.5313 39.3712 72.7801 39.2892C73.1077 39.1811 73.2799 38.9317 73.3326 38.847C73.2821 38.8687 72.9056 39.023 72.5411 38.847C72.4618 38.809 72.3982 38.7606 72.3423 38.7112C72.4265 38.3141 72.4015 37.7388 71.9517 36.9321C72.0343 36.8952 72.157 36.8555 72.3015 36.8675C72.6128 36.893 72.8171 37.1418 72.9643 37.3091C73.3445 37.7415 73.7759 38.1229 73.9589 38.2484C74.5527 38.6558 75.4229 38.3559 75.9754 38.1658C78.0511 37.4504 79.4227 35.3269 79.8426 34.6299C80.1957 34.537 80.9383 34.2828 81.4723 33.5804C81.607 33.4039 82.2763 32.5233 81.9422 31.8953C81.7417 31.5194 81.2757 31.4091 80.9753 31.3429C80.0382 31.1354 79.3342 31.4531 78.6274 31.6465C78.1988 31.7639 78.1668 31.7264 75.4229 31.7845C74.4945 31.8046 73.1348 31.8377 71.4449 31.8953C71.4861 31.7753 71.5736 31.4662 71.4726 31.0941C71.3471 30.6301 71.0146 30.3852 70.9201 30.3205C71.6812 30.339 72.7796 30.3053 74.0692 30.0445C75.4311 29.7691 76.9499 29.4622 78.2129 28.2763C79.1261 27.4191 79.917 26.092 79.5938 25.7074C79.2673 25.3179 77.9701 26.1007 76.2242 26.7298C74.7287 27.2681 72.5607 27.8168 69.6772 27.807C67.2408 26.1078 65.6736 25.928 64.8707 25.9562C64.6904 25.9622 64.2074 25.997 63.241 26.0665C61.2186 26.2121 60.9703 26.2599 60.7547 26.3153C60.1957 26.4593 59.3678 26.7836 58.4623 27.6136C57.9071 27.7065 56.8853 27.794 55.7271 27.3925C55.3952 27.2773 53.9899 26.7542 53.0202 25.3484C52.1511 24.0886 52.2342 22.9935 51.943 23.0005C51.5817 23.0092 51.0059 24.7014 51.4182 26.3153C51.9202 28.2812 53.6753 29.2982 54.1528 29.5747C55.2426 30.2064 56.2801 30.3775 56.8875 30.4313C56.8695 30.6459 56.8587 30.8768 56.8597 31.1218C56.8619 31.5955 56.9076 32.0224 56.9706 32.3924C56.7793 32.4614 56.4806 32.538 56.1416 32.4755C55.65 32.3842 55.418 32.0643 55.0367 31.8122C54.5891 31.5167 54.1767 31.477 53.3516 31.3977C51.107 31.1821 49.3149 32.1599 48.6559 32.5304C47.5282 33.1648 47.4141 33.5446 47.3853 33.7184C47.2729 34.3947 47.9285 35.0998 48.3794 35.4312C48.7249 35.6843 48.7944 35.6039 49.2084 35.8451C50.0993 36.3645 50.2188 36.9941 50.976 37.7513C50.976 37.7513 51.5655 38.3402 52.5232 38.8008C54.3332 39.6722 56.4034 38.9948 57.1917 38.6906C57.1792 38.9209 57.1737 39.268 57.2188 39.6852C57.2797 40.2436 57.3992 40.6375 57.4399 40.7901C57.5719 41.2807 57.6409 42.0542 57.3296 43.2759C56.5349 44.8225 55.5728 46.9112 54.7053 49.4638C54.2403 50.8311 52.917 54.9379 52.4123 60.5408C52.1293 63.6877 51.824 70.4107 53.904 78.1647C55.009 82.2829 56.335 85.6504 56.335 85.6504C57.9978 89.8734 59.0989 91.3429 59.5672 94.7663C59.8399 96.7599 59.7682 98.4695 59.7052 99.9872C59.5922 102.692 59.2206 104.941 58.8762 106.561C58.7936 106.816 58.7485 107.119 58.849 107.418C59.3689 108.963 63.4681 109.419 64.3183 108.108C64.5231 107.793 64.4274 107.547 64.1526 106.092C64.1526 106.092 63.7142 103.769 63.4067 101.009C63.2443 99.5537 63.1634 98.8258 63.241 98.1087C63.3959 96.6768 63.8098 96.2384 64.1249 94.6006C64.1841 94.2937 64.4253 92.979 64.346 91.4792C64.2906 90.4368 64.0456 88.6468 62.9374 86.5619C63.1824 86.5836 63.6001 86.5999 64.0972 86.507C65.9903 86.1518 66.5694 84.6704 68.5169 84.1038C68.8705 84.0006 69.43 83.8811 70.1743 83.9104C70.2976 84.3624 70.4383 85.0588 70.3953 85.8992C70.3133 87.5213 69.6164 88.36 69.097 89.6833C68.5739 91.0175 68.5549 92.2392 68.5169 94.6832C68.494 96.1765 68.6244 95.8267 68.8759 100.235C69.0628 103.504 69.0177 104.154 68.8759 104.849C68.7206 105.614 68.6434 106.178 68.4897 107.307C68.3202 108.547 68.3376 108.707 68.4066 108.882C68.9134 110.167 71.6008 110.758 72.9643 109.794C73.1039 109.695 73.7384 109.246 73.7932 108.578C73.8258 108.179 73.639 107.868 73.5721 107.749C73.2777 107.226 73.1821 106.268 72.992 104.352C72.898 103.402 72.8556 102.269 73.0751 97.8045C73.2592 94.059 73.3592 93.4359 73.5167 92.7498C73.7585 91.6998 73.9752 91.2038 74.7048 89.1031C75.3403 87.2725 75.8651 85.6645 76.279 84.3521C76.9423 84.4314 77.7794 84.4732 78.7377 84.3798C79.5677 84.2988 80.2848 84.1369 80.865 83.9653C81.7488 86.3446 82.1823 88.4149 82.4115 89.9321C82.7239 91.9958 83.2905 96.0162 81.9699 100.816C81.4766 102.607 80.8519 104.03 80.369 105.001C80.0561 105.385 79.6226 105.957 79.1799 106.699C78.4259 107.963 78.0472 108.594 78.2406 108.992C78.6633 109.864 80.9427 109.112 83.1297 109.186C83.2476 109.189 83.536 109.201 83.7653 109.02C84.0456 108.798 84.02 108.459 84.1243 107.777C84.2661 106.852 84.3693 106.231 84.8148 105.899C85.0989 105.686 85.2428 105.8 85.5329 105.622C86.1299 105.257 86.2044 104.359 86.2511 103.523C86.3581 101.629 86.2902 100.706 86.3342 99.6004C86.3548 99.0757 86.4678 98.2652 86.6933 96.6448C87.0132 94.3458 87.0724 93.1567 87.356 92.5841C89.1888 88.8826 88.525 82.001 88.0747 81.3687C88.7559 80.9085 89.4371 80.4479 90.1189 79.9878C90.3052 80.5125 90.5692 81.3339 90.7816 82.3633C90.925 83.0581 91.4699 85.4923 91.1961 87.6391C91.0097 89.0999 90.7354 89.5453 91.3895 91.6998C91.6247 92.4766 92.7589 94.0172 92.9083 95.0422C92.9371 95.2383 92.9844 95.5958 92.7981 95.9266C92.6117 96.2569 92.2983 96.3731 92.3287 96.4514C92.3694 96.5567 92.9985 96.4856 93.3782 96.3134C94.7232 95.7022 94.8927 92.9334 94.7319 91.3684C94.5157 89.2715 93.5341 87.6657 92.7236 86.6515C92.3798 86.2208 92.1337 85.7253 92.0163 85.187C92.0098 85.1577 92.0033 85.1283 91.9968 85.0979C91.7871 84.1076 91.7388 83.3514 91.7208 83.1092C91.666 82.3666 91.509 81.1948 91.0575 79.3245C91.6931 78.8829 92.3287 78.4407 92.9637 77.999C93.1522 78.6694 93.4206 79.6618 93.7096 80.8716C94.3332 83.4818 94.5967 85.1924 95.3393 89.849C96.3078 95.9179 96.3301 95.9538 96.417 96.8381C96.7658 100.404 96.9402 102.188 96.7207 103.633C96.3671 105.964 95.5435 107.941 96.4996 108.799C96.7647 109.037 97.0814 109.105 97.7148 109.241C98.2868 109.364 99.0892 109.279 100.671 109.103C101.083 109.057 101.202 109.04 101.334 108.937C101.461 108.838 101.854 108.463 101.499 106.589Z" fill="#DBC4B4"/>
<path d="M58.1298 147.274C57.8298 147.274 57.5958 147.19 57.4278 147.022C57.2718 146.854 57.1938 146.62 57.1938 146.32V135.412C57.1938 135.1 57.2778 134.866 57.4458 134.71C57.6138 134.542 57.8478 134.458 58.1478 134.458H62.4498C63.8178 134.458 64.8738 134.782 65.6178 135.43C66.3618 136.078 66.7338 136.996 66.7338 138.184C66.7338 138.952 66.5658 139.612 66.2298 140.164C65.8938 140.716 65.4018 141.136 64.7538 141.424C64.1178 141.712 63.3498 141.856 62.4498 141.856L62.6118 141.604H63.0798C63.5598 141.604 63.9738 141.724 64.3218 141.964C64.6818 142.204 65.0058 142.588 65.2938 143.116L66.8418 145.996C66.9618 146.212 67.0158 146.422 67.0038 146.626C67.0038 146.818 66.9318 146.974 66.7878 147.094C66.6558 147.214 66.4638 147.274 66.2118 147.274C65.9478 147.274 65.7318 147.22 65.5638 147.112C65.4078 146.992 65.2638 146.818 65.1318 146.59L63.2418 143.098C62.9898 142.63 62.7018 142.318 62.3778 142.162C62.0538 141.994 61.6278 141.91 61.0998 141.91H59.0658V146.32C59.0658 146.62 58.9878 146.854 58.8318 147.022C58.6758 147.19 58.4418 147.274 58.1298 147.274ZM59.0658 140.506H62.1438C63.0558 140.506 63.7458 140.314 64.2138 139.93C64.6818 139.546 64.9158 138.976 64.9158 138.22C64.9158 137.476 64.6818 136.912 64.2138 136.528C63.7458 136.144 63.0558 135.952 62.1438 135.952H59.0658V140.506ZM70.0774 147.256C69.7894 147.256 69.5674 147.172 69.4114 147.004C69.2554 146.824 69.1774 146.578 69.1774 146.266V139.246C69.1774 138.934 69.2554 138.694 69.4114 138.526C69.5674 138.358 69.7894 138.274 70.0774 138.274C70.3654 138.274 70.5874 138.358 70.7434 138.526C70.9114 138.694 70.9954 138.934 70.9954 139.246V146.266C70.9954 146.578 70.9174 146.824 70.7614 147.004C70.6054 147.172 70.3774 147.256 70.0774 147.256ZM70.0774 136.402C69.7174 136.402 69.4354 136.312 69.2314 136.132C69.0394 135.952 68.9434 135.7 68.9434 135.376C68.9434 135.04 69.0394 134.788 69.2314 134.62C69.4354 134.44 69.7174 134.35 70.0774 134.35C70.4374 134.35 70.7134 134.44 70.9054 134.62C71.1094 134.788 71.2114 135.04 71.2114 135.376C71.2114 135.7 71.1094 135.952 70.9054 136.132C70.7134 136.312 70.4374 136.402 70.0774 136.402ZM74.4544 147.274C74.1664 147.274 73.9444 147.196 73.7884 147.04C73.6324 146.872 73.5544 146.644 73.5544 146.356V139.156C73.5544 138.856 73.6324 138.628 73.7884 138.472C73.9444 138.316 74.1604 138.238 74.4364 138.238C74.7244 138.238 74.9404 138.316 75.0844 138.472C75.2404 138.628 75.3184 138.856 75.3184 139.156V140.56L75.1204 140.236C75.3844 139.564 75.7984 139.06 76.3624 138.724C76.9264 138.376 77.5744 138.202 78.3064 138.202C79.0024 138.202 79.5784 138.334 80.0344 138.598C80.5024 138.85 80.8504 139.24 81.0784 139.768C81.3064 140.284 81.4204 140.938 81.4204 141.73V146.356C81.4204 146.644 81.3424 146.872 81.1864 147.04C81.0304 147.196 80.8084 147.274 80.5204 147.274C80.2204 147.274 79.9924 147.196 79.8364 147.04C79.6804 146.872 79.6024 146.644 79.6024 146.356V141.838C79.6024 141.082 79.4524 140.53 79.1524 140.182C78.8644 139.834 78.4084 139.66 77.7844 139.66C77.0524 139.66 76.4644 139.888 76.0204 140.344C75.5884 140.8 75.3724 141.412 75.3724 142.18V146.356C75.3724 146.968 75.0664 147.274 74.4544 147.274ZM87.2735 147.31C86.5055 147.31 85.8275 147.13 85.2395 146.77C84.6635 146.398 84.2135 145.87 83.8895 145.186C83.5655 144.49 83.4035 143.68 83.4035 142.756C83.4035 141.808 83.5655 140.998 83.8895 140.326C84.2135 139.654 84.6635 139.132 85.2395 138.76C85.8275 138.388 86.5055 138.202 87.2735 138.202C88.0415 138.202 88.7015 138.394 89.2535 138.778C89.8175 139.15 90.1955 139.654 90.3875 140.29H90.1895V135.25C90.1895 134.95 90.2675 134.722 90.4235 134.566C90.5795 134.41 90.8015 134.332 91.0895 134.332C91.3775 134.332 91.5995 134.41 91.7555 134.566C91.9235 134.722 92.0075 134.95 92.0075 135.25V146.356C92.0075 146.644 91.9295 146.872 91.7735 147.04C91.6175 147.196 91.3955 147.274 91.1075 147.274C90.8195 147.274 90.5975 147.196 90.4415 147.04C90.2855 146.872 90.2075 146.644 90.2075 146.356V144.772L90.4055 145.168C90.2135 145.816 89.8355 146.338 89.2715 146.734C88.7195 147.118 88.0535 147.31 87.2735 147.31ZM87.7415 145.906C88.2335 145.906 88.6655 145.786 89.0375 145.546C89.4095 145.306 89.6975 144.952 89.9015 144.484C90.1175 144.016 90.2255 143.44 90.2255 142.756C90.2255 141.724 89.9975 140.944 89.5415 140.416C89.0855 139.888 88.4855 139.624 87.7415 139.624C87.2375 139.624 86.7995 139.744 86.4275 139.984C86.0555 140.212 85.7615 140.56 85.5455 141.028C85.3415 141.496 85.2395 142.072 85.2395 142.756C85.2395 143.776 85.4675 144.556 85.9235 145.096C86.3795 145.636 86.9855 145.906 87.7415 145.906Z" fill="#DBC4B4"/>
</svg>
