<svg id="Сгруппировать_419" data-name="Сгруппировать 419" xmlns="http://www.w3.org/2000/svg" xmlns:xlink="http://www.w3.org/1999/xlink" width="54.272" height="87.272" viewBox="0 0 54.272 87.272">
  <defs>
    <clipPath id="clip-path">
      <rect id="Прямоугольник_69" data-name="Прямоугольник 69" width="54.272" height="87.272" fill="#dbc4b4"/>
    </clipPath>
  </defs>
  <g id="Сгруппировать_418" data-name="Сгруппировать 418" clip-path="url(#clip-path)">
    <path id="Контур_257" data-name="Контур 257" d="M54.127,83.59c-.406-2.15-1.141-2.809-.912-4.226a4.208,4.208,0,0,0,.11-.774,5.435,5.435,0,0,0-.69-2.238,12.4,12.4,0,0,1-.442-2.016c-.624-3.5.055-9.7.055-9.7.109-.993.183-3.995.331-10,.194-7.856-.073-7.009.166-11.325.173-3.119.208-6.244.36-9.365a14.86,14.86,0,0,0-.111-3.784,14.862,14.862,0,0,0-2.983-6.27,20.739,20.739,0,0,0-4.282-4.337,4.621,4.621,0,0,0-1.05-1.3A5.053,5.053,0,0,0,41.7,17.127a8.126,8.126,0,0,0-3.425.663,29.034,29.034,0,0,1-5.718.884,32.7,32.7,0,0,1-8.121-.212,2.763,2.763,0,0,1-.037-1.4,2.84,2.84,0,0,1,.354-.792,1,1,0,0,0,.659.018,1.055,1.055,0,0,0,.552-.442,1.007,1.007,0,0,1-.791,0,.858.858,0,0,1-.2-.136,2.524,2.524,0,0,0-.391-1.779.714.714,0,0,1,.35-.065,1.048,1.048,0,0,1,.663.442,6.858,6.858,0,0,0,.995.939c.594.407,1.464.108,2.016-.083a8.254,8.254,0,0,0,3.867-3.536,3,3,0,0,0,1.63-1.05c.135-.177.8-1.057.47-1.685a1.356,1.356,0,0,0-.967-.552,4.441,4.441,0,0,0-2.348.3,15.35,15.35,0,0,1-3.2.138c-.928.02-2.288.053-3.978.111a1.375,1.375,0,0,0,.028-.8,1.394,1.394,0,0,0-.552-.774A14.157,14.157,0,0,0,26.7,7.045a7.871,7.871,0,0,0,4.144-1.768c.913-.857,1.7-2.184,1.381-2.569S30.6,3.1,28.852,3.73a18.9,18.9,0,0,1-6.547,1.077c-2.436-1.7-4-1.879-4.806-1.851-.18.006-.663.041-1.63.11a16.325,16.325,0,0,0-2.486.249,5.334,5.334,0,0,0-2.292,1.3,5.566,5.566,0,0,1-2.735-.221A5.6,5.6,0,0,1,5.648,2.349C4.779,1.089,4.862-.006,4.571,0,4.21.01,3.634,1.7,4.046,3.316A5.574,5.574,0,0,0,6.781,6.575a6.616,6.616,0,0,0,2.735.857c-.018.215-.029.445-.028.69A7.775,7.775,0,0,0,9.6,9.393a1.6,1.6,0,0,1-.829.083c-.492-.091-.724-.411-1.1-.663A3.341,3.341,0,0,0,5.98,8.4a8.061,8.061,0,0,0-4.7,1.133C.156,10.165.042,10.545.013,10.719c-.112.676.543,1.381.994,1.713.345.253.415.173.829.414.891.519,1.01,1.149,1.768,1.906A6.165,6.165,0,0,0,5.151,15.8a6.143,6.143,0,0,0,4.668-.11,6.174,6.174,0,0,0,.027.995,6.572,6.572,0,0,0,.221,1.1,4.856,4.856,0,0,1-.11,2.486,45.761,45.761,0,0,0-2.624,6.188A48.26,48.26,0,0,0,5.04,37.541,51.25,51.25,0,0,0,6.532,55.165a78.077,78.077,0,0,0,2.431,7.486c1.663,4.223,2.764,5.692,3.232,9.116a28.073,28.073,0,0,1,.138,5.221,39.578,39.578,0,0,1-.829,6.574,1.361,1.361,0,0,0-.027.857c.52,1.545,4.619,2,5.469.69.2-.316.109-.561-.166-2.016,0,0-.438-2.323-.746-5.083a13.74,13.74,0,0,1-.166-2.9c.155-1.432.569-1.87.884-3.508a13.547,13.547,0,0,0,.221-3.121,11.744,11.744,0,0,0-1.409-4.917,4.28,4.28,0,0,0,1.16-.055c1.893-.355,2.472-1.837,4.42-2.4a5.134,5.134,0,0,1,1.657-.193,6.332,6.332,0,0,1,.221,1.989c-.082,1.622-.779,2.461-1.3,3.784s-.542,2.556-.58,5c-.023,1.493.108,1.144.359,5.552.187,3.269.142,3.918,0,4.613-.155.765-.232,1.33-.386,2.459-.169,1.24-.152,1.4-.083,1.575.507,1.285,3.194,1.876,4.558.912a1.842,1.842,0,0,0,.829-1.216,1.423,1.423,0,0,0-.221-.828,10.8,10.8,0,0,1-.58-3.4A44.6,44.6,0,0,1,25.7,74.8a28.583,28.583,0,0,1,.442-5.055A33.669,33.669,0,0,1,27.333,66.1c.636-1.831,1.16-3.439,1.574-4.751a11.375,11.375,0,0,0,4.586-.387,29.978,29.978,0,0,1,1.547,5.967A25.348,25.348,0,0,1,34.6,77.816,23.267,23.267,0,0,1,33,82a14.144,14.144,0,0,0-1.189,1.7c-.754,1.264-1.133,1.895-.939,2.293.423.871,2.7.12,4.889.193a.952.952,0,0,0,.636-.166c.28-.222.255-.561.359-1.243.142-.925.245-1.546.69-1.878.284-.212.428-.1.718-.277.6-.366.671-1.264.718-2.1.107-1.894.039-2.817.083-3.923.021-.525.134-1.335.359-2.956a21.093,21.093,0,0,1,.663-4.061c1.833-3.7,1.169-10.583.719-11.215l2.044-1.381a17.959,17.959,0,0,1,.663,2.376,17.024,17.024,0,0,1,.414,5.276,6.863,6.863,0,0,0,.193,4.061c.235.777,1.369,2.317,1.519,3.342a1.359,1.359,0,0,1-.11.884c-.186.33-.5.447-.469.525.041.105.67.034,1.05-.138,1.345-.611,1.515-3.38,1.354-4.945a9.1,9.1,0,0,0-2.008-4.717,3.563,3.563,0,0,1-.707-1.465l-.02-.089a14.174,14.174,0,0,1-.276-1.989,23.827,23.827,0,0,0-.663-3.785L45.592,55c.188.67.457,1.663.746,2.873.624,2.61.887,4.321,1.63,8.977.969,6.069.991,6.1,1.078,6.989.349,3.566.523,5.35.3,6.8-.354,2.331-1.177,4.308-.221,5.166a2.48,2.48,0,0,0,1.215.442A10.9,10.9,0,0,0,53.3,86.1c.412-.046.531-.063.663-.166s.52-.474.166-2.348" transform="translate(0 0)" fill="#dbc4b4"/>
  </g>
</svg>
