<svg xmlns="http://www.w3.org/2000/svg" xmlns:xlink="http://www.w3.org/1999/xlink" width="106.768" height="58.266" viewBox="0 0 106.768 58.266">
  <defs>
    <clipPath id="clip-path">
      <rect id="Прямоугольник_72" data-name="Прямоугольник 72" width="106.768" height="58.266" fill="#dbc4b4"/>
    </clipPath>
  </defs>
  <g id="Сгруппировать_424" data-name="Сгруппировать 424" clip-path="url(#clip-path)">
    <path id="Контур_260" data-name="Контур 260" d="M79.83,35.051c-2.137.8-4.26,1.5-6.293,2.395a10.5,10.5,0,0,1-7.7.313,24.106,24.106,0,0,0-7.156-.815c-2.054-.018-4.11-.066-6.16.024a8.084,8.084,0,0,0-2.845.613A4.114,4.114,0,0,0,47.2,41.491c-.033,1.664.175,3.333.278,5,.153,2.468.335,4.935.448,7.405.062,1.35-.352,1.62-1.67,1.246-.1-.028-.206-.035-.4-.066.038.424.084.791.1,1.159.044.921-.271,1.39-1.192,1.437-1.443.073-2.892.019-4.432.019.078-.2.151-.388.232-.577.739-1.72,1.457-3.45,2.226-5.157a4.751,4.751,0,0,0-.335-4.544c-.338-.592-.744-1.145-1.119-1.716l-.246.018c-.2.983-.452,1.959-.593,2.951a19.129,19.129,0,0,0-.14,2.469c-.02,1.77-.348,2.013-2.056,1.371-.218.771-.417,1.542-.661,2.3-.063.2-.264.49-.41.494-1.288.039-2.578.023-4.043.023.655-1.067,1.209-2.024,1.817-2.945a9.557,9.557,0,0,0,1.7-5.87,13.034,13.034,0,0,0-.165-1.46c-.286-1.736-.6-3.467-.876-5.206A1.4,1.4,0,0,0,34.6,38.547c-3.3-.876-6.577-1.839-9.9-2.583a22.2,22.2,0,0,0-4.452-.244A24.466,24.466,0,0,1,8.532,32.366c-1.748-.981-3.406-2.122-5.107-3.188-.7-.438-1.382-.9-2.105-1.293a1.647,1.647,0,0,1-.986-1.327C.218,25.438.093,24.319,0,23.2a1.621,1.621,0,0,1,.167-.642C.6,21.394.808,21.3,2,21.592a3.982,3.982,0,0,0,3.4-.542q2.643-1.882,5.211-3.869a2.023,2.023,0,0,0,.595-2.754c-1.548-3.2-2.473-6.713-4.747-9.555a.649.649,0,0,1-.059-.208A10.833,10.833,0,0,1,13.727,6.34l.109-.146L12.791,2.628a5.907,5.907,0,0,1,1.3.288,33.374,33.374,0,0,1,3.172,1.717,3.647,3.647,0,0,1,1.218,1.3,2.809,2.809,0,0,0,3.334,1.141c5.242-2.205,10.793-2.66,16.38-2.945a105.2,105.2,0,0,0,13-1.073,18.364,18.364,0,0,0,2.74-.6A40.8,40.8,0,0,1,62.465.846,97.619,97.619,0,0,1,76.221.019a42.441,42.441,0,0,1,11.9,1.566,29.438,29.438,0,0,1,7.835,3.861A43.393,43.393,0,0,1,99.821,8.2c1.816,1.569,2.715,3.782,3.736,5.889a3.212,3.212,0,0,0,.487.944,3.4,3.4,0,0,0,1.318.9,1.686,1.686,0,0,1,1.158,2.544c-.032.059-.07.114-.105.171-.632,1-.623,1.077.353,1.96-.454,0-.773.021-1.089,0-.54-.043-.833-.335-.717-.892.124-.6.3-1.192.452-1.8-1.292-.035-1.907.429-2.029,1.635-.2,1.952-.308,3.912-.5,5.864a17.741,17.741,0,0,1-3,8.552,2.7,2.7,0,0,0-.012,3.63c.822,1.164,1.689,2.3,2.585,3.408a3.318,3.318,0,0,1,.755,2.981q-.509,2.316-.864,4.665a6.845,6.845,0,0,0,.458,3.544,3.628,3.628,0,0,1,.238.968,1.393,1.393,0,0,1-1.189,1.669.941.941,0,0,0-.794,1.01c-.106,1.382-.132,1.383-1.485,1.732-.842.218-1.681.454-2.533.629-1.344.277-1.9-.353-1.422-1.641.554-1.506,1.149-3,1.751-4.484a6.233,6.233,0,0,0-.128-5.315A35.671,35.671,0,0,0,95.1,43.07a5.054,5.054,0,0,0-2.469-1.876c-.47-.184-.78-.163-1.022.337-1.463,3.028-2.942,6.047-4.413,9.071-.087.18-.143.375-.223.559-.3.692-.473.76-1.186.482-1.072-.419-1.685-.129-2.023.956-.714,2.29-1.569,2.723-3.85,1.925-.539-.189-1.059-.434-1.625-.669a14.488,14.488,0,0,1,3.386-4.6,7.385,7.385,0,0,0,2.3-4.278,6.593,6.593,0,0,0-1.758-5.618A9.427,9.427,0,0,1,80.233,36c-.11-.309-.255-.605-.4-.95" transform="translate(0 0)" fill="#dbc4b4"/>
  </g>
</svg>
