<svg id="Сгруппировать_369" data-name="Сгруппировать 369" xmlns="http://www.w3.org/2000/svg" xmlns:xlink="http://www.w3.org/1999/xlink" width="246.323" height="375.503" viewBox="0 0 246.323 375.503">
  <defs>
    <clipPath id="clip-path">
      <rect id="Прямоугольник_13" data-name="Прямоугольник 13" width="103.737" height="259.581" fill="#707350"/>
    </clipPath>
  </defs>
  <g id="Сгруппировать_366" data-name="Сгруппировать 366" transform="translate(166.855 64.717) rotate(40)">
    <g id="Сгруппировать_305" data-name="Сгруппировать 305" transform="translate(0 0)" clip-path="url(#clip-path)">
      <path id="Контур_233" data-name="Контур 233" d="M102.9,147.883c-14.578.286-29.805,4.3-42.068,12.414a50.253,50.253,0,0,0-17.244,19.4,53.515,53.515,0,0,0-4.074,11.078,24.35,24.35,0,0,1-4.538,8.542,328.605,328.605,0,0,1,13.638-52.1c8.012-.3,14.978-4.83,16.507-13.4a16.543,16.543,0,0,0,17.634,8.229c8.234-1.618,12.862-9.581,16.55-16.454,3.4-6.326-2.83-13.53-7.829-17.07a26.47,26.47,0,0,0-4.8-2.65c7.378-1.978,13.247-8.789,11.074-17.028-.572-2.166-1.827-3.369-3.063-5.086-2.709-3.765-1.266-6.58-2.215-10.3-1.1-4.333-5.457-7.247-9.484-8.5-5.6-1.748-11.273-.026-16,3.289a17.956,17.956,0,0,0-2.992-6.809q.284-3.1.295-6.195c3.076-.1,6.29-5.305,7.246-7.3.709-1.481,3.811-10.565-.412-10.346-2.69.139-4.658,5.624-5.646,7.619-.332.67-.938,1.708-1.537,2.87a67.162,67.162,0,0,0-2.262-11.8c2.851-3.587,9.286-11.823,5.594-15.95-4.143-4.631-6.064,5.57-6.45,7.521-.132.665-.519,1.958-.824,3.37a64.267,64.267,0,0,0-3.6-7.885.575.575,0,0,0,.03-.156A48.893,48.893,0,0,0,59.345,7.725C59.384,6.2,60.034.94,57.608.64,54.862.3,53.585,6.362,53.2,7.984a24.478,24.478,0,0,0-.375,9.495c-.482-.7-.974-1.4-1.483-2.083a16.125,16.125,0,0,0-1.569-1.8,1.133,1.133,0,0,0-.019-.142,22.674,22.674,0,0,0-5.017-8.971C43.181,2.829,40.209-.339,37.7.03a.863.863,0,0,0-.646.819c-.366,2.8,3.36,6.319,5.077,8.176a66.962,66.962,0,0,0,5.679,5.018,19.019,19.019,0,0,1,2.522,2.689l-.094-.056c-2.129-1.238-8.579-4.336-11.112-2.375-2.691,2.082,14.935,10.053,15.928,9.883a61.8,61.8,0,0,1,3.266,6.986,28.954,28.954,0,0,0-3.572-2.226c-1.8-.969-9.649-4.582-11.3-1.739-1.488,2.558,4.708,5.711,6.124,6.492a29.132,29.132,0,0,0,10.664,3.125A64.686,64.686,0,0,1,62.5,48.9a28.026,28.026,0,0,0-2.553-2.626c-1.906-1.727-7.855-6.228-10.573-3.954-2.507,2.1,3.12,6.985,4.5,8.144a26.544,26.544,0,0,0,8.887,4.588q-.006,2.464-.19,4.934c-.026-.02-.047-.046-.073-.066-4.2-3.215-9.529,1.274-12.49-4.505-.725-1.414-.136-2.566-1.628-3.731a5.183,5.183,0,0,0-3.343-.8c-3.861.1-7.743,2.544-10.159,5.435-4.653,5.568-5.839,13.852-4.273,21.047a19.261,19.261,0,0,0-13.411-.374q-.445-3.207-.655-6.428a17.732,17.732,0,0,0,2.053-1.258,66.49,66.49,0,0,0,6.126-4.241c1.622-1.262,6.4-4.592,3.474-7.023-2.389-1.987-6.532,2.884-7.9,4.325a57.611,57.611,0,0,0-3.919,4.607q-.091-3.923.185-7.837a63,63,0,0,0,8.708-7.146c1.166-1.221,8.217-7.744,6.208-9.732-1.06-1.049-3.558.561-4.486,1.075a28.1,28.1,0,0,0-7.648,6.283c-.4.465-1.167,1.359-1.986,2.442a81.584,81.584,0,0,1,2.191-9.968c.275-.96.548-1.91.83-2.849,2.834-1.9,5.063-5.109,7.073-7.8.858-1.147,4.261-5.207,3.359-7.12-1.7-3.593-6.617,2.639-7.639,3.963-3.917,5.075-5.708,12.149-6.961,18.594-.089-2.346-.225-4.693-.441-7.03-.171-1.85-.038-4.881-.991-6.549-1.989-3.487-2.983,2.411-3.193,3.991a40.052,40.052,0,0,0,.432,12.839c.365,1.884.707,5.809,2.4,7.16a.245.245,0,0,0,.016.027c-.016-.027.085,1.905.085,1.905-.113,1.752-.182,3.506-.186,5.262a38.82,38.82,0,0,0-4.879-4.6c-1.01-.855-7.727-5.732-7.026-1.156.187,1.226,1.466,2.481,2.235,3.353a55.694,55.694,0,0,0,4.505,4.469c.725.652,3.5,3.614,5.373,4.158q.243,3.538.764,7.057a19.427,19.427,0,0,0-3,1.728c-2.155,1.521-4.252,3.751-4.459,6.524-.238,3.195,2.37,4.878,3.413,7.6,1.65,4.309-2.273,8.906-2.5,13.374-.152,3.016.175,6.391,2.216,8.764,4.965,5.771,14.96,4.289,21.919,2.223a11.63,11.63,0,0,0-2.471,6.759,7.9,7.9,0,0,0,2.377,5.409,33.038,33.038,0,0,1,3.01,3.217c1.76,2.559.927,5.061,1.4,7.75.667,3.757,3.249,5.306,6.929,5.869.79.12,1.576.187,2.358.23-3.289,9.171-6.059,18.42-8.4,27.775a30.831,30.831,0,0,0-6.326-13.111c.234-6.045-.692-12.165-4.986-16.728-4.9-5.2-10.843-9.316-15.736-14.614.09-.68.169-1.361.229-2.044.295-3.35-.115-9.44-2.693-11.953-.974-.949-1.885-1.292-2.87-.189-.845.946-.622,3.9-.865,5.082a30.367,30.367,0,0,1-3.505,8.447c-3.807,7.07,1.229,14.37,5.5,20a.77.77,0,0,0,.366.255,12.892,12.892,0,0,0,4.283,6.342,28.6,28.6,0,0,0,18.2,6.312,30.085,30.085,0,0,1,7.532,15.8q-3.111,13.024-5.32,26.341c-3.229,19.255-9.715,37.18-20.555,53.51-.592.892,1.3,1.594,1.832.785a134.728,134.728,0,0,0,20.483-52.566q.293-1.725.6-3.444c1.845-2.426,4.333-5.086,5.645-7.8,28.094-2.192,53.052-19.851,63.742-46.054.223-.548-.062-1.488-.76-1.474M41.209,5.345c-1.124-1.4-3.246-3.142-.79-2.21,3.171,1.2,5.509,4.932,6.945,8.327-.852-.706-1.727-1.42-2.6-2.246a37.846,37.846,0,0,1-3.555-3.871M17.758,54.568a26.9,26.9,0,0,1,4.124-5.43,25.341,25.341,0,0,1,5.124-4.057,18.2,18.2,0,0,1,2.053-1.094q1.319-.782.449.387a6.844,6.844,0,0,1-1.148,1.674A55.539,55.539,0,0,1,16.722,57.127c.024-.267.052-.533.079-.8.367-.771.813-1.505.957-1.759m8.71-27.208c2.481-2.638,1.984-.935.5,1.384a44.691,44.691,0,0,1-5.54,7.266,24.15,24.15,0,0,1,5.036-8.649M13.513,49.411a38.96,38.96,0,0,1-.61-10.092,32.351,32.351,0,0,1,.622-4.341.208.208,0,0,0,0-.035,20.066,20.066,0,0,1,.492,3.2c.413,3.413.607,6.866.7,10.3.02.755.292,5.087.158,6.59-.844-1.38-1.135-4.427-1.367-5.62M13.8,67.823c-1.005-.744-1.959-1.563-2.9-2.389A46.093,46.093,0,0,1,5.039,59.5a3.418,3.418,0,0,1-.218-.322,11.8,11.8,0,0,1,1.2.57,27.371,27.371,0,0,1,2.675,2.106,40.831,40.831,0,0,1,3.168,3.082,20.4,20.4,0,0,1,2.528,2.984c0,.094.011.188.015.282-.211-.131-.427-.254-.6-.382m9.6,76.5c4.767,4.134,6.337,9.449,6.389,15.475-7.24-6.782-18.418-10.624-20.151-21.252.367-1.938.755-3.876,1.079-5.817,3.991,4.157,8.315,7.805,12.683,11.594M1.918,135.319c-.119-3.5,2.173-5.945,3.49-9.007a26.836,26.836,0,0,0,1.842-7.356c.042-.337.062-.594.069-.8a14.735,14.735,0,0,1,1.287,3.665c1.25,4.8.269,9.011-.567,13.791-.668,3.822-1.478,7.445-1.379,10.827-2.368-3.314-4.6-7.127-4.742-11.123m6.9,8.156c.048-.361.105-.722.16-1.082,2.142,5.959,7.156,9.247,12.7,13.346a59.679,59.679,0,0,1,6.536,5.5,27.165,27.165,0,0,1-12.859-4.117c-5.357-3.384-7.339-7.553-6.54-13.643m76.163-36.492c5.819,2.239,15.893,10.177,12.8,17.549-1.322,3.154-4.057,6.052-5.935,8.9a27.1,27.1,0,0,1-2.407,3.559c-7.67,8.317-20.726,2.548-23.8-6.89a.6.6,0,0,0-.119-.185c.276-7.937-2.39-16.4-6.423-23.262,2.348,1.354,4.722,2.663,7.137,3.9a3.245,3.245,0,0,0,.511,2.287,2.425,2.425,0,0,0,3,.768c1.466-.732,1.258-2.583.433-3.726a2.636,2.636,0,0,0-2.721-.969c-2.851-1.454-5.646-3.008-8.406-4.628,7.571-.465,16.02-.334,23.285,1.814a6.386,6.386,0,0,1,1.054.32c.535.176,1.065.361,1.585.562m-15.646,4.675c.055.138,0,.074,0,0m-.158-.295a1.38,1.38,0,0,1,.127.219c.01.021.009.022.016.039a1.046,1.046,0,0,1-.415.184,1.084,1.084,0,0,1-1.089-.358c-.136-.217-.168-.464.056-.583.427-.229,1.045.187,1.306.5M90.652,72.88c1.2,3.562-.482,6.867,1.5,10.3.736,1.272,1.886,2.244,2.706,3.466a10.4,10.4,0,0,1,.545,10.22c-2.311,4.957-7.237,7.39-12.517,7.59a.567.567,0,0,0-.086.024c-8.043-2.357-17.389-2.2-25.285-1.615A17.376,17.376,0,0,1,67.1,94.484c.038.021.072.051.111.07a2.536,2.536,0,0,0,3.189-.672,2.134,2.134,0,0,0-.766-2.834.808.808,0,0,0-.1-.042c-.03-.022-.043-.051-.079-.071a2.487,2.487,0,0,0-3.2.6,1.842,1.842,0,0,0-.175,1.733,19.845,19.845,0,0,0-9.753,8.185c-2.22-10.663,1.279-23.869,9.984-30.72a8.95,8.95,0,0,1,1.087-.8,21.073,21.073,0,0,1,8.461-3.47c4.731-.821,13,1.089,14.794,6.413M66.876,46.9a48.5,48.5,0,0,1,3.049-5.638c.329-.5.7-.969,1.045-1.458a1.765,1.765,0,0,0,.153-.262v.007a20.027,20.027,0,0,1-.75,5.913,16.733,16.733,0,0,1-3.234,5.52,16.1,16.1,0,0,1-2.391,2.348,3.917,3.917,0,0,0-.267-1.29,39.051,39.051,0,0,1,2.4-5.141M62.463,27.707c.257-1.283.505-5.154,1.9-5.848,3.187-1.584,2.243,2.157,1.87,3.293a30.468,30.468,0,0,1-4.8,8.5c.035-.36.058-.726.111-1.065.257-1.635.6-3.258.922-4.881M54.484,12.392a24.053,24.053,0,0,1,1.377-6.807c.373-1.044.748-3.348,1.361-1.885.976,2.328.082,6.617-.208,9.047a44.2,44.2,0,0,1-1.561,7.4,23.321,23.321,0,0,1-.97-7.757M46.657,29.785c-1.336-1-2.288-1.452-.213-1.411a16.215,16.215,0,0,1,4.987,1.063,21.173,21.173,0,0,1,5.48,2.915,21.925,21.925,0,0,1,2.577,2.071c.041.123.08.248.12.372a27.125,27.125,0,0,1-12.952-5.011m4.606,14.786-.3-.528q-.706-1.1.139-.5c.692-.2,1.989.623,2.609.9a17.848,17.848,0,0,1,4.672,3.067,22.21,22.21,0,0,1,3.981,4.633,5.366,5.366,0,0,0-.1.851c-4.319-1.64-8.606-4.366-11-8.423m-17.3,16.937c1.622-3.815,5.818-9.434,10.62-9.091,3.858.275,3.028,6.362,6.272,7.766,2.826,1.224,5.9-1.057,8.807.051,3.526,1.343,4.793,5.981,5.6,9.334A30.65,30.65,0,0,0,58.158,78a33.34,33.34,0,0,0-3.521,22.916,15.66,15.66,0,0,1-3.4-14.439A2.766,2.766,0,0,0,52.559,85.3a3.1,3.1,0,0,0-.764-4.1.624.624,0,0,0-.269-.1,2.812,2.812,0,0,0-3.153,1.041,2.936,2.936,0,0,0,.478,3.94,2.49,2.49,0,0,0,.636.387,16.667,16.667,0,0,0,1.789,13.193C38.61,90.934,27.117,77.606,33.959,61.507M51.053,83.051a.865.865,0,0,1,.193,1.319,1.075,1.075,0,0,1-1.609-.139c-.809-.909.646-1.571,1.416-1.18m-37.16,32.568c-4.177-2.742-4.186-8.734-2.721-13.022.718-2.1,2.067-3.777,2.264-6.04.481-5.494-7.346-9.8-1.389-14.821A16,16,0,0,1,16.77,78.99a.983.983,0,0,0,.21-.072,18.447,18.447,0,0,1,14.31.973,24.9,24.9,0,0,0,.917,2.447c3.777,8.521,12.441,15.359,20.48,20.343a50.95,50.95,0,0,1-10.336-2.124,2.148,2.148,0,0,0-2.019-2.032,2.815,2.815,0,0,0-2.416,2.688,2.224,2.224,0,0,0,1.93,2.451,2.465,2.465,0,0,0,2.122-1.358,53.181,53.181,0,0,0,9.36,1.928,38.011,38.011,0,0,0-12.295,7.3c-1.266,1.133-2.7,2.439-4.035,3.883-6.339,2.165-15.105,4.144-21.1.207m25.818,26.27c-1.1-2.073-.51-3.662-.928-5.854-.644-3.377-2.718-4.9-4.748-7.4-5.17-6.357,3.56-14.125,8.424-17.737A37.877,37.877,0,0,1,55.035,105,40.3,40.3,0,0,1,51,115.556a2.707,2.707,0,0,0-3.3.642,3.219,3.219,0,0,0-.027,4.119,2.679,2.679,0,0,0,3.693.131,3.177,3.177,0,0,0,.735-3.758,42.022,42.022,0,0,0,4.32-10.817,45.292,45.292,0,0,1,7.4,21.552c.064.854.089,1.715.078,2.572a8.307,8.307,0,0,1-.032,1.027c-.259,4.839-1.946,9.43-6.493,12.054a19.31,19.31,0,0,1-10.961,2.117c-2.985-.193-5.255-.571-6.7-3.3m10.854-24.225c.344.45.463,1.015-.125,1.328a1.408,1.408,0,0,1-1.642-.251.915.915,0,0,1-.077-1.252,1.384,1.384,0,0,1,1.843.175m-8.589,75.526c9.929-10.441,28.218-22.145,33.914-26.623C63.1,173.178,51.3,180.8,41.364,191.162a53.012,53.012,0,0,1,2.176-7.442,48.866,48.866,0,0,1,17.58-21.337c11.736-7.941,26.449-11.922,40.509-12.43-10.512,24.13-33.637,40.433-59.654,43.238" transform="translate(0 0)" fill="#707350"/>
    </g>
  </g>
  <path id="Контур_248" data-name="Контур 248" d="M132.608,68.545c-10.5,2.809-19.672,4.076-30.278.486A36.092,36.092,0,0,1,86.6,58.608c-1.237-1.4-2.361-2.654-4.447-2.9-18.176-2.1-33.889-9.956-49.072-21.7C34,35.84,34.356,36.773,34.9,37.588c3.423,5.166,6.763,10.392,10.374,15.426,2.923,4.074,6.171,7.917,9.306,11.838a11.287,11.287,0,0,0,9.888,4.615,26.117,26.117,0,0,1,17.184,6.21,73.191,73.191,0,0,1,12.53,13.04,39.75,39.75,0,0,1,3.574,6.277,55.765,55.765,0,0,1-5.805,1.1c-13.961,1.358-29.613-4.638-34.314-22.35a16.363,16.363,0,0,0-4.217-7.226c-2.726-2.885-5.178-6.029-8.378-8.848,1.647,6.318,2.847,12.8,5.047,18.917a35.323,35.323,0,0,1-.44,25.509,58.922,58.922,0,0,1-3.524,7.773,40.342,40.342,0,0,1-2.829,4.006s-1.531-2.8-2.125-3.85a47.788,47.788,0,0,1-4.471-10.563c-1.736-6.255-1.964-12.673,1.189-18.608a17.667,17.667,0,0,1,5.336-6.439c2.659-1.751,2.95-3.675,2.553-6.34a67.875,67.875,0,0,0-9-24.373A105.18,105.18,0,0,0,20.056,21.842C13.111,14.969,6.632,7.63,0,.44L3.4,0c2.761,2.973,5.46,5.988,8.148,9.014,3.224,3.631,6.532,7.187,9.879,10.7,1.961,2.06,4.218,3.85,6.074,5.993a9.139,9.139,0,0,0,8.06,3.169c2.168-.144,4.341-.325,6.491-.634,3.732-.533,6.7-1.77,8.936-5.455,2.01-3.31,5.3-6.033,8.488-8.4a21.212,21.212,0,0,1,18.643-3.43,35.938,35.938,0,0,1,15,7.854c1.6,1.418,4.605,4.351,4.605,4.351s-3.332,2.024-5.344,3.1c-10.379,5.538-21.194,8.385-32.84,4.168-4.944-1.79-9.753-2.894-15.079-.895-3.028,1.137-6.549.958-10.714,1.481,1.77,1.468,3.065,2.615,4.432,3.664C50.055,43.8,63.14,50.274,77.921,53.138a10.816,10.816,0,0,0,8.113-1.152c11.4-6.66,22.664-6.016,33.589,1.313,4.032,2.706,8.124,5.327,12.059,8.169a22.147,22.147,0,0,1,5.224,4.877C135.812,67.624,133.458,68.318,132.608,68.545ZM94.071,93.41C88.846,81.866,72.423,70.715,62.3,72.221c8.183,5.065,15.623,10.236,23.3,14.989-8.39-4.572-17.018-8.725-25.421-13.3C62.62,88.151,80.428,96.044,94.071,93.41Zm-48.6-17.489c-9.492,7.263-10.512,24.49-1.917,34.053,7.117-11.591,8.432-25.144,4.587-32.272l-4.29,16.35C43.38,87.957,46.082,82.269,45.467,75.921Zm9.9-49.4c11.475,6.534,30.446,4.17,37.8-4.2C79.756,8.211,61.231,9.628,51.831,25.285c9.441-2.739,18.228-8.262,28.3-4.263C71.379,20.3,63.389,22.81,55.364,26.52Zm77.717,38.688c-7.462-5.648-14.961-11.3-23.992-14.237-7.54-2.45-14.662-.619-21.55,2.963,8.456,1.394,17.112,1.5,25.072,4.96l-24.783-2.7c8.87,11.692,27.861,15.945,46,9.819C134.026,66.164,133.539,65.657,133.081,65.208Z" transform="matrix(0.998, -0.07, 0.07, 0.998, 38.272, 261.903)" fill="#707350"/>
  <path id="Контур_249" data-name="Контур 249" d="M11.966,139.062c-1.857,2.8-3.776,5.565-5.815,8.233C4.2,149.852,2.059,152.266,0,154.745c3.463-5.672,7.236-10.621,10.442-16.345,1.909-3.408,3.613-6.405,3.613-6.405-1.948-4.978-5.737-15.176-7.382-20.261a12.371,12.371,0,0,1-.466-4.789,2.764,2.764,0,0,1,1.642-2.189,3.108,3.108,0,0,1,2.649,1.078,14.361,14.361,0,0,1,2.056,3.955,47.262,47.262,0,0,1,2.971,17.2c-.01.661.016,2.906.072,3.571.248.052-.248-.055,0,0,1.968-4.252,4.737-9.93,6.747-14.159a23.476,23.476,0,0,0,1.759-5.258c-1.531-3.8-4.206-10.758-5.34-14.7-.469-1.636-.723-4.2,1.023-4.587,2.5-.554,3.548,3.841,4.17,6.545.668,2.913.968,6.76,1.329,9.741.228.042-.225-.039,0,0,1.662-5.942,3.828-12.572,5.424-18.29a36.169,36.169,0,0,1-9.4-14.726c-.5-1.394-1.039-3.176.619-4.033,1.743-.9,2.873.72,3.5,1.964,1.658,3.323,3.043,6.783,4.542,10.188.3.687.616,1.375.925,2.062,1.319-4.007,1.7-7.979,2.629-11.817.557-3.8.687-5.822.687-5.822-1.916-1.815-11.549-12.413-8.692-14.247,2.483-1.9,5.226,3.173,6.464,5.972.616,1.391,2.007,4.6,2.73,5.946.241-.065-.241.062,0,0,.336-8.428.85-18.977,1.183-27.318-1.049-.655-7.33-5.473-9.63-7.545-.808-.726-3.727-3.893-1.9-5.548,2.124-1.922,4.685,1.43,5.3,2.2,1.4,1.746,4.978,6.526,5.975,7.7-.049-4.685-.088-8.523-.13-12.361C35.436,15.7,35.779,9,38.049,2.545,38.606.961,39.753-1.267,41.164.9c2.294,3.519.459,21.991-2.492,33.733,2.082-2.773,16.234-13.96,18.437-9.849,1.665,3.115-6.07,7.223-8.031,8.3-2.619,1.434-7.79,3.636-10.341,5.177a74.777,74.777,0,0,0-1.16,9.595c.743-1.013,1.88-3.16,2.554-4,1.479-1.841,2.906-3.737,4.525-5.447,1.062-1.121,2.45-2.8,4.089-1.407,1.587,1.349.225,3.1-.622,4.343-1.6,2.362-7.36,8.207-7.861,8.9,4.314-.1,9.073-.968,13.035-.87,1.961.046,7.783.228,7.591,3.108-.215,3.242-3.577,3.284-5.291,3.4a44.741,44.741,0,0,1-14.775-1.534c-1.144-.3-2.3-.538-3.62-.841-.4,5.131-.772,9.842-1.163,14.814,3.271-2.365,6.024-4.47,8.9-6.386,1.111-.736,4-3.141,5.333-.9,1.1,1.854-1.789,3.232-2.756,3.753-3.176,1.71-8.217,3.489-11.373,5.239,0,0-1.245,5.988-1.534,8.529a32.158,32.158,0,0,1,5.841-6.145c1.961-1.528,4.828-4.688,6.816-1.815,2.88,4.167-9.376,8.862-13.156,13.3,2.655.15,11.859-1.971,17.01,1.257,1.987.981,1.743,3.1-.306,3.955a8.87,8.87,0,0,1-3.981.8c-3.58-.29-12.569-2.519-13.934-2.831a178.958,178.958,0,0,1-11.976,36.1c1.534-.717,2.277-1.143,3.069-1.42,2.812-.984,5.61-2.036,8.477-2.818,1.626-.443,3.59-.87,4.626,1.111.655,1.251-.713,2.59-3.512,3.623-.818.3-1.665.521-2.505.743-1.065.28-2.144.525-4.111,1a41.153,41.153,0,0,1,3.939,1.844,97.017,97.017,0,0,1,8.337,5.535,3.553,3.553,0,0,1,.837,3.271,3.662,3.662,0,0,1-2.926,1.675,21.7,21.7,0,0,1-6.913-1.235c-4.369-1.71-8.575-3.838-13.009-5.867C15.521,133.4,13.814,136.279,11.966,139.062Zm6.017-9.8c6.48,2.339,18.411,8.441,19.955,5.773,1.261-2.183-11.312-7.757-18.28-9.366ZM50.41,87.173c.906-1.932-17.006-1.7-17.006-1.7S49.521,89.075,50.41,87.173ZM39.369,52.153c4.04,1.893,19.258,2.515,19.013.463C58.164,50.752,44.764,51.212,39.369,52.153ZM8.8,107.007c-3.62-.1,2.818,13.559,5.242,19.691C13.39,121.257,10.921,107.065,8.8,107.007ZM40.118,2.538c-2.056.257-3.805,16.153-3.04,31.237C37.89,29.377,41.959,2.31,40.118,2.538Zm14.6,23.411c-.912-.964-11.95,6.91-14.547,9.517C43.637,33.329,56.287,27.611,54.717,25.95ZM45.8,71.583c-1.173-1.329-9.272,6.252-11.566,10.279h0C37.215,79.314,46.751,72.658,45.8,71.583Zm1.665-33c-1.153-.811-7.62,9.474-9.588,11.712.257.235-.257-.231,0,0C39.835,48.035,48.344,39.2,47.468,38.581ZM30.2,87.143c.222-.117-6.086-14.954-7.347-14.719C20.818,72.8,26.976,84.5,30.2,87.143Z" transform="matrix(0.978, 0.208, -0.208, 0.978, 73.941, 0)" fill="#707350"/>
  <path id="Контур_250" data-name="Контур 250" d="M7.028,6.765c-1.112,1.34-3.6,1.057-5.07,0C.394,5.644-.613,3.235.421,1.541A3.44,3.44,0,0,1,3.341,0c2.2.02,3.337,2.229,3.534,2.614C7.068,2.983,8.219,5.334,7.028,6.765Zm-.92-3.459A2.876,2.876,0,0,0,3.8,1.616c-.377-.071-1.423-.259-1.922.307-.668.762-.079,2.563,1.077,3.384.094.067,1.5,1.034,2.535.307A2.113,2.113,0,0,0,6.109,3.306Z" transform="translate(206.906 185.989) rotate(68)" fill="#707350"/>
  <path id="Контур_251" data-name="Контур 251" d="M5,4.817c-.792.954-2.561.753-3.611,0C.28,4.019-.436,2.3.3,1.1A2.449,2.449,0,0,1,2.379,0,3.137,3.137,0,0,1,4.9,1.861C5.033,2.124,5.853,3.8,5,4.817ZM4.35,2.354a2.048,2.048,0,0,0-1.643-1.2c-.269-.05-1.013-.185-1.369.218-.476.543-.056,1.825.767,2.41.067.048,1.069.736,1.805.218A1.5,1.5,0,0,0,4.35,2.354Z" transform="matrix(-0.545, 0.839, -0.839, -0.545, 159.393, 275.886)" fill="#707350"/>
  <path id="Контур_253" data-name="Контур 253" d="M102.776,516.734c-.274-.305-1.014-.907-1.634-.564a1.256,1.256,0,0,0-.454,1.471,1.357,1.357,0,0,0,.686.742,1.385,1.385,0,0,0,1.306.023,1.068,1.068,0,0,0,.489-.694A1.214,1.214,0,0,0,102.776,516.734Z" transform="translate(28.484 -423.437)" fill="#707350"/>
  <path id="Контур_254" data-name="Контур 254" d="M102.776,516.734c-.274-.305-1.014-.907-1.634-.564a1.256,1.256,0,0,0-.454,1.471,1.357,1.357,0,0,0,.686.742,1.385,1.385,0,0,0,1.306.023,1.068,1.068,0,0,0,.489-.694A1.214,1.214,0,0,0,102.776,516.734Z" transform="translate(71.492 -235.666)" fill="#707350"/>
</svg>
