<svg xmlns="http://www.w3.org/2000/svg" width="193.534" height="31.859" viewBox="0 0 193.534 31.859">
  <g id="Stars_1" transform="translate(-187.679 -6614.552)">
    <path id="Контур_32" data-name="Контур 32" d="M313.809,446.193l5.176,10.487,11.573,1.682-8.375,8.163,1.977,11.527-10.352-5.442-10.352,5.442,1.977-11.527-8.375-8.163,11.573-1.682Z" transform="translate(-109.38 6168.359)" fill="#e47b88"/>
    <path id="Контур_33" data-name="Контур 33" d="M313.809,446.193l5.176,10.487,11.573,1.682-8.375,8.163,1.977,11.527-10.352-5.442-10.352,5.442,1.977-11.527-8.375-8.163,11.573-1.682Z" transform="translate(-69.372 6168.359)" fill="#e47b88"/>
    <path id="Контур_34" data-name="Контур 34" d="M313.809,446.193l5.176,10.487,11.573,1.682-8.375,8.163,1.977,11.527-10.352-5.442-10.352,5.442,1.977-11.527-8.375-8.163,11.573-1.682Z" transform="translate(-29.363 6168.359)" fill="#e47b88"/>
    <path id="Контур_35" data-name="Контур 35" d="M313.809,446.193l5.176,10.487,11.573,1.682-8.375,8.163,1.977,11.527-10.352-5.442-10.352,5.442,1.977-11.527-8.375-8.163,11.573-1.682Z" transform="translate(10.646 6168.359)" fill="#e47b88"/>
    <path id="Контур_36" data-name="Контур 36" d="M313.809,446.193l5.176,10.487,11.573,1.682-8.375,8.163,1.977,11.527-10.352-5.442-10.352,5.442,1.977-11.527-8.375-8.163,11.573-1.682Z" transform="translate(50.655 6168.359)" fill="#e47b88"/>
  </g>
</svg>
