<svg xmlns="http://www.w3.org/2000/svg" width="463.301" height="308.318" viewBox="0 0 463.301 308.318">
  <g id="Arrows" transform="translate(-449 -1196.683)">
    <path id="Arrow_5" d="M385.852,335.171c-5.277-2.1-5.624-3.379-5.28-17.719a31.5,31.5,0,0,0-2.428,2.276,106.8,106.8,0,0,0-14.631,22.57,245.424,245.424,0,0,0-15.9,41.257c-.832,2.986-2.227,6.007-.853,9.343.264.642-.869,1.859-1.358,2.81l-1.3-.207c-.308-1.768-1.027-3.58-.839-5.294a66.221,66.221,0,0,1,2.035-11.333c3.965-13.569,8.6-26.946,15.2-39.458,3.95-7.484,8.968-14.409,13.589-21.531,1.215-1.873,2.744-3.541,4.732-6.07a18.621,18.621,0,0,0-3.547,1.151c-5.3,3.312-10.54,6.717-15.819,10.062-1.267.8-2.7,2.7-4.112.96-1.436-1.774.737-2.8,1.843-3.743A91.155,91.155,0,0,1,381,305.888c4.018-1.708,5.859.019,5.331,4.1a102.134,102.134,0,0,1-1.839,10.418A21.269,21.269,0,0,0,385.852,335.171Z" transform="matrix(0.883, 0.469, -0.469, 0.883, 674.109, 766.04)" fill="#022c32"/>
    <path id="Arrow_4" d="M42.62,60.537c-5.277,2.1-5.624,3.379-5.28,17.719a31.5,31.5,0,0,1-2.428-2.276A106.8,106.8,0,0,1,20.281,53.41a245.427,245.427,0,0,1-15.9-41.257C3.551,9.167,2.156,6.146,3.53,2.81,3.794,2.168,2.661.951,2.172,0L.87.207C.562,1.975-.157,3.787.031,5.5A66.218,66.218,0,0,0,2.066,16.834c3.965,13.569,8.6,26.946,15.2,39.458,3.95,7.484,8.968,14.409,13.589,21.531,1.215,1.873,2.744,3.541,4.732,6.07a18.621,18.621,0,0,1-3.547-1.151c-5.3-3.312-10.54-6.717-15.819-10.062-1.267-.8-2.7-2.7-4.112-.96-1.436,1.774.737,2.8,1.843,3.743A91.154,91.154,0,0,0,37.769,89.82c4.018,1.708,5.859-.019,5.331-4.1A102.142,102.142,0,0,0,41.261,75.3,21.27,21.27,0,0,1,42.62,60.537Z" transform="translate(544.604 1365.232) rotate(98)" fill="#022c32"/>
    <path id="Arrow_3" d="M42.62,29.938c-5.277-2.1-5.624-3.379-5.28-17.719a31.5,31.5,0,0,0-2.428,2.276,106.8,106.8,0,0,0-14.631,22.57,245.426,245.426,0,0,0-15.9,41.257c-.832,2.986-2.227,6.007-.853,9.343.264.642-.869,1.859-1.358,2.81l-1.3-.207C.562,88.5-.157,86.688.031,84.974A66.218,66.218,0,0,1,2.066,73.641c3.965-13.569,8.6-26.946,15.2-39.458,3.95-7.484,8.968-14.409,13.589-21.531,1.215-1.873,2.744-3.541,4.732-6.07a18.621,18.621,0,0,0-3.547,1.151c-5.3,3.312-10.54,6.717-15.819,10.062-1.267.8-2.7,2.7-4.112.96-1.436-1.774.737-2.8,1.843-3.743A91.154,91.154,0,0,1,37.769.655c4.018-1.708,5.859.019,5.331,4.1a102.142,102.142,0,0,1-1.839,10.418A21.27,21.27,0,0,0,42.62,29.938Z" transform="translate(906.29 1355.641) rotate(82)" fill="#022c32"/>
    <path id="Arrow_2" d="M369.23,410.721a66.917,66.917,0,0,0-11.17,24.817c-.839-1.257-1.556-1.867-1.635-2.551a11.515,11.515,0,0,1,.193-3.816,58.594,58.594,0,0,1,8.767-20.145c1.29-1.888,2.8-3.665,5.434-3.255a5.245,5.245,0,0,1,4.309,4.651,159.185,159.185,0,0,1,2.48,18.5c.451,8.472.21,16.98.263,25.473a5.6,5.6,0,0,0,.8,3.364c.741-1.327,1.466-2.663,2.229-3.977a20.9,20.9,0,0,1,2.29-3.644,3.224,3.224,0,0,1,2.457-.771c.388.043.957,1.273.9,1.922a12.581,12.581,0,0,1-.936,4.178c-2.544,5.526-5.139,11.033-7.943,16.43a4.9,4.9,0,0,1-3.234,2.3c-.774.1-2.227-1.3-2.573-2.3-2.036-5.9-3.85-11.87-5.682-17.835-.112-.366.26-.881.468-1.514,3.944.861,3.694,4.894,5.782,7.31.25-.3.722-.605.715-.9-.324-13.931-.635-27.863-1.11-41.789-.073-2.128-.924-4.228-1.415-6.342Z" transform="translate(311.548 1030.802)" fill="#022c32"/>
    <path id="Arrow_1" d="M142.062,398.19C105.412,411,69.5,411.441,32.34,400.885c2.7-2.353,4.886-1.42,6.69-1.015,13.352,3,27.036,3.308,40.707,3.805,19.617.712,38.157-3.176,56.19-9.242a33.519,33.519,0,0,0,3.11-1.52c-9.256-1.576-18.428,1.12-26.443-1.987q.1-.747.209-1.495c6.06-.377,12.126-.714,18.181-1.141,5.966-.419,11.914-1.034,17.885-1.363,4.405-.242,6.257,1.517,4.672,4.91-2.021,4.324-4.8,8.4-7.289,12.564A2.557,2.557,0,0,1,145,405.6c-1.458.405-2.994.61-4.5.894-.294-1.141-.97-2.327-.789-3.412C139.933,401.771,140.878,400.551,142.062,398.19Z" transform="matrix(-0.788, -0.616, 0.616, -0.788, 376.876, 1620.807)" fill="#022c32"/>
  </g>
</svg>
