<svg version="1.2" xmlns="http://www.w3.org/2000/svg" viewBox="0 0 356 531" width="356" height="531">
	<title>Flower Elements-svg</title>
	<defs>
		<clipPath clipPathUnits="userSpaceOnUse" id="cp1">
			<path d="m355.87 372.44l-112.28 94.26l-235.86-280.98l112.28-94.25z" />
		</clipPath>
		<clipPath clipPathUnits="userSpaceOnUse" id="cp2">
			<path d="m-0.56 373.53l42.52-73.64l68.9 39.78l-42.52 73.64z" />
		</clipPath>
		<clipPath clipPathUnits="userSpaceOnUse" id="cp3">
			<path d="m-959.22 91.45l112.3 94.23l-235.79 280.99l-112.29-94.22z" />
		</clipPath>
	</defs>
	<style>
		.s0 { fill: #efe6e1 } 
	</style>
	<g id="Flower_Elements">
		<g id="Сгруппировать_368">
			<g id="Сгруппировать_366">
				<g id="Clip-Path: Сгруппировать_305" clip-path="url(#cp1)">
					<g id="Сгруппировать_305">
						<path id="Контур_233" fill-rule="evenodd" class="s0" d="m143 345c16-12.9 36.2-22.4 56.8-24.7q4.6-0.6 9.3-0.5q4.6 0.1 9.2 0.7q4.6 0.7 9.1 2q4.4 1.2 8.7 3.1q1.9 0.8 3.8 1.8q1.9 0.9 3.7 1.9q1.8 1.1 3.5 2.2q1.8 1.1 3.5 2.4c3.8 2.8 8.2 4 12.7 5.1c-19.7-16.2-40-31.1-62.1-44c-9 7-20.6 8.4-30.1 0.5c0.5 2.4 0.6 4.9 0.3 7.3c-0.3 2.4-1 4.8-2 7c-1.1 2.3-2.5 4.3-4.1 6.1c-1.7 1.8-3.6 3.3-5.8 4.5c-10.4 5.8-22.6 1.3-32.9-2.8c-9.4-3.7-9.2-17.2-7-25.5q0.3-1 0.6-1.9q0.3-0.9 0.6-1.8q0.4-0.9 0.8-1.8q0.4-0.9 0.8-1.8c-9.8 4.6-22.3 2.5-27.5-8.3c-1.3-2.9-1-5.4-1.3-8.3c-0.5-6.6-4.6-8.3-6.9-13.2c-2.8-5.7-0.7-12.8 2.5-17.8c4.5-7 12.2-10.3 20.3-11c-1.5-3.2-2.9-6.6-2.9-10.1q-3.2-3.1-6-6.4c-3.4 2.7-11.6-0.1-14.5-1.3c-2.1-1-13.7-8-8.9-11.6c3-2.3 10.1 1.8 13 3.1c1 0.4 2.6 1 4.3 1.7q-1.2-1.8-2.3-3.6q-1.1-1.8-2.2-3.6q-1-1.9-2-3.8q-0.9-1.9-1.8-3.8c-6.3-1.3-20.8-4.4-20.5-12.2c0.3-8.8 11.6 0.5 13.8 2.3c0.7 0.6 2.3 1.6 3.9 2.9q-0.5-1.5-0.9-2.9q-0.5-1.5-0.9-3q-0.4-1.4-0.8-2.9q-0.3-1.5-0.6-3q-0.1 0-0.1-0.1q0 0 0 0q0 0-0.1 0q0 0 0-0.1q-2.4-1.4-4.7-3q-2.3-1.5-4.5-3.3q-2.1-1.8-4.1-3.7q-2.1-2-3.9-4.1c-1.4-1.6-6.9-6.7-4.6-9.2c2.7-2.9 9.6 2.5 11.5 3.9q1.3 1 2.6 2.2q1.3 1.1 2.4 2.4q1.1 1.2 2.1 2.6q1 1.3 1.9 2.8q-0.2-1.8-0.3-3.6q0-0.5 0-0.9q0-0.4 0-0.8q0-0.4 0-0.9q0.1-0.4 0.1-0.8q0 0 0 0q0-0.1-0.1-0.1q0 0 0 0q0-0.1 0-0.1q-0.8-1.6-1.3-3.4q-0.5-1.7-0.9-3.6q-0.3-1.8-0.5-3.6q-0.1-1.8 0-3.6c0.1-3.2 0.5-9.4 3.5-11.3q0.2 0 0.4-0.1q0.2 0 0.4 0.1q0.2 0 0.4 0.1q0.1 0.1 0.3 0.2c2.9 2.7 2.1 9.9 1.9 13.5q-0.1 1.3-0.3 2.7q-0.1 1.3-0.3 2.6q-0.2 1.4-0.5 2.7q-0.2 1.3-0.5 2.6q-0.1 0.6-0.1 1.3q-0.1 0.6-0.1 1.3q-0.1 0.6-0.1 1.3q0 0.7 0 1.3q0.1-0.1 0.1-0.1c1.2-3.3 5.3-12.5 9.9-12.7c4.8-0.2-7.1 24.4-8.3 25.2q0.3 1.3 0.6 2.6q0.3 1.4 0.6 2.7q0.4 1.3 0.8 2.6q0.4 1.3 0.8 2.6q0.2-0.7 0.4-1.4q0.2-0.8 0.4-1.5q0.3-0.7 0.5-1.4q0.3-0.7 0.6-1.4c1-2.7 6.2-13.7 10.6-12.1c3.9 1.4 0.1 10.4-0.7 12.6q-0.8 1.8-1.7 3.5q-1 1.8-2 3.4q-1.1 1.7-2.4 3.2q-1.2 1.5-2.6 2.9q0.9 2 1.8 4q1 1.9 2.1 3.8q1 1.9 2.2 3.8q1.2 1.8 2.4 3.6q0-0.7 0-1.3q0.1-0.7 0.1-1.3q0-0.7 0.1-1.3q0.1-0.6 0.2-1.3c0.5-3.6 2.8-13.9 7.8-13.9c4.6 0 3 10.4 2.6 12.9q-0.4 1.8-0.9 3.5q-0.6 1.7-1.2 3.3q-0.7 1.7-1.6 3.2q-0.8 1.6-1.8 3.1q2.3 2.6 4.7 5.1q0 0 0-0.1c1.6-7.3 11.5-7.3 9.4-16.2c-0.5-2.2-2.1-2.9-1.6-5.5q0.2-0.6 0.5-1.2q0.3-0.5 0.6-1q0.4-0.5 0.8-1q0.5-0.4 1-0.7c4.3-3.4 10.7-4.3 15.9-3.4c10.1 1.8 18.9 9.7 23.8 18.9q1.1-2.1 2.6-4q1.5-1.9 3.3-3.6q1.9-1.6 3.9-2.8q2.1-1.3 4.4-2.2q-2.5-3.9-5.2-7.5q-0.4 0.1-0.8 0.1q-0.4 0.1-0.8 0.2q-0.5 0-0.9 0.1q-0.4 0-0.8 0.1q-1.3 0.2-2.6 0.3q-1.4 0.2-2.7 0.3q-1.3 0.1-2.6 0.2q-1.3 0.1-2.6 0.1c-2.9 0.2-11.1 0.9-10.2-4.4c0.8-4.3 9.7-2.8 12.5-2.5q1.1 0.1 2.1 0.3q1.1 0.1 2.1 0.3q1.1 0.2 2.1 0.4q1.1 0.2 2.1 0.4q-3.4-4.3-7.3-8.3q-2 0.2-4 0.3q-1.9 0.1-3.9 0.2q-2 0-4-0.1q-2 0-4-0.2c-2.4-0.3-15.9-0.9-15.6-4.9c0.2-2.1 4.4-2.6 5.9-2.9q1.7-0.3 3.4-0.5q1.8-0.2 3.6-0.2q1.7 0 3.5 0.1q1.7 0.2 3.5 0.4c0.8 0.2 2.5 0.5 4.3 0.9q-1.3-1.2-2.7-2.3q-1.4-1.2-2.8-2.3q-1.5-1.1-2.9-2.1q-1.5-1.1-3-2.1q-1.8-1.2-3.5-2.3c-4.8 0.5-10.1-1-14.7-2.1c-2-0.4-9.4-1.7-10.1-4.6c-1.5-5.4 9.5-3.2 11.8-2.7c8.9 2 17.3 8 24.5 13.8q-3.1-3.9-5.9-8c-1.5-2.1-4.4-5.3-4.9-8c-1-5.5 5.4-0.1 7.1 1.5q1.6 1.5 3.2 3.2q1.5 1.7 2.9 3.4q1.4 1.8 2.7 3.7q1.3 1.9 2.4 3.9c1.3 2.4 4.5 7 3.9 10q0 0 0 0q0 0 0 0q0 0 0 0q0 0 0 0c0 0 1.6 2.2 1.6 2.2q2.6 2.6 5 5.5q0-1.2 0.1-2.4q0.1-1.2 0.2-2.3q0.2-1.2 0.4-2.4q0.2-1.2 0.4-2.3c0.3-1.9 3.2-13.3 6.6-7.7c0.9 1.5 0.6 4.1 0.6 5.7q-0.1 1.1-0.1 2.2q-0.1 1.2-0.2 2.3q-0.1 1.1-0.2 2.2q-0.2 1.1-0.3 2.2c-0.2 1.4-0.5 7.1-2.1 9.4q3 4.1 5.6 8.3q0.6-0.1 1.2-0.2q0.6-0.2 1.2-0.3q0.6-0.1 1.2-0.2q0.6-0.1 1.2-0.1c3.7-0.3 8 0.2 10.8 3c3.1 3.2 1.8 7.4 3.2 11.3c2.1 6.2 10.5 7.6 14.9 12.2c2.9 3.2 5.6 7.1 5.5 11.5c-0.1 10.8-12.3 18.3-21.7 22.4c3.5 0.9 6.7 2.4 8.8 5q0.7 0.9 1.2 1.8q0.5 1 0.8 2q0.3 1 0.4 2.1q0.1 1.1 0 2.1c-0.1 2.1-0.6 4.2-0.4 6.3c0.5 4.3 3.6 6.3 5.6 9.6c2.6 4.7 1.3 8.7-2.2 12.7q-1.1 1.2-2.4 2.4c11.9 6.9 23.3 14.4 34.4 22.4q-1.2-2.3-2.2-4.7q-0.9-2.4-1.6-5q-0.6-2.5-0.9-5.1q-0.4-2.5-0.4-5.1c-5.7-6.4-10.3-13.8-9.8-22.7c0.6-10.1 3.3-19.9 3.8-30.1q-1.1-1-2.1-2c-3.4-3.4-8.5-10.3-8-15.4c0.2-1.9 0.9-3.1 2.9-2.8c1.8 0.3 4.3 3.7 5.6 4.7c3.6 2.8 7.3 4.3 11.5 6c10.5 4.2 11.7 16.6 12.2 26.6q0 0.1 0 0.2q0 0.1-0.1 0.1q0 0.1 0 0.2q0 0.1-0.1 0.1q0.6 1.3 0.9 2.6q0.4 1.4 0.5 2.7q0.1 1.4 0.1 2.8q-0.1 1.3-0.4 2.7c-1.5 9.1-6.9 17.4-13.9 23.4q-0.2 3.1 0.2 6.2q0.3 3.2 1.1 6.2q0.8 3 2 5.9q1.2 2.9 2.9 5.6q15.2 11.3 29.7 23.7c21 17.9 44.3 31.4 70.8 39.2c1.5 0.5 0.1 2.9-1.2 2.5c-26.1-7.6-49.3-20.7-70-38.2q-1.9-1.6-3.7-3.2c-4.2-1-9.4-1.6-13.2-3.3c-32.4 23.1-75.5 26.7-110.9 8c-0.7-0.4-1.3-1.6-0.5-2.3zm13.5-178.4q0 0 0 0q0 0 0 0zm-76.2-31.9c-0.1-2.5 0.6-6.4-1.2-3.1c-2.3 4.2-1.5 10.3 0.1 15.3c0.2-1.5 0.5-3.1 0.7-4.8q0.1-0.9 0.2-1.8q0.1-1 0.1-1.9q0.1-0.9 0.1-1.8q0-1 0-1.9zm70.1 32q-1.2-0.4-2.3-0.8q-1.2-0.3-2.4-0.6q-1.1-0.3-2.3-0.5q-1.2-0.1-2.4-0.3q-1.2-0.1-2.3-0.1q-1.2-0.1-2.3 0q-1.2 0-2.4 0.1q-1.1 0.1-2.3 0.3q-0.4 0.1-0.8 0.1q-0.4 0.1-0.8 0.2q-0.4 0.1-0.8 0.2q-0.4 0.1-0.8 0.2q-2.1 0.3-0.1 0.8q0.3 0.2 0.7 0.3q0.3 0.1 0.6 0.2q0.4 0.1 0.7 0.2q0.4 0 0.8 0.1c7.5 1.8 15 1.8 22.6 1.4q-0.4-0.4-0.8-0.8c-1.1-0.5-2.2-0.9-2.6-1zm-34.2-21.6c-5.1-0.6-3 0.8 0.7 2q1.6 0.5 3.1 0.9q1.6 0.5 3.2 0.8q1.5 0.4 3.1 0.7q1.6 0.2 3.2 0.4q-1.5-0.9-3.1-1.7q-1.6-0.8-3.3-1.4q-1.6-0.6-3.4-1q-1.7-0.4-3.5-0.7zm34.1 12.1q-0.9-1.5-1.9-3q-0.9-1.5-2-3q-1.1-1.4-2.2-2.8q-1.2-1.4-2.4-2.6q-0.6-0.6-1.1-1.1q-0.6-0.6-1.2-1.1q-0.5-0.5-1.1-1q-0.6-0.5-1.2-1q-0.1 0-0.1 0q0 0 0 0q0 0 0 0q0 0 0 0q0.3 0.5 0.6 1q0.2 0.5 0.5 1q0.3 0.5 0.6 1q0.4 0.4 0.7 0.9c2.6 4.1 5.6 8 8.6 11.8c0.7 0.8 4.3 5.8 5.8 7.3c-0.3-2.3-2.8-5.9-3.6-7.4zm16.4 20.2c0.4-1.7 0.7-3.4 1-5.2q0.2-1.4 0.4-2.9q0.2-1.5 0.3-2.9q0.1-1.5 0.2-3q0-1.5 0-2.9q0-0.1 0-0.2q0-0.1 0-0.1q0-0.1 0-0.2q0 0 0-0.1q-0.1 0.2-0.2 0.4q-0.2 0.2-0.2 0.4q-0.1 0.3-0.2 0.5q-0.1 0.2-0.2 0.4q-0.2 0.6-0.3 1.2q-0.1 0.6-0.3 1.1q-0.1 0.6-0.2 1.2q-0.1 0.6-0.2 1.2q-0.1 0.8-0.2 1.6q-0.1 0.7-0.2 1.5q-0.1 0.8-0.1 1.6q-0.1 0.8-0.1 1.5q-0.1 0.7-0.1 1.4q-0.1 0.7-0.1 1.4q0 0.7 0.1 1.4q0 0.7 0.1 1.4q0.1 0.1 0.2 0.3q0.2-0.5 0.3-1zm59.1 91.5c-1.4 8.8 1.8 16 7.2 22.6c1.7-13.9 10.3-28.2 2.5-41.3c-2.2-1.8-4.4-3.5-6.5-5.3c-0.5 8.1-1.9 16-3.2 24zm15.1-29.2c-3-3.9-7.8-4.5-12-6.6q-1.2-0.6-2.3-1.3q-1.1-0.7-2.2-1.5q-1.1-0.8-2.1-1.7q-1.1-0.9-2-1.8q-0.6-0.5-0.8-0.8q0.1 0.7 0.3 1.3q0.2 0.7 0.5 1.3q0.2 0.7 0.5 1.3q0.3 0.6 0.6 1.2c3 6.4 7.9 10 13.1 14.5c4.2 3.5 8.4 6.7 11.4 10.4c-0.5-5.7-1.5-11.9-5-16.3zm-0.1 15.1q-0.5-0.5-1.1-1.1c3.1 8.4 0.6 16.6-1.6 26q-0.4 1.5-0.7 3q-0.3 1.5-0.6 2.9q-0.3 1.5-0.5 3q-0.2 1.5-0.3 3q1.7-1.6 3.3-3.5q1.5-1.9 2.8-3.9q1.3-2 2.3-4.2q1-2.2 1.8-4.5c2.7-8.5 1-14.9-5.4-20.7zm-115.6 29.7c-4.2 7.7-7.9 25.4 2.1 30.6c4.3 2.2 9.9 2.9 14.5 4.3q0.8 0.2 1.5 0.5q0.7 0.2 1.4 0.4q0.8 0.2 1.5 0.4q0.7 0.2 1.5 0.3c15.8 2.1 24.7-16.1 19.5-29.1q0 0 0 0q0-0.1 0-0.1q-0.1-0.1-0.1-0.1q0 0 0-0.1c-7.5-8.3-12.3-19.9-14.1-31q-2 5.4-4.2 10.7q0.3 0.3 0.6 0.6q0.2 0.4 0.4 0.7q0.2 0.4 0.3 0.8q0.2 0.4 0.2 0.9q0 0.5-0.1 1.1q-0.2 0.6-0.5 1.1q-0.4 0.5-0.9 0.8q-0.5 0.4-1 0.5c-2.3 0.6-3.8-1.6-3.9-3.6q0-0.6 0.1-1.1q0.1-0.5 0.4-1q0.3-0.5 0.7-0.8q0.4-0.4 0.9-0.6q2.6-6.3 4.9-12.7c-8.7 6.4-17.7 14.2-23.6 23.1q-0.1 0.2-0.2 0.3q-0.1 0.2-0.2 0.4q-0.2 0.1-0.3 0.3q-0.1 0.2-0.1 0.3q-0.7 1-1.3 2.1zm21.1-9.6q0 0 0 0q0.1 0.1 0.1 0.1q0 0.1 0 0.1q0 0.1 0 0.1q0 0 0 0.1q0.1 0 0.2-0.1q0.1 0 0.1 0q0.1 0 0.2 0q0.1-0.1 0.1-0.1q0.2-0.1 0.4-0.3q0.1-0.1 0.3-0.3q0.1-0.2 0.1-0.4q0.1-0.2 0.1-0.4c-0.1-0.3-0.3-0.6-0.6-0.6c-0.7 0.2-1 1.2-1 1.8zm-58.2-22.2c2 5 6.8 7 7.8 12.5c0.3 2.1-0.1 4.2 0.2 6.2q0.2 1.9 0.9 3.7q0.8 1.7 1.9 3.3q1.1 1.5 2.6 2.7q1.5 1.1 3.3 1.9c7 3.3 14.5 1.4 20.4-3.2q0 0 0 0q0.1 0 0.1 0q0 0 0 0q0 0 0 0c6.6-9.9 16.9-18.2 25.9-24.7q-2.1-0.9-4.4-1.4q-2.2-0.5-4.5-0.5q-2.3-0.1-4.6 0.3q-2.3 0.4-4.5 1.2q0 0.1 0 0.2q-0.3 0.6-0.7 1q-0.4 0.5-1 0.8q-0.5 0.3-1.1 0.4q-0.7 0.1-1.3-0.1q-0.5-0.2-0.9-0.6q-0.5-0.4-0.7-0.9q-0.2-0.5-0.3-1.1q0-0.6 0.2-1.1q0 0 0-0.1q0 0 0 0q0 0 0 0q0 0 0-0.1c0.1 0 0 0 0.1-0.1q0.2-0.6 0.6-1.1q0.4-0.5 1-0.8q0.5-0.3 1.1-0.4q0.7-0.1 1.3 0q0.3 0.1 0.6 0.3q0.2 0.2 0.5 0.4q0.2 0.2 0.4 0.5q0.1 0.3 0.2 0.6q2.2-0.8 4.5-1.2q2.2-0.3 4.5-0.3q2.3 0 4.6 0.3q2.3 0.4 4.4 1.2c-7.2-13.6-23-24.7-38.7-24.2q-0.2 0-0.5 0q-0.2 0-0.4 0q-0.3 0-0.5 0q-0.2 0.1-0.5 0.1q-1.6 0.1-3.2 0.5q-1.6 0.3-3.2 0.8q-1.5 0.5-3 1.1q-1.5 0.7-2.9 1.5c-5.9 3.4-13.1 13-10.2 20.4zm2.2-49.7q-1.1-0.5-2.1-0.9q-1.1-0.5-2.1-0.9q-1.1-0.4-2.1-0.8q-1.1-0.4-2.2-0.7c-0.8-0.3-1.6-0.5-2.4-0.7q-0.1 0-0.1 0q-0.1 0-0.1 0q-0.1 0-0.1-0.1q-0.1 0-0.1 0c2 2.1 3.6 4.2 6.2 5.7q0.9 0.6 2 1.1q1 0.5 2.1 0.8q1 0.4 2.1 0.7q1.2 0.3 2.3 0.5q0.6 0.1 1.1 0.1q0.6 0.1 1.2 0.2q0.6 0 1.2 0q0.6 0 1.2 0q-0.1-0.2-0.3-0.4q-0.1-0.2-0.2-0.4q-0.1-0.2-0.2-0.4q-0.1-0.2-0.2-0.4q-0.9-0.5-1.8-1q-0.8-0.4-1.8-0.8q-0.9-0.5-1.8-0.9q-0.9-0.3-1.8-0.7zm-12.7-24.8c-1.5-1.1-5.2-5.1-7.4-4.6c-4.9 1.2-0.5 4.4 1 5.3q1.5 0.8 3.1 1.6q1.5 0.7 3.2 1.3q1.6 0.6 3.2 1.1q1.7 0.5 3.4 0.8c-0.4-0.4-0.7-0.7-1.1-1c-1.7-1.6-3.6-3-5.4-4.5zm-5.3-23.8q-0.8-0.9-1.7-1.8q-0.9-0.8-1.9-1.6q-1-0.7-2-1.4q-1-0.7-2.1-1.3c-1.3-0.8-3.8-3-3.2-0.8c1.1 3.4 6 7.2 8.5 9.6q1 0.9 2 1.7q1 0.9 2.1 1.7q1 0.9 2.1 1.6q1.1 0.8 2.2 1.6q-0.5-1.3-1.2-2.5q-0.6-1.3-1.4-2.4q-0.8-1.2-1.6-2.3q-0.9-1.1-1.8-2.1zm24.3 11.7c0.5-2.3 1.1-3.7-1.1-1.7q-0.6 0.6-1.2 1.3q-0.7 0.6-1.2 1.3q-0.6 0.8-1.1 1.5q-0.5 0.8-0.9 1.6q-0.6 0.9-1 1.9q-0.5 1-0.9 2q-0.5 1-0.8 2.1q-0.3 1-0.6 2.1q-0.1 0.6-0.3 1.1q-0.1 0.6-0.2 1.2q-0.1 0.5-0.2 1.1q-0.1 0.6-0.2 1.2q0.1 0.2 0.2 0.5q1.7-1.8 3.2-3.8q1.5-2 2.7-4.2q1.2-2.2 2.1-4.5q0.9-2.3 1.5-4.7zm8.4 20.2l-0.1-0.9q-0.3-1.8-0.6-0.4c-1 0.4-1.6 2.5-2 3.4q-0.5 0.9-0.8 1.8q-0.4 0.9-0.7 1.9q-0.3 0.9-0.5 1.9q-0.2 0.9-0.3 1.9q-0.2 1.1-0.3 2.2q0 1.1-0.1 2.1q0 1.1 0.1 2.2q0.1 1.1 0.2 2.2q0.1 0.1 0.2 0.2q0.1 0.1 0.3 0.2q0.1 0.1 0.2 0.2q0.1 0.1 0.2 0.2c3.2-5.7 5.3-12.6 4.2-19.1zm34.1 2.6c-5.2-2.7-14.8-4.9-19.7-0.2c-3.9 3.8 2.5 9.6 0.3 14.1c-2 3.9-7.4 4.2-9.5 8.1c-2.6 4.6 0.2 10.8 2.4 15.1q2 0 3.9 0.2q2 0.2 3.9 0.5q1.9 0.3 3.8 0.8q1.9 0.5 3.7 1.2q4 1.5 7.5 3.7q3.6 2.2 6.8 4.9q3.1 2.8 5.8 6.1q2.6 3.2 4.6 6.9q0-2.7-0.6-5.4q-0.6-2.7-1.8-5.1q-1.2-2.5-3-4.5q-1.8-2.1-4.1-3.7q-0.3 0.1-0.6 0.2q-0.3 0-0.6 0q-0.3 0-0.6-0.1q-0.4 0-0.7-0.2q-0.7-0.2-1.4-0.7q-0.6-0.5-1-1.3q-0.4-0.7-0.5-1.5q-0.1-0.8 0-1.6q0.1 0 0.1-0.1q0 0 0-0.1q0 0 0.1-0.1q0 0 0 0q0.4-0.6 0.9-1q0.4-0.4 1-0.6q0.6-0.3 1.3-0.3q0.6 0 1.2 0.1q0.7 0.2 1.4 0.7q0.6 0.4 1 1.1q0.5 0.6 0.6 1.4q0.2 0.7 0.1 1.5q-0.1 0.1-0.1 0.3q0 0.1-0.1 0.2q0 0.2-0.1 0.3q0 0.1-0.1 0.2q2 1.4 3.7 3.1q1.7 1.8 3 3.8q1.3 2.1 2.2 4.3q0.8 2.3 1.2 4.7c5.8-20.9 6.1-45.8-16-57zm70.9 40.3c2.1-6.7-3.4-13.2-8.8-16.5c-2.7-1.7-5.7-2.3-8-4.5c-5.5-5.5-0.9-17.3-12-17.3q-0.9 0-1.9 0.1q-1 0-1.9 0.2q-1 0.2-1.9 0.4q-0.9 0.3-1.9 0.6q0 0 0 0q-0.1 0-0.1 0.1q0 0-0.1 0q0 0-0.1 0q-2.4 0.9-4.6 2.3q-2.2 1.5-4.1 3.3q-1.9 1.8-3.3 3.9q-1.5 2.2-2.6 4.6q0.2 0.4 0.4 0.8q0.1 0.5 0.3 0.9q0.2 0.4 0.3 0.9q0.1 0.4 0.3 0.9c3.6 12.6 0.5 27.9-3.7 40.6q1.3-1.4 2.5-2.8q1.3-1.4 2.4-2.8q1.2-1.5 2.3-3q1-1.5 2-3.1c-0.7-1.3-0.9-3.1 0.4-4c1.5-1.2 3.8-0.6 5 0.7c1.1 1.1 1.5 3.2 0.2 4.4q-0.4 0.3-0.8 0.4q-0.5 0.2-0.9 0.3q-0.5 0.1-1 0q-0.4-0.1-0.9-0.3q-0.9 1.5-1.9 2.8q-1 1.4-2 2.7q-1.1 1.3-2.2 2.6q-1.1 1.3-2.2 2.5q2.4-0.8 4.8-1.5q2.5-0.6 5-1.1q2.5-0.4 5-0.5q2.6-0.2 5.1-0.2c2.4 0.1 5.2 0.2 7.9 0.6c8.8-3.4 20.1-9.3 23-19zm-69.8-1.5q-0.1 0.3 0 0.6q0 0.2 0.1 0.5q0.2 0.2 0.4 0.4q0.2 0.1 0.5 0.1q0.3 0.1 0.6 0q0.4-0.2 0.6-0.4q0.2-0.2 0.3-0.5q0.1-0.3 0.1-0.7c0.1-1.7-2.1-1.1-2.6 0zm65.8 53.4c-0.7-3.2-2.8-4.4-4.4-7.2c-2.3-4.2-1.5-7.7-1.5-12.3c-0.2-11.6-16.7-12-25.3-11.5q-2.4 0.2-4.9 0.6q-2.4 0.4-4.8 1q-2.4 0.7-4.7 1.5q-2.3 0.9-4.5 1.9q1.6 1.2 3.2 2.3q1.7 1.1 3.5 2.1q1.7 1 3.5 1.8q1.8 0.9 3.7 1.6q0.3-0.6 0.7-1.1q0.4-0.5 1-0.8q0.6-0.3 1.2-0.4q0.6-0.1 1.3 0q0.8 0.1 1.4 0.5q0.7 0.4 1.3 1q0.5 0.6 0.8 1.4q0.2 0.7 0.2 1.5q0 0.7-0.3 1.4q-0.4 0.7-0.9 1.1q-0.5 0.5-1.2 0.8q-0.7 0.2-1.4 0.2q-0.8 0-1.5-0.3q-0.6-0.2-1.2-0.7q-0.6-0.4-1-1.1q-0.4-0.6-0.5-1.3q-2-0.7-3.9-1.6q-1.8-0.8-3.7-1.8q-1.8-1-3.5-2.1q-1.8-1.1-3.4-2.3q0.4 4.1 1.4 8q1 4 2.4 7.8q1.5 3.8 3.4 7.4q2 3.6 4.3 6.9q1.1 1.5 2.3 2.8q0.1 0.2 0.2 0.3q0.1 0.2 0.2 0.3q0.2 0.1 0.3 0.3q0.1 0.1 0.3 0.2c4.6 5 10.6 8.5 17.9 7.2c5.3-1 10-4 13.8-7.7c3.1-2.9 5.2-5.4 4.3-9.7zm-33.8-16.3c0 0.8 0.4 1.5 1.3 1.3q0.4-0.1 0.6-0.2q0.3-0.2 0.5-0.4q0.2-0.3 0.3-0.6q0.2-0.3 0.2-0.6q0-0.2 0-0.5q-0.1-0.2-0.3-0.4q-0.1-0.2-0.3-0.3q-0.2-0.2-0.5-0.2q-0.3 0-0.7 0.2q-0.3 0.1-0.5 0.4q-0.3 0.2-0.4 0.6q-0.2 0.3-0.2 0.7zm77.9 73.9c-20.2-2.3-50.6 1.7-60.9 2c19.9-4.5 39.6-6.9 59.7-4.7q-1-0.9-2.2-1.7q-1.1-0.8-2.2-1.5q-1.1-0.8-2.3-1.5q-1.2-0.7-2.4-1.4q-4.4-2.3-9.1-3.9q-4.7-1.5-9.6-2.5q-4.8-0.9-9.8-1.1q-5-0.2-9.9 0.4c-19.9 2-39.5 11.1-55.1 23.3c33.3 16.6 73.1 13.2 103.8-7.4z" />
					</g>
				</g>
			</g>
			<path id="Контур_249" fill-rule="evenodd" class="s0" d="m266 185.7c-5.6 4.1-10.8 8.2-16.3 11.9q-1.1 0.6-2.2 1.2q-1.1 0.6-2.2 1q-1.2 0.5-2.4 0.9q-1.2 0.4-2.4 0.6q-0.6 0.1-1.2 0.1q-0.6-0.1-1.2-0.2q-0.6-0.2-1.2-0.6q-0.5-0.3-0.9-0.7q-0.3-0.6-0.4-1.2q-0.2-0.6-0.1-1.2q0-0.7 0.2-1.3q0.1-0.6 0.5-1.1q1.1-1.3 2.3-2.6q1.2-1.3 2.5-2.6q1.2-1.2 2.5-2.5q1.3-1.2 2.6-2.4q0.5-0.5 1.1-1q0.7-0.4 1.3-0.9q0.6-0.5 1.2-0.9q0.6-0.5 1.3-0.9c-2.9-0.1-4.5-0.1-6-0.2c-1.2 0-2.5-0.1-3.7-0.3c-4.2-0.6-6.4-2-5.9-3.9c0.8-3.1 3.7-3.1 6.1-2.9c4.1 0.2 8.3 0.8 12.5 1.4c1.2 0.1 2.3 0.5 4.7 1q-4-5.4-7.8-11q-3.7-5.6-7.1-11.4q-3.4-5.8-6.5-11.8q-3-6-5.8-12.1c-1.8 0.8-13.6 6.5-18.4 8q-0.7 0.1-1.5 0.2q-0.7 0.1-1.4 0.1q-0.7 0-1.4 0q-0.8-0.1-1.5-0.3c-3.1-0.6-4-3.4-1.6-5.4c6.2-5.9 19.6-5.7 23.2-6.7c-6.5-5-24.9-7.9-22.1-14.5c1.9-4.6 6.8-1 9.9 0.5q1.4 0.7 2.7 1.4q1.3 0.8 2.5 1.7q1.2 0.8 2.4 1.7q1.2 1 2.3 2c-1.1-3.5-4.6-11.4-4.6-11.4c-4.9-1.5-12.4-2.4-17.3-3.9c-1.5-0.4-5.9-1.4-4.9-4.3c1.2-3.5 5.9-1 7.7-0.4c4.5 1.8 8.9 3.9 14.1 6.2c-2-6.7-3.9-13.1-5.9-20.1c-1.7 0.8-3.3 1.5-4.8 2.2q-2.3 1.3-4.7 2.3q-2.5 1-5 1.8q-2.5 0.8-5.1 1.4q-2.5 0.6-5.1 1c-2.4 0.3-7.1 1.3-8.4-3.1c-1.1-4 6.9-5.9 9.6-6.6c5.5-1.3 12.3-1.5 18.3-2.6c-0.9-0.8-10.6-7.2-13.5-10c-1.5-1.5-3.9-3.5-2.1-5.8c1.8-2.4 4.2-0.5 6 0.7c2.8 1.9 5.3 4.1 7.9 6.2c1.2 1 3.4 3.6 4.7 4.8q-0.4-1.6-0.9-3.3q-0.5-1.6-1.1-3.2q-0.6-1.6-1.2-3.2q-0.6-1.6-1.2-3.2c-4-1.4-11.8-2.9-15.8-4.1c-3.1-0.9-15-4.3-13.6-9.1c1.9-6.4 24.7 4.9 28.4 8.2c-7.5-15.4-15.5-40.4-13.4-45.9c1.4-3.4 3.6-0.7 4.8 1.3c5.1 8.3 7.5 17.4 9.4 26.8c1.1 5.3 2.1 10.6 3.5 17.1c1-1.9 4.5-9.6 5.9-12.4c0.7-1.2 3.2-6.6 6.7-4.6c3 1.8-0.1 7-1 8.3c-2.5 3.5-9.8 12-11.1 13.2c3 11.4 6.8 25.9 9.7 37.4c-0.1 0-0.2 0 0 0c0.2 0 0.1 0 0 0q0 0 0 0q0 0 0 0q0 0 0 0q0 0 0 0q0 0 0 0c0.6-2.1 1.6-6.9 2-9c0.9-4.2 3.2-12 7.2-10.2c4.5 1.7-5.7 19.2-7.8 22.3c0 0 0.8 2.8 2.6 7.8c2.5 5.1 4.2 10.4 7.2 15.6q0.3-1.6 0.6-3.1c1.1-5.2 2-10.4 3.3-15.4c0.5-1.9 1.6-4.5 4.3-3.8c2.5 0.7 2.3 3.3 2 5.4q-0.4 3.1-1.1 6.1q-0.7 3.1-1.8 6q-1.1 2.9-2.5 5.7q-1.5 2.8-3.3 5.3c3.9 7.5 8.9 16 12.9 23.7c-0.4-4.2-1.1-9.6-1-13.8c0.1-4 0.2-10.4 3.8-10.3c2.6 0 3 3.6 2.8 6c-0.4 5.8-2.1 16.2-3.1 21.9q0.4 0.9 0.9 1.8q0.4 0.9 0.9 1.7q0.5 0.8 1.1 1.7q0.5 0.8 1.1 1.6c4 5.2 9.5 12.2 13.5 17.5q0 0 0 0q0 0 0 0q0 0 0 0q0 0 0 0c-0.1 0.1-0.2 0.1 0 0c0.2 0 0.1 0 0 0c-0.1-0.9-0.8-4-1-4.9q-0.6-3-1.1-6.1q-0.4-3.1-0.5-6.2q-0.1-3.1 0.1-6.2q0.1-3.1 0.6-6.2q0.1-0.7 0.2-1.5q0.2-0.8 0.4-1.6q0.2-0.7 0.5-1.5q0.2-0.7 0.6-1.4q0.2-0.5 0.6-0.9q0.3-0.4 0.8-0.7q0.4-0.3 0.9-0.4q0.5-0.2 1-0.3q0.5 0.1 1 0.3q0.4 0.3 0.8 0.6q0.4 0.3 0.7 0.8q0.3 0.4 0.4 0.9q0.3 0.8 0.5 1.6q0.1 0.8 0.2 1.7q0.1 0.8 0.1 1.7q0.1 0.9 0 1.7c-0.8 7.5-3 22.7-4.3 30.2c0 0 3.3 3.6 6.9 7.8c6.1 6.9 12.8 12.7 19.3 19.5c-3.6-2.8-7.3-5.5-10.7-8.5c-3.6-3.1-7.1-6.3-10.5-9.7c-3.4-3.3-6.6-6.7-9.7-10zm-4.9-6.2c-9.1 4.3-24.9 15.7-22.5 18.3c2.9 3.2 17.6-8.7 25.9-13.8zm-30.8-51.5c0 0-24.8 4.9-23 7.3c1.8 2.4 23-7.3 23-7.3zm-44.2-38.1c0.3 2.9 21.1-2.4 26.2-6.2c-7.8 0.2-26.4 3.5-26.2 6.2zm83.1 89.3c1.5-9.2 6.4-29.9 1.4-28.7c-2.9 0.7-2.1 21-1.4 28.7zm-59.2-121.6c-3.3-21.1-10.4-42.5-13.4-42.3c-2.6 0.2 11 36.4 13.4 42.3zm-3.7 3.2c-4.4-2.8-22-10.4-23-8.8c-1.6 2.7 17.5 6.9 23 8.8zm21.8 62.4c-4.4-4.9-17.8-13-19-10.8c-1 1.8 14.1 8.2 19 10.8zm-14.4-42.6c-3.5-2.7-15.3-14.8-16.6-13.3c-1 1.1 13.1 10.6 16.6 13.3zm0.1 0c-0.3 0.4 0.3-0.4 0 0q-0.1 0-0.1 0q0 0 0.1 0zm27.2 26.2c-1.8 0.1-6.1 22.4-5.8 22.5c3.7-4.6 8.8-22.6 5.8-22.5z" />
			<g id="Сгруппировать_367">
				<g id="Clip-Path: Сгруппировать_307" clip-path="url(#cp2)">
					<g id="Сгруппировать_307">
						<path id="Контур_234" fill-rule="evenodd" class="s0" d="m75.4 320.7c2.9 2.8 8.7 4.4 9.5 8.9c0.8 4-1.6 8.6-3.6 11.9q-0.6 1.1-1.3 2.2q-0.8 1.1-1.5 2.2q-0.8 1-1.6 2q-0.9 1-1.8 2c7.2-0.5 15.4 2 19.2 8.4q0.7 1.2 1 2.6q0.4 1.4 0.4 2.8q-0.1 1.4-0.5 2.8q-0.5 1.3-1.3 2.5c-2.8 4.3-7.7 4.2-10.5 7.9c-2.3 3.1-3.1 6.5-7.2 7.4c-3.1 0.8-6.9-0.2-9.6-1.6q-0.3-0.2-0.6-0.4q0.2 1 0.2 1.9q0.1 1 0 1.9q-0.1 1-0.4 1.9q-0.2 0.9-0.7 1.8q-0.3 0.8-0.8 1.6q-0.5 0.7-1.1 1.4q-0.6 0.6-1.3 1.1q-0.8 0.5-1.6 0.9q-0.4 0.1-0.8 0.2q-0.5 0.1-0.9 0.2q-0.5 0-0.9 0q-0.5 0-0.9-0.1c-5.6-0.4-1.1-0.9-8.5 1.4c-5.8 1.8-12.4 0.2-15-6c-1.9-4.5-0.8-9.2 1.7-13.1q-0.8 0.2-1.7 0.4q-0.8 0.2-1.6 0.4q-0.9 0.1-1.7 0.2q-0.8 0.2-1.7 0.3c-7.6 0.8-21.6-5.7-17.6-15.7c1.3-3.1 3.8-5.7 5.1-9c0.8-1.9 0.8-3 2.6-4.5q0.7-0.6 1.6-1.1q0.8-0.5 1.7-0.8q0.9-0.4 1.9-0.5q0.9-0.2 1.9-0.2c-6-6.4-4-16 3.5-21.2c7.4-5.3 17.4-2.8 23.4 3.2q0.1-0.7 0.3-1.4q0.2-0.8 0.5-1.5q0.2-0.7 0.6-1.3q0.3-0.7 0.8-1.3c2.6-3.9 7.7-7.5 12.6-7.6c4.1-0.2 5.5 2.3 8.2 4.9zm-45.7 26.5q0.5 0.1 0.9 0.2q0.5 0.1 0.9 0.3q0.4 0.1 0.9 0.3q0.4 0.2 0.8 0.4c6.1 2.8 11.8 6.7 17.8 9.7q1 0.4 1.9 1q-0.2-1.2-0.6-2.3q-0.4-1.2-1-2.3q-0.5-1-1.2-2q-0.6-1-1.4-1.9q-0.3 0.2-0.6 0.3q-0.3 0.2-0.7 0.2q-0.3 0.1-0.6 0q-0.4 0-0.7-0.1c-1-0.7-0.6-2.1-0.1-2.9c0.6-1.1 2-2.1 3.3-1.6c1.1 0.4 1.1 1.6 0.7 2.5q0.7 0.9 1.4 1.8q0.6 0.9 1.2 1.9q0.5 1 1 2.1q0.4 1 0.8 2.1q0.4-2.6 0.5-5.2q0.1-2.6 0-5.3q-0.2-2.6-0.6-5.2q-0.5-2.6-1.1-5.1q-0.2-0.4-0.3-0.9q-0.1-0.5-0.2-0.9q0-0.5-0.1-0.9q-0.1-0.5-0.1-0.9c-4.3-5.3-11.4-8.4-18.3-6.7q-1.3 0.4-2.5 0.9q-1.2 0.6-2.3 1.4q-1.1 0.8-2 1.8q-1 0.9-1.7 2.1c-3.8 5.4-1.5 11.7 3.6 15c0.1 0.1 0.2 0.1 0.4 0.2zm4.2 27.9c5-1.5 17.1-5.2 19-11.4q-5.1 0.7-10.1 1.5q-0.1 0.3-0.3 0.6q-0.1 0.3-0.4 0.6q-0.2 0.2-0.5 0.4q-0.3 0.1-0.7 0.2q-0.5 0.1-1 0q-0.6-0.1-1.1-0.4q-0.4-0.3-0.8-0.7q-0.3-0.5-0.5-1q-0.1-0.5 0-1q0.1-0.5 0.4-0.9q0.4-0.4 0.8-0.7q0.5-0.3 1-0.3q0.3-0.1 0.7 0q0.3 0 0.7 0.1q0.3 0.2 0.6 0.4q0.3 0.2 0.5 0.5q5.3-0.8 10.5-1.6c-1-1.2-3.4-1.9-4.7-2.5q-1.2-0.5-2.4-1.1q-1.2-0.6-2.4-1.2q-1.2-0.6-2.3-1.3q-1.2-0.6-2.3-1.3c-3-1.8-6.3-3.9-9.6-4.7q-0.1 0-0.2 0q0 0-0.1 0q-0.1 0-0.1 0q-0.1-0.1-0.2-0.1q-0.9-0.1-1.8-0.2q-0.9 0-1.8 0.2q-0.9 0.2-1.8 0.5q-0.8 0.3-1.6 0.8c-3.4 2-3.5 6.2-5.4 9.3c-0.8 1.3-2.1 2.5-2.7 3.8c-1.6 3.8 0.4 7.6 3.3 10c5 4.3 11.6 3.1 17.3 1.5zm28.2 4.2q-1.1-1-2-2.1q-0.9-1.2-1.7-2.4q-0.8-1.2-1.5-2.5q-0.7-1.3-1.2-2.6q-0.2 1-0.5 1.9q-0.3 1-0.7 1.9q-0.4 0.9-0.9 1.8q-0.5 0.9-1.2 1.7q0.2 0.3 0.3 0.7q0 0.3-0.1 0.7q0 0.4-0.2 0.7q-0.2 0.3-0.5 0.6c-0.6 0.3-1.3 0.4-2 0.3c-0.6-0.1-1.2-0.5-1.6-1c-0.5-0.5-0.7-1.2-0.7-1.8c0-0.7 0.3-1.4 0.7-1.9q0.3-0.2 0.6-0.3q0.3-0.2 0.6-0.2q0.3-0.1 0.6 0q0.3 0 0.6 0.2q0.5-0.8 1-1.6q0.4-0.8 0.8-1.7q0.3-0.9 0.5-1.8q0.3-0.9 0.4-1.9c-3.3 4-9.6 6.8-15.4 8.6c-3.7 4.6-5.1 11.4-0.3 15.8c4.3 3.9 8.9 1.8 13.5 0.3c3.9-1.3 10.2 0.6 12.4-4.3c1.3-2.9 0.1-6.5-1.5-9.1zm10.6-26.9q-1.8 1.6-3.6 3q-1.9 1.5-3.9 2.7q-2 1.3-4.1 2.4q-2.1 1.1-4.3 1.9q1.5 0.8 3.2 1.3q1.6 0.5 3.3 0.7q1.8 0.3 3.5 0.3q1.7 0 3.4-0.3q0-0.1 0.1-0.3q0-0.1 0-0.3q0-0.1 0.1-0.2q0-0.2 0.1-0.3q0.1-0.3 0.2-0.5q0.2-0.2 0.4-0.3q0.3-0.2 0.5-0.3q0.3-0.1 0.6-0.1q0.2 0.1 0.5 0.1q0.2 0.1 0.4 0.2q0.2 0.1 0.4 0.3q0.1 0.2 0.3 0.4q0 0 0 0q0 0 0 0q0 0 0 0q0 0.1 0 0.1q0 0 0 0q0.1 0 0.1 0q0 0 0 0.1q0 0 0 0q0.2 0.4 0.3 0.8q0.1 0.4 0.1 0.8q-0.1 0.4-0.2 0.8q-0.1 0.4-0.3 0.7q-0.1 0.2-0.3 0.4q-0.1 0.2-0.3 0.3q-0.1 0.2-0.3 0.3q-0.2 0.1-0.4 0.1q-0.2 0.1-0.5 0q-0.2 0-0.4-0.1q-0.2-0.1-0.4-0.2q-0.1-0.1-0.2-0.3q-0.1-0.1-0.1-0.1q-0.1-0.1-0.1-0.1q0-0.1-0.1-0.2q0 0 0-0.1q-1.9 0.3-3.7 0.3q-1.8 0-3.7-0.3q-1.8-0.2-3.5-0.8q-1.8-0.5-3.5-1.2q0.5 1.5 1.1 2.9q0.6 1.5 1.4 2.8q0.7 1.4 1.6 2.8q0.8 1.3 1.7 2.5q0.9 1.2 2 2.3q1 1 2.2 1.8q1.3 0.8 2.6 1.4q1.4 0.6 2.8 1c5 1.1 6.3-2.5 8.8-5.7q0.3-0.6 0.8-1.1q0.4-0.5 0.9-1q0.5-0.4 1-0.8q0.6-0.4 1.2-0.7c1.1-0.5 2.3-0.5 3.3-0.9c6-2.6 7.2-8.7 3.7-13.1c-4.4-5.4-12.1-7.3-18.7-6.2zm-8.7-33.8c-4.3 1.3-8.6 5.3-9.4 9.8c-0.5 2.8 0.5 5.4 1.2 8q0.7 2.8 1.1 5.6q0.4 2.8 0.5 5.6q0 2.8-0.2 5.6q-0.3 2.8-0.9 5.6q0.5-0.6 1-1.2q0.4-0.7 0.8-1.4q0.4-0.7 0.7-1.4q0.3-0.7 0.5-1.5c-0.3-0.5-0.4-1.1-0.3-1.7c0.2-0.6 0.5-1.1 0.9-1.5c0.5-0.4 1.1-0.6 1.7-0.6c0.6-0.1 1.2 0.1 1.7 0.5q0.4 0.3 0.7 0.8q0.3 0.5 0.3 1q0.1 0.6 0 1.1q-0.1 0.5-0.5 1q-0.2 0.2-0.4 0.4q-0.3 0.2-0.6 0.3q-0.3 0.1-0.6 0.1q-0.3 0.1-0.6 0q-0.2 0.6-0.5 1.2q-0.2 0.6-0.5 1.1q-0.3 0.6-0.6 1.1q-0.3 0.5-0.7 1q2.7-1.2 5.3-2.8q2.5-1.6 4.8-3.6q2.3-1.9 4.3-4.1q2-2.2 3.8-4.7c2.2-3.3 6.8-9.9 4.9-14.3c-1.1-2.6-5.3-4.1-7.5-5.9c-3.7-3.2-5.2-6.9-10.9-5.1z" />
					</g>
				</g>
			</g>
			<path id="Контур_250" fill-rule="evenodd" class="s0" d="m63.3 273.2c-0.4-0.5-2.7-3.1-1.6-6q0.2-0.6 0.6-1.1q0.4-0.5 0.8-0.9q0.5-0.4 1-0.6q0.6-0.3 1.2-0.4c2.8-0.5 5.4 2.1 6 4.8c0.6 2.5-0.3 5.9-2.7 6.6c-2.5 0.8-4.9-1.9-5.3-2.4zm2-0.1q0.5 0.1 0.9 0.2q0.5 0.1 0.9 0q0.4-0.1 0.8-0.3c1.5-1 1-3.3 1-3.5c-0.5-1.9-2.5-3.7-3.9-3.2c-1 0.4-1.3 1.8-1.4 2.4c-0.1 0.4-0.6 2.6 1 3.9q0.3 0.3 0.7 0.5z" />
			<path id="Контур_251" fill-rule="evenodd" class="s0" d="m136.6 394.2c-0.4 0.1-2.9 0.3-4.1-1.5q-0.3-0.4-0.4-0.8q-0.2-0.4-0.2-0.8q0-0.5 0-0.9q0.1-0.4 0.3-0.8c0.8-1.8 3.4-2.3 5.2-1.6c1.7 0.7 3.3 2.6 2.8 4.3c-0.6 1.8-3.2 2.1-3.6 2.1zm0.8-1.2q0.2-0.2 0.5-0.4q0.2-0.3 0.3-0.6q0.1-0.3 0.2-0.6c0-1.3-1.6-1.9-1.7-2c-1.3-0.5-3.1 0-3.4 1c-0.2 0.7 0.5 1.5 0.8 1.8q0.2 0.3 0.5 0.5q0.3 0.2 0.7 0.3q0.3 0.2 0.7 0.2q0.4 0.1 0.8 0q0.3-0.1 0.6-0.2z" />
			<path id="Контур_253" class="s0" d="m170.4 131.8c0.4-0.4 1.4-1.2 2.3-0.8q0.2 0.2 0.4 0.4q0.2 0.3 0.3 0.6q0.1 0.2 0.1 0.5q-0.1 0.3-0.2 0.6q0 0.2-0.1 0.3q-0.1 0.2-0.2 0.3q-0.2 0.2-0.3 0.3q-0.2 0.1-0.3 0.2q-0.2 0.1-0.5 0.1q-0.2 0.1-0.4 0.1q-0.3 0-0.5 0q-0.3-0.1-0.5-0.2q-0.1-0.1-0.2-0.2q-0.1-0.1-0.2-0.2q-0.1-0.1-0.2-0.3q0-0.1-0.1-0.3q0-0.2 0.1-0.4q0-0.2 0.1-0.3q0-0.2 0.1-0.4q0.2-0.1 0.3-0.3z" />
			<path id="Контур_254" class="s0" d="m109.6 397.2c0.4-0.5 1.4-1.3 2.3-0.8q0.3 0.1 0.4 0.4q0.2 0.2 0.3 0.5q0.1 0.3 0.1 0.6q0 0.3-0.1 0.6q-0.1 0.1-0.2 0.3q-0.1 0.1-0.2 0.3q-0.1 0.1-0.3 0.2q-0.1 0.1-0.3 0.2q-0.2 0.1-0.4 0.2q-0.3 0-0.5 0q-0.3 0.1-0.5 0q-0.2-0.1-0.4-0.2q-0.2 0-0.3-0.2q-0.1-0.1-0.2-0.2q-0.1-0.1-0.1-0.3q-0.1-0.1-0.1-0.2q-0.1-0.2 0-0.4q0-0.2 0.1-0.4q0.1-0.2 0.2-0.3q0.1-0.2 0.2-0.3z" />
		</g>
		<g id="Сгруппировать_369">
			<g id="Сгруппировать_366-2">
				<g id="Clip-Path: Сгруппировать_305-2" clip-path="url(#cp3)">
					<g id="Сгруппировать_305-2">
						<path id="Контур_233-2" fill-rule="evenodd" class="s0" d="m-982.7 347.3c-35.3 18.6-78.4 15.1-110.8-8.1c-3.9 1.8-9 2.4-13.2 3.4q-1.9 1.5-3.8 3.1c-20.6 17.6-43.8 30.7-69.9 38.3c-1.3 0.4-2.7-2-1.3-2.5c26.6-7.8 49.9-21.3 70.9-39.2q14.5-12.4 29.7-23.7q1.6-2.7 2.8-5.6q1.3-2.9 2.1-5.9q0.7-3 1.1-6.2q0.3-3.1 0.2-6.2c-7-6-12.4-14.3-14-23.4q-0.3-1.4-0.3-2.7q-0.1-1.4 0.1-2.8q0.1-1.3 0.4-2.7q0.4-1.3 0.9-2.6q0 0 0-0.1q-0.1-0.1-0.1-0.2q0 0 0-0.1q0-0.1 0-0.2c0.4-9.9 1.6-22.4 12.2-26.6c4.1-1.7 7.9-3.2 11.4-6c1.4-1 3.8-4.4 5.6-4.7c2.1-0.3 2.7 0.9 2.9 2.8c0.5 5.1-4.6 12-7.9 15.4q-1 1-2.1 2c0.5 10.2 3.2 20 3.7 30.1c0.5 8.9-4 16.3-9.8 22.7q0 2.6-0.3 5.1q-0.4 2.6-1 5.1q-0.6 2.5-1.6 5q-0.9 2.4-2.1 4.7c11-8 22.4-15.5 34.3-22.4q-1.2-1.2-2.3-2.4c-3.5-4-4.9-8-2.2-12.7c1.9-3.3 5.1-5.3 5.5-9.6c0.2-2.2-0.3-4.2-0.3-6.3q-0.1-1 0-2.1q0.1-1.1 0.4-2.1q0.3-1 0.8-2q0.4-0.9 1.1-1.8c2.2-2.6 5.4-4.1 8.8-5c-9.4-4.1-21.5-11.6-21.7-22.4c0-4.4 2.7-8.3 5.6-11.5c4.3-4.6 12.7-6 14.8-12.2c1.4-3.9 0.1-8.1 3.2-11.3c2.8-2.8 7.1-3.3 10.8-3q0.6 0 1.2 0.1q0.6 0.1 1.2 0.2q0.6 0.1 1.2 0.2q0.6 0.2 1.2 0.3q2.6-4.2 5.6-8.3c-1.5-2.3-1.8-8-2-9.4q-0.2-1.1-0.3-2.2q-0.2-1.1-0.3-2.2q-0.1-1.1-0.2-2.3q0-1.1-0.1-2.2c0-1.6-0.2-4.2 0.7-5.7c3.4-5.6 6.2 5.8 6.5 7.7q0.3 1.1 0.4 2.3q0.2 1.2 0.4 2.4q0.1 1.1 0.2 2.3q0.1 1.2 0.1 2.4q2.4-2.9 5-5.5c0 0 1.6-2.2 1.6-2.2q0 0 0 0q0 0 0 0q0 0 0 0q0 0 0 0q0 0 0 0q0 0 0 0q0 0 0 0q0 0 0 0c-0.6-3 2.6-7.6 4-10q1.1-2 2.3-3.9q1.3-1.9 2.7-3.7q1.4-1.8 2.9-3.4q1.6-1.7 3.2-3.3c1.7-1.5 8.1-7 7.1-1.4c-0.5 2.7-3.4 5.8-4.8 8q-2.9 4.1-6 8c7.3-5.8 15.6-11.9 24.5-13.8c2.3-0.5 13.3-2.8 11.8 2.7c-0.7 2.9-8.1 4.2-10.1 4.6c-4.6 1.1-9.9 2.6-14.7 2q-1.7 1.2-3.5 2.4q-1.5 1-2.9 2q-1.5 1.1-2.9 2.2q-1.5 1.1-2.9 2.2q-1.4 1.2-2.7 2.4c1.9-0.5 3.5-0.7 4.3-0.9q1.8-0.3 3.5-0.4q1.8-0.1 3.5-0.1q1.8 0 3.6 0.2q1.7 0.1 3.4 0.5c1.5 0.3 5.7 0.8 5.9 2.9c0.3 4-13.2 4.6-15.6 4.9q-2 0.1-4 0.2q-2 0.1-4 0q-1.9 0-3.9-0.1q-2-0.1-4-0.3q-3.9 4-7.3 8.3q1-0.2 2.1-0.4q1-0.2 2.1-0.4q1-0.2 2.1-0.3q1-0.2 2.1-0.3c2.8-0.3 11.7-1.8 12.5 2.5c0.9 5.3-7.3 4.5-10.2 4.4q-1.3 0-2.6-0.1q-1.3-0.1-2.6-0.2q-1.3-0.1-2.6-0.3q-1.3-0.1-2.6-0.3q-0.5-0.1-0.9-0.1q-0.4-0.1-0.8-0.1q-0.5-0.1-0.9-0.2q-0.4-0.1-0.8-0.1q-2.7 3.6-5.1 7.5q2.2 0.9 4.3 2.2q2.1 1.2 3.9 2.8q1.8 1.6 3.3 3.5q1.5 2 2.6 4.1c4.9-9.2 13.7-17.1 23.8-18.9c5.2-0.9 11.6-0.1 15.9 3.3q0.5 0.4 1 0.8q0.4 0.4 0.8 0.9q0.4 0.5 0.6 1.1q0.3 0.6 0.5 1.1c0.6 2.7-1.1 3.4-1.6 5.6c-2.1 8.9 7.8 8.9 9.4 16.2q0 0.1 0 0.1q2.5-2.5 4.7-5.1q-1-1.5-1.8-3.1q-0.9-1.6-1.5-3.2q-0.7-1.7-1.3-3.3q-0.5-1.7-0.8-3.5c-0.5-2.5-2.1-12.9 2.5-12.9c5 0 7.3 10.3 7.8 13.9q0.1 0.6 0.2 1.3q0.1 0.6 0.1 1.3q0.1 0.6 0.1 1.3q0 0.6 0 1.3q1.3-1.8 2.4-3.7q1.2-1.8 2.2-3.7q1.1-1.9 2.1-3.8q1-2 1.8-4q-1.4-1.4-2.6-2.9q-1.2-1.5-2.3-3.2q-1.1-1.6-2.1-3.4q-0.9-1.7-1.7-3.5c-0.8-2.2-4.6-11.2-0.7-12.6c4.4-1.6 9.6 9.4 10.7 12.1q0.2 0.7 0.5 1.4q0.3 0.7 0.5 1.4q0.2 0.7 0.4 1.4q0.2 0.7 0.4 1.5q0.4-1.3 0.8-2.6q0.4-1.3 0.8-2.7q0.3-1.3 0.6-2.6q0.3-1.3 0.6-2.7c-1.2-0.7-13.1-25.3-8.3-25.1c4.6 0.1 8.7 9.4 9.9 12.6q0 0.1 0.1 0.2q0-0.7 0-1.3q0-0.7-0.1-1.3q0-0.7-0.1-1.3q0-0.7-0.1-1.3q-0.3-1.3-0.5-2.7q-0.3-1.3-0.5-2.6q-0.2-1.3-0.3-2.6q-0.2-1.4-0.3-2.7c-0.2-3.6-1-10.8 1.9-13.5q0.2-0.1 0.3-0.2q0.2-0.1 0.4-0.2q0.2 0 0.4 0q0.2 0 0.4 0.1c3 1.9 3.4 8 3.5 11.2q0.1 1.9 0 3.7q-0.2 1.8-0.5 3.6q-0.4 1.8-0.9 3.6q-0.5 1.7-1.3 3.4q0 0 0 0q0 0.1 0 0.1q-0.1 0-0.1 0q0 0.1 0 0.1q0 0.4 0.1 0.8q0 0.4 0 0.9q0 0.4 0 0.8q0 0.4 0 0.8q-0.1 1.9-0.3 3.7q0.9-1.5 1.9-2.9q1-1.3 2.1-2.6q1.1-1.2 2.4-2.3q1.3-1.2 2.6-2.2c1.9-1.4 8.8-6.8 11.5-3.9c2.3 2.5-3.2 7.6-4.6 9.2q-1.8 2.1-3.9 4q-2 2-4.1 3.8q-2.2 1.7-4.5 3.3q-2.3 1.6-4.7 3q0 0 0 0q0 0.1-0.1 0.1q0 0 0 0q0 0-0.1 0q-0.3 1.5-0.6 3q-0.4 1.5-0.8 3q-0.4 1.5-0.9 2.9q-0.4 1.5-0.9 2.9c1.6-1.2 3.2-2.3 3.9-2.9c2.2-1.7 13.6-11 13.8-2.2c0.3 7.8-14.2 10.9-20.5 12.1q-0.9 2-1.8 3.9q-1 1.9-2 3.7q-1 1.9-2.2 3.7q-1.1 1.8-2.3 3.6c1.7-0.7 3.3-1.3 4.3-1.7c2.9-1.3 10-5.4 13-3.2c4.8 3.6-6.8 10.7-8.9 11.6c-2.9 1.3-11.1 4-14.5 1.3q-2.8 3.4-5.9 6.5c-0.1 3.5-1.5 6.9-3 10.1c8.1 0.7 15.8 4 20.3 10.9c3.2 5.1 5.3 12.2 2.6 17.9c-2.4 4.9-6.5 6.6-7 13.1c-0.2 3 0 5.5-1.3 8.3c-5.1 10.9-17.7 13-27.5 8.4q0.5 0.9 0.9 1.7q0.4 0.9 0.7 1.8q0.4 0.9 0.7 1.9q0.3 0.9 0.5 1.8c2.2 8.4 2.4 21.8-7 25.6c-10.2 4.1-22.5 8.5-32.9 2.8c-2.1-1.2-4.1-2.7-5.7-4.5c-1.7-1.8-3.1-3.9-4.1-6.1c-1.1-2.2-1.7-4.6-2-7c-0.3-2.5-0.2-4.9 0.2-7.3c-9.4 7.9-21.1 6.4-30-0.5c-22.2 12.9-42.4 27.8-62.1 44c4.5-1.1 8.9-2.4 12.7-5.1q1.7-1.3 3.4-2.4q1.8-1.1 3.6-2.2q1.8-1 3.7-2q1.8-0.9 3.7-1.7q4.3-1.9 8.8-3.1q4.4-1.3 9-2q4.6-0.7 9.3-0.7q4.6-0.1 9.2 0.4c20.7 2.4 40.8 11.9 56.8 24.8c0.8 0.6 0.3 1.9-0.5 2.3zm63.2-210.8q0 1 0.1 1.9q0 0.9 0.1 1.8q0.1 1 0.2 1.9c0.2 1.7 0.5 3.2 0.7 4.8c1.6-5 2.4-11.2 0.1-15.3c-1.8-3.3-1.1 0.5-1.2 3.1q0 0.9 0 1.8zm-72.7 31.2q-0.4 0.4-0.8 0.8c7.6 0.4 15.1 0.3 22.7-1.4q0.3-0.1 0.7-0.2q0.3 0 0.7-0.1q0.3-0.1 0.7-0.2q0.3-0.2 0.6-0.3q2-0.5-0.1-0.8q-0.4-0.2-0.8-0.3q-0.4 0-0.8-0.1q-0.4-0.1-0.8-0.2q-0.4-0.1-0.8-0.1q-1.2-0.2-2.3-0.3q-1.2-0.1-2.3-0.2q-1.2 0-2.4 0.1q-1.1 0-2.3 0.1q-1.2 0.1-2.4 0.3q-1.2 0.2-2.3 0.5q-1.2 0.3-2.4 0.6q-1.1 0.3-2.3 0.8c-0.3 0.1-1.5 0.5-2.6 1zm33.3-21.9q-1.7 0.4-3.4 1q-1.7 0.6-3.3 1.4q-1.6 0.8-3.1 1.7q1.6-0.2 3.2-0.5q1.6-0.2 3.1-0.6q1.6-0.4 3.2-0.8q1.5-0.4 3.1-0.9c3.7-1.2 5.8-2.6 0.7-2q-1.8 0.3-3.5 0.7zm-34.2 18.7c1.5-1.5 5.2-6.4 5.8-7.2c3-3.8 6-7.8 8.6-11.8q0.4-0.5 0.7-1q0.3-0.4 0.6-0.9q0.3-0.5 0.6-1q0.2-0.5 0.5-1q0 0 0 0q0 0 0 0q0 0 0 0q0 0 0 0q-0.7 0.5-1.3 1q-0.5 0.5-1.1 1q-0.6 0.5-1.2 1q-0.5 0.6-1.1 1.1q-1.2 1.3-2.4 2.7q-1.1 1.4-2.2 2.8q-1.1 1.4-2 2.9q-1 1.5-1.9 3.1c-0.8 1.5-3.3 5.1-3.6 7.3zm-12.5 13.9q0.1-0.2 0.3-0.4q0-0.6 0.1-1.3q0-0.7 0-1.4q0-0.7-0.1-1.4q0-0.7-0.1-1.4q0-0.8-0.1-1.5q0-0.8-0.1-1.6q-0.1-0.8-0.2-1.5q-0.1-0.8-0.2-1.6q-0.1-0.6-0.2-1.2q-0.1-0.6-0.2-1.2q-0.1-0.6-0.3-1.1q-0.1-0.6-0.3-1.2q-0.1-0.2-0.2-0.4q0-0.3-0.1-0.5q-0.1-0.2-0.2-0.4q-0.1-0.2-0.3-0.4q0 0.1 0 0.1q0 0.1 0 0.2q0 0 0 0.1q0 0.1 0 0.1q0 1.5 0 3q0.1 1.5 0.2 2.9q0.1 1.5 0.3 3q0.2 1.4 0.5 2.9c0.2 1.7 0.5 3.5 0.9 5.2q0.1 0.5 0.3 1zm-62.6 66.5c-2.1 1.8-4.3 3.5-6.4 5.3c-7.8 13.1 0.8 27.4 2.5 41.3c5.4-6.6 8.5-13.8 7.1-22.6c-1.3-8-2.6-15.9-3.2-24zm-16.8 11.1c2.9-3.7 7.1-6.9 11.3-10.4c5.2-4.5 10.1-8.1 13.1-14.5q0.4-0.6 0.7-1.2q0.2-0.6 0.5-1.3q0.2-0.6 0.4-1.3q0.2-0.6 0.4-1.3q-0.3 0.3-0.8 0.8q-1 0.9-2 1.8q-1 0.9-2.1 1.7q-1.1 0.7-2.3 1.5q-1.1 0.7-2.3 1.3c-4.2 2.1-8.9 2.7-12 6.6c-3.4 4.4-4.5 10.6-4.9 16.3zm-0.3 19.5q0.7 2.3 1.8 4.5q1 2.1 2.3 4.2q1.3 2 2.8 3.9q1.5 1.9 3.3 3.5q-0.2-1.5-0.4-3q-0.2-1.5-0.5-3q-0.2-1.5-0.5-2.9q-0.3-1.5-0.7-3c-2.3-9.4-4.7-17.6-1.6-26q-0.6 0.6-1.2 1.1c-6.4 5.8-8 12.1-5.3 20.7zm119.7 6.9q-0.1-0.2-0.2-0.3q-0.1-0.2-0.2-0.4q-0.1-0.1-0.2-0.3q-0.1-0.2-0.3-0.3c-5.9-8.9-14.9-16.7-23.5-23.1q2.2 6.4 4.9 12.6q0.5 0.3 0.9 0.6q0.4 0.4 0.6 0.9q0.3 0.4 0.4 1q0.2 0.5 0.1 1c-0.1 2-1.6 4.2-3.8 3.7q-0.6-0.2-1.1-0.5q-0.5-0.3-0.8-0.8q-0.4-0.5-0.5-1.1q-0.2-0.6-0.2-1.2q0.1-0.4 0.2-0.8q0.1-0.4 0.3-0.8q0.2-0.4 0.5-0.7q0.2-0.3 0.6-0.6q-2.3-5.3-4.2-10.7c-1.9 11.1-6.7 22.7-14.2 31q0 0 0 0.1q0 0 0 0.1q0 0 0 0q0 0.1 0 0.1c-5.3 13 3.6 31.1 19.5 29.1q0.7-0.2 1.4-0.3q0.8-0.2 1.5-0.4q0.7-0.2 1.5-0.5q0.7-0.2 1.4-0.5c4.6-1.4 10.2-2 14.5-4.2c10.1-5.2 6.4-22.9 2.1-30.7q-0.6-1-1.2-2zm-20.9-9.3c-0.3-0.1-0.5 0.2-0.5 0.6q0 0.2 0 0.4q0.1 0.2 0.2 0.4q0.1 0.2 0.3 0.3q0.1 0.2 0.3 0.3q0.1 0 0.2 0q0 0.1 0.1 0.1q0.1 0 0.2 0q0 0 0.1 0q0 0 0 0q0.1-0.1 0.1-0.1q0 0 0-0.1q0 0 0-0.1q0 0 0-0.1c0-0.5-0.3-1.6-1-1.7zm49-40.8q-1.4-0.8-2.9-1.5q-1.5-0.6-3-1.1q-1.6-0.5-3.2-0.9q-1.6-0.3-3.2-0.4q-0.2-0.1-0.5-0.1q-0.2 0-0.4 0q-0.3 0-0.5 0q-0.3-0.1-0.5 0c-15.6-0.5-31.4 10.6-38.7 24.1q2.2-0.7 4.4-1.1q2.3-0.3 4.6-0.3q2.3 0 4.6 0.3q2.2 0.4 4.4 1.1q0.1-0.3 0.3-0.5q0.1-0.3 0.4-0.5q0.2-0.3 0.5-0.4q0.2-0.2 0.6-0.3q0.6-0.1 1.2 0q0.6 0.1 1.2 0.4q0.5 0.3 0.9 0.8q0.5 0.5 0.7 1.1c0 0 0 0.1 0 0.1q0 0 0 0.1q0 0 0 0q0 0 0 0q0 0 0.1 0.1q0.1 0.5 0.1 1.1q0 0.6-0.3 1.1q-0.2 0.5-0.6 0.9q-0.5 0.4-1 0.6q-0.6 0.2-1.2 0.1q-0.7-0.1-1.2-0.4q-0.6-0.3-1-0.8q-0.4-0.5-0.7-1q0-0.1 0-0.2q-2.2-0.8-4.4-1.2q-2.3-0.4-4.6-0.3q-2.3 0-4.6 0.5q-2.3 0.5-4.4 1.3c9.1 6.6 19.3 14.9 25.9 24.8q0 0 0 0q0.1 0 0.1 0q0 0 0 0q0 0 0 0c5.9 4.6 13.5 6.4 20.5 3.2q1.7-0.8 3.2-2q1.5-1.1 2.6-2.7q1.2-1.5 1.9-3.2q0.7-1.8 1-3.7c0.2-2.1-0.2-4.2 0.2-6.2c1-5.5 5.8-7.6 7.7-12.5c2.9-7.4-4.3-17-10.2-20.4zm6.2-28.6q-0.9 0.4-1.8 0.8q-0.9 0.5-1.8 0.9q-0.9 0.5-1.8 1q-0.1 0.2-0.2 0.4q-0.1 0.2-0.2 0.4q-0.1 0.2-0.2 0.4q-0.1 0.2-0.3 0.4q0.6 0 1.2 0q0.6 0 1.2-0.1q0.6 0 1.2-0.1q0.6-0.1 1.1-0.2q1.2-0.1 2.3-0.4q1.1-0.3 2.2-0.7q1-0.4 2.1-0.9q1-0.4 2-1c2.5-1.6 4.2-3.6 6.1-5.7h0.1q-0.1 0-0.1 0q-0.1 0-0.1 0q-0.1 0.1-0.1 0.1q-0.1 0-0.2 0c-0.8 0.2-1.6 0.4-2.4 0.6q-1.1 0.4-2.2 0.8q-1 0.3-2.1 0.8q-1 0.4-2.1 0.8q-1 0.5-2 1q-1 0.3-1.9 0.7zm9.1-21.1c-0.4 0.3-0.7 0.7-1.1 1.1q1.7-0.4 3.4-0.8q1.6-0.5 3.3-1.1q1.6-0.6 3.2-1.4q1.5-0.7 3-1.6c1.5-0.9 5.9-4 1-5.2c-2.1-0.5-5.9 3.4-7.4 4.6c-1.8 1.4-3.6 2.9-5.4 4.4zm8.9-26.1q-0.8 1.1-1.6 2.2q-0.7 1.2-1.4 2.4q-0.6 1.3-1.2 2.5q1.1-0.7 2.2-1.5q1.1-0.8 2.2-1.6q1-0.8 2-1.7q1-0.8 2-1.8c2.5-2.3 7.4-6.2 8.5-9.6c0.6-2.1-1.9 0-3.2 0.8q-1.1 0.7-2.1 1.4q-1 0.6-2 1.4q-0.9 0.8-1.8 1.6q-1 0.9-1.8 1.8q-0.9 1-1.8 2.1zm-21 14.3q1 2.3 2.2 4.5q1.2 2.2 2.6 4.2q1.5 2 3.2 3.8q0.1-0.3 0.2-0.6q-0.1-0.5-0.1-1.1q-0.1-0.6-0.3-1.2q-0.1-0.5-0.2-1.1q-0.1-0.6-0.3-1.1q-0.3-1.1-0.6-2.2q-0.3-1-0.7-2q-0.5-1-0.9-2q-0.5-1-1.1-2q-0.4-0.8-0.9-1.5q-0.5-0.8-1.1-1.5q-0.5-0.7-1.1-1.4q-0.7-0.6-1.3-1.2c-2.2-2-1.6-0.6-1.1 1.7q0.6 2.4 1.5 4.7zm-5.6 34.6q0.1-0.1 0.2-0.3q0.1-0.1 0.2-0.2q0.1-0.1 0.2-0.2q0.1-0.1 0.2-0.2q0.2-1 0.2-2.1q0.1-1.1 0.1-2.2q0-1.1-0.1-2.1q-0.1-1.1-0.3-2.2q-0.1-1-0.3-1.9q-0.2-1-0.5-2q-0.3-0.9-0.7-1.8q-0.3-1-0.7-1.9c-0.5-0.8-1.1-2.9-2-3.3q-0.4-1.4-0.7 0.4l-0.1 0.9c-1.1 6.5 1.1 13.4 4.3 19.1zm-54.3 40.5q0.3-2.4 1.2-4.7q0.8-2.2 2.1-4.3q1.3-2 3-3.8q1.7-1.7 3.7-3.1q-0.1-0.1-0.1-0.2q-0.1-0.2-0.1-0.3q0-0.1-0.1-0.2q0-0.2 0-0.3q-0.2-0.8 0-1.5q0.2-0.8 0.6-1.4q0.4-0.7 1-1.1q0.7-0.5 1.4-0.7q0.6-0.2 1.3-0.1q0.6 0 1.2 0.3q0.6 0.2 1.1 0.6q0.5 0.4 0.8 0.9q0 0.1 0.1 0.1q0 0.1 0 0.1q0 0.1 0.1 0.1q0 0 0 0.1q0.2 0.8 0.1 1.6q-0.2 0.8-0.6 1.5q-0.4 0.7-1 1.3q-0.6 0.5-1.4 0.7q-0.3 0.1-0.6 0.2q-0.3 0.1-0.7 0.1q-0.3 0-0.6-0.1q-0.3 0-0.6-0.1q-2.2 1.6-4 3.6q-1.8 2.1-3.1 4.6q-1.2 2.4-1.8 5.1q-0.6 2.7-0.5 5.4q2-3.7 4.6-7q2.6-3.2 5.7-6q3.2-2.8 6.8-4.9q3.6-2.2 7.5-3.7q1.8-0.7 3.7-1.2q1.9-0.5 3.8-0.8q2-0.4 3.9-0.5q2-0.2 3.9-0.2c2.2-4.3 5.1-10.5 2.5-15.2c-2.2-3.8-7.6-4.1-9.5-8c-2.3-4.5 4.2-10.3 0.2-14.1c-4.9-4.7-14.5-2.5-19.7 0.2c-22.1 11.2-21.7 36.1-15.9 57zm-32 2.3c2.8-0.4 5.5-0.5 7.9-0.6q2.6 0 5.1 0.1q2.5 0.2 5.1 0.6q2.5 0.4 4.9 1.1q2.5 0.6 4.9 1.5q-1.2-1.2-2.3-2.5q-1.1-1.3-2.2-2.6q-1-1.3-2-2.7q-1-1.4-1.9-2.8q-0.4 0.2-0.9 0.3q-0.5 0-0.9 0q-0.5-0.1-0.9-0.3q-0.5-0.1-0.8-0.4c-1.4-1.2-1-3.3 0.1-4.4c1.2-1.3 3.6-1.9 5.1-0.8c1.2 1 1.1 2.8 0.3 4.1q1 1.6 2.1 3.1q1.1 1.5 2.2 3q1.2 1.4 2.4 2.8q1.2 1.4 2.6 2.8c-4.2-12.7-7.4-28-3.7-40.7q0.1-0.4 0.2-0.8q0.2-0.5 0.3-0.9q0.2-0.5 0.3-0.9q0.2-0.4 0.4-0.8q-1-2.4-2.5-4.6q-1.5-2.1-3.4-3.9q-1.9-1.9-4.1-3.3q-2.2-1.4-4.6-2.3q-0.1 0-0.1 0q0 0-0.1 0q0-0.1 0-0.1q-0.1 0-0.1 0q-0.9-0.3-1.9-0.6q-0.9-0.2-1.9-0.4q-0.9-0.2-1.9-0.2q-0.9-0.1-1.9-0.1c-11 0-6.5 11.8-12 17.3c-2.2 2.2-5.2 2.8-7.9 4.5c-5.5 3.3-10.9 9.8-8.9 16.5c2.9 9.7 14.2 15.6 23 19zm44.2-20.5q0 0.3 0.1 0.6q0.1 0.4 0.3 0.6q0.3 0.2 0.6 0.3q0.3 0.1 0.6 0.1q0.3 0 0.5-0.2q0.2-0.1 0.4-0.3q0.1-0.3 0.2-0.5q0-0.3-0.1-0.6c-0.5-1.1-2.6-1.7-2.6 0zm-63.1 53.4c-0.9 4.3 1.2 6.7 4.2 9.7c3.9 3.7 8.5 6.7 13.8 7.6c7.3 1.3 13.3-2.1 18-7.1q0.1-0.1 0.2-0.3q0.2-0.1 0.3-0.2q0.1-0.2 0.2-0.3q0.2-0.2 0.3-0.3q1.2-1.4 2.2-2.9q2.4-3.3 4.3-6.9q2-3.5 3.4-7.3q1.5-3.8 2.5-7.8q0.9-4 1.4-8q-1.7 1.2-3.4 2.3q-1.8 1.1-3.6 2.1q-1.8 1-3.7 1.8q-1.9 0.9-3.8 1.6q-0.2 0.7-0.6 1.3q-0.4 0.6-0.9 1.1q-0.6 0.5-1.3 0.7q-0.7 0.3-1.4 0.3q-0.8 0-1.4-0.2q-0.7-0.3-1.3-0.8q-0.5-0.5-0.8-1.1q-0.3-0.7-0.4-1.4q0-0.8 0.3-1.6q0.3-0.7 0.8-1.3q0.5-0.6 1.2-1q0.7-0.4 1.5-0.5q0.6-0.1 1.2 0q0.7 0.1 1.2 0.4q0.6 0.3 1 0.8q0.5 0.5 0.7 1.1q1.9-0.8 3.7-1.6q1.8-0.9 3.6-1.8q1.7-1 3.4-2.1q1.7-1.1 3.3-2.3q-2.2-1.1-4.6-1.9q-2.3-0.9-4.7-1.5q-2.4-0.6-4.8-1q-2.4-0.5-4.9-0.6c-8.5-0.5-25-0.1-25.2 11.5c-0.1 4.6 0.8 8.1-1.6 12.3c-1.5 2.8-3.6 4-4.3 7.2zm33.6-17q-0.2-0.4-0.4-0.6q-0.3-0.3-0.6-0.4q-0.3-0.2-0.7-0.2q-0.2 0-0.4 0.2q-0.3 0.1-0.4 0.3q-0.1 0.2-0.2 0.4q-0.1 0.3 0 0.5q0 0.3 0.1 0.6q0.1 0.3 0.3 0.5q0.2 0.3 0.5 0.4q0.3 0.2 0.6 0.3c0.9 0.2 1.3-0.6 1.3-1.4q0-0.3-0.1-0.6zm26.1 82c-15.7-12.2-35.2-21.3-55.1-23.3q-5-0.6-9.9-0.4q-5 0.2-9.9 1.1q-4.8 0.9-9.5 2.5q-4.7 1.6-9.2 3.9q-1.1 0.7-2.3 1.4q-1.2 0.7-2.3 1.5q-1.2 0.7-2.3 1.5q-1.1 0.8-2.2 1.7c20.2-2.2 39.9 0.2 59.7 4.7c-10.2-0.3-40.6-4.3-60.9-2c30.8 20.6 70.6 24 103.9 7.4z" />
					</g>
				</g>
			</g>
			<path id="Контур_248-2" fill-rule="evenodd" class="s0" d="m-947.1 453.6c-14.6 5-27.4 7.7-42.7 3.7q-3.3-0.8-6.4-2.1q-3.1-1.2-6.1-2.9q-2.9-1.7-5.6-3.7q-2.7-2-5.1-4.4c-1.9-1.9-3.6-3.5-6.6-3.7c-25.8-1.1-48.7-10.7-71.3-25.7c1.5 2.5 2.1 3.8 2.9 4.9c5.3 6.9 10.6 13.9 16.2 20.7c4.5 5.4 9.5 10.5 14.3 15.8q1.3 1.5 2.9 2.7q1.7 1.1 3.6 1.9q1.8 0.7 3.8 0.9q2.1 0.3 4.1 0c9-0.9 17.5 2 24.8 7q2.6 1.9 5.1 3.9q2.5 2 4.9 4.1q2.4 2.2 4.6 4.5q2.3 2.3 4.4 4.7q0.8 1 1.5 2q0.8 1 1.5 2.1q0.7 1.1 1.4 2.2q0.6 1.1 1.2 2.2q-1 0.3-2 0.6q-1 0.3-2 0.6q-1 0.2-2 0.5q-1 0.2-2 0.4c-19.6 3.3-42.3-3.6-50.6-28.1q-0.5-1.4-1.2-2.8q-0.7-1.3-1.5-2.5q-0.9-1.3-1.9-2.4q-1-1.1-2.1-2.1c-4.1-3.8-7.9-8-12.7-11.6c2.9 8.7 5.3 17.7 9 26.2c5.3 11.9 5.6 23.8 1.9 36q-0.4 1.4-0.9 2.9q-0.5 1.4-1 2.8q-0.5 1.4-1.1 2.8q-0.6 1.4-1.2 2.8q-0.4 0.7-0.8 1.5q-0.5 0.8-0.9 1.5q-0.5 0.7-0.9 1.5q-0.5 0.7-1 1.4c-0.3 0.5-2.4-3.8-3.4-5.2q-1.1-1.7-2.1-3.5q-1.1-1.7-2-3.5q-0.9-1.8-1.7-3.7q-0.8-1.9-1.5-3.8c-3.1-8.6-4.1-17.6-0.2-26.3c1.6-3.6 3.9-7.3 6.9-9.6c3.6-2.8 3.8-5.5 3-9.2c-2.7-12.3-8.1-23.3-15.1-33.5q-2.8-4.1-5.7-7.9q-3-3.9-6.2-7.5q-3.3-3.7-6.7-7.1q-3.5-3.5-7.2-6.7c-10.4-9-20.3-18.7-30.4-28.2l4.8-0.9c4.2 3.9 8.3 7.9 12.4 11.9c4.9 4.8 9.9 9.5 15 14.1c2.9 2.7 6.3 5 9.1 7.8c3.4 3.4 7.3 4.3 11.7 3.7c3-0.4 6.1-0.9 9.1-1.5c5.2-1.2 9.3-3.2 12-8.6c2.6-4.9 6.9-9 11.2-12.7c7.4-6.3 16.3-8.5 25.9-6.7q3 0.6 5.9 1.4q2.9 0.9 5.7 2.1q2.8 1.2 5.4 2.8q2.6 1.5 5 3.3c2.4 1.9 6.9 5.7 6.9 5.7c0 0-4.5 3.2-7.2 4.9c-14.1 8.8-29.1 13.9-45.9 9.1c-7.2-2-14.1-3.1-21.4 0.3c-4.1 1.9-9.1 2-14.9 3.1c2.6 1.9 4.5 3.4 6.6 4.7c17.6 11.7 36.7 19.5 57.8 22.1c4.2 0.5 7.7 0.1 11.4-2.4c15.4-10.5 31.3-10.7 47.5-1.5c5.9 3.4 11.9 6.7 17.8 10.4c2.6 1.6 5.9 3.8 7.8 6.3c-1.4 1.9-4.6 3.1-5.8 3.5zm-51.9 38.9c-8.5-15.7-32.8-29.8-46.9-26.7c12 6.3 23 12.9 34.3 18.8c-12.3-5.6-24.8-10.6-37.1-16.2c4.8 19.8 30.7 29.2 49.7 24.1zm-70.3-19.8c-12.7 11.1-12.4 35.5 0.7 48.2c8.9-17.1 9.4-36.3 3.3-46l-4.5 23.5c-1.2-8.6 2-16.8 0.5-25.7zm9.1-70.7c16.8 8.1 43.3 2.9 52.9-9.7c-20.3-18.5-46.3-14.7-58 8.3c13-4.8 24.9-13.4 39.5-8.8c-12.4-0.1-23.5 4.2-34.4 10.2zm113.4 46.9c-11.1-7.2-22.2-14.5-35.2-17.7c-10.9-2.7-20.8 0.6-30.1 6.3c12 1.1 24.3 0.4 35.8 4.5l-35.2-1.4c13.7 15.7 40.9 19.8 65.8 9.3c0.3 0.2-0.4-0.4-1.1-1z" />
			<path id="Контур_249-2" fill-rule="evenodd" class="s0" d="m-1114.9 195.7c-3.3 3.3-6.8 6.6-10.4 9.7c-3.5 2.9-7.1 5.6-10.7 8.5c6.5-6.9 13.1-12.6 19.2-19.6c3.7-4.1 6.9-7.8 6.9-7.8c-1.2-7.4-3.5-22.6-4.2-30.1q-0.1-0.9-0.1-1.7q0-0.9 0.1-1.7q0.1-0.9 0.3-1.7q0.2-0.9 0.4-1.7q0.2-0.5 0.5-0.9q0.3-0.4 0.6-0.7q0.4-0.4 0.9-0.6q0.4-0.2 0.9-0.3q0.6 0 1.1 0.2q0.5 0.2 0.9 0.5q0.4 0.3 0.8 0.7q0.3 0.4 0.6 0.8q0.3 0.8 0.6 1.5q0.2 0.8 0.5 1.5q0.2 0.8 0.3 1.6q0.2 0.7 0.3 1.5q0.4 3.1 0.6 6.2q0.2 3.1 0 6.2q-0.1 3.1-0.5 6.2q-0.4 3-1.1 6.1c-0.2 0.9-0.8 4-0.9 4.9c-0.1 0-0.2-0.1 0 0c0.1 0.1 0 0 0 0q0 0 0 0q0 0 0 0q0 0 0 0q0 0 0 0c3.9-5.3 9.4-12.3 13.4-17.6q0.6-0.8 1.2-1.6q0.5-0.8 1-1.6q0.5-0.9 1-1.8q0.4-0.8 0.8-1.7c-1-5.7-2.6-16.1-3-21.9c-0.2-2.4 0.2-6 2.7-6.1c3.6 0 3.8 6.4 3.9 10.3c0 4.2-0.7 9.6-1.1 13.9c4.1-7.8 9-16.3 12.9-23.7q-1.8-2.6-3.2-5.3q-1.4-2.8-2.5-5.7q-1.1-3-1.9-6q-0.7-3-1-6.1c-0.3-2.1-0.6-4.7 2-5.4c2.7-0.8 3.8 1.8 4.2 3.7c1.4 5.1 2.3 10.3 3.3 15.4q0.4 1.6 0.7 3.2c3-5.2 4.7-10.6 7.1-15.6c1.9-5.1 2.7-7.8 2.7-7.8c-2.1-3.1-12.3-20.6-7.9-22.3c4-1.9 6.3 5.9 7.2 10.2c0.5 2.1 1.4 6.9 2 9q0 0 0 0q0 0 0 0q0 0 0 0q0 0 0 0q0 0 0 0q0 0 0 0c0 0-0.1 0 0 0c0.2 0 0.1 0 0 0c3-11.6 6.8-26 9.7-37.4c-1.2-1.2-8.5-9.7-11.1-13.3c-0.9-1.2-4-6.4-1-8.2c3.5-2 6.1 3.4 6.7 4.6c1.4 2.8 5 10.5 6 12.4c1.3-6.5 2.4-11.8 3.5-17.1c1.8-9.4 4.3-18.6 9.3-26.8c1.3-2 3.5-4.8 4.8-1.4c2.1 5.6-5.8 30.6-13.4 45.9c3.7-3.2 26.6-14.5 28.4-8.2c1.4 4.8-10.5 8.2-13.5 9.1c-4.1 1.3-11.8 2.8-15.8 4.2q-0.7 1.5-1.3 3.1q-0.6 1.6-1.1 3.2q-0.6 1.7-1.1 3.3q-0.5 1.6-0.9 3.3c1.3-1.2 3.5-3.8 4.7-4.8c2.5-2.1 5.1-4.3 7.8-6.2c1.8-1.2 4.2-3.1 6.1-0.7c1.8 2.3-0.6 4.3-2.2 5.8c-2.9 2.8-12.5 9.2-13.4 10c6 1.1 12.8 1.3 18.2 2.6c2.7 0.6 10.7 2.6 9.6 6.5c-1.2 4.4-5.9 3.5-8.3 3.2q-2.6-0.4-5.2-1q-2.6-0.6-5.1-1.4q-2.5-0.8-4.9-1.9q-2.4-1-4.8-2.2c-1.5-0.7-3-1.4-4.7-2.2c-2.1 7-4 13.4-6 20.1c5.2-2.3 9.6-4.4 14.2-6.2c1.7-0.7 6.4-3.2 7.6 0.3c1 2.9-3.4 4-4.9 4.4c-4.9 1.4-12.4 2.4-17.2 3.9c0 0-3.5 7.9-4.7 11.3q1.1-1 2.3-1.9q1.2-0.9 2.4-1.8q1.3-0.8 2.6-1.6q1.3-0.8 2.6-1.4c3.2-1.6 8.1-5.1 10-0.5c2.7 6.6-15.6 9.5-22.1 14.5c3.6 1 16.9 0.7 23.1 6.7c2.5 2 1.5 4.8-1.6 5.4q-0.7 0.2-1.4 0.2q-0.7 0.1-1.5 0.1q-0.7 0-1.4-0.1q-0.7-0.1-1.4-0.3c-4.9-1.4-16.6-7.1-18.4-8q-2.8 6.2-5.9 12.1q-3.1 6-6.5 11.8q-3.4 5.8-7.1 11.5q-3.7 5.6-7.7 11c2.3-0.5 3.5-0.9 4.7-1.1c4.1-0.5 8.3-1.1 12.5-1.4c2.4-0.1 5.2-0.1 6.1 2.9c0.5 2-1.8 3.4-6 4c-1.2 0.2-2.4 0.2-3.6 0.3c-1.6 0.1-3.1 0.1-6 0.2q0.6 0.4 1.3 0.8q0.6 0.5 1.2 1q0.6 0.4 1.2 0.9q0.6 0.5 1.2 1q1.3 1.2 2.6 2.4q1.2 1.2 2.5 2.5q1.2 1.3 2.4 2.6q1.2 1.2 2.4 2.6q0.3 0.5 0.5 1.1q0.2 0.6 0.2 1.2q0 0.7-0.1 1.3q-0.1 0.6-0.4 1.1q-0.5 0.5-1 0.8q-0.5 0.3-1.1 0.5q-0.6 0.2-1.2 0.3q-0.6 0-1.3-0.1q-1.2-0.3-2.4-0.7q-1.1-0.3-2.3-0.8q-1.2-0.5-2.3-1q-1.1-0.6-2.1-1.2c-5.6-3.7-10.8-7.9-16.3-12c-3.2 3.3-6.4 6.8-9.8 10.1zm11.2-11.8c8.3 5.2 23 17.1 25.9 13.9c2.4-2.7-13.3-14.1-22.5-18.3zm57.2-48.7c1.8-2.4-23-7.3-23-7.3c0 0 21.2 9.7 23 7.3zm-5-51.6c5.1 3.8 25.9 9.1 26.2 6.2c0.2-2.6-18.4-5.9-26.2-6.2zm-58.3 66.8c-5-1.2-0.1 19.6 1.4 28.7c0.7-7.7 1.5-28-1.4-28.7zm74-135.2c-3-0.2-10.1 21.2-13.4 42.3c2.4-5.8 16-42 13.4-42.3zm13.2 36.7c-0.9-1.6-18.5 6-22.9 8.8c5.5-1.9 24.6-6.1 22.9-8.8zm-25.7 60.4c-1.2-2.2-14.6 5.9-19 10.8c4.9-2.6 20-9 19-10.8zm12-45.1c-1.3-1.5-13.1 10.6-16.6 13.3c3.5-2.6 17.6-12.2 16.6-13.3zm-16.6 13.3q0 0-0.1 0.1c-0.3-0.4 0.3 0.4 0 0q0.1-0.1 0.1-0.1zm-21.5 48.7c0.3-0.1-4-22.4-5.8-22.5c-3 0 2.1 17.9 5.8 22.5z" />
			<path id="Контур_250-2" fill-rule="evenodd" class="s0" d="m-907.8 275.6c-2.3-0.7-3.3-4.1-2.6-6.6c0.6-2.7 3.2-5.3 6-4.8q0.6 0.1 1.1 0.4q0.6 0.2 1 0.6q0.5 0.4 0.9 0.9q0.3 0.5 0.5 1.1c1.2 2.9-1.1 5.5-1.5 6c-0.4 0.5-2.9 3.2-5.4 2.4zm4.1-3c1.5-1.3 1.1-3.5 1-3.9c-0.1-0.6-0.4-2-1.4-2.4c-1.4-0.5-3.4 1.3-3.9 3.2c0 0.2-0.6 2.5 0.9 3.5q0.4 0.2 0.9 0.3q0.4 0.1 0.9 0q0.4-0.1 0.8-0.2q0.4-0.2 0.8-0.5z" />
			<path id="Контур_251-2" fill-rule="evenodd" class="s0" d="m-979.3 392.1c-0.6-1.7 1.1-3.6 2.8-4.3c1.8-0.7 4.3-0.2 5.2 1.6q0.2 0.4 0.2 0.8q0.1 0.4 0.1 0.9q-0.1 0.4-0.2 0.8q-0.2 0.4-0.4 0.8c-1.2 1.8-3.7 1.6-4.1 1.5c-0.5 0-3.1-0.3-3.6-2.1zm3.4 1.1q0.4 0.1 0.7 0q0.4 0 0.8-0.2q0.3-0.1 0.6-0.3q0.3-0.2 0.6-0.5c0.3-0.3 1-1.1 0.8-1.8c-0.3-1-2.1-1.5-3.5-1c-0.1 0.1-1.7 0.7-1.6 2q0 0.3 0.2 0.6q0.1 0.3 0.3 0.6q0.2 0.2 0.5 0.4q0.3 0.1 0.6 0.2z" />
			<path id="Контур_253-2" class="s0" d="m-1009.3 132.1q0.1 0.2 0.2 0.4q0.1 0.1 0.1 0.3q0 0.2 0 0.4q0 0.2-0.1 0.3q0 0.2-0.1 0.3q-0.1 0.1-0.2 0.2q-0.1 0.1-0.3 0.2q-0.2 0.1-0.4 0.2q-0.2 0-0.5 0q-0.2 0-0.5-0.1q-0.2 0-0.4-0.1q-0.2-0.1-0.3-0.2q-0.2-0.1-0.3-0.3q-0.1-0.1-0.2-0.3q-0.1-0.1-0.2-0.3q-0.1-0.3-0.1-0.6q0-0.3 0.1-0.5q0.1-0.3 0.3-0.6q0.1-0.2 0.4-0.4c0.8-0.4 1.9 0.4 2.3 0.8q0.1 0.2 0.2 0.3z" />
			<path id="Контур_254-2" class="s0" d="m-948.5 397.5q0.1 0.1 0.2 0.3q0.1 0.2 0.1 0.4q0 0.2 0 0.4q0 0.1-0.1 0.2q0 0.2-0.1 0.3q-0.1 0.1-0.2 0.2q-0.1 0.2-0.3 0.2q-0.2 0.1-0.4 0.2q-0.3 0.1-0.5 0q-0.2 0-0.5 0q-0.2-0.1-0.4-0.2q-0.2-0.1-0.3-0.2q-0.2-0.1-0.3-0.2q-0.1-0.2-0.2-0.3q-0.1-0.2-0.2-0.3q-0.1-0.3-0.1-0.6q0-0.3 0.1-0.6q0.1-0.3 0.2-0.5q0.2-0.3 0.4-0.4c0.9-0.5 2 0.3 2.4 0.8q0.1 0.1 0.2 0.3z" />
		</g>
	</g>
</svg>