<svg width="150" height="176" viewBox="0 0 150 176" fill="none" xmlns="http://www.w3.org/2000/svg">
<path d="M0 10C0 4.47715 4.47715 0 10 0H140C145.523 0 150 4.47715 150 10V166C150 171.523 145.523 176 140 176H10C4.47715 176 0 171.523 0 166V10Z" fill="white"/>
<path d="M69.2745 59.3461C68.5923 58.3096 67.5514 56.8201 66.1445 55.1393C63.5147 51.9962 61.8617 50.0216 59.2705 48.8292C58.0803 48.2816 55.0773 47.1561 50.5484 48.2137C51.3442 46.2255 50.6657 45.2526 50.1638 45.1097C49.2854 44.8593 48.7878 46.0854 48.6248 46.3151C48.5814 46.2782 47.7595 45.603 47.0093 45.8789C46.2368 46.1636 45.7294 47.3864 46.2911 48.6239C45.5594 48.4392 45.2226 48.6222 45.0852 48.7265C44.4844 49.1812 44.4941 50.5257 45.2324 52.1581C45.4247 52.5829 45.3845 53.074 45.1096 53.451C44.882 53.7644 44.4577 54.3777 44.2834 54.8829C43.9248 55.9227 43.864 57.0868 44.2904 57.0374C44.5191 57.0107 44.9494 56.3784 45.4182 56.0373C45.982 55.6277 46.49 55.072 46.9577 55.1649C47.7655 55.3251 48.0354 58.1727 50.0378 57.6681C50.9395 57.441 51.423 56.386 51.3958 55.0111C51.536 55.4788 51.7104 56.1992 51.7549 57.089C51.8168 58.3536 51.5854 59.3211 51.1644 60.9106C50.5022 63.4165 50.2925 63.9858 50.1383 64.6301C49.544 67.1142 50.1165 69.2323 50.7032 71.4019C52.1781 76.8597 55.4038 80.4885 57.4496 82.7402C58.7788 84.2031 60.8192 86.2092 63.6826 88.2039C63.4468 88.5902 63.1866 89.1247 63.0405 89.794C62.6618 91.535 63.3143 92.9735 63.5799 93.4879C62.9508 93.0305 62.0159 92.4112 60.8094 91.8207C59.0233 90.9461 56.6141 89.7663 53.653 90.0504C51.1166 90.2943 49.2001 91.5133 48.061 92.4362C48.0104 92.4514 47.6318 92.5747 47.4705 92.9751C47.3233 93.3423 47.471 93.6661 47.4966 93.7188C47.4585 93.8062 47.4102 93.9502 47.4194 94.1295C47.439 94.5255 47.7008 94.8177 47.779 94.8215C47.9578 94.8313 47.9214 94.3951 48.0099 94.2061C49.0654 91.9528 51.8755 91.2721 52.8832 91.0765C52.3003 91.7485 51.7375 92.1445 51.3182 92.3846C50.8086 92.6774 50.4332 92.7844 50.2415 93.2054C50.1595 93.2054 50.0818 93.8084 50.0617 94.2832C50.0562 94.4103 50.0546 94.513 50.0546 94.5716C50.0486 94.7221 50.0579 94.9584 50.1513 95.2257C50.2187 95.4169 50.3561 95.5897 50.4778 95.5527C50.6994 95.4854 50.481 94.8965 50.613 94.6678C50.7907 94.3592 50.9819 94.2669 51.3632 93.86C51.7142 93.4857 51.8869 93.2081 52.0178 93.0327C52.3307 92.6111 52.9777 92.0016 54.4607 91.2047C54.7888 91.1748 55.2348 91.1678 55.7498 91.2629C56.1811 91.3422 56.538 91.4698 56.808 91.5899C56.7021 91.73 56.5815 91.9294 56.5196 92.1863C56.4685 92.3977 56.2789 93.0517 56.7309 93.9752C56.889 94.2979 56.8661 94.5662 56.7309 94.7835C56.626 94.9503 56.4527 95.0307 56.3273 95.072C56.2393 95.085 55.8878 95.1268 55.5765 94.8987C55.4369 94.796 55.4032 94.5896 55.3076 94.5907C55.2413 94.5917 55.1658 94.884 55.249 95.1486C55.3424 95.4397 55.6336 95.6494 55.9807 95.6684C56.0562 95.7244 56.18 95.8004 56.3463 95.8412C56.6988 95.9275 57.0856 95.8162 57.3464 95.5723C57.6973 95.2436 57.6946 94.7949 57.6929 94.6102C57.6891 94.111 57.4382 93.7633 57.3464 93.6482C57.2877 93.4466 57.2067 93.0691 57.2888 92.6095C57.3502 92.2646 57.48 92.0027 57.5778 91.8398C57.9358 91.9022 58.5061 92.031 59.1553 92.3205C59.8664 92.6388 60.3852 93.0235 61.3483 93.7443C62.3 94.4576 62.438 94.6401 63.0024 94.8987C64.0476 95.3773 64.5745 95.2094 64.7342 95.1486C65.064 95.0236 65.2824 94.802 65.4079 94.6488C65.7648 94.7113 66.158 94.7493 66.5812 94.7449C68.6846 94.7227 70.2638 93.6601 71.0254 93.0517C71.5382 93.3733 72.221 93.9084 72.6991 94.764C72.9462 95.2083 72.9288 95.362 73.3341 96.6299C74.0321 98.8159 74.3602 99.219 74.5259 99.4004C74.7975 99.6981 75.2843 100.121 76.1426 100.401C76.1138 100.876 76.06 101.546 75.9497 102.344C75.7303 103.94 75.6102 104.752 75.1224 105.422C74.5384 106.224 73.7415 106.564 73.3531 106.73C72.1564 107.241 70.9145 107.185 70.198 107.153C69.5049 107.123 68.8133 107.244 68.1202 107.23C67.8942 107.226 67.4814 107.213 67.2738 107.481C67.1445 107.647 67.1435 107.86 67.1581 108C67.113 108.077 67.0538 108.203 67.043 108.366C67.0147 108.758 67.27 109.102 67.3314 109.077C67.4265 109.039 67.3575 108.792 67.4852 108.635C67.6047 108.489 67.7845 108.406 68.1012 108.366C68.6373 108.297 69.0464 108.416 69.2745 108.462C69.6716 108.541 70.2589 108.542 71.0634 108.173C71.0042 108.2 70.6973 108.34 70.5636 108.693C70.4588 108.968 70.5202 109.21 70.5441 109.289C70.5071 109.366 70.386 109.643 70.4859 109.962C70.531 110.104 70.5772 110.293 70.6592 110.27C70.7538 110.243 70.7092 110.025 70.7945 109.866C70.945 109.584 71.1297 109.499 71.3714 109.212C71.461 109.106 71.5838 108.942 71.6984 108.712C71.7484 108.609 71.8364 108.461 71.9874 108.327C72.1824 108.154 72.4106 108.071 72.8723 108C73.1945 107.95 73.647 107.905 74.1989 107.923C74.382 108.062 74.6058 108.21 74.873 108.346C75.3071 108.569 75.7118 108.686 76.0274 108.75C76.1105 108.766 76.2708 108.81 76.412 108.943C76.7054 109.219 76.607 109.647 76.6423 109.674C76.6863 109.707 76.8613 109.565 76.9509 109.366C77.0775 109.082 76.9286 108.817 76.9123 108.789C76.9417 108.683 76.9677 108.517 76.8922 108.366C76.8042 108.187 76.6358 108.156 76.1811 107.923C75.6232 107.638 75.6004 107.546 75.5787 107.509C75.5445 107.45 75.5092 107.389 75.5113 107.322C75.5461 106.608 75.8541 106.171 75.9888 105.961C76.2561 105.542 76.3783 105.124 76.6233 104.287C76.7629 103.81 76.827 103.424 76.9509 102.671C77.034 102.159 77.1361 101.459 77.2198 100.612C77.5653 100.462 78.1259 100.175 78.6631 99.6508C79.1401 99.1842 79.5535 98.5747 80.4906 95.8993C80.6715 95.3805 80.923 94.6434 81.2016 93.7443C81.552 93.8079 82.0398 93.8736 82.6254 93.879C82.9166 93.8817 83.9107 93.8915 84.7424 93.6291C86.2841 93.1424 87.1581 91.755 87.4743 91.1857C88.0528 91.2639 88.9133 91.3085 89.8982 91.07C92.1667 90.5213 93.4618 88.8667 94.2071 87.9149C95.6955 86.0142 96.0969 84.1357 96.1893 83.6636C96.5033 82.0427 96.3343 80.6862 96.1692 79.8736C96.6793 79.471 97.4224 78.7713 97.9972 77.6996C98.4958 76.7701 98.6566 75.9547 98.7093 75.6413C98.8413 74.8525 98.806 74.1816 98.7479 73.7172C99.308 72.6584 99.5106 71.7327 99.5937 71.139C99.8094 69.6104 99.5003 68.3876 99.2286 67.3109C98.976 66.3113 98.6599 65.5166 98.4209 64.9831C98.8261 64.9609 100.253 64.8343 101.499 63.6941C101.808 63.411 102.74 62.4848 103.019 60.9426C103.323 59.2554 102.641 57.963 102.441 57.6148C103.012 57.2373 103.815 56.5767 104.403 55.5174C104.709 54.9688 105.119 54.2311 105.076 53.2092C105.03 52.0755 104.455 51.2797 104.212 50.9771C104.57 50.153 104.581 49.4631 104.558 49.0921C104.529 48.6434 104.499 48.1426 104.154 47.7455C103.928 47.4847 103.516 47.2093 102.615 47.168C100.36 47.0659 98.0547 48.5147 98.0547 48.5147C94.5775 50.7012 92.0553 52.2874 88.7623 55.9026C87.5927 57.1873 86.717 58.2977 86.1852 58.9995C85.4942 59.4509 84.8016 59.9061 84.1074 60.3657C83.3121 60.8921 82.5233 61.4179 81.7411 61.9432C80.5492 61.1675 78.5925 60.1006 75.9693 59.5194C73.1217 58.8881 70.7233 59.1038 69.2745 59.3461Z" fill="#DBC4B4"/>
<path d="M55.0097 147.274C54.7097 147.274 54.4757 147.19 54.3077 147.022C54.1517 146.854 54.0737 146.62 54.0737 146.32V135.286C54.0737 134.974 54.1517 134.74 54.3077 134.584C54.4757 134.416 54.7097 134.332 55.0097 134.332C55.3097 134.332 55.5377 134.416 55.6937 134.584C55.8617 134.74 55.9457 134.974 55.9457 135.286V139.93H63.0557V135.286C63.0557 134.974 63.1337 134.74 63.2897 134.584C63.4577 134.416 63.6917 134.332 63.9917 134.332C64.2917 134.332 64.5197 134.416 64.6757 134.584C64.8317 134.74 64.9097 134.974 64.9097 135.286V146.32C64.9097 146.62 64.8317 146.854 64.6757 147.022C64.5197 147.19 64.2917 147.274 63.9917 147.274C63.6917 147.274 63.4577 147.19 63.2897 147.022C63.1337 146.854 63.0557 146.62 63.0557 146.32V141.496H55.9457V146.32C55.9457 146.62 55.8677 146.854 55.7117 147.022C55.5557 147.19 55.3217 147.274 55.0097 147.274ZM70.8065 147.31C70.0985 147.31 69.5045 147.178 69.0245 146.914C68.5565 146.65 68.2025 146.26 67.9625 145.744C67.7345 145.216 67.6205 144.556 67.6205 143.764V139.156C67.6205 138.844 67.6985 138.616 67.8545 138.472C68.0105 138.316 68.2325 138.238 68.5205 138.238C68.8085 138.238 69.0305 138.316 69.1865 138.472C69.3545 138.616 69.4385 138.844 69.4385 139.156V143.782C69.4385 144.49 69.5825 145.012 69.8705 145.348C70.1585 145.684 70.6145 145.852 71.2385 145.852C71.9225 145.852 72.4745 145.624 72.8945 145.168C73.3265 144.7 73.5425 144.088 73.5425 143.332V139.156C73.5425 138.844 73.6205 138.616 73.7765 138.472C73.9325 138.316 74.1605 138.238 74.4605 138.238C74.7485 138.238 74.9705 138.316 75.1265 138.472C75.2825 138.616 75.3605 138.844 75.3605 139.156V146.356C75.3605 146.968 75.0665 147.274 74.4785 147.274C74.2025 147.274 73.9865 147.196 73.8305 147.04C73.6745 146.872 73.5965 146.644 73.5965 146.356V144.826L73.8305 145.222C73.5905 145.894 73.2065 146.41 72.6785 146.77C72.1505 147.13 71.5265 147.31 70.8065 147.31ZM78.8225 147.274C78.5345 147.274 78.3125 147.196 78.1565 147.04C78.0005 146.872 77.9225 146.644 77.9225 146.356V135.25C77.9225 134.95 78.0005 134.722 78.1565 134.566C78.3125 134.41 78.5345 134.332 78.8225 134.332C79.1105 134.332 79.3325 134.41 79.4885 134.566C79.6565 134.722 79.7405 134.95 79.7405 135.25V140.236H79.4885C79.7525 139.564 80.1665 139.06 80.7305 138.724C81.2945 138.376 81.9425 138.202 82.6745 138.202C83.3705 138.202 83.9465 138.334 84.4025 138.598C84.8705 138.85 85.2185 139.24 85.4465 139.768C85.6745 140.284 85.7885 140.938 85.7885 141.73V146.356C85.7885 146.644 85.7105 146.872 85.5545 147.04C85.3985 147.196 85.1765 147.274 84.8885 147.274C84.5885 147.274 84.3605 147.196 84.2045 147.04C84.0485 146.872 83.9705 146.644 83.9705 146.356V141.838C83.9705 141.082 83.8205 140.53 83.5205 140.182C83.2325 139.834 82.7765 139.66 82.1525 139.66C81.4205 139.66 80.8325 139.888 80.3885 140.344C79.9565 140.8 79.7405 141.412 79.7405 142.18V146.356C79.7405 146.968 79.4345 147.274 78.8225 147.274ZM89.1936 147.274C88.9056 147.274 88.6836 147.196 88.5276 147.04C88.3716 146.872 88.2936 146.644 88.2936 146.356V139.156C88.2936 138.856 88.3716 138.628 88.5276 138.472C88.6836 138.316 88.8996 138.238 89.1756 138.238C89.4636 138.238 89.6796 138.316 89.8236 138.472C89.9796 138.628 90.0576 138.856 90.0576 139.156V140.56L89.8596 140.236C90.1236 139.564 90.5376 139.06 91.1016 138.724C91.6656 138.376 92.3136 138.202 93.0456 138.202C93.7416 138.202 94.3176 138.334 94.7736 138.598C95.2416 138.85 95.5896 139.24 95.8176 139.768C96.0456 140.284 96.1596 140.938 96.1596 141.73V146.356C96.1596 146.644 96.0816 146.872 95.9256 147.04C95.7696 147.196 95.5476 147.274 95.2596 147.274C94.9596 147.274 94.7316 147.196 94.5756 147.04C94.4196 146.872 94.3416 146.644 94.3416 146.356V141.838C94.3416 141.082 94.1916 140.53 93.8916 140.182C93.6036 139.834 93.1476 139.66 92.5236 139.66C91.7916 139.66 91.2036 139.888 90.7596 140.344C90.3276 140.8 90.1116 141.412 90.1116 142.18V146.356C90.1116 146.968 89.8056 147.274 89.1936 147.274Z" fill="#DBC4B4"/>
</svg>
