<svg id="Icon_2" xmlns="http://www.w3.org/2000/svg" width="99.119" height="99.118" viewBox="0 0 99.119 99.118">
  <g id="Сгруппировать_16" data-name="Сгруппировать 16" transform="translate(14.814 12.215)">
    <path id="Контур_22" data-name="Контур 22" d="M657.387,135.33a3.79,3.79,0,0,0-4.64-2.672c-3.5.938-6.938,1.86-10.388,2.746a2.488,2.488,0,0,1-1.674-.189c-3.113-1.731-6.183-3.535-9.263-5.325a6.913,6.913,0,0,1-.727-.574c2.526-1.464,5.059-2.69,7.315-4.3a7.379,7.379,0,0,1,7.289-.937c2.445.82,4.951,1.459,7.489,2.1a3.788,3.788,0,0,0,4.59-2.692l.048-.182a3.787,3.787,0,0,0-2.659-4.632l-3.819-1.044,2.961-1.721a3.787,3.787,0,0,0,1.371-5.175l-.076-.132a3.787,3.787,0,0,0-5.158-1.387l-2.989,1.712,1.008-3.857a3.787,3.787,0,0,0-2.692-4.618l-.114-.03a3.786,3.786,0,0,0-4.626,2.658c-.872,3.189-2.109,7.724-2.854,10.416a2.155,2.155,0,0,1-.781,1.221c-3.284,1.948-6.605,3.834-9.92,5.73-.087.05-.229.006-.4.006,0-3.943-.018-7.85.028-11.756a1.987,1.987,0,0,1,.615-1.177c2.011-2.06,4.056-4.085,6.094-6.118.449-.449.9-.9,1.343-1.338a3.787,3.787,0,0,0,.011-5.356l-.358-.36a3.787,3.787,0,0,0-5.381.008q-1.192,1.206-2.426,2.459V95.821a3.788,3.788,0,0,0-3.788-3.787h-.091a3.787,3.787,0,0,0-3.787,3.787v3.1l-.332.131-2.316-2.467a3.788,3.788,0,0,0-5.441-.085l-.1.1a3.787,3.787,0,0,0,.032,5.383c.722.707,1.448,1.42,2.168,2.137,1.977,1.97,3.933,3.961,5.9,5.944.036,2.826.078,5.654.106,8.481.013,1.308,0,2.615,0,4.146-3.664-2.119-7.117-4.1-10.539-6.128a1.88,1.88,0,0,1-.576-1.076c-.7-2.578-1.95-7.17-2.831-10.4a3.786,3.786,0,0,0-4.636-2.659l-.127.034a3.788,3.788,0,0,0-2.682,4.614c.326,1.247.656,2.511,1,3.839l-2.979-1.71a3.788,3.788,0,0,0-5.166,1.4l-.076.131a3.785,3.785,0,0,0,1.375,5.163l2.994,1.743-3.851,1.054a3.786,3.786,0,0,0-2.654,4.641l.029.11a3.786,3.786,0,0,0,4.619,2.675c3.178-.836,7.689-2.021,10.381-2.7a2.525,2.525,0,0,1,1.824.227c2.585,1.4,5.113,2.911,7.661,4.382.725.418,1.448.839,2.364,1.37-3.666,2.118-7.1,4.121-10.566,6.077a1.7,1.7,0,0,1-1.108-.021c-1.583-.41-6.747-1.791-10.535-2.8a3.787,3.787,0,0,0-4.635,2.678l-.036.138a3.787,3.787,0,0,0,2.661,4.635l3.834,1.045L591.7,142.9a3.786,3.786,0,0,0-1.363,5.161l.077.134a3.788,3.788,0,0,0,5.154,1.4l2.986-1.7c-.345,1.321-.674,2.58-1,3.82a3.788,3.788,0,0,0,2.7,4.619l.147.038a3.79,3.79,0,0,0,4.626-2.684c.9-3.369,1.788-6.661,2.638-9.962a3.035,3.035,0,0,1,1.974-2.239,26.045,26.045,0,0,0,4.079-2.165,56.661,56.661,0,0,1,5.226-3.2c0,3.97.036,7.712-.035,11.454a2.7,2.7,0,0,1-.761,1.826c-1.831,1.89-5.051,5.129-7.346,7.433a3.788,3.788,0,0,0,.007,5.351l.21.21a3.787,3.787,0,0,0,5.478-.125l2.484-2.728v3.4a3.788,3.788,0,0,0,3.787,3.788h.188a3.788,3.788,0,0,0,3.787-3.788V159.5l2.567,2.639a3.785,3.785,0,0,0,5.391.037l.054-.054a3.787,3.787,0,0,0,.009-5.35c-2.278-2.29-5.467-5.5-7.3-7.384a2.85,2.85,0,0,1-.76-1.751c-.07-3.478-.037-6.959-.03-10.438,0-.309.065-.618.113-1.052,3.37,1.944,6.62,3.773,9.811,5.7a3.238,3.238,0,0,1,1.214,1.633c.5,1.456.837,2.97,1.238,4.46.514,1.907,1.027,3.815,1.549,5.753a3.792,3.792,0,0,0,4.639,2.678l.143-.039a3.787,3.787,0,0,0,2.684-4.615c-.329-1.257-.66-2.524-1.007-3.856l2.991,1.712a3.786,3.786,0,0,0,5.161-1.4l.076-.132a3.788,3.788,0,0,0-1.377-5.166l-2.978-1.731,3.824-1.037a3.787,3.787,0,0,0,2.664-4.641Z" transform="translate(-588.067 -92.034)" fill="#9b9d70"/>
  </g>
  <g id="Сгруппировать_17" data-name="Сгруппировать 17">
    <path id="Контур_23" data-name="Контур 23" d="M622.039,79.181A49.559,49.559,0,1,0,671.6,128.739,49.615,49.615,0,0,0,622.039,79.181Zm0,93.152a43.593,43.593,0,1,1,43.594-43.594A43.643,43.643,0,0,1,622.039,172.333Z" transform="translate(-572.479 -79.181)" fill="#9b9d70"/>
  </g>
</svg>
