<svg id="Icon_3" xmlns="http://www.w3.org/2000/svg" width="99.118" height="99.118" viewBox="0 0 99.118 99.118">
  <g id="Сгруппировать_27" data-name="Сгруппировать 27">
    <path id="Контур_30" data-name="Контур 30" d="M158.342,99.673a33.022,33.022,0,0,1-1.165,6.963c-.15.534-.341,1.033-.519,1.543a43.429,43.429,0,0,1-5.571,49.182l-17.07-17.07c5.488-1.522,9.653-4.969,13.175-9.395a18.35,18.35,0,0,0-3.994-4.474c-3.644-3.072-7.669-5.355-12.937-5.769,1.107-1.107.481-.4,1.245-1.233a3.049,3.049,0,0,1,2.011-.973,41.67,41.67,0,0,0,5.827-.753c6.792-1.527,11.331-5.554,13.237-12.347a28.093,28.093,0,0,0,.927-10.3c-.045-.468-.172-.927-.258-1.369a28.99,28.99,0,0,0-3.991-.28,27.621,27.621,0,0,0-7.54,1.051A16.331,16.331,0,0,0,130.125,105a27.194,27.194,0,0,0-1.552,8.178,2.762,2.762,0,0,1-.351,1.561,20.088,20.088,0,0,1-1.843,1.873,20.491,20.491,0,0,0-3.4-9.594,24.253,24.253,0,0,0-6.893-7.238,27.683,27.683,0,0,0-2.145,1.888,50.238,50.238,0,0,0-3.9,4.466,20.524,20.524,0,0,0-3.347,6.828L89.627,95.9a43.432,43.432,0,0,1,49.265-5.527c.508-.178,1-.369,1.534-.519a32.687,32.687,0,0,1,6.949-1.164,49.514,49.514,0,0,0-68.867,69.6,7.515,7.515,0,0,1,1.344-1.822l2.73-2.727a43.435,43.435,0,0,1,2.826-53.626l61.461,61.46a43.436,43.436,0,0,1-53.621,2.83l-2.734,2.73a7.523,7.523,0,0,1-1.818,1.342,49.513,49.513,0,0,0,69.647-68.807Z" transform="translate(-68.689 -79.181)" fill="#9b9d70"/>
  </g>
  <g id="Сгруппировать_28" data-name="Сгруппировать 28" transform="translate(13.724 41.784)">
    <path id="Контур_31" data-name="Контур 31" d="M101,161.824a16.215,16.215,0,0,0,16.64.217,26.761,26.761,0,0,0,7.908-6.358c.423-.5.823-1.027,1.266-1.581-4.439-5.393-9.56-9.322-16.792-10.144l6.354-6.354-4.152-4.155-6.264,6.265a24.982,24.982,0,0,0-10.234-16.566,12.15,12.15,0,0,0-1.533,1.209,58.538,58.538,0,0,0-4.574,5.1c-5.074,6.9-5.226,13.849-.581,21.062.8,1.234,1.7,2.4,2.67,3.752l-7.769,7.758a2.769,2.769,0,0,0,3.916,3.916l7.713-7.7C97.5,159.523,99.181,160.79,101,161.824Z" transform="translate(-83.129 -123.146)" fill="#9b9d70"/>
  </g>
</svg>
