<svg id="Logo" xmlns="http://www.w3.org/2000/svg" xmlns:xlink="http://www.w3.org/1999/xlink" width="180.72" height="119.513" viewBox="0 0 180.72 119.513">
  <defs>
    <clipPath id="clip-path">
      <rect id="Прямоугольник_12" data-name="Прямоугольник 12" width="180.72" height="119.513" fill="#022c32"/>
    </clipPath>
  </defs>
  <g id="Сгруппировать_287" data-name="Сгруппировать 287" clip-path="url(#clip-path)">
    <path id="Контур_200" data-name="Контур 200" d="M41.979,179.054a.67.67,0,0,1-.5-.178.709.709,0,0,1-.174-.512v-4.688a.706.706,0,0,1,.178-.52.7.7,0,0,1,.512-.179H44.9a.555.555,0,0,1,.4.132.505.505,0,0,1,.136.38.517.517,0,0,1-.136.387.555.555,0,0,1-.4.132H42.627v1.457h2.1a.543.543,0,0,1,.392.132.613.613,0,0,1,0,.771.531.531,0,0,1-.392.136h-2.1v1.858q0,.69-.647.69" transform="translate(-14.222 -59.558)" fill="#022c32"/>
    <path id="Контур_201" data-name="Контур 201" d="M50.671,179.053a.646.646,0,0,1-.486-.174.684.684,0,0,1-.17-.5v-4.731a.6.6,0,0,1,.665-.673h2.08a2.257,2.257,0,0,1,1.547.486,1.713,1.713,0,0,1,.55,1.355,1.846,1.846,0,0,1-.247.972,1.624,1.624,0,0,1-.716.631,2.64,2.64,0,0,1-1.134.222l.077-.136h.341a1.152,1.152,0,0,1,.627.17,1.35,1.35,0,0,1,.456.529l.537.989a.717.717,0,0,1,.115.413.447.447,0,0,1-.158.324.64.64,0,0,1-.426.123.819.819,0,0,1-.456-.114,1.008,1.008,0,0,1-.311-.363l-.827-1.5a.641.641,0,0,0-.3-.329,1.132,1.132,0,0,0-.456-.081h-.639v1.713a.694.694,0,0,1-.166.5.657.657,0,0,1-.5.174m.665-3.349H52.53a1.244,1.244,0,0,0,.788-.213.768.768,0,0,0,.269-.64.758.758,0,0,0-.269-.631,1.248,1.248,0,0,0-.788-.212H51.336Z" transform="translate(-17.221 -59.558)" fill="#022c32"/>
    <path id="Контур_202" data-name="Контур 202" d="M61.019,179.018a.648.648,0,0,1-.486-.175.682.682,0,0,1-.17-.5v-4.8a.681.681,0,0,1,.17-.5.656.656,0,0,1,.486-.171.667.667,0,0,1,.494.171.681.681,0,0,1,.17.5v4.8a.691.691,0,0,1-.166.5.657.657,0,0,1-.5.175" transform="translate(-20.784 -59.522)" fill="#022c32"/>
    <path id="Контур_203" data-name="Контур 203" d="M67.561,179.026a5.42,5.42,0,0,1-.733-.051,4.323,4.323,0,0,1-.7-.153,2.885,2.885,0,0,1-.592-.256.572.572,0,0,1-.324-.605.663.663,0,0,1,.123-.3.444.444,0,0,1,.269-.17.528.528,0,0,1,.367.064,3.171,3.171,0,0,0,.771.281,3.727,3.727,0,0,0,.823.094,1.606,1.606,0,0,0,.886-.188.56.56,0,0,0,.273-.477.464.464,0,0,0-.192-.4,1.768,1.768,0,0,0-.66-.234l-.963-.2a2.308,2.308,0,0,1-1.21-.592,1.516,1.516,0,0,1-.392-1.087,1.715,1.715,0,0,1,.669-1.385,2.259,2.259,0,0,1,.772-.384,3.575,3.575,0,0,1,1-.132,3.943,3.943,0,0,1,.929.111,2.756,2.756,0,0,1,.818.332.55.55,0,0,1,.226.256.611.611,0,0,1,.043.319.491.491,0,0,1-.4.431.632.632,0,0,1-.392-.077,2.15,2.15,0,0,0-.593-.208,3.26,3.26,0,0,0-.652-.064,1.758,1.758,0,0,0-.61.094.827.827,0,0,0-.379.26.632.632,0,0,0-.128.4.5.5,0,0,0,.174.392,1.422,1.422,0,0,0,.618.247l.955.2a2.547,2.547,0,0,1,1.257.576,1.379,1.379,0,0,1,.414,1.044,1.648,1.648,0,0,1-.179.771,1.739,1.739,0,0,1-.5.589,2.367,2.367,0,0,1-.767.375,3.608,3.608,0,0,1-1.018.132" transform="translate(-22.45 -59.513)" fill="#022c32"/>
    <path id="Контур_204" data-name="Контур 204" d="M77.97,179.026a3.407,3.407,0,0,1-1.658-.38,2.554,2.554,0,0,1-1.062-1.078,3.475,3.475,0,0,1-.367-1.637,3.681,3.681,0,0,1,.209-1.27,2.726,2.726,0,0,1,.61-.98,2.614,2.614,0,0,1,.976-.623,3.721,3.721,0,0,1,1.291-.212,3.855,3.855,0,0,1,.878.1,2.615,2.615,0,0,1,.759.3.684.684,0,0,1,.29.3.606.606,0,0,1,.047.35.619.619,0,0,1-.145.306.523.523,0,0,1-.286.17.542.542,0,0,1-.384-.081,1.944,1.944,0,0,0-.532-.222,2.416,2.416,0,0,0-.576-.068,1.874,1.874,0,0,0-.959.226,1.4,1.4,0,0,0-.58.648,2.552,2.552,0,0,0-.191,1.052,2.6,2.6,0,0,0,.191,1.048,1.394,1.394,0,0,0,.58.661,1.88,1.88,0,0,0,.959.225,2.416,2.416,0,0,0,.559-.068,2.2,2.2,0,0,0,.549-.213.633.633,0,0,1,.392-.081.5.5,0,0,1,.286.153.6.6,0,0,1,.149.3.592.592,0,0,1-.034.342.627.627,0,0,1-.256.285,2.538,2.538,0,0,1-.776.328,3.716,3.716,0,0,1-.921.115" transform="translate(-25.784 -59.513)" fill="#022c32"/>
    <path id="Контур_205" data-name="Контур 205" d="M86.005,179.018a.648.648,0,0,1-.486-.175.682.682,0,0,1-.17-.5v-4.8a.681.681,0,0,1,.17-.5.656.656,0,0,1,.486-.171.667.667,0,0,1,.494.171.681.681,0,0,1,.17.5v1.816h2.787v-1.816a.669.669,0,0,1,.175-.5.682.682,0,0,1,.5-.171.655.655,0,0,1,.486.171.678.678,0,0,1,.17.5v4.8a.679.679,0,0,1-.17.5.647.647,0,0,1-.486.175.61.61,0,0,1-.673-.673v-1.893H86.67v1.893a.691.691,0,0,1-.166.5.657.657,0,0,1-.5.175" transform="translate(-29.387 -59.522)" fill="#022c32"/>
    <path id="Контур_206" data-name="Контур 206" d="M103.97,179.018a.757.757,0,0,1-.448-.123.939.939,0,0,1-.294-.371l-2.14-4.773a.768.768,0,0,1-.068-.46.476.476,0,0,1,.209-.308.8.8,0,0,1,.843.017.972.972,0,0,1,.252.376l1.884,4.364h-.426l1.875-4.364a1.14,1.14,0,0,1,.268-.376.645.645,0,0,1,.431-.128.627.627,0,0,1,.375.111.477.477,0,0,1,.191.308.771.771,0,0,1-.081.46l-2.148,4.773a.837.837,0,0,1-.273.371.751.751,0,0,1-.452.123" transform="translate(-34.779 -59.522)" fill="#022c32"/>
    <path id="Контур_207" data-name="Контур 207" d="M114.913,179.026a3.105,3.105,0,0,1-1.556-.384,2.609,2.609,0,0,1-1.044-1.083,3.46,3.46,0,0,1-.367-1.628,3.681,3.681,0,0,1,.209-1.27,2.781,2.781,0,0,1,.6-.98,2.575,2.575,0,0,1,.942-.622,3.348,3.348,0,0,1,1.215-.213,3.125,3.125,0,0,1,1.564.379,2.635,2.635,0,0,1,1.04,1.074,3.4,3.4,0,0,1,.37,1.624,3.707,3.707,0,0,1-.209,1.279,2.8,2.8,0,0,1-.605.985,2.6,2.6,0,0,1-.942.626,3.321,3.321,0,0,1-1.219.213m0-1.117a1.5,1.5,0,0,0,.857-.239,1.529,1.529,0,0,0,.546-.682,2.66,2.66,0,0,0,.191-1.057,2.235,2.235,0,0,0-.422-1.453,1.43,1.43,0,0,0-1.172-.516,1.543,1.543,0,0,0-.852.23,1.443,1.443,0,0,0-.546.669,2.716,2.716,0,0,0-.188,1.069,2.256,2.256,0,0,0,.422,1.453,1.411,1.411,0,0,0,1.163.525" transform="translate(-38.545 -59.513)" fill="#022c32"/>
    <path id="Контур_208" data-name="Контур 208" d="M124.491,179.018a.592.592,0,0,1-.443-.157.628.628,0,0,1-.153-.456v-4.918a.6.6,0,0,1,.167-.46.645.645,0,0,1,.456-.153.753.753,0,0,1,.405.094.8.8,0,0,1,.268.324l1.969,3.6h-.273l1.969-3.6a.8.8,0,0,1,.268-.324.753.753,0,0,1,.405-.094.6.6,0,0,1,.439.153.617.617,0,0,1,.157.46V178.4a.628.628,0,0,1-.153.456.6.6,0,0,1-.452.157.6.6,0,0,1-.439-.157.618.618,0,0,1-.157-.456v-3.443h.188l-1.594,2.838a.694.694,0,0,1-.209.238.517.517,0,0,1-.294.077.552.552,0,0,1-.315-.081.759.759,0,0,1-.213-.234l-1.594-2.848h.2V178.4a.641.641,0,0,1-.149.456.59.59,0,0,1-.448.157" transform="translate(-42.658 -59.522)" fill="#022c32"/>
    <path id="Контур_209" data-name="Контур 209" d="M142.172,178.985a.691.691,0,0,1-.511-.18.7.7,0,0,1-.179-.52v-4.611a.707.707,0,0,1,.179-.52.7.7,0,0,1,.511-.178h2.063a2.75,2.75,0,0,1,1.091.191,1.542,1.542,0,0,1,.682.542,1.432,1.432,0,0,1,.238.827,1.388,1.388,0,0,1-.307.911,1.492,1.492,0,0,1-.835.5v-.128a1.525,1.525,0,0,1,.954.481,1.447,1.447,0,0,1,.341.993,1.511,1.511,0,0,1-.549,1.24,2.345,2.345,0,0,1-1.522.448Zm.58-3.546h1.253a1.2,1.2,0,0,0,.733-.184.651.651,0,0,0,.239-.55.661.661,0,0,0-.239-.558,1.2,1.2,0,0,0-.733-.183h-1.253Zm0,2.557h1.407a1.176,1.176,0,0,0,.741-.192.7.7,0,0,0,.239-.584.724.724,0,0,0-.239-.6,1.176,1.176,0,0,0-.741-.192h-1.407Z" transform="translate(-48.714 -59.558)" fill="#022c32"/>
    <path id="Контур_210" data-name="Контур 210" d="M151.721,179.018a.655.655,0,0,1-.388-.106.444.444,0,0,1-.183-.294.713.713,0,0,1,.068-.418l2.191-4.79a1,1,0,0,1,.328-.409.762.762,0,0,1,.431-.128.752.752,0,0,1,.435.128,1.022,1.022,0,0,1,.324.409l2.191,4.79a.735.735,0,0,1,.081.422.428.428,0,0,1-.18.29.622.622,0,0,1-.37.106.679.679,0,0,1-.448-.132,1.079,1.079,0,0,1-.277-.422l-.511-1.184.528.366h-3.554l.529-.366-.5,1.184a1.466,1.466,0,0,1-.273.422.581.581,0,0,1-.418.132m2.438-4.671-1.1,2.609-.23-.342H155.5l-.222.342-1.1-2.609Z" transform="translate(-52.04 -59.522)" fill="#022c32"/>
    <path id="Контур_211" data-name="Контур 211" d="M165.355,179.035a3.617,3.617,0,0,1-1.13-.162,2,2,0,0,1-1.321-1.3,3.493,3.493,0,0,1-.165-1.125v-2.907a.59.59,0,0,1,.656-.665.683.683,0,0,1,.494.166.668.668,0,0,1,.17.5v2.907a1.61,1.61,0,0,0,.332,1.1,1.229,1.229,0,0,0,.965.371,1.215,1.215,0,0,0,.954-.371,1.6,1.6,0,0,0,.332-1.1v-2.907a.664.664,0,0,1,.171-.5.681.681,0,0,1,.494-.166.642.642,0,0,1,.468.166.664.664,0,0,1,.171.5v2.907a3.137,3.137,0,0,1-.294,1.431,1.926,1.926,0,0,1-.869.87,3.156,3.156,0,0,1-1.427.29" transform="translate(-56.033 -59.522)" fill="#022c32"/>
    <path id="Контур_212" data-name="Контур 212" d="M174.451,178.985a.691.691,0,0,1-.511-.179.705.705,0,0,1-.18-.52v-4.612a.707.707,0,0,1,.18-.52.693.693,0,0,1,.511-.178h2.975a.525.525,0,0,1,.388.132.513.513,0,0,1,.132.38.465.465,0,0,1-.52.52h-2.4v1.406h2.208a.524.524,0,0,1,.392.132.538.538,0,0,1,.128.388.458.458,0,0,1-.52.511h-2.208v1.509h2.4a.464.464,0,0,1,.52.52.51.51,0,0,1-.132.379.523.523,0,0,1-.388.132Z" transform="translate(-59.828 -59.558)" fill="#022c32"/>
    <path id="Контур_213" data-name="Контур 213" d="M183.581,179.053a.646.646,0,0,1-.485-.174.682.682,0,0,1-.171-.5v-4.731a.6.6,0,0,1,.665-.673h2.08a2.257,2.257,0,0,1,1.547.486,1.713,1.713,0,0,1,.55,1.355,1.846,1.846,0,0,1-.247.972,1.626,1.626,0,0,1-.717.631,2.635,2.635,0,0,1-1.133.222l.077-.136h.341a1.154,1.154,0,0,1,.627.17,1.355,1.355,0,0,1,.456.529l.536.989a.707.707,0,0,1,.115.413.444.444,0,0,1-.157.324.641.641,0,0,1-.427.123.82.82,0,0,1-.456-.114,1,1,0,0,1-.311-.363l-.827-1.5a.643.643,0,0,0-.3-.329,1.134,1.134,0,0,0-.456-.081h-.639v1.713a.694.694,0,0,1-.167.5.656.656,0,0,1-.5.174m.666-3.349h1.193a1.246,1.246,0,0,0,.789-.213.768.768,0,0,0,.269-.64.758.758,0,0,0-.269-.631,1.25,1.25,0,0,0-.789-.212h-1.193Z" transform="translate(-62.984 -59.558)" fill="#022c32"/>
    <path id="Контур_214" data-name="Контур 214" d="M193.887,179.018a.616.616,0,0,1-.456-.157.629.629,0,0,1-.159-.465v-4.867a.685.685,0,0,1,.159-.49.553.553,0,0,1,.422-.167.623.623,0,0,1,.353.085,1.525,1.525,0,0,1,.286.282l2.992,3.818h-.239v-3.572a.611.611,0,0,1,.162-.452.635.635,0,0,1,.469-.162.6.6,0,0,1,.448.162.622.622,0,0,1,.157.452v4.927a.638.638,0,0,1-.145.443.5.5,0,0,1-.393.162.7.7,0,0,1-.379-.09,1.544,1.544,0,0,1-.311-.285l-2.983-3.819h.23V178.4a.631.631,0,0,1-.158.465.617.617,0,0,1-.456.157" transform="translate(-66.547 -59.522)" fill="#022c32"/>
    <path id="Контур_215" data-name="Контур 215" d="M205.018,179.018a.646.646,0,0,1-.485-.175.679.679,0,0,1-.171-.5v-4.8a.678.678,0,0,1,.171-.5.655.655,0,0,1,.485-.171.67.67,0,0,1,.5.171.681.681,0,0,1,.17.5v1.816h2.787v-1.816a.669.669,0,0,1,.174-.5.682.682,0,0,1,.5-.171.655.655,0,0,1,.486.171.678.678,0,0,1,.17.5v4.8a.679.679,0,0,1-.17.5.647.647,0,0,1-.486.175.609.609,0,0,1-.673-.673v-1.893h-2.787v1.893a.692.692,0,0,1-.167.5.656.656,0,0,1-.5.175" transform="translate(-70.365 -59.522)" fill="#022c32"/>
    <path id="Контур_216" data-name="Контур 216" d="M218.5,179.026a3.1,3.1,0,0,1-1.556-.384,2.606,2.606,0,0,1-1.045-1.083,3.46,3.46,0,0,1-.366-1.628,3.666,3.666,0,0,1,.208-1.27,2.78,2.78,0,0,1,.6-.98,2.575,2.575,0,0,1,.942-.622,3.352,3.352,0,0,1,1.216-.213,3.121,3.121,0,0,1,1.564.379,2.631,2.631,0,0,1,1.04,1.074,3.4,3.4,0,0,1,.371,1.624,3.722,3.722,0,0,1-.209,1.279,2.806,2.806,0,0,1-.606.985,2.593,2.593,0,0,1-.942.626,3.321,3.321,0,0,1-1.219.213m0-1.117a1.5,1.5,0,0,0,.857-.239,1.534,1.534,0,0,0,.546-.682,2.649,2.649,0,0,0,.192-1.057,2.231,2.231,0,0,0-.423-1.453,1.431,1.431,0,0,0-1.172-.516,1.544,1.544,0,0,0-.853.23,1.443,1.443,0,0,0-.546.669,2.727,2.727,0,0,0-.188,1.069,2.256,2.256,0,0,0,.422,1.453,1.412,1.412,0,0,0,1.164.525" transform="translate(-74.21 -59.513)" fill="#022c32"/>
    <path id="Контур_217" data-name="Контур 217" d="M228.125,179.054a.67.67,0,0,1-.5-.178.706.706,0,0,1-.174-.512v-4.688a.7.7,0,0,1,.179-.52.69.69,0,0,1,.51-.179h2.908a.553.553,0,0,1,.4.132.505.505,0,0,1,.136.38.517.517,0,0,1-.136.387.553.553,0,0,1-.4.132h-2.276v1.457h2.1a.541.541,0,0,1,.391.132.611.611,0,0,1,0,.771.529.529,0,0,1-.391.136h-2.1v1.858q0,.69-.648.69" transform="translate(-78.315 -59.558)" fill="#022c32"/>
    <path id="Контур_218" data-name="Контур 218" d="M145.23,11.088a4.439,4.439,0,0,0,.317-2.246,5.564,5.564,0,0,0-.778-2.016c-.391-.755-.59-.9-.791-.95s-.325.033-1.065.4a5.2,5.2,0,0,1-1.469.619,2.682,2.682,0,0,1-1.094-.115,18.453,18.453,0,0,1-2.145-.878,3.863,3.863,0,0,0-1.507-.129.231.231,0,0,1-.087.048,2.367,2.367,0,0,0-.821.407,2.317,2.317,0,0,0-.285.262.229.229,0,1,1-.338-.31,2.711,2.711,0,0,1,.344-.315,2.794,2.794,0,0,1,.457-.286l-1.26-1.13c-.285-.227-.464-.236-.576-.2-.628.2-.459,2.245-.432,2.548-2.275-.928-3.174-2.848-4.074-2.231-.191.131-.382.436-.331,1.209.133,2.133.189,3.846.216,5.025.051,2.265.363,7.972.317,8.378a1.794,1.794,0,0,1-.346.806,1.914,1.914,0,0,1-.328.349,2.056,2.056,0,0,1-1.65.4c-.787-.129-1.811-.291-3-.463a73.343,73.343,0,0,0-7.86-.921,30.2,30.2,0,0,0-10.452,1.9A72.793,72.793,0,0,0,99.1,24.044c-2.623,1.122-4.786,2.133-6.335,2.879a5.217,5.217,0,0,1-4.03-.432,21.13,21.13,0,0,1-3.628-2.5,17.536,17.536,0,0,1-4.866-6.133,14.943,14.943,0,0,1-1.468-6.161A17.213,17.213,0,0,1,80.13,5.128,22.773,22.773,0,0,1,81.4,2.335a1.593,1.593,0,0,0-.46-2.073,1.464,1.464,0,0,0-1.785.087,18.039,18.039,0,0,0-4.289,11.977A18.743,18.743,0,0,0,83.154,27.9a49.649,49.649,0,0,1,4.06,2.908c1.008.8,1.93,1.6,2.771,2.376a2.883,2.883,0,0,1,.814,1.349c.3,1.069.549,1.949.734,2.58,1.164,3.972,1.692,5.252,2.016,7.544.125.881.183,1.661.21,2.291a4.162,4.162,0,0,1-.715,2.526l-.013.02a5,5,0,0,1-.645.764,5.4,5.4,0,0,1-1.456.955,2.407,2.407,0,0,0-1.153,1.132,2.555,2.555,0,0,0,.144,2.3l3.743,7.573a3.646,3.646,0,0,0,1.2,1.4,3.324,3.324,0,0,0,1.9.56h2.782a1.965,1.965,0,0,0,1.612-.835,1.936,1.936,0,0,0-.34-2.153,1.164,1.164,0,0,0-.3-.235,5.037,5.037,0,0,0-1.393-.555,3.052,3.052,0,0,1-1.885-1.291l-1.3-2.018a.48.48,0,0,1,.355-.739l.975-.093c2.543-.233,3.057-.207,3.8-.345a7.282,7.282,0,0,0,1.241-.349,7.933,7.933,0,0,0,2.789-1.879,41.894,41.894,0,0,0,2.9-3.233,7.939,7.939,0,0,0,1.448-2.416,7.23,7.23,0,0,0,.414-2.237.306.306,0,0,1,.306-.3h.009a.307.307,0,0,1,.3.315,7.858,7.858,0,0,1-.45,2.427,8.495,8.495,0,0,1-1.547,2.593,43.073,43.073,0,0,1-3.309,3.636,5.474,5.474,0,0,0,.22,1.21,6.132,6.132,0,0,0,1.469,2.419,53.479,53.479,0,0,0,4.819,4.425,6.092,6.092,0,0,0,2.854,1.331l.015,0c.382.064.136-.009,2.217.058a2.81,2.81,0,0,0,1.382-.173,1.612,1.612,0,0,0,.749-.6A1.758,1.758,0,0,0,119,61.762a2.554,2.554,0,0,0-1.555-1.67c-.7-.26-2.152-.173-2.706-.4a5.329,5.329,0,0,1-1.785-1.353,4.789,4.789,0,0,1-1.324-2.62,5.476,5.476,0,0,1,.346-2.217,32.7,32.7,0,0,1,1.094-3.225,10.064,10.064,0,0,0,.4-4.975,8.493,8.493,0,0,1-3.177-3.347.306.306,0,0,1,.541-.287,5.425,5.425,0,0,0,.786,1.262l.506.53a5.433,5.433,0,0,0,3.223,1.636,26.988,26.988,0,0,0,10.167-.6c.567-.485.221-1.852.652-1.909.468-.062.567,1.3.633,2.1.013.155.037.435.052.752a14.218,14.218,0,0,0,.467,2.959c.275,1.029.544,2.074.805,3.141.4,1.626.583,2.591,1.152,5.01.39,1.66.744,3.1,1.03,4.245a3.068,3.068,0,0,0,1.92,2.17,6.245,6.245,0,0,0,1.8.293,10.4,10.4,0,0,0,1.3,0,2.015,2.015,0,0,0,1.3-.738,1.769,1.769,0,0,0,.087-1.858,4.075,4.075,0,0,0-1.324-1.317,2.2,2.2,0,0,1-.9-1.144l0-.011a5.91,5.91,0,0,1-.144-2.3,22.715,22.715,0,0,1,1.67-7.544,16.921,16.921,0,0,1,1.657-2.608.306.306,0,0,1,.51.336c-.34.606-.858,1.171-1.159,1.8l-.167.348a7.7,7.7,0,0,0-.662,4.543c.285,1.785.655,4.083.765,5.342.173,1.987.991,2.7,1.492,2.907l.011,0a4.552,4.552,0,0,0,1.5.23c.241.012.543.02.894.013a1.944,1.944,0,0,0,1.222-.41,1.762,1.762,0,0,0,.159-.149,1.891,1.891,0,0,0,.461-1.67,2.035,2.035,0,0,0-.616-1.148c-.383-.4-1.371-.648-1.861-1.673a5.665,5.665,0,0,1-.46-2.131,23.52,23.52,0,0,1,.2-5.067,27.907,27.907,0,0,1,.547-2.793c.538-2.134.815-2.864,1.152-4.146a35.617,35.617,0,0,0,.95-5.413,44.866,44.866,0,0,0,.23-6.622c-.058-2.572-.073-6.279.123-11.23a7.816,7.816,0,0,1,.9-3.343l.013-.025a10.42,10.42,0,0,1,1.359-1.968,1.8,1.8,0,0,0,.484-1.157V12.3a1.821,1.821,0,0,0-.489-1.209M86.306,27.629a.484.484,0,0,1-.59.1c-.214-.154-.158-.545.014-.748a.442.442,0,0,1,.346-.173.5.5,0,0,1,.23.821m7.5,4.477a.5.5,0,0,1-.475.172.433.433,0,0,1-.043-.864.5.5,0,0,1,.418.1.469.469,0,0,1,.1.59m31.131-1.935a.446.446,0,0,1,.365.38.51.51,0,0,1-.33.567,8.535,8.535,0,0,1-1.238.33,18.232,18.232,0,0,1-1.954.266.555.555,0,0,1-.589-.376c-.028-.2.151-.423.6-.521.5-.111.878-.214,1.416-.336a6.376,6.376,0,0,1,1.731-.309m-1.663-7.019a.485.485,0,0,1,.547.028.52.52,0,0,1,.23.605.5.5,0,1,1-.778-.633m-.426,3.9a.41.41,0,0,1,.461.14.468.468,0,0,1-.01.6,7.882,7.882,0,0,1-.839.814,16.641,16.641,0,0,1-1.438,1.083.507.507,0,0,1-.637-.037c-.11-.145-.068-.4.245-.683.351-.311.6-.562.978-.9a5.83,5.83,0,0,1,1.24-1.018m-4.157,1.125a9.479,9.479,0,0,0,.786-1.05c.356-.518.589-1.06.907-1.484a.535.535,0,0,1,.664-.127.613.613,0,0,1,.177.835,6.532,6.532,0,0,1-1.433,1.994,3.969,3.969,0,0,1-.612.472.431.431,0,0,1-.6-.172.442.442,0,0,1,.113-.468M115.8,24.908a.408.408,0,0,1,.374-.3.467.467,0,0,1,.49.346,7.84,7.84,0,0,1,.2,1.151,16.662,16.662,0,0,1,.087,1.8.505.505,0,0,1-.389.506c-.182.01-.372-.17-.426-.586-.061-.466-.125-.815-.193-1.314a5.831,5.831,0,0,1-.144-1.6m-2.778.256a.613.613,0,0,1,.81.269,6.545,6.545,0,0,1,.993,2.246,4,4,0,0,1,.1.766.431.431,0,0,1-.454.431.441.441,0,0,1-.345-.334,9.7,9.7,0,0,0-.508-1.209c-.267-.57-.617-1.045-.821-1.534a.535.535,0,0,1,.227-.637m-3.009-2.185a.491.491,0,0,1,.432-.014.523.523,0,0,1,.346.532.5.5,0,0,1-.864.216.527.527,0,0,1,.087-.734m-.259,4.074a.5.5,0,0,1,.655-.007,14.808,14.808,0,0,1,1.375,1.058,10.051,10.051,0,0,1,1.151,1.26.489.489,0,0,1-.065.734c-.187.1-.494-.193-.511-.209a16.812,16.812,0,0,0-1.31-1.224c-.419-.334-.835-.62-1.216-.892a.485.485,0,0,1-.079-.719m-1.072,3.6a6.535,6.535,0,0,1,2.361.674,3.959,3.959,0,0,1,.651.416.431.431,0,0,1,.042.624.442.442,0,0,1-.479.052,9.491,9.491,0,0,0-1.254-.384c-.608-.16-1.2-.195-1.7-.351a.535.535,0,0,1-.344-.582.613.613,0,0,1,.726-.449m-3.621-4.39a.888.888,0,0,1,.763-.576.9.9,0,0,1,.561.144.931.931,0,0,1,.432.921.877.877,0,0,1-.561.662.934.934,0,0,1-1.022-.317.921.921,0,0,1-.173-.835M95.925,30.3c.229-.9,1.14-.608,2.3-.258-.055-.117-1.472-1.661-.531-2.155.878-.462,1.208.342,1.966,1.481.114-1.614.8-2.029,1.238-1.825.917.422-.183,1.561-.094,2.277a1.485,1.485,0,0,0,.247.639c.4.458,1.5.478,1.993.654a.766.766,0,0,1,.545.858.735.735,0,0,1-.9.544,6.148,6.148,0,0,0-2.135-.162,1.2,1.2,0,0,0-.85,1.034c-.09.674-.137,2.248-1.344,1.762-.357-.144-.471-1.135.054-2.2-1.246.354-2.037.675-2.233-.123-.222-.9,1.568-1.087,1.713-1.149-1.679-.132-2.164-.594-1.965-1.376m3.943,19.427a.575.575,0,0,1-.706.129.583.583,0,0,1-.26-.4.436.436,0,0,1,.662-.532c.134.055.361.149.418.374a.524.524,0,0,1-.115.432m2.079-8.547c-.52,2.573-.872,3.246-1.7,3.246h-.012a.622.622,0,0,1-.461-.212,1.55,1.55,0,0,1-.3-1.155,6.927,6.927,0,0,1,1.5-3.084c.17-.234.361-.45.551-.668-1.417.583-3.5,3.488-3.928,4.173a2.726,2.726,0,0,1-1.456,1.264,2.026,2.026,0,0,1-.569.088.941.941,0,0,1-.692-.247c-.388-.4-.216-1.21-.125-1.461a4.613,4.613,0,0,1,1.864-2.2,21.211,21.211,0,0,1,4.049-2.008s1.383-.851,1.894-1.132c-.842.17-2.01.466-2.595.645a8.605,8.605,0,0,1-2.4.435c-.1,0-.194,0-.285-.011-.977-.077-1.611-.447-1.614-.94,0-.587,1.021-1.017,1.517-1.133a7.35,7.35,0,0,1,3.05-.015c.13.021.253.041.368.056a18.506,18.506,0,0,0,3.446.184c.8-.393,1.61-.767,2.429-1.1a.4.4,0,0,1,.3.736c-.945.387-1.888.818-2.8,1.282-.193.1-.382.208-.573.31a6.233,6.233,0,0,0-1.466,2.947m6.693-.476a13.848,13.848,0,0,0-2.943,6.261c-.121.93-.311,1.427-.792,1.366-.465-.059-.7-.8-.757-1.469a2.738,2.738,0,0,1,.511-1.765c-.14.139-.81.6-1.058.486-.36-.171-.328-.7.148-1.293a5.265,5.265,0,0,1,1.745-1.4c-.652.019-1.105-.129-1.111-.422-.012-.68,1.944-.979,2.638-1.4.588-.355,1.167-1.327,1.632-.93a.453.453,0,0,1-.013.568m.306-5.225a.408.408,0,0,1-.357-.322.467.467,0,0,1,.265-.538,7.869,7.869,0,0,1,1.106-.38,16.659,16.659,0,0,1,1.762-.367.507.507,0,0,1,.561.3c.037.178-.111.395-.513.513-.45.133-.786.251-1.267.4a5.814,5.814,0,0,1-1.556.392m2.967,1.935a5.832,5.832,0,0,1-1.213,1.05.409.409,0,0,1-.464-.127.467.467,0,0,1-.005-.6,7.862,7.862,0,0,1,.817-.836,16.544,16.544,0,0,1,1.408-1.121.506.506,0,0,1,.637.02c.114.142.079.4-.227.688-.342.321-.588.578-.953.924m2.583.308a9.526,9.526,0,0,0-.588,1.172c-.259.572-.393,1.147-.631,1.62a.534.534,0,0,1-.631.242.613.613,0,0,1-.322-.79,6.541,6.541,0,0,1,1.06-2.216,4.059,4.059,0,0,1,.519-.572.431.431,0,0,1,.623.064.441.441,0,0,1-.029.48m2.855,3.324a.408.408,0,0,1-.415.245.467.467,0,0,1-.433-.414,7.8,7.8,0,0,1-.031-1.168,16.335,16.335,0,0,1,.177-1.791.506.506,0,0,1,.458-.443c.181.017.344.224.336.643-.009.469,0,.824,0,1.328a5.82,5.82,0,0,1-.09,1.6m-1.834-4.593a3.873,3.873,0,0,1-2.159-2.275,3.656,3.656,0,0,1,.374-3.168,4.036,4.036,0,0,1,2.1-1.267,3.585,3.585,0,0,1,1.353-.259,3.423,3.423,0,0,1,2.764,1.842,3.739,3.739,0,0,1,.057,3.139,3.6,3.6,0,0,1-1.986,2.044,3.491,3.491,0,0,1-2.505-.057m4.973,4.074a.612.612,0,0,1-.8-.3,6.524,6.524,0,0,1-.9-2.285,3.994,3.994,0,0,1-.065-.77.431.431,0,0,1,.471-.413.443.443,0,0,1,.332.349,9.474,9.474,0,0,0,.456,1.229c.242.58.572,1.069.755,1.566a.534.534,0,0,1-.253.627m3.24-1.879c-.187.1-.494-.193-.511-.209a17.06,17.06,0,0,0-1.31-1.224c-.419-.335-.835-.62-1.217-.892a.486.486,0,0,1-.079-.72.5.5,0,0,1,.655-.007,14.856,14.856,0,0,1,1.374,1.058,10.061,10.061,0,0,1,1.152,1.26.489.489,0,0,1-.065.734m1.131-3.978a7.914,7.914,0,0,1-1.167-.068,16.616,16.616,0,0,1-1.77-.327.507.507,0,0,1-.4-.494c.032-.179.251-.323.668-.281.467.048.822.065,1.323.113a5.827,5.827,0,0,1,1.589.225.409.409,0,0,1,.209.433.467.467,0,0,1-.448.4M138.578,7.344c.149-.115.472.131.763.346.165.122.365.265.313.394-.041.1-.334.209-.541.427-.153.161-.216.314-.382.362a.2.2,0,0,1-.268-.117c-.077-.192.055-.365.115-.648.08-.377-.172-.629,0-.763m-4.664,8.81a.6.6,0,0,1,.6.072.686.686,0,0,1,.216.806.623.623,0,0,1-.561.4c-.323-.017-.523-.371-.548-.648a.678.678,0,0,1,.289-.633m-3.4,12.265c.418-.309,1.464-.647,1.719-1.2a1.479,1.479,0,0,0,.052-.684c-.122-.71-1.5-1.483-.749-2.152.364-.323,1.137-.123,1.713,1.389.4-1.31.48-2.174,1.454-1.986,1.044.2.134,2.089.115,2.217,1.008-.669,1.8-1.21,2.275-.418.417.691.086,1.274-1.483,1.886.157.018,1.924-.325,1.972.6.043.821-.806.742-2.1.763.811.867.989,1.849.688,2.09-1.015.814-1.516-.679-1.8-1.3a1.2,1.2,0,0,0-1.113-.745,6.156,6.156,0,0,0-2,.773.736.736,0,0,1-1.022-.259.767.767,0,0,1,.273-.979m-3.3-3.728a.762.762,0,0,1,.576.2.879.879,0,0,1,.289.864.786.786,0,0,1-.864.519.806.806,0,0,1-.648-.835.8.8,0,0,1,.648-.748m4.8,18.664c-.231.149-.955-.226-1.112-.346a2.74,2.74,0,0,1,.734,1.684c.03.675-.108,1.436-.562,1.555-.469.123-.721-.346-.961-1.252a13.852,13.852,0,0,0-3.725-5.83c-.151-.178-.21-.426-.087-.561.41-.454,1.11.436,1.738.713.743.327,2.721.371,2.8,1.047.032.292-.4.5-1.047.561a5.264,5.264,0,0,1,1.911,1.166c.548.528.648,1.047.313,1.263m4.47,1.76c-.046.172-.194.26-.356.357a.577.577,0,0,1-.324.119.529.529,0,0,1-.464-.421.634.634,0,0,1,.5-.648.536.536,0,0,1,.41.043.514.514,0,0,1,.237.55m3.488-3.109a.938.938,0,0,1-.673.293,1.971,1.971,0,0,1-.573-.049,2.72,2.72,0,0,1-1.539-1.161c-.473-.655-2.752-3.409-4.206-3.893.2.2.41.407.6.629a6.936,6.936,0,0,1,1.713,2.973,1.55,1.55,0,0,1-.215,1.172.623.623,0,0,1-.445.243h-.012c-.829.057-1.227-.591-1.923-3.122a6.229,6.229,0,0,0-1.665-2.839c-.2-.089-.393-.185-.593-.269-.942-.4-1.911-.766-2.881-1.086a.4.4,0,0,1,.25-.755c.841.277,1.677.594,2.5.932a18.531,18.531,0,0,0,3.425-.42c.113-.024.234-.052.363-.082a7.337,7.337,0,0,1,3.043-.195c.5.081,1.555.439,1.591,1.025.031.493-.576.9-1.546,1.049-.089.013-.184.024-.283.03a8.6,8.6,0,0,1-2.425-.269c-.595-.138-1.781-.353-2.633-.465.529.245,1.967,1,1.967,1a21.181,21.181,0,0,1,4.177,1.725A4.61,4.61,0,0,1,140,40.541c.108.245.335,1.039-.024,1.466m.618-24.528a.446.446,0,0,1-.159.317.517.517,0,0,1-.518-.892.473.473,0,0,1,.49.058.563.563,0,0,1,.187.518" transform="translate(-25.776 0)" fill="#022c32"/>
    <path id="Контур_219" data-name="Контур 219" d="M204.953,70.215a1.749,1.749,0,0,0-1.583-.4,4.858,4.858,0,0,0-2.432,1.236l-.494.429a37.589,37.589,0,0,1-5.631,4.249c-.671.409-1.366.791-2.068,1.158a40.027,40.027,0,0,0,3.6-4.249c1.182-1.334,2.33-2.617,3.473-3.876a21.86,21.86,0,0,0,3.813-5.7c.012-.027,1.1-2.832.321-4.171a1.285,1.285,0,0,0-1.03-.643c-.839-.089-1.961,1.182-2.864,3.242-.376.9-.755,1.825-1.124,2.744-.494,1.231-.842,2.128-1.122,2.85-.463,1.2-.742,1.919-1.186,2.846a27.7,27.7,0,0,1-1.485,2.686q-.939,1.233-1.97,2.385c.371-.906.717-1.823,1.006-2.747.836-2.678,2.1-6.727.464-9.029a1.148,1.148,0,0,0-1-.572c-.541.032-1.28.57-1.582,1.985a27.862,27.862,0,0,0,.108,5.572c.046.534.081.957.086,1.182a14.522,14.522,0,0,1-.193,3.415q-.081.4-.193.8a4.192,4.192,0,0,1-1.16,1.921l-.007.007a38.913,38.913,0,0,1-4.094,3.326.49.49,0,0,0,.283.89.483.483,0,0,0,.281-.09c1.037-.731,2.042-1.519,3.006-2.348a5.745,5.745,0,0,1,2.065-1.139l.113-.035c.4-.129.8-.275,1.191-.436a5.564,5.564,0,0,1,1.218-.337A30.29,30.29,0,0,0,200.6,75.8a10.037,10.037,0,0,0,3.132-1.912,4.16,4.16,0,0,0,1.49-2.63,1.383,1.383,0,0,0-.271-1.043" transform="translate(-64.179 -20.054)" fill="#022c32"/>
    <path id="Контур_220" data-name="Контур 220" d="M60.777,70.215a1.749,1.749,0,0,1,1.583-.4,4.857,4.857,0,0,1,2.432,1.236l.494.429a37.589,37.589,0,0,0,5.631,4.249c.671.409,1.366.791,2.068,1.158a40.022,40.022,0,0,1-3.6-4.249c-1.182-1.334-2.33-2.617-3.473-3.876a21.86,21.86,0,0,1-3.813-5.7c-.012-.027-1.1-2.832-.321-4.171a1.285,1.285,0,0,1,1.03-.643c.839-.089,1.961,1.182,2.864,3.242.376.9.755,1.825,1.124,2.744.494,1.231.842,2.128,1.122,2.85.463,1.2.742,1.919,1.186,2.846a27.7,27.7,0,0,0,1.485,2.686q.939,1.233,1.97,2.385c-.371-.906-.717-1.823-1.006-2.747-.836-2.678-2.1-6.727-.464-9.029a1.148,1.148,0,0,1,1-.572c.541.032,1.28.57,1.582,1.985a27.863,27.863,0,0,1-.108,5.572c-.046.534-.081.957-.086,1.182a14.523,14.523,0,0,0,.193,3.415q.081.4.193.8a4.192,4.192,0,0,0,1.16,1.921l.007.007a38.914,38.914,0,0,0,4.094,3.326.49.49,0,0,1-.283.89.483.483,0,0,1-.281-.09c-1.037-.731-2.042-1.519-3.005-2.348a5.754,5.754,0,0,0-2.065-1.139l-.113-.035c-.4-.129-.8-.275-1.191-.436a5.564,5.564,0,0,0-1.218-.337A30.29,30.29,0,0,1,65.127,75.8,10.037,10.037,0,0,1,62,73.888a4.16,4.16,0,0,1-1.49-2.63,1.383,1.383,0,0,1,.271-1.043" transform="translate(-20.83 -20.054)" fill="#022c32"/>
    <path id="Контур_221" data-name="Контур 221" d="M181.6,81.572a1.123,1.123,0,0,0-.807-.087,1.186,1.186,0,0,0-.806,1.152,1.235,1.235,0,0,0,1.037,1.151,1.2,1.2,0,0,0,1.267-.6,1.314,1.314,0,0,0-.691-1.612" transform="translate(-61.971 -28.042)" fill="#022c32"/>
    <path id="Контур_222" data-name="Контур 222" d="M205.927,93a1.039,1.039,0,0,0-1.238.029,1.008,1.008,0,0,0,.029,1.238,1.048,1.048,0,0,0,.806.432.962.962,0,0,0,.95-.749c.085-.557-.5-.919-.547-.95" transform="translate(-70.408 -31.955)" fill="#022c32"/>
    <path id="Контур_223" data-name="Контур 223" d="M202.958,55.179c-.033-.03-.546-.471-.979-.23a.879.879,0,0,0-.288,1.037.9.9,0,0,0,.806.633.835.835,0,0,0,.806-.72.892.892,0,0,0-.346-.72" transform="translate(-69.426 -18.895)" fill="#022c32"/>
    <path id="Контур_224" data-name="Контур 224" d="M79.5,58.766a1.04,1.04,0,0,0-.95,0,.983.983,0,0,0-.389,1.209,1.076,1.076,0,0,0,.907.562.912.912,0,0,0,.432-1.771" transform="translate(-26.885 -20.193)" fill="#022c32"/>
    <path id="Контур_225" data-name="Контур 225" d="M93.431,74.956a.766.766,0,0,0-.259,1.382.79.79,0,0,0,1.209-.778.808.808,0,0,0-.95-.6" transform="translate(-31.965 -25.803)" fill="#022c32"/>
    <path id="Контур_226" data-name="Контур 226" d="M74.793,94.962a1.2,1.2,0,0,0-1.123.216,1.088,1.088,0,0,0,.26,1.555,1.146,1.146,0,0,0,1.382-.3.82.82,0,0,0-.518-1.468" transform="translate(-25.29 -32.679)" fill="#022c32"/>
    <path id="Контур_227" data-name="Контур 227" d="M29.522,126.372a13.055,13.055,0,0,0-5.094-1.427c8.965-2.928,14.435-6,16.311-9.185a4.737,4.737,0,0,0,.607-3.741c-1.483-5.488-10.606-6.516-18.643-5.645C11.315,107.6,2.473,113.584.721,116.585a3.776,3.776,0,0,0-.354,3.8,3.771,3.771,0,0,0,4.284,1.477,1.029,1.029,0,0,0,.766-1.09.986.986,0,0,0-1.3-.8c-.428.151-1.638.147-2.033-.552-.335-.594.176-1.561.341-1.844,1.486-2.547,10.066-8.121,20.492-9.248,8.947-.968,15.592.723,16.533,4.2a2.809,2.809,0,0,1-.4,2.229c-1.364,2.313-5.968,5.754-19.626,9.658a67.009,67.009,0,0,1,12.315-12.162.983.983,0,0,0-1.189-1.566,68.939,68.939,0,0,0-14.223,14.58q-.807.214-1.65.429-.386.087-.773.183a.989.989,0,1,0,.471,1.922l.26-.066a69.021,69.021,0,0,0-7.186,14.316.984.984,0,1,0,1.849.672,67.041,67.041,0,0,1,8.1-15.55c5.141-.814,9.17-.23,11.158.9a2.511,2.511,0,0,1,1.287,1.344c1,3.679-3.566,7.013-5.575,8.276a16.359,16.359,0,0,1-10.835,2.489.983.983,0,1,0-.363,1.933,12.485,12.485,0,0,0,2.289.2,19.076,19.076,0,0,0,9.955-2.952c5.034-3.162,7.376-6.974,6.427-10.458a4.369,4.369,0,0,0-2.21-2.536" transform="translate(0 -36.531)" fill="#022c32"/>
    <path id="Контур_228" data-name="Контур 228" d="M100.9,133.99c-3.46,2.755-5.944,3.368-7.16,3.345a.646.646,0,0,1-.6-.843,13.47,13.47,0,0,1,.984-2.3,1.089,1.089,0,0,0-.335-1.423l-.022-.015a1.039,1.039,0,0,0-1.45.3,6.973,6.973,0,0,1-4.52,3.092c-.218-.011-.215-.1-.227-.313-.047-.839,2.131-2.9,4.2-3.858,1.317-.611,2.164-.635,2.518-.452.071.037.259.134.341.574a.983.983,0,0,0,1.359.723,1.013,1.013,0,0,0,.567-1.13,2.618,2.618,0,0,0-1.364-1.916c-1.041-.536-2.509-.391-4.249.417a11.949,11.949,0,0,0-5.011,4.559c-.011.008-.023.012-.033.02-3.478,2.608-6.51,3.344-7.323,2.53-.459-.459-.329-1.778.263-3.53,1.369-1.21,2.9-2.7,4.578-4.336,1.865-1.817,3.979-3.876,6.2-5.856,2.474-2.21,7.074-7.351,7.169-9.121a1.214,1.214,0,0,0-1.323-1.31c-1.93.06-8.387,4.519-13.009,10.319a37.378,37.378,0,0,0-5.291,9.161c-.619.534-1.2,1-1.729,1.372-3.916,2.937-7.1,4-7.8,3.3-.6-.6-.192-2.681.946-5.274,2.677-2.043,5.981-4.777,10.09-8.448,2.474-2.209,7.075-7.35,7.169-9.121a1.222,1.222,0,0,0-.306-.912,1.254,1.254,0,0,0-1.016-.4c-1.931.061-8.386,4.52-13.009,10.319A39.676,39.676,0,0,0,67,130.764c-4.139,3.124-7.239,4.908-9.372,5.407-2.376.555-3.98.37-4.785-.57a2.665,2.665,0,0,1-.49-1.86c3.348-.869,5.238-2.647,5.637-4.086A1.61,1.61,0,0,0,57.615,128c-1.111-1.048-3.564-.215-5.158,1.218-2.23,2.005-2.769,5.731-1.091,7.686,1.323,1.543,3.516,1.931,6.709,1.185,1.437-.336,3.634-1.172,7.672-3.982-.509,1.928-.486,3.609.5,4.591,2.385,2.389,8.146-1.478,10.147-2.953a3.573,3.573,0,0,0,.8,2.953,3.276,3.276,0,0,0,2.413.9,12.511,12.511,0,0,0,6.09-2.283,1.578,1.578,0,0,0,.17.222,2.1,2.1,0,0,0,1.747.6,8.055,8.055,0,0,0,3.431-1.273,2.036,2.036,0,0,0,.41,1.57,3.01,3.01,0,0,0,2.365.867c2.033,0,4.988-1.113,8.313-3.762a.984.984,0,0,0-1.225-1.539M83.989,124.7a39.264,39.264,0,0,1,9.957-8.865,42.809,42.809,0,0,1-5.642,6.284c-2.249,2.008-4.379,4.084-6.259,5.914l-.959.934a34.994,34.994,0,0,1,2.9-4.268m-10.943,0A39.271,39.271,0,0,1,83,115.831a42.823,42.823,0,0,1-5.643,6.285q-3.481,3.109-6.413,5.523a34.56,34.56,0,0,1,2.1-2.942m-19.273,5.981a4.956,4.956,0,0,1,2.111-1.138,6.114,6.114,0,0,1-2.76,1.89,4.043,4.043,0,0,1,.65-.753" transform="translate(-17.347 -38.959)" fill="#022c32"/>
    <path id="Контур_229" data-name="Контур 229" d="M254.678,140.3a.986.986,0,0,0-1.383-.157c-3.885,3.094-6.539,3.486-7.55,3.311a.382.382,0,0,1-.3-.477,11.932,11.932,0,0,1,1-2.284,1.08,1.08,0,0,0-.332-1.412l-.012-.008a1.067,1.067,0,0,0-1.382.17,9.826,9.826,0,0,1-4.387,2.816.282.282,0,0,1-.3-.38,9.2,9.2,0,0,1,4.141-3.747c1.317-.611,2.164-.635,2.518-.452.071.036.26.133.342.573a.983.983,0,0,0,1.36.723,1.014,1.014,0,0,0,.564-1.132,2.612,2.612,0,0,0-1.364-1.912c-1.041-.536-2.509-.391-4.248.416a11.83,11.83,0,0,0-2.822,1.907h0c-3.853,2.076-5.666,2.7-6.5,2.869.385-.581,1.024-1.4,1.536-2.048l.423-.54a1.385,1.385,0,0,0,.041-1.639,1.3,1.3,0,0,0-1.448-.521q-.181.054-.348.1c2.1-2.324,2.349-3.349,2.265-4.036a1.508,1.508,0,0,0-.745-1.138,2.317,2.317,0,0,0-2.172-.039A7.121,7.121,0,0,0,230,135.469a2.5,2.5,0,0,0,.378,2.063,13.8,13.8,0,0,1-5.217,2.99.472.472,0,0,1-.563-.5,8.136,8.136,0,0,1,.624-2.2,1.038,1.038,0,0,0-.839-1.476c-.81-.077-1.505.856-1.936,1.2-.972.784-3.241,2.851-4.4,3.1a.512.512,0,0,1-.631-.512c.05-1.151,2.154-3.425,3.248-4.608a.983.983,0,1,0-1.443-1.336c-2.231,2.41-5.287,5.712-2.972,7.868,1.508,1.4,3.879.329,6.382-2.141a2.389,2.389,0,0,0,.658,2.022c1.974,1.818,6.622-1.325,8.88-3.377a4.811,4.811,0,0,0,1.262.041c-1.446,1.866-2.157,2.98-1.421,3.9a1.725,1.725,0,0,0,1.475.639,12.03,12.03,0,0,0,4.484-1.4,3.029,3.029,0,0,0-.088.338,1.73,1.73,0,0,0,.379,1.595,2.1,2.1,0,0,0,1.747.6,8.045,8.045,0,0,0,3.431-1.273,2.043,2.043,0,0,0,.41,1.571,3.015,3.015,0,0,0,2.366.866c2.032,0,4.987-1.113,8.313-3.762a.985.985,0,0,0,.157-1.382m-22.789-4.213a.848.848,0,0,1,.022-.159,5.27,5.27,0,0,1,2.429-2.853l.035-.014a14.973,14.973,0,0,1-2.487,3.027" transform="translate(-74.172 -45.111)" fill="#022c32"/>
    <path id="Контур_230" data-name="Контур 230" d="M168.049,136.628l-.09.09c-2.549,2.567-4.82,3.8-5.961,3.2-.233-.118-.938-.478-1.039-2.009-.291-4.489,3.381-10.821,6.333-15.91,2.821-4.866,4.861-8.381,4.142-10.568a2.411,2.411,0,0,0-1.375-1.482c-2-.871-6.672,2.845-6.87,3a65.7,65.7,0,0,0-11.216,11.572l-.4.527c-1.553,2.023-4.485,5.843-7.054,9.071,3.3-5.7,8.508-14.363,13.634-22.834a5.753,5.753,0,0,0,.658-1.468,3.038,3.038,0,0,0-.4-2.905,2.945,2.945,0,0,0-2.619-.9c-4.845.424-12.027,7.638-13.239,12.206a2.9,2.9,0,0,0,.462,2.7,2.208,2.208,0,0,0,1.861.811.984.984,0,0,0-.151-1.962.237.237,0,0,1-.2-.108,1.084,1.084,0,0,1-.072-.942c1.286-4.847,8.409-10.479,11.509-10.751a1.159,1.159,0,0,1,.936.2,1.4,1.4,0,0,1,.016,1.125,3.891,3.891,0,0,1-.444.97c-18.253,30.165-18.095,30.267-16.863,31.06,1.031.662,1.305.842,13.525-15.082l.4-.527a63.691,63.691,0,0,1,10.884-11.233c1.915-1.534,4.279-2.762,4.894-2.718a.426.426,0,0,1,.252.275c.443,1.349-1.9,5.4-3.975,8.967-3.245,5.6-6.925,11.939-6.594,17.024a4.166,4.166,0,0,0,2.13,3.646,3.248,3.248,0,0,0,1.528.367c2.25,0,4.8-2.031,6.7-3.947l.077-.077a.984.984,0,0,0-1.383-1.4" transform="translate(-47.905 -36.497)" fill="#022c32"/>
    <path id="Контур_231" data-name="Контур 231" d="M210.038,123.337c1.661.073,2.767.129,2.807.13A50.249,50.249,0,0,0,226,122.335a.984.984,0,0,0-.416-1.922,48.364,48.364,0,0,1-12.64,1.09c-.1-.005-.606-.031-1.378-.067.964-1.2,1.945-2.428,2.9-3.613a.985.985,0,0,0-1.524-1.249c-.89,1.093-2.308,2.857-3.84,4.752-4.72-.2-12.415-.473-15.113-.254a12.556,12.556,0,0,0-1.695.271,10.993,10.993,0,0,0-2.1.746.984.984,0,1,0,.843,1.778,8.929,8.929,0,0,1,1.723-.612,10.413,10.413,0,0,1,1.392-.223c2.313-.189,8.736.013,13.409.2-.806.993-1.606,1.976-2.343,2.872a76.371,76.371,0,0,1-8.563,8.914l-.018.018-.012.008c-3.728,2.968-6.321,3.45-7.418,3.33a.452.452,0,0,1-.374-.609,18.149,18.149,0,0,1,1.03-2.14,1.078,1.078,0,0,0-.335-1.408,1.062,1.062,0,0,0-1.37.135,10.476,10.476,0,0,1-4.316,2.779.356.356,0,0,1-.43-.488c.352-1.271,2.169-2.717,4.09-3.61,1.317-.611,2.163-.635,2.518-.452.071.037.259.134.341.574a.984.984,0,0,0,1.362.721,1.018,1.018,0,0,0,.561-1.136,2.613,2.613,0,0,0-1.363-1.907c-1.041-.536-2.509-.391-4.249.417-2.546,1.184-5.1,3.866-5.465,5.739a1.728,1.728,0,0,0,.38,1.595,2.1,2.1,0,0,0,1.747.6,8.056,8.056,0,0,0,3.431-1.273,2.039,2.039,0,0,0,.41,1.571,3.014,3.014,0,0,0,2.365.866c1.917,0,4.659-1.008,7.753-3.341-2.265,4.664-2.734,7.707-1.487,9.443a.984.984,0,1,0,1.6-1.148c-.37-.515-.819-2.147,1.435-6.962a29.035,29.035,0,0,1,3.916-6.147l3.983-4.834c.966-1.138,2.1-2.53,3.3-4.019" transform="translate(-62.376 -40.014)" fill="#022c32"/>
  </g>
</svg>
