<svg id="Сгруппировать_444" data-name="Сгруппировать 444" xmlns="http://www.w3.org/2000/svg" xmlns:xlink="http://www.w3.org/1999/xlink" width="57.879" height="60.434" viewBox="0 0 57.879 60.434">
  <defs>
    <clipPath id="clip-path">
      <rect id="Прямоугольник_88" data-name="Прямоугольник 88" width="57.879" height="60.434" fill="#f4a173"/>
    </clipPath>
  </defs>
  <g id="Сгруппировать_438" data-name="Сгруппировать 438" transform="translate(0 -0.001)" clip-path="url(#clip-path)">
    <path id="Контур_272" data-name="Контур 272" d="M53.565,36.449A19.627,19.627,0,1,0,19.906,50.213L11.371,60.854l5.723,1.895,3.092,5.175,9.782-12.2a19.549,19.549,0,0,0,3.924.4h.026a19.883,19.883,0,0,0,3.985-.409l9.792,12.208,3.092-5.175,5.722-1.895L47.963,50.2a19.5,19.5,0,0,0,5.6-13.754m-19.7,13.672a13.626,13.626,0,0,1,.131-27.251h.021a13.626,13.626,0,0,1-.151,27.251" transform="translate(-5.05 -7.49)" fill="#f4a173"/>
    <path id="Контур_273" data-name="Контур 273" d="M42.828,31.477a11.507,11.507,0,0,0-.12,23.014h.029a11.507,11.507,0,0,0,.09-23.014m4.144,17.265-4.2-2.205-4.2,2.205.8-4.671-3.394-3.308,4.69-.682,2.1-4.251,2.1,4.251,4.69.682L46.171,44.07Z" transform="translate(-13.887 -13.978)" fill="#f4a173"/>
    <path id="Контур_274" data-name="Контур 274" d="M9.226,45.281C-4.351,29.881,7.651,2.788,28.89,3.507c21.233-.719,33.245,26.378,19.663,41.774l2.194,2.734a28.965,28.965,0,0,0-21.857-48C4.435-.818-9.117,30.7,7,48.051l2.222-2.77" transform="translate(0 0)" fill="#f4a173"/>
    <path id="Контур_275" data-name="Контур 275" d="M46.023,97.644a25.43,25.43,0,0,1-5.018-.5l-2.423,3.02a29.443,29.443,0,0,0,14.881,0l-2.423-3.02a25.43,25.43,0,0,1-5.018.5" transform="translate(-17.133 -43.139)" fill="#f4a173"/>
  </g>
</svg>
