<svg id="Logo" xmlns="http://www.w3.org/2000/svg" xmlns:xlink="http://www.w3.org/1999/xlink" width="151.56" height="100.228" viewBox="0 0 151.56 100.228">
  <defs>
    <clipPath id="clip-path">
      <rect id="Прямоугольник_12" data-name="Прямоугольник 12" width="151.56" height="100.228" fill="#fefffd"/>
    </clipPath>
  </defs>
  <g id="Сгруппировать_287" data-name="Сгруппировать 287" clip-path="url(#clip-path)">
    <path id="Контур_200" data-name="Контур 200" d="M41.871,178.073a.562.562,0,0,1-.419-.15.6.6,0,0,1-.146-.429v-3.932a.592.592,0,0,1,.15-.436.583.583,0,0,1,.429-.15h2.438a.465.465,0,0,1,.336.111.424.424,0,0,1,.114.318.434.434,0,0,1-.114.325.465.465,0,0,1-.336.111H42.413v1.222h1.759a.456.456,0,0,1,.329.111.514.514,0,0,1,0,.647.445.445,0,0,1-.329.114H42.413v1.558q0,.579-.543.579" transform="translate(-18.592 -77.859)" fill="#fefffd"/>
    <path id="Контур_201" data-name="Контур 201" d="M50.565,178.072a.542.542,0,0,1-.407-.146.574.574,0,0,1-.143-.418V173.54a.505.505,0,0,1,.558-.564h1.744a1.893,1.893,0,0,1,1.3.407,1.437,1.437,0,0,1,.461,1.136,1.548,1.548,0,0,1-.207.815,1.362,1.362,0,0,1-.6.529,2.214,2.214,0,0,1-.951.186l.064-.114h.286a.966.966,0,0,1,.526.142,1.132,1.132,0,0,1,.382.444l.45.829a.6.6,0,0,1,.1.346.375.375,0,0,1-.133.272.537.537,0,0,1-.357.1.687.687,0,0,1-.382-.1.845.845,0,0,1-.261-.3l-.693-1.258a.537.537,0,0,0-.254-.275.949.949,0,0,0-.382-.068h-.536v1.437a.582.582,0,0,1-.139.418.551.551,0,0,1-.418.146m.558-2.809h1a1.043,1.043,0,0,0,.661-.179.644.644,0,0,0,.225-.537.636.636,0,0,0-.225-.529,1.047,1.047,0,0,0-.661-.178h-1Z" transform="translate(-22.512 -77.859)" fill="#fefffd"/>
    <path id="Контур_202" data-name="Контур 202" d="M60.913,178.026a.543.543,0,0,1-.407-.147.572.572,0,0,1-.143-.417v-4.025a.571.571,0,0,1,.143-.421.55.55,0,0,1,.407-.144.559.559,0,0,1,.415.144.571.571,0,0,1,.143.421v4.025a.58.58,0,0,1-.139.417.551.551,0,0,1-.418.147" transform="translate(-27.17 -77.812)" fill="#fefffd"/>
    <path id="Контур_203" data-name="Контур 203" d="M67.181,178.029a4.544,4.544,0,0,1-.615-.043,3.625,3.625,0,0,1-.59-.129,2.42,2.42,0,0,1-.5-.214.48.48,0,0,1-.272-.508.556.556,0,0,1,.1-.254.373.373,0,0,1,.225-.143.443.443,0,0,1,.307.054,2.66,2.66,0,0,0,.647.236,3.126,3.126,0,0,0,.69.079,1.347,1.347,0,0,0,.743-.157.47.47,0,0,0,.229-.4.39.39,0,0,0-.161-.333,1.483,1.483,0,0,0-.554-.2l-.808-.172a1.936,1.936,0,0,1-1.015-.5,1.271,1.271,0,0,1-.329-.912,1.438,1.438,0,0,1,.561-1.162,1.894,1.894,0,0,1,.647-.322,3,3,0,0,1,.836-.111,3.306,3.306,0,0,1,.779.093,2.311,2.311,0,0,1,.686.279.461.461,0,0,1,.189.214.512.512,0,0,1,.036.268.412.412,0,0,1-.332.361A.53.53,0,0,1,68.36,174a1.8,1.8,0,0,0-.5-.175,2.734,2.734,0,0,0-.547-.054,1.475,1.475,0,0,0-.511.079.694.694,0,0,0-.318.218.53.53,0,0,0-.107.333.417.417,0,0,0,.146.329,1.192,1.192,0,0,0,.519.207l.8.172a2.136,2.136,0,0,1,1.054.483,1.157,1.157,0,0,1,.347.875,1.382,1.382,0,0,1-.15.647,1.459,1.459,0,0,1-.418.494,1.985,1.985,0,0,1-.643.315,3.025,3.025,0,0,1-.854.111" transform="translate(-29.348 -77.8)" fill="#fefffd"/>
    <path id="Контур_204" data-name="Контур 204" d="M77.472,178.029a2.857,2.857,0,0,1-1.39-.318,2.142,2.142,0,0,1-.89-.9,2.914,2.914,0,0,1-.307-1.373,3.087,3.087,0,0,1,.175-1.065,2.286,2.286,0,0,1,.511-.822,2.192,2.192,0,0,1,.819-.522,3.12,3.12,0,0,1,1.083-.178,3.233,3.233,0,0,1,.736.085,2.193,2.193,0,0,1,.636.251.574.574,0,0,1,.243.253.508.508,0,0,1,.04.294.519.519,0,0,1-.122.257.438.438,0,0,1-.24.143.455.455,0,0,1-.322-.068,1.63,1.63,0,0,0-.447-.186,2.027,2.027,0,0,0-.483-.057,1.572,1.572,0,0,0-.8.19,1.171,1.171,0,0,0-.487.543,2.14,2.14,0,0,0-.161.883,2.182,2.182,0,0,0,.161.879,1.169,1.169,0,0,0,.487.554,1.577,1.577,0,0,0,.8.189,2.026,2.026,0,0,0,.468-.057,1.844,1.844,0,0,0,.461-.179.531.531,0,0,1,.329-.068.416.416,0,0,1,.24.128.5.5,0,0,1,.125.25.5.5,0,0,1-.029.286.526.526,0,0,1-.214.239,2.129,2.129,0,0,1-.651.275,3.117,3.117,0,0,1-.772.1" transform="translate(-33.706 -77.8)" fill="#fefffd"/>
    <path id="Контур_205" data-name="Контур 205" d="M85.9,178.026a.543.543,0,0,1-.407-.147.572.572,0,0,1-.143-.417v-4.025a.571.571,0,0,1,.143-.421.55.55,0,0,1,.407-.144.559.559,0,0,1,.415.144.571.571,0,0,1,.143.421v1.523h2.338v-1.523a.561.561,0,0,1,.147-.421.572.572,0,0,1,.418-.144.549.549,0,0,1,.407.144.569.569,0,0,1,.143.421v4.025a.569.569,0,0,1-.143.417.542.542,0,0,1-.407.147.512.512,0,0,1-.565-.564v-1.588H86.457v1.588a.58.58,0,0,1-.139.417.551.551,0,0,1-.418.147" transform="translate(-38.417 -77.812)" fill="#fefffd"/>
    <path id="Контур_206" data-name="Контур 206" d="M103.492,178.026a.635.635,0,0,1-.376-.1.787.787,0,0,1-.246-.311l-1.794-4a.644.644,0,0,1-.057-.385.4.4,0,0,1,.175-.258.674.674,0,0,1,.707.014.815.815,0,0,1,.211.315l1.58,3.66h-.357l1.573-3.66a.956.956,0,0,1,.225-.315.541.541,0,0,1,.361-.107.526.526,0,0,1,.315.093.4.4,0,0,1,.161.258.647.647,0,0,1-.068.385l-1.8,4a.7.7,0,0,1-.229.311.63.63,0,0,1-.379.1" transform="translate(-45.465 -77.812)" fill="#fefffd"/>
    <path id="Контур_207" data-name="Контур 207" d="M114.435,178.029a2.6,2.6,0,0,1-1.3-.322,2.188,2.188,0,0,1-.875-.908,2.9,2.9,0,0,1-.307-1.365,3.087,3.087,0,0,1,.175-1.065,2.332,2.332,0,0,1,.5-.822,2.16,2.16,0,0,1,.79-.522,2.808,2.808,0,0,1,1.019-.179,2.621,2.621,0,0,1,1.312.318,2.209,2.209,0,0,1,.872.9,2.852,2.852,0,0,1,.311,1.362,3.109,3.109,0,0,1-.175,1.072,2.344,2.344,0,0,1-.508.826,2.181,2.181,0,0,1-.79.525,2.786,2.786,0,0,1-1.022.179m0-.936a1.255,1.255,0,0,0,.719-.2,1.282,1.282,0,0,0,.458-.572,2.231,2.231,0,0,0,.161-.886,1.874,1.874,0,0,0-.354-1.219,1.2,1.2,0,0,0-.983-.433,1.294,1.294,0,0,0-.715.193,1.21,1.21,0,0,0-.458.561,2.277,2.277,0,0,0-.157.9,1.892,1.892,0,0,0,.354,1.219,1.183,1.183,0,0,0,.976.44" transform="translate(-50.389 -77.8)" fill="#fefffd"/>
    <path id="Контур_208" data-name="Контур 208" d="M124.394,178.026a.5.5,0,0,1-.372-.132.526.526,0,0,1-.129-.383v-4.125a.5.5,0,0,1,.14-.386.541.541,0,0,1,.382-.129.632.632,0,0,1,.34.079.672.672,0,0,1,.225.272l1.651,3.016H126.4l1.651-3.016a.671.671,0,0,1,.225-.272.632.632,0,0,1,.34-.079.507.507,0,0,1,.368.129.517.517,0,0,1,.132.386v4.125a.526.526,0,0,1-.129.383.506.506,0,0,1-.379.132.5.5,0,0,1-.368-.132.518.518,0,0,1-.132-.383v-2.887h.157L126.932,177a.582.582,0,0,1-.175.2.434.434,0,0,1-.246.064.463.463,0,0,1-.264-.068.636.636,0,0,1-.179-.2l-1.337-2.388h.164v2.9a.537.537,0,0,1-.125.383.5.5,0,0,1-.376.132" transform="translate(-55.766 -77.812)" fill="#fefffd"/>
    <path id="Контур_209" data-name="Контур 209" d="M142.061,178.016a.579.579,0,0,1-.429-.151.589.589,0,0,1-.15-.436v-3.867a.593.593,0,0,1,.15-.436.583.583,0,0,1,.429-.15h1.73a2.306,2.306,0,0,1,.915.161,1.293,1.293,0,0,1,.572.454,1.2,1.2,0,0,1,.2.693,1.164,1.164,0,0,1-.257.764,1.251,1.251,0,0,1-.7.422v-.107a1.279,1.279,0,0,1,.8.4,1.214,1.214,0,0,1,.286.833,1.267,1.267,0,0,1-.461,1.04,1.967,1.967,0,0,1-1.276.376Zm.486-2.974H143.6a1,1,0,0,0,.615-.154.546.546,0,0,0,.2-.461.555.555,0,0,0-.2-.468,1,1,0,0,0-.615-.153h-1.051Zm0,2.145h1.18a.986.986,0,0,0,.621-.161.591.591,0,0,0,.2-.49.607.607,0,0,0-.2-.5.986.986,0,0,0-.621-.161h-1.18Z" transform="translate(-63.683 -77.859)" fill="#fefffd"/>
    <path id="Контур_210" data-name="Контур 210" d="M151.627,178.026a.549.549,0,0,1-.326-.089.373.373,0,0,1-.153-.246.6.6,0,0,1,.057-.351l1.837-4.017a.835.835,0,0,1,.275-.343.639.639,0,0,1,.361-.107.631.631,0,0,1,.365.107.857.857,0,0,1,.272.343l1.837,4.017a.616.616,0,0,1,.068.354.359.359,0,0,1-.151.243.521.521,0,0,1-.311.089.57.57,0,0,1-.376-.111.9.9,0,0,1-.232-.354l-.429-.993.443.307h-2.981l.444-.307-.422.993a1.229,1.229,0,0,1-.229.354.488.488,0,0,1-.35.111m2.044-3.917-.922,2.188-.193-.286h2.237l-.186.286-.922-2.188Z" transform="translate(-68.031 -77.812)" fill="#fefffd"/>
    <path id="Контур_211" data-name="Контур 211" d="M164.933,178.04a3.033,3.033,0,0,1-.948-.136,1.673,1.673,0,0,1-1.108-1.094,2.929,2.929,0,0,1-.139-.944V173.43a.495.495,0,0,1,.55-.558.573.573,0,0,1,.415.139.561.561,0,0,1,.142.418v2.438a1.35,1.35,0,0,0,.279.925,1.031,1.031,0,0,0,.809.311,1.019,1.019,0,0,0,.8-.311,1.345,1.345,0,0,0,.279-.925V173.43a.557.557,0,0,1,.144-.418.571.571,0,0,1,.415-.139.539.539,0,0,1,.392.139.557.557,0,0,1,.144.418v2.438a2.631,2.631,0,0,1-.246,1.2,1.615,1.615,0,0,1-.729.73,2.647,2.647,0,0,1-1.2.243" transform="translate(-73.251 -77.812)" fill="#fefffd"/>
    <path id="Контур_212" data-name="Контур 212" d="M174.34,178.016a.579.579,0,0,1-.429-.15.591.591,0,0,1-.151-.436v-3.868a.593.593,0,0,1,.151-.436.582.582,0,0,1,.429-.15h2.495a.441.441,0,0,1,.325.111.43.43,0,0,1,.111.318.39.39,0,0,1-.436.436h-2.009v1.18h1.851a.439.439,0,0,1,.329.111.451.451,0,0,1,.107.326.384.384,0,0,1-.436.429h-1.851v1.265h2.009a.389.389,0,0,1,.436.436.428.428,0,0,1-.111.318.439.439,0,0,1-.325.111Z" transform="translate(-78.212 -77.859)" fill="#fefffd"/>
    <path id="Контур_213" data-name="Контур 213" d="M183.475,178.072a.541.541,0,0,1-.407-.146.572.572,0,0,1-.143-.418V173.54a.506.506,0,0,1,.558-.564h1.744a1.893,1.893,0,0,1,1.3.407,1.437,1.437,0,0,1,.461,1.136,1.548,1.548,0,0,1-.207.815,1.363,1.363,0,0,1-.6.529,2.21,2.21,0,0,1-.95.186l.064-.114h.286a.967.967,0,0,1,.526.142,1.136,1.136,0,0,1,.382.444l.45.829a.593.593,0,0,1,.1.346.373.373,0,0,1-.132.272.538.538,0,0,1-.358.1.688.688,0,0,1-.382-.1.838.838,0,0,1-.261-.3l-.693-1.258a.54.54,0,0,0-.254-.275.951.951,0,0,0-.382-.068h-.536v1.437a.582.582,0,0,1-.14.418.55.55,0,0,1-.418.146m.558-2.809h1a1.045,1.045,0,0,0,.661-.179.644.644,0,0,0,.225-.537.636.636,0,0,0-.225-.529,1.048,1.048,0,0,0-.661-.178h-1Z" transform="translate(-82.337 -77.859)" fill="#fefffd"/>
    <path id="Контур_214" data-name="Контур 214" d="M193.788,178.026a.517.517,0,0,1-.382-.132.527.527,0,0,1-.133-.39v-4.082a.574.574,0,0,1,.133-.411.464.464,0,0,1,.354-.14.522.522,0,0,1,.3.072,1.279,1.279,0,0,1,.24.236l2.509,3.2h-.2v-3a.512.512,0,0,1,.136-.379.532.532,0,0,1,.393-.136.5.5,0,0,1,.376.136.522.522,0,0,1,.132.379v4.132a.535.535,0,0,1-.122.372.419.419,0,0,1-.329.136.583.583,0,0,1-.318-.075,1.3,1.3,0,0,1-.261-.239l-2.5-3.2h.193v3a.53.53,0,0,1-.133.39.518.518,0,0,1-.382.132" transform="translate(-86.995 -77.812)" fill="#fefffd"/>
    <path id="Контур_215" data-name="Контур 215" d="M204.912,178.026a.542.542,0,0,1-.407-.147.57.57,0,0,1-.144-.417v-4.025a.569.569,0,0,1,.144-.421.549.549,0,0,1,.407-.144.562.562,0,0,1,.415.144.571.571,0,0,1,.143.421v1.523h2.338v-1.523a.561.561,0,0,1,.146-.421.572.572,0,0,1,.418-.144.549.549,0,0,1,.407.144.569.569,0,0,1,.143.421v4.025a.569.569,0,0,1-.143.417.542.542,0,0,1-.407.147.511.511,0,0,1-.564-.564v-1.588h-2.338v1.588a.58.58,0,0,1-.14.417.55.55,0,0,1-.418.147" transform="translate(-91.986 -77.812)" fill="#fefffd"/>
    <path id="Контур_216" data-name="Контур 216" d="M218.019,178.029a2.6,2.6,0,0,1-1.3-.322,2.186,2.186,0,0,1-.876-.908,2.9,2.9,0,0,1-.307-1.365,3.074,3.074,0,0,1,.175-1.065,2.331,2.331,0,0,1,.5-.822,2.16,2.16,0,0,1,.79-.522,2.811,2.811,0,0,1,1.019-.179,2.617,2.617,0,0,1,1.311.318,2.206,2.206,0,0,1,.872.9,2.852,2.852,0,0,1,.311,1.362,3.121,3.121,0,0,1-.175,1.072,2.353,2.353,0,0,1-.508.826,2.175,2.175,0,0,1-.79.525,2.786,2.786,0,0,1-1.022.179m0-.936a1.253,1.253,0,0,0,.719-.2,1.286,1.286,0,0,0,.458-.572,2.221,2.221,0,0,0,.161-.886,1.871,1.871,0,0,0-.355-1.219,1.2,1.2,0,0,0-.983-.433,1.3,1.3,0,0,0-.715.193,1.21,1.21,0,0,0-.458.561,2.287,2.287,0,0,0-.157.9,1.892,1.892,0,0,0,.354,1.219,1.185,1.185,0,0,0,.976.44" transform="translate(-97.013 -77.8)" fill="#fefffd"/>
    <path id="Контур_217" data-name="Контур 217" d="M228.017,178.073a.562.562,0,0,1-.419-.15.592.592,0,0,1-.146-.429v-3.932a.59.59,0,0,1,.15-.436.579.579,0,0,1,.428-.15h2.439a.464.464,0,0,1,.335.111.424.424,0,0,1,.114.318.434.434,0,0,1-.114.325.464.464,0,0,1-.335.111H228.56v1.222h1.759a.453.453,0,0,1,.328.111.512.512,0,0,1,0,.647.443.443,0,0,1-.328.114H228.56v1.558q0,.579-.543.579" transform="translate(-102.379 -77.859)" fill="#fefffd"/>
    <path id="Контур_218" data-name="Контур 218" d="M133.875,9.3a3.723,3.723,0,0,0,.266-1.883,4.666,4.666,0,0,0-.652-1.69c-.328-.633-.495-.759-.664-.8s-.272.027-.894.338a4.362,4.362,0,0,1-1.232.519,2.249,2.249,0,0,1-.917-.1,15.474,15.474,0,0,1-1.8-.736,3.24,3.24,0,0,0-1.264-.108.194.194,0,0,1-.073.04,1.985,1.985,0,0,0-.688.341,1.944,1.944,0,0,0-.239.22.192.192,0,1,1-.284-.26,2.274,2.274,0,0,1,.289-.264,2.343,2.343,0,0,1,.383-.24l-1.057-.948c-.239-.19-.389-.2-.483-.169-.527.165-.385,1.883-.362,2.137-1.908-.779-2.661-2.389-3.416-1.871-.161.11-.32.366-.278,1.014.112,1.789.159,3.226.181,4.214.043,1.9.3,6.686.266,7.026a1.5,1.5,0,0,1-.29.676,1.6,1.6,0,0,1-.275.293,1.724,1.724,0,0,1-1.384.337c-.66-.108-1.519-.244-2.517-.388a61.509,61.509,0,0,0-6.592-.773,25.33,25.33,0,0,0-8.765,1.594,61.047,61.047,0,0,0-5.94,2.343c-2.2.941-4.014,1.789-5.312,2.415a4.375,4.375,0,0,1-3.38-.362,17.72,17.72,0,0,1-3.043-2.1,14.706,14.706,0,0,1-4.081-5.143,12.532,12.532,0,0,1-1.231-5.167A14.435,14.435,0,0,1,79.28,4.3a19.1,19.1,0,0,1,1.062-2.342A1.336,1.336,0,0,0,79.957.22a1.227,1.227,0,0,0-1.5.073,15.128,15.128,0,0,0-3.6,10.045A15.718,15.718,0,0,0,81.816,23.4a41.637,41.637,0,0,1,3.4,2.439c.845.673,1.619,1.342,2.324,1.993a2.417,2.417,0,0,1,.682,1.131c.247.9.46,1.635.615,2.164a43.784,43.784,0,0,1,1.69,6.326c.1.739.153,1.393.176,1.921a3.49,3.49,0,0,1-.6,2.119l-.011.016a4.19,4.19,0,0,1-.541.641,4.53,4.53,0,0,1-1.221.8,2.019,2.019,0,0,0-.967.95,2.143,2.143,0,0,0,.12,1.931l3.139,6.351a3.058,3.058,0,0,0,1,1.172,2.788,2.788,0,0,0,1.59.47h2.333a1.648,1.648,0,0,0,1.352-.7,1.624,1.624,0,0,0-.285-1.805.977.977,0,0,0-.247-.2,4.225,4.225,0,0,0-1.169-.466,2.559,2.559,0,0,1-1.581-1.083l-1.094-1.692a.4.4,0,0,1,.3-.62l.818-.078c2.132-.2,2.564-.173,3.188-.289a6.107,6.107,0,0,0,1.04-.293,6.653,6.653,0,0,0,2.339-1.576,35.134,35.134,0,0,0,2.433-2.711,6.658,6.658,0,0,0,1.214-2.026,6.063,6.063,0,0,0,.348-1.876.257.257,0,0,1,.256-.25h.007a.257.257,0,0,1,.25.264,6.59,6.59,0,0,1-.377,2.035,7.124,7.124,0,0,1-1.3,2.175,36.123,36.123,0,0,1-2.775,3.05,4.59,4.59,0,0,0,.184,1.015,5.143,5.143,0,0,0,1.232,2.029,44.85,44.85,0,0,0,4.041,3.711,5.109,5.109,0,0,0,2.393,1.116l.013,0c.321.054.114-.007,1.859.048a2.357,2.357,0,0,0,1.159-.145,1.352,1.352,0,0,0,.628-.507,1.474,1.474,0,0,0,.1-1.159,2.142,2.142,0,0,0-1.3-1.4c-.591-.218-1.8-.145-2.269-.338a4.469,4.469,0,0,1-1.5-1.135,4.016,4.016,0,0,1-1.111-2.2,4.593,4.593,0,0,1,.29-1.859,27.422,27.422,0,0,1,.918-2.7,8.44,8.44,0,0,0,.337-4.173,7.123,7.123,0,0,1-2.665-2.807.257.257,0,0,1,.454-.24A4.549,4.549,0,0,0,105.689,36l.425.445a4.556,4.556,0,0,0,2.7,1.372,22.633,22.633,0,0,0,8.527-.5c.475-.406.185-1.553.547-1.6.392-.052.475,1.087.531,1.762.011.13.031.365.044.631a11.924,11.924,0,0,0,.392,2.482c.23.863.456,1.739.675,2.635.334,1.364.489,2.173.966,4.2.327,1.392.624,2.6.864,3.56a2.573,2.573,0,0,0,1.61,1.82,5.237,5.237,0,0,0,1.51.246,8.723,8.723,0,0,0,1.087,0,1.69,1.69,0,0,0,1.092-.619,1.484,1.484,0,0,0,.073-1.558,3.417,3.417,0,0,0-1.111-1.1,1.848,1.848,0,0,1-.752-.96l0-.009a4.957,4.957,0,0,1-.121-1.932,19.05,19.05,0,0,1,1.4-6.326,14.191,14.191,0,0,1,1.39-2.187.257.257,0,0,1,.428.282c-.285.508-.719.982-.972,1.508l-.14.291a6.457,6.457,0,0,0-.555,3.81c.239,1.5.549,3.424.641,4.48.145,1.666.831,2.266,1.251,2.438l.009,0a3.817,3.817,0,0,0,1.255.193c.2.01.455.016.75.011a1.63,1.63,0,0,0,1.024-.344,1.477,1.477,0,0,0,.133-.125,1.586,1.586,0,0,0,.387-1.4,1.707,1.707,0,0,0-.516-.963c-.321-.339-1.15-.543-1.561-1.4a4.751,4.751,0,0,1-.386-1.787,19.725,19.725,0,0,1,.169-4.25,23.4,23.4,0,0,1,.459-2.343c.451-1.789.684-2.4.966-3.477a29.872,29.872,0,0,0,.8-4.539,37.626,37.626,0,0,0,.193-5.554c-.049-2.157-.062-5.266.1-9.418a6.555,6.555,0,0,1,.756-2.8l.011-.021a8.739,8.739,0,0,1,1.139-1.65,1.505,1.505,0,0,0,.406-.971v-.011a1.527,1.527,0,0,0-.41-1.014M84.46,23.171a.406.406,0,0,1-.495.084c-.18-.129-.133-.457.012-.627a.37.37,0,0,1,.29-.145.422.422,0,0,1,.193.688m6.29,3.755a.422.422,0,0,1-.4.145.363.363,0,0,1-.036-.724.417.417,0,0,1,.35.085.394.394,0,0,1,.084.495M116.858,25.3a.374.374,0,0,1,.306.318.428.428,0,0,1-.277.476,7.158,7.158,0,0,1-1.038.277,15.29,15.29,0,0,1-1.639.223.466.466,0,0,1-.494-.316c-.023-.166.127-.355.5-.437.421-.093.736-.18,1.187-.282a5.348,5.348,0,0,1,1.452-.26m-1.395-5.887a.407.407,0,0,1,.459.024.436.436,0,0,1,.193.508.421.421,0,1,1-.652-.531m-.357,3.274a.344.344,0,0,1,.387.117.392.392,0,0,1-.009.5,6.609,6.609,0,0,1-.7.683,13.955,13.955,0,0,1-1.206.908.425.425,0,0,1-.534-.031c-.092-.122-.057-.339.206-.572.294-.261.506-.471.82-.753a4.889,4.889,0,0,1,1.04-.854m-3.486.943a7.949,7.949,0,0,0,.659-.881c.3-.434.494-.889.76-1.244a.449.449,0,0,1,.557-.107.514.514,0,0,1,.148.7,5.478,5.478,0,0,1-1.2,1.672,3.329,3.329,0,0,1-.513.4.362.362,0,0,1-.5-.144.371.371,0,0,1,.1-.392M109.2,20.889a.342.342,0,0,1,.314-.253.392.392,0,0,1,.411.29,6.575,6.575,0,0,1,.169.966,13.973,13.973,0,0,1,.073,1.508.424.424,0,0,1-.326.424c-.152.008-.312-.143-.357-.492-.051-.39-.105-.684-.162-1.1a4.891,4.891,0,0,1-.121-1.34m-2.33.214a.514.514,0,0,1,.679.226,5.489,5.489,0,0,1,.833,1.884,3.354,3.354,0,0,1,.081.643.361.361,0,0,1-.381.362.369.369,0,0,1-.289-.28,8.137,8.137,0,0,0-.426-1.014c-.224-.478-.517-.877-.688-1.286a.449.449,0,0,1,.19-.534m-2.523-1.832a.412.412,0,0,1,.362-.012.439.439,0,0,1,.29.447.417.417,0,0,1-.725.181.442.442,0,0,1,.073-.616m-.217,3.417a.421.421,0,0,1,.549-.006,12.417,12.417,0,0,1,1.153.887,8.43,8.43,0,0,1,.966,1.056.41.41,0,0,1-.054.616c-.157.085-.415-.162-.428-.175a14.1,14.1,0,0,0-1.1-1.027c-.351-.28-.7-.52-1.02-.748a.407.407,0,0,1-.067-.6m-.9,3.018a5.481,5.481,0,0,1,1.98.565,3.32,3.32,0,0,1,.546.349.361.361,0,0,1,.035.523.371.371,0,0,1-.4.043,7.96,7.96,0,0,0-1.051-.322c-.51-.134-1-.163-1.429-.294a.449.449,0,0,1-.289-.488.514.514,0,0,1,.609-.377m-3.037-3.682a.744.744,0,0,1,.64-.483.755.755,0,0,1,.471.12.781.781,0,0,1,.362.773.735.735,0,0,1-.471.555.783.783,0,0,1-.857-.266.773.773,0,0,1-.145-.7M92.527,25.41c.192-.753.956-.51,1.927-.217-.046-.1-1.234-1.393-.445-1.807.736-.387,1.013.286,1.649,1.242.1-1.353.668-1.7,1.038-1.531.769.354-.153,1.309-.079,1.909a1.245,1.245,0,0,0,.207.536c.339.384,1.261.4,1.672.548a.642.642,0,0,1,.457.719.617.617,0,0,1-.757.456,5.156,5.156,0,0,0-1.79-.136,1.009,1.009,0,0,0-.713.867c-.075.565-.115,1.885-1.127,1.478-.3-.12-.4-.952.046-1.844-1.045.3-1.709.566-1.873-.1-.186-.758,1.315-.912,1.437-.964-1.408-.111-1.815-.5-1.648-1.154M95.833,41.7a.482.482,0,0,1-.592.108.489.489,0,0,1-.218-.338.365.365,0,0,1,.555-.447c.112.046.3.125.35.314a.439.439,0,0,1-.1.362m1.743-7.168c-.436,2.158-.731,2.722-1.429,2.722h-.01a.522.522,0,0,1-.387-.178,1.3,1.3,0,0,1-.247-.968,5.809,5.809,0,0,1,1.261-2.586c.142-.2.3-.378.462-.56-1.188.489-2.936,2.925-3.294,3.5a2.286,2.286,0,0,1-1.221,1.06,1.7,1.7,0,0,1-.477.074.789.789,0,0,1-.58-.207c-.325-.337-.181-1.015-.1-1.225a3.868,3.868,0,0,1,1.563-1.844,17.789,17.789,0,0,1,3.4-1.684s1.16-.714,1.588-.95c-.706.142-1.686.39-2.176.541a7.217,7.217,0,0,1-2.013.365c-.083,0-.163,0-.239-.009-.819-.065-1.351-.374-1.354-.788,0-.493.856-.853,1.272-.95a6.164,6.164,0,0,1,2.558-.013c.109.018.212.034.308.047a15.52,15.52,0,0,0,2.89.154c.669-.33,1.351-.643,2.037-.924a.333.333,0,0,1,.253.617c-.793.324-1.583.686-2.347,1.075-.162.082-.32.174-.481.26a5.227,5.227,0,0,0-1.23,2.471m5.613-.4a11.613,11.613,0,0,0-2.468,5.251c-.1.78-.261,1.2-.664,1.145s-.587-.668-.635-1.232a2.3,2.3,0,0,1,.429-1.48c-.118.117-.679.507-.888.407-.3-.144-.275-.585.124-1.084a4.415,4.415,0,0,1,1.464-1.176c-.547.016-.927-.108-.932-.354-.01-.57,1.63-.821,2.213-1.173.493-.3.979-1.113,1.369-.78a.38.38,0,0,1-.011.476m.256-4.381a.342.342,0,0,1-.3-.27.392.392,0,0,1,.222-.451,6.6,6.6,0,0,1,.928-.318,13.972,13.972,0,0,1,1.478-.307.425.425,0,0,1,.47.256c.031.149-.093.331-.43.43-.378.112-.659.211-1.063.332a4.876,4.876,0,0,1-1.3.329m2.488,1.623a4.891,4.891,0,0,1-1.017.881.343.343,0,0,1-.389-.107.392.392,0,0,1,0-.5,6.594,6.594,0,0,1,.685-.7,13.874,13.874,0,0,1,1.181-.94.425.425,0,0,1,.534.017c.1.119.067.337-.19.577-.287.269-.493.484-.8.775m2.166.258a7.989,7.989,0,0,0-.493.983c-.217.48-.329.962-.529,1.359a.448.448,0,0,1-.53.2.514.514,0,0,1-.27-.663,5.486,5.486,0,0,1,.889-1.858,3.4,3.4,0,0,1,.436-.48.362.362,0,0,1,.522.053.37.37,0,0,1-.025.4m2.394,2.788a.343.343,0,0,1-.348.205.392.392,0,0,1-.363-.347,6.542,6.542,0,0,1-.026-.98,13.7,13.7,0,0,1,.148-1.5.425.425,0,0,1,.384-.372c.152.014.288.188.282.539-.007.394,0,.691,0,1.114a4.881,4.881,0,0,1-.076,1.343m-1.538-3.852a3.248,3.248,0,0,1-1.811-1.908,3.066,3.066,0,0,1,.314-2.656,3.384,3.384,0,0,1,1.762-1.062,3.006,3.006,0,0,1,1.135-.217,2.871,2.871,0,0,1,2.318,1.545,3.136,3.136,0,0,1,.048,2.632,3.017,3.017,0,0,1-1.666,1.714,2.928,2.928,0,0,1-2.1-.048m4.171,3.417a.513.513,0,0,1-.669-.255,5.472,5.472,0,0,1-.754-1.916,3.349,3.349,0,0,1-.054-.646.362.362,0,0,1,.395-.346.372.372,0,0,1,.278.293,7.945,7.945,0,0,0,.383,1.031c.2.487.48.9.633,1.314a.448.448,0,0,1-.212.526m2.717-1.576c-.157.084-.415-.162-.428-.175a14.308,14.308,0,0,0-1.1-1.026c-.351-.281-.7-.52-1.021-.748a.408.408,0,0,1-.066-.6.422.422,0,0,1,.549-.006,12.46,12.46,0,0,1,1.153.888A8.437,8.437,0,0,1,115.9,31.8a.41.41,0,0,1-.054.616m.949-3.336a6.637,6.637,0,0,1-.979-.057,13.935,13.935,0,0,1-1.484-.274.425.425,0,0,1-.338-.415c.027-.15.211-.271.56-.236.392.04.69.054,1.11.1a4.887,4.887,0,0,1,1.332.189.343.343,0,0,1,.175.363.392.392,0,0,1-.376.334M128.3,6.159c.125-.1.4.11.64.29.139.1.306.222.262.33-.035.085-.28.175-.454.358-.128.135-.181.263-.32.3a.165.165,0,0,1-.225-.1c-.065-.161.046-.306.1-.543.067-.316-.144-.528,0-.64m-3.911,7.389a.5.5,0,0,1,.507.06.575.575,0,0,1,.181.676.523.523,0,0,1-.471.338c-.271-.014-.439-.311-.459-.543a.568.568,0,0,1,.242-.531m-2.85,10.286c.35-.26,1.228-.543,1.442-1.008a1.241,1.241,0,0,0,.043-.574c-.1-.6-1.262-1.243-.628-1.8.305-.271.954-.1,1.437,1.165.332-1.1.4-1.823,1.219-1.666.875.169.112,1.752.1,1.859.845-.561,1.506-1.015,1.908-.35.35.58.072,1.068-1.244,1.581.131.015,1.613-.273,1.654.507.036.688-.676.622-1.762.64.68.727.829,1.551.577,1.752-.851.682-1.271-.569-1.507-1.088a1.01,1.01,0,0,0-.934-.625,5.162,5.162,0,0,0-1.674.648.617.617,0,0,1-.857-.217.643.643,0,0,1,.229-.821m-2.765-3.127a.639.639,0,0,1,.483.169.737.737,0,0,1,.242.724.659.659,0,0,1-.725.435.676.676,0,0,1-.543-.7.668.668,0,0,1,.543-.627M122.8,36.36c-.194.125-.8-.19-.933-.29a2.3,2.3,0,0,1,.616,1.413c.025.566-.091,1.2-.471,1.3s-.6-.29-.806-1.05a11.616,11.616,0,0,0-3.124-4.89c-.126-.149-.176-.357-.073-.471.344-.381.931.366,1.458.6.623.274,2.282.311,2.345.878.027.245-.334.416-.878.471a4.414,4.414,0,0,1,1.6.978c.46.443.543.878.263,1.059m3.749,1.476c-.039.145-.163.218-.3.3a.484.484,0,0,1-.272.1.443.443,0,0,1-.389-.353.531.531,0,0,1,.416-.543.45.45,0,0,1,.344.036.431.431,0,0,1,.2.461m2.925-2.607a.787.787,0,0,1-.565.246,1.653,1.653,0,0,1-.481-.041,2.281,2.281,0,0,1-1.291-.973c-.4-.549-2.308-2.859-3.527-3.265.171.172.344.341.5.527a5.817,5.817,0,0,1,1.436,2.493,1.3,1.3,0,0,1-.18.983.522.522,0,0,1-.373.2h-.01c-.7.048-1.029-.5-1.613-2.618a5.224,5.224,0,0,0-1.4-2.381c-.167-.074-.33-.155-.5-.226-.79-.336-1.6-.642-2.416-.911a.333.333,0,0,1,.21-.633c.7.233,1.407.5,2.1.782a15.541,15.541,0,0,0,2.872-.352c.095-.02.2-.043.3-.069a6.153,6.153,0,0,1,2.552-.163c.422.068,1.3.368,1.335.86.026.414-.483.759-1.3.88-.075.011-.154.02-.237.025a7.214,7.214,0,0,1-2.033-.225c-.5-.116-1.493-.3-2.208-.39.444.206,1.65.839,1.65.839a17.763,17.763,0,0,1,3.5,1.447A3.866,3.866,0,0,1,129.489,34c.09.205.281.872-.02,1.23m.519-20.57a.374.374,0,0,1-.133.266.434.434,0,0,1-.434-.748.4.4,0,0,1,.411.048.472.472,0,0,1,.157.434" transform="translate(-33.696 0)" fill="#fefffd"/>
    <path id="Контур_219" data-name="Контур 219" d="M201.959,68.284a1.467,1.467,0,0,0-1.327-.337,4.074,4.074,0,0,0-2.04,1.037l-.414.36a31.524,31.524,0,0,1-4.722,3.564c-.563.343-1.146.663-1.734.971a33.571,33.571,0,0,0,3.015-3.563c.991-1.118,1.954-2.195,2.912-3.251a18.333,18.333,0,0,0,3.2-4.78c.01-.023.921-2.375.269-3.5a1.077,1.077,0,0,0-.864-.539c-.7-.074-1.645.991-2.4,2.719-.316.757-.633,1.531-.943,2.3-.415,1.032-.706,1.785-.941,2.39-.388,1-.622,1.609-.995,2.387a23.228,23.228,0,0,1-1.246,2.252q-.788,1.034-1.652,2c.311-.76.6-1.529.844-2.3.7-2.246,1.762-5.641.389-7.572a.963.963,0,0,0-.835-.479c-.454.027-1.073.478-1.327,1.665a23.366,23.366,0,0,0,.09,4.673c.038.448.068.8.072.991a12.179,12.179,0,0,1-.162,2.864q-.068.337-.162.667a3.516,3.516,0,0,1-.973,1.611l-.006.006a32.633,32.633,0,0,1-3.433,2.79.411.411,0,0,0,.237.746.4.4,0,0,0,.236-.075c.869-.613,1.712-1.274,2.521-1.969a4.818,4.818,0,0,1,1.732-.955l.095-.03c.337-.108.673-.231,1-.366a4.667,4.667,0,0,1,1.021-.283,25.4,25.4,0,0,0,4.9-1.309,8.417,8.417,0,0,0,2.626-1.6,3.488,3.488,0,0,0,1.249-2.206,1.16,1.16,0,0,0-.227-.874" transform="translate(-83.899 -26.216)" fill="#fefffd"/>
    <path id="Контур_220" data-name="Контур 220" d="M60.732,68.284a1.467,1.467,0,0,1,1.327-.337,4.074,4.074,0,0,1,2.04,1.037l.414.36a31.523,31.523,0,0,0,4.722,3.564c.563.343,1.146.663,1.734.971a33.565,33.565,0,0,1-3.015-3.563C66.964,69.2,66,68.12,65.042,67.064a18.333,18.333,0,0,1-3.2-4.78c-.01-.023-.921-2.375-.269-3.5a1.077,1.077,0,0,1,.864-.539c.7-.074,1.645.991,2.4,2.719.316.757.633,1.531.942,2.3.415,1.032.706,1.785.941,2.39.388,1,.622,1.609.995,2.387A23.226,23.226,0,0,0,68.965,70.3q.788,1.034,1.652,2c-.311-.76-.6-1.529-.844-2.3-.7-2.246-1.762-5.641-.389-7.572a.963.963,0,0,1,.835-.479c.454.027,1.073.478,1.327,1.665a23.367,23.367,0,0,1-.09,4.673c-.038.448-.068.8-.072.991a12.18,12.18,0,0,0,.162,2.864q.068.337.162.667a3.516,3.516,0,0,0,.973,1.611l.006.006a32.636,32.636,0,0,0,3.433,2.79.411.411,0,0,1-.237.746.4.4,0,0,1-.236-.075c-.869-.613-1.712-1.274-2.52-1.969a4.825,4.825,0,0,0-1.732-.955l-.095-.03c-.337-.108-.673-.231-1-.366a4.667,4.667,0,0,0-1.021-.283,25.4,25.4,0,0,1-4.9-1.309,8.417,8.417,0,0,1-2.626-1.6A3.488,3.488,0,0,1,60.5,69.158a1.16,1.16,0,0,1,.227-.874" transform="translate(-27.231 -26.216)" fill="#fefffd"/>
    <path id="Контур_221" data-name="Контур 221" d="M181.337,81.551a.942.942,0,0,0-.676-.073.994.994,0,0,0-.676.966,1.036,1.036,0,0,0,.869.966,1.007,1.007,0,0,0,1.062-.507,1.1,1.1,0,0,0-.58-1.352" transform="translate(-81.013 -36.659)" fill="#fefffd"/>
    <path id="Контур_222" data-name="Контур 222" d="M205.695,92.968a.871.871,0,0,0-1.038.024.845.845,0,0,0,.024,1.038.879.879,0,0,0,.676.362.807.807,0,0,0,.8-.628c.071-.467-.416-.771-.459-.8" transform="translate(-92.043 -41.774)" fill="#fefffd"/>
    <path id="Контур_223" data-name="Контур 223" d="M202.745,55.13c-.028-.025-.458-.395-.821-.193a.737.737,0,0,0-.241.869.751.751,0,0,0,.676.531.7.7,0,0,0,.676-.6.748.748,0,0,0-.29-.6" transform="translate(-90.759 -24.701)" fill="#fefffd"/>
    <path id="Контур_224" data-name="Контур 224" d="M79.269,58.747a.872.872,0,0,0-.8,0,.825.825,0,0,0-.326,1.014.9.9,0,0,0,.76.471.765.765,0,0,0,.362-1.485" transform="translate(-35.146 -26.398)" fill="#fefffd"/>
    <path id="Контур_225" data-name="Контур 225" d="M93.335,74.953a.643.643,0,0,0-.217,1.159.663.663,0,0,0,1.014-.652.678.678,0,0,0-.8-.507" transform="translate(-41.787 -33.731)" fill="#fefffd"/>
    <path id="Контур_226" data-name="Контур 226" d="M74.576,94.954a1.009,1.009,0,0,0-.942.181.912.912,0,0,0,.218,1.3.961.961,0,0,0,1.159-.254.688.688,0,0,0-.434-1.231" transform="translate(-33.06 -42.721)" fill="#fefffd"/>
    <path id="Контур_227" data-name="Контур 227" d="M24.758,123.1a10.948,10.948,0,0,0-4.272-1.2c7.518-2.456,12.106-5.036,13.679-7.7a3.972,3.972,0,0,0,.509-3.138c-1.244-4.6-8.894-5.464-15.635-4.735C9.489,107.361,2.074,112.377.6,114.893a3.166,3.166,0,0,0-.3,3.189A3.163,3.163,0,0,0,3.9,119.322a.863.863,0,0,0,.643-.914.827.827,0,0,0-1.094-.673c-.359.127-1.374.123-1.705-.463-.281-.5.147-1.309.286-1.546,1.247-2.136,8.442-6.811,17.186-7.756,7.5-.812,13.076.606,13.865,3.525a2.356,2.356,0,0,1-.337,1.869c-1.144,1.94-5.005,4.826-16.459,8.1a56.2,56.2,0,0,1,10.328-10.2.825.825,0,0,0-1-1.314,57.815,57.815,0,0,0-11.928,12.228q-.677.18-1.384.36-.323.073-.648.153a.83.83,0,1,0,.4,1.612l.218-.055a57.884,57.884,0,0,0-6.027,12.006.825.825,0,1,0,1.551.564,56.223,56.223,0,0,1,6.791-13.041c4.311-.682,7.69-.193,9.358.758a2.106,2.106,0,0,1,1.079,1.127c.84,3.085-2.99,5.882-4.676,6.941a13.719,13.719,0,0,1-9.087,2.087.825.825,0,1,0-.3,1.621,10.471,10.471,0,0,0,1.92.164A16,16,0,0,0,21.222,134c4.221-2.652,6.186-5.849,5.39-8.771a3.664,3.664,0,0,0-1.854-2.127" transform="translate(0 -47.757)" fill="#fefffd"/>
    <path id="Контур_228" data-name="Контур 228" d="M92.748,130.627c-2.9,2.311-4.985,2.824-6,2.806a.541.541,0,0,1-.5-.707,11.3,11.3,0,0,1,.825-1.928.913.913,0,0,0-.281-1.194l-.018-.013a.871.871,0,0,0-1.216.255,5.848,5.848,0,0,1-3.79,2.593c-.183-.009-.18-.08-.19-.263-.039-.7,1.787-2.428,3.524-3.236,1.1-.512,1.815-.532,2.112-.379.059.031.217.112.286.481a.825.825,0,0,0,1.139.607.849.849,0,0,0,.475-.947,2.2,2.2,0,0,0-1.144-1.607,4.139,4.139,0,0,0-3.563.35,10.021,10.021,0,0,0-4.2,3.823c-.009.007-.019.01-.028.017-2.917,2.187-5.459,2.8-6.141,2.121-.385-.385-.276-1.491.22-2.96,1.148-1.015,2.433-2.267,3.839-3.636,1.564-1.524,3.337-3.25,5.2-4.911,2.075-1.853,5.933-6.165,6.012-7.649a1.018,1.018,0,0,0-1.109-1.1c-1.619.051-7.034,3.79-10.91,8.654a31.346,31.346,0,0,0-4.438,7.683c-.519.448-1,.836-1.45,1.151C68.1,133.1,65.435,134,64.85,133.407c-.5-.5-.161-2.248.793-4.423,2.245-1.713,5.016-4.006,8.462-7.085,2.075-1.853,5.933-6.164,6.012-7.649a1.025,1.025,0,0,0-.257-.765,1.051,1.051,0,0,0-.852-.334c-1.619.051-7.033,3.79-10.91,8.654a33.274,33.274,0,0,0-3.78,6.116c-3.471,2.62-6.071,4.116-7.86,4.534-1.993.465-3.338.31-4.013-.478a2.235,2.235,0,0,1-.411-1.56c2.808-.729,4.393-2.22,4.727-3.427a1.35,1.35,0,0,0-.314-1.39c-.932-.879-2.989-.18-4.326,1.022-1.87,1.682-2.322,4.806-.915,6.446,1.109,1.294,2.949,1.619,5.626.994,1.205-.282,3.047-.983,6.434-3.339-.427,1.617-.407,3.027.416,3.85,2,2,6.832-1.239,8.509-2.476a3,3,0,0,0,.668,2.476,2.747,2.747,0,0,0,2.024.751,10.492,10.492,0,0,0,5.107-1.915,1.323,1.323,0,0,0,.143.186,1.765,1.765,0,0,0,1.465.5,6.756,6.756,0,0,0,2.878-1.068,1.708,1.708,0,0,0,.344,1.317,2.524,2.524,0,0,0,1.983.727c1.7,0,4.183-.934,6.971-3.155a.825.825,0,0,0-1.028-1.291m-14.182-7.794a32.928,32.928,0,0,1,8.351-7.434,35.9,35.9,0,0,1-4.732,5.27c-1.886,1.684-3.673,3.425-5.249,4.96l-.8.784a29.346,29.346,0,0,1,2.434-3.579m-9.178,0a32.935,32.935,0,0,1,8.351-7.435,35.913,35.913,0,0,1-4.732,5.271q-2.919,2.607-5.378,4.632a28.983,28.983,0,0,1,1.76-2.467m-16.163,5.016A4.156,4.156,0,0,1,55,126.9a5.127,5.127,0,0,1-2.315,1.585,3.391,3.391,0,0,1,.545-.631" transform="translate(-22.678 -50.93)" fill="#fefffd"/>
    <path id="Контур_229" data-name="Контур 229" d="M248.344,138.8a.827.827,0,0,0-1.16-.131c-3.258,2.594-5.484,2.924-6.332,2.777a.32.32,0,0,1-.251-.4,10.007,10.007,0,0,1,.84-1.915.906.906,0,0,0-.279-1.184l-.01-.007a.9.9,0,0,0-1.159.142,8.24,8.24,0,0,1-3.679,2.362.236.236,0,0,1-.256-.319,7.72,7.72,0,0,1,3.473-3.142c1.1-.512,1.815-.532,2.112-.379.06.03.218.112.286.481a.824.824,0,0,0,1.14.606.85.85,0,0,0,.473-.95,2.191,2.191,0,0,0-1.144-1.6,4.135,4.135,0,0,0-3.563.349,9.922,9.922,0,0,0-2.367,1.6h0a23.349,23.349,0,0,1-5.448,2.406c.323-.487.859-1.171,1.288-1.717l.355-.453a1.162,1.162,0,0,0,.034-1.375,1.09,1.09,0,0,0-1.214-.437q-.152.045-.292.082c1.765-1.949,1.97-2.808,1.9-3.385a1.265,1.265,0,0,0-.625-.954,1.943,1.943,0,0,0-1.821-.033,5.972,5.972,0,0,0-3,3.527,2.094,2.094,0,0,0,.317,1.73,11.572,11.572,0,0,1-4.375,2.507.4.4,0,0,1-.472-.417,6.823,6.823,0,0,1,.523-1.848.87.87,0,0,0-.7-1.238c-.679-.064-1.263.718-1.623,1.008-.815.657-2.718,2.391-3.693,2.6a.429.429,0,0,1-.529-.429c.042-.966,1.806-2.872,2.724-3.864a.825.825,0,1,0-1.21-1.12c-1.871,2.021-4.434,4.791-2.493,6.6,1.265,1.178,3.253.276,5.353-1.8a2,2,0,0,0,.552,1.7c1.656,1.524,5.554-1.111,7.447-2.832a4.034,4.034,0,0,0,1.058.034c-1.213,1.565-1.809,2.5-1.192,3.273a1.447,1.447,0,0,0,1.237.536,10.089,10.089,0,0,0,3.76-1.176,2.538,2.538,0,0,0-.074.284,1.45,1.45,0,0,0,.318,1.337,1.764,1.764,0,0,0,1.465.5,6.746,6.746,0,0,0,2.877-1.068,1.714,1.714,0,0,0,.344,1.318,2.528,2.528,0,0,0,1.984.726c1.7,0,4.182-.934,6.971-3.155a.826.826,0,0,0,.131-1.159m-19.112-3.534a.711.711,0,0,1,.019-.134,4.42,4.42,0,0,1,2.037-2.393l.03-.012a12.557,12.557,0,0,1-2.086,2.538" transform="translate(-96.963 -58.973)" fill="#fefffd"/>
    <path id="Контур_230" data-name="Контур 230" d="M163.383,131.686l-.076.076c-2.138,2.153-4.042,3.187-5,2.686-.2-.1-.787-.4-.871-1.685-.244-3.765,2.836-9.075,5.311-13.343,2.366-4.081,4.076-7.029,3.474-8.863a2.022,2.022,0,0,0-1.153-1.243c-1.679-.73-5.6,2.386-5.761,2.519a55.1,55.1,0,0,0-9.406,9.7l-.338.442c-1.3,1.7-3.761,4.9-5.916,7.608,2.764-4.78,7.135-12.045,11.434-19.149a4.824,4.824,0,0,0,.552-1.231,2.548,2.548,0,0,0-.337-2.437,2.47,2.47,0,0,0-2.2-.756c-4.063.356-10.086,6.406-11.1,10.237a2.43,2.43,0,0,0,.388,2.268,1.852,1.852,0,0,0,1.561.68.825.825,0,0,0-.127-1.645.2.2,0,0,1-.166-.091.909.909,0,0,1-.06-.79c1.078-4.065,7.052-8.788,9.652-9.016a.972.972,0,0,1,.785.169,1.172,1.172,0,0,1,.013.944,3.263,3.263,0,0,1-.372.814c-15.308,25.3-15.175,25.383-14.142,26.048.864.555,1.095.706,11.343-12.648l.339-.442a53.414,53.414,0,0,1,9.128-9.421c1.606-1.287,3.589-2.317,4.1-2.279a.357.357,0,0,1,.212.23c.371,1.131-1.6,4.526-3.333,7.52-2.721,4.693-5.807,10.012-5.53,14.277a3.493,3.493,0,0,0,1.786,3.058,2.724,2.724,0,0,0,1.281.307c1.887,0,4.024-1.7,5.62-3.31l.065-.065a.825.825,0,0,0-1.16-1.173" transform="translate(-62.625 -47.712)" fill="#fefffd"/>
    <path id="Контур_231" data-name="Контур 231" d="M205.379,122.188c1.393.062,2.321.108,2.354.109a42.141,42.141,0,0,0,11.033-.95.825.825,0,0,0-.349-1.612,40.56,40.56,0,0,1-10.6.914c-.087,0-.508-.026-1.155-.056.808-1.008,1.632-2.036,2.434-3.03a.826.826,0,0,0-1.278-1.048c-.747.917-1.936,2.4-3.22,3.986-3.958-.168-10.412-.4-12.674-.213a10.528,10.528,0,0,0-1.421.228,9.219,9.219,0,0,0-1.763.626.825.825,0,1,0,.707,1.491,7.488,7.488,0,0,1,1.445-.513,8.734,8.734,0,0,1,1.167-.187c1.94-.159,7.327.011,11.245.168-.676.833-1.347,1.657-1.965,2.409a64.047,64.047,0,0,1-7.181,7.476l-.015.015-.01.007c-3.126,2.489-5.3,2.893-6.221,2.792a.379.379,0,0,1-.314-.511,15.219,15.219,0,0,1,.864-1.795.9.9,0,0,0-.281-1.181.891.891,0,0,0-1.149.113,8.785,8.785,0,0,1-3.62,2.331.3.3,0,0,1-.361-.409c.3-1.066,1.819-2.278,3.43-3.027a2.808,2.808,0,0,1,2.112-.379c.059.031.217.112.286.481a.825.825,0,0,0,1.142.6.854.854,0,0,0,.471-.953,2.192,2.192,0,0,0-1.143-1.6,4.139,4.139,0,0,0-3.563.35c-2.135.993-4.278,3.242-4.583,4.813a1.449,1.449,0,0,0,.318,1.337,1.763,1.763,0,0,0,1.465.5,6.756,6.756,0,0,0,2.877-1.068,1.71,1.71,0,0,0,.344,1.318,2.528,2.528,0,0,0,1.983.726c1.608,0,3.907-.845,6.5-2.8-1.9,3.911-2.293,6.463-1.247,7.919a.825.825,0,1,0,1.34-.963c-.311-.432-.687-1.8,1.2-5.839a24.35,24.35,0,0,1,3.284-5.155l3.341-4.054c.811-.955,1.762-2.122,2.769-3.371" transform="translate(-81.543 -52.309)" fill="#fefffd"/>
  </g>
</svg>
