<svg width="150" height="176" viewBox="0 0 150 176" fill="none" xmlns="http://www.w3.org/2000/svg">
<path d="M0 10C0 4.47715 4.47715 0 10 0H140C145.523 0 150 4.47715 150 10V166C150 171.523 145.523 176 140 176H10C4.47715 176 0 171.523 0 166V10Z" fill="white"/>
<path d="M106.996 64.4533C107.141 64.0014 107.454 62.8122 106.996 61.4482C106.744 60.6953 106.346 60.158 106.059 59.8326C106.851 58.2366 106.747 56.3967 105.768 55.0832C104.867 53.8734 103.553 53.5502 103.151 53.4676C103.232 53.3416 104.151 51.8592 103.474 50.5277C103.289 50.1621 103.03 49.9008 102.796 49.7199C102.827 48.6932 102.319 47.7437 101.471 47.2645C100.517 46.7251 99.5457 47.0152 99.3714 47.0706C99.2932 46.5127 99.0042 45.0009 97.7232 43.8395C97.249 43.4093 96.7617 43.1387 96.3662 42.9671C96.3298 42.7862 95.9898 41.2249 94.4921 40.5117C93.3834 39.9831 92.3409 40.2542 92.0693 40.334C92.0693 40.334 91.6244 38.8592 90.9057 38.3469C89.96 37.6722 88.2129 38.3714 87.8044 38.7348C86.3236 40.0494 84.5739 41.848 82.9094 44.2111C80.7376 47.2933 79.4827 50.2398 78.7412 52.4502C76.2234 52.0792 71.3294 51.7081 65.7043 53.6616C58.5744 56.1382 54.4736 60.8892 52.9097 62.9182C52.644 61.8828 52.3713 60.3444 52.5218 58.5083C52.6592 56.8357 53.1644 55.4803 54.17 52.8375C55.4857 49.3777 55.9496 48.9437 56.5444 46.6827C57.1262 44.4723 57.4168 43.3669 57.0779 41.9817C56.602 40.0407 55.0744 38.0965 52.8124 37.3289C52.21 37.1247 49.8144 36.4125 47.5784 37.8135C46.1677 38.6978 45.5348 39.9755 45.3007 40.528C44.9324 40.6698 44.6472 40.8235 44.4527 40.9397C44.0328 41.1902 43.809 41.3281 43.7253 41.5938C43.6525 41.8268 43.7221 42.0501 43.7742 42.1756C43.3195 42.595 42.6606 43.3071 42.1505 44.3566C41.8865 44.8988 41.7208 45.411 41.6154 45.8527C41.5611 46.0798 41.7996 46.2623 42.0022 46.1477C42.0565 46.1162 42.1146 46.0846 42.1749 46.0526C42.848 45.6957 43.3918 45.4078 43.8465 45.568C44.262 45.7142 44.4489 46.1803 44.5494 46.4405C45.0823 47.8219 44.5244 49.4092 43.9193 51.0688C43.5042 52.2079 43.2071 52.7169 43.338 53.5404C43.4423 54.1977 43.7628 54.6986 44.0165 55.0186C43.9285 55.2978 43.8111 55.8073 43.9193 56.4239C44.1056 57.4821 44.8232 58.0976 45.034 58.266C44.4674 58.8831 43.7905 59.7631 43.2408 60.9316C42.1467 63.2577 42.1744 65.4176 42.2716 66.529C41.7789 69.1262 41.6344 71.3664 41.6176 73.0961C41.5763 77.1681 41.5318 81.6508 44.2827 85.6484C45.5489 87.4878 47.0482 88.7035 48.2086 89.4771C48.8528 90.2338 50.1718 91.5745 52.2795 92.4333C53.8011 93.0537 55.1662 93.1917 56.0598 93.2091C56.6188 93.5779 57.2962 93.9419 58.0953 94.2265C61.1575 95.3168 63.9752 94.5096 65.1714 94.0809C65.16 95.1272 65.1991 96.2631 65.3164 97.4739C65.3751 98.0802 65.4495 98.662 65.5348 99.2182C65.575 99.7012 65.6038 100.876 64.8563 101.908C64.1936 102.823 63.2744 103.138 62.2146 103.483C61.3715 103.759 59.9195 104.102 58.0225 103.895C57.5211 103.731 57.0279 103.862 56.8111 104.186C56.6894 104.368 56.6813 104.571 56.69 104.695C56.6123 104.705 56.1267 104.778 55.8176 105.228C55.4873 105.708 55.628 106.226 55.6481 106.294C55.6801 106.217 55.7915 105.978 56.0598 105.834C56.4461 105.626 56.8334 105.787 56.8839 105.81C56.9415 105.866 57.1458 106.052 57.4652 106.076C57.6944 106.093 57.8704 106.019 57.9497 105.979C57.8737 106.081 57.7851 106.226 57.7319 106.415C57.5499 107.063 57.9182 107.745 58.047 107.724C58.1437 107.708 57.9986 107.31 58.2409 106.924C58.4468 106.597 58.7434 106.58 59.4767 106.27C60.416 105.873 60.3144 105.738 60.8337 105.616C61.3487 105.495 61.767 105.554 62.3846 105.64C63.1875 105.752 63.3331 105.901 63.9356 105.955C64.57 106.012 65.1399 105.912 65.6136 105.765C65.7711 105.902 65.8135 105.94 65.971 106.076L65.9145 106.391C65.9172 106.464 65.92 106.537 65.9221 106.609C65.8271 106.616 65.6174 106.647 65.4294 106.803C65.0524 107.118 65.1258 107.642 65.1307 107.676C65.179 107.593 65.3431 107.332 65.6799 107.199C65.9526 107.091 66.1932 107.123 66.2937 107.142C66.3133 107.226 66.3507 107.328 66.423 107.425C66.6789 107.769 67.1449 107.759 67.2069 107.756C67.1401 107.76 66.7875 107.785 66.5365 108.079C66.1932 108.481 66.3665 109.001 66.3746 109.025C66.4051 108.95 66.5512 108.613 66.932 108.443C67.2384 108.306 67.5171 108.357 67.6105 108.378C67.7496 108.45 68.0347 108.572 68.402 108.548C69.0625 108.506 69.4558 108.029 69.5248 107.942C70.1077 107.964 70.8193 107.942 71.6168 107.813C71.9655 107.757 72.5224 107.598 73.6365 107.28C74.3552 107.074 74.573 106.998 74.767 106.779C75.1271 106.372 75.0929 105.827 75.0902 105.406C75.0858 104.692 75.1668 103.692 75.5427 102.417C75.7692 102.543 76.0495 102.668 76.3825 102.756C77.3864 103.022 78.2539 102.791 78.6766 102.643C79.0481 103.025 79.8744 103.768 81.1646 104.13C82.0272 104.371 83.1989 104.591 83.3293 104.291C83.4081 104.11 83.0441 103.886 82.376 103.112C81.6491 102.268 81.1043 101.401 81.1646 101.351C81.2145 101.309 81.6442 101.853 82.4406 102.547C84.0985 103.988 85.1117 104.132 85.4131 104.162C85.7391 104.195 86.3138 104.245 86.5925 103.887C86.7533 103.681 86.7544 103.418 86.7381 103.257C87.1781 103.664 87.6947 103.652 87.8528 103.451C87.981 103.288 87.9158 102.944 87.6909 102.643C88.013 102.864 88.7703 103.31 89.7269 103.209C89.9344 103.187 90.7933 103.096 90.922 102.66C91.0214 102.324 90.6308 101.978 89.8399 101.173C89.4167 100.743 88.8306 100.131 88.1434 99.3638C88.5019 99.5692 88.8148 99.7158 89.0484 99.8163C89.5819 100.046 89.9279 100.191 90.4054 100.204C90.758 100.213 91.0334 100.221 91.1485 100.091C91.3658 99.844 91.0986 98.9982 88.9512 96.3592C90.0637 96.5537 90.6667 96.5374 90.7607 96.3103C90.8737 96.0366 90.2441 95.4548 88.8702 94.5661C91.1159 95.2603 94.1146 95.3206 94.654 94.9697C95.1472 94.6481 95.3162 94.0652 95.3808 93.7257C95.6937 93.793 96.5151 93.9234 97.3843 93.516C98.8971 92.806 99.172 91.1128 99.1932 90.9634C99.5045 90.9101 100.199 90.7466 100.825 90.1719C101.795 89.2804 101.852 88.0859 101.859 87.8452C102.055 87.7904 103.43 87.3775 104.088 85.9391C104.758 84.4772 104.143 83.1452 104.056 82.9665C104.287 82.7536 105.103 81.9491 105.284 80.6078C105.463 79.2775 104.901 78.2926 104.735 78.0232C104.967 77.8015 105.542 77.192 105.736 76.2137C105.875 75.5156 105.758 74.9382 105.672 74.6307C105.87 74.44 107.066 73.2542 106.996 71.4322C106.947 70.1556 106.304 69.2788 106.059 68.9762C106.331 68.703 107.157 67.7996 107.287 66.3916C107.367 65.5213 107.148 64.8271 106.996 64.4533ZM48.9164 46.3378C48.817 46.9109 48.6806 47.6388 48.4992 48.4759C48.0858 50.3837 47.8392 51.5224 47.6431 51.5131C47.4426 51.5033 47.2248 50.2936 47.1422 45.0672C47.2172 45.0248 47.6398 44.795 48.1276 44.9542C48.3542 45.0281 48.5497 45.1715 48.6959 45.3594C48.9093 45.6343 48.9762 45.9956 48.9164 46.3378ZM73.6202 104.065C73.479 104.322 73.1829 104.847 72.5702 105.212C72.0351 105.531 71.5266 105.568 71.0192 105.6C70.1093 105.656 69.8307 105.44 68.8545 105.406C68.4514 105.391 67.8701 105.406 67.1585 105.551C66.6653 105.204 66.4659 104.818 66.3828 104.614C66.1166 103.963 66.2763 103.319 66.4311 102.692C66.5593 102.174 66.7245 101.806 66.7544 101.739C66.9733 101.248 67.2628 100.513 67.6284 99.3714C67.843 98.6995 68.2379 98.0867 68.8029 97.6646C68.974 97.5364 69.1397 97.3604 69.2586 97.1181C69.5243 96.5749 69.3765 96.0583 69.339 95.9388C69.8144 96.7846 70.4907 97.8107 71.4392 98.863C72.2893 99.806 73.1378 100.525 73.8625 101.06C73.9722 101.436 74.3188 102.792 73.6202 104.065Z" fill="#9B9D70"/>
<path d="M58.4979 147.274C58.1979 147.274 57.9639 147.19 57.7959 147.022C57.6399 146.854 57.5619 146.62 57.5619 146.32V135.412C57.5619 135.1 57.6459 134.866 57.8139 134.71C57.9819 134.542 58.2159 134.458 58.5159 134.458H62.8179C64.1859 134.458 65.2419 134.8 65.9859 135.484C66.7299 136.156 67.1019 137.104 67.1019 138.328C67.1019 139.564 66.7299 140.524 65.9859 141.208C65.2419 141.88 64.1859 142.216 62.8179 142.216H59.4339V146.32C59.4339 146.62 59.3559 146.854 59.1999 147.022C59.0439 147.19 58.8099 147.274 58.4979 147.274ZM59.4339 140.722H62.5479C63.4479 140.722 64.1259 140.524 64.5819 140.128C65.0499 139.72 65.2839 139.12 65.2839 138.328C65.2839 137.548 65.0499 136.96 64.5819 136.564C64.1259 136.156 63.4479 135.952 62.5479 135.952H59.4339V140.722ZM71.9217 147.31C71.2137 147.31 70.6197 147.178 70.1397 146.914C69.6717 146.65 69.3177 146.26 69.0777 145.744C68.8497 145.216 68.7357 144.556 68.7357 143.764V139.156C68.7357 138.844 68.8137 138.616 68.9697 138.472C69.1257 138.316 69.3477 138.238 69.6357 138.238C69.9237 138.238 70.1457 138.316 70.3017 138.472C70.4697 138.616 70.5537 138.844 70.5537 139.156V143.782C70.5537 144.49 70.6977 145.012 70.9857 145.348C71.2737 145.684 71.7297 145.852 72.3537 145.852C73.0377 145.852 73.5897 145.624 74.0097 145.168C74.4417 144.7 74.6577 144.088 74.6577 143.332V139.156C74.6577 138.844 74.7357 138.616 74.8917 138.472C75.0477 138.316 75.2757 138.238 75.5757 138.238C75.8637 138.238 76.0857 138.316 76.2417 138.472C76.3977 138.616 76.4757 138.844 76.4757 139.156V146.356C76.4757 146.968 76.1817 147.274 75.5937 147.274C75.3177 147.274 75.1017 147.196 74.9457 147.04C74.7897 146.872 74.7117 146.644 74.7117 146.356V144.826L74.9457 145.222C74.7057 145.894 74.3217 146.41 73.7937 146.77C73.2657 147.13 72.6417 147.31 71.9217 147.31ZM82.7818 147.31C82.0618 147.31 81.4558 147.184 80.9638 146.932C80.4718 146.68 80.1058 146.308 79.8658 145.816C79.6258 145.324 79.5058 144.724 79.5058 144.016V139.768H78.4258C78.1858 139.768 77.9998 139.708 77.8678 139.588C77.7358 139.456 77.6698 139.282 77.6698 139.066C77.6698 138.838 77.7358 138.664 77.8678 138.544C77.9998 138.424 78.1858 138.364 78.4258 138.364H79.5058V136.51C79.5058 136.21 79.5838 135.982 79.7398 135.826C79.9078 135.67 80.1358 135.592 80.4238 135.592C80.7118 135.592 80.9338 135.67 81.0898 135.826C81.2458 135.982 81.3238 136.21 81.3238 136.51V138.364H83.4298C83.6698 138.364 83.8558 138.424 83.9878 138.544C84.1198 138.664 84.1858 138.838 84.1858 139.066C84.1858 139.282 84.1198 139.456 83.9878 139.588C83.8558 139.708 83.6698 139.768 83.4298 139.768H81.3238V143.872C81.3238 144.508 81.4558 144.988 81.7198 145.312C81.9958 145.636 82.4398 145.798 83.0518 145.798C83.2678 145.798 83.4538 145.78 83.6098 145.744C83.7778 145.696 83.9158 145.666 84.0238 145.654C84.1558 145.654 84.2638 145.702 84.3478 145.798C84.4318 145.882 84.4738 146.05 84.4738 146.302C84.4738 146.482 84.4378 146.65 84.3658 146.806C84.3058 146.962 84.1918 147.064 84.0238 147.112C83.8798 147.16 83.6818 147.202 83.4298 147.238C83.1898 147.286 82.9738 147.31 82.7818 147.31ZM89.6461 147.31C88.6861 147.31 87.8581 147.13 87.1621 146.77C86.4781 146.398 85.9441 145.876 85.5601 145.204C85.1881 144.52 85.0021 143.71 85.0021 142.774C85.0021 141.862 85.1881 141.064 85.5601 140.38C85.9321 139.696 86.4421 139.162 87.0901 138.778C87.7381 138.394 88.4761 138.202 89.3041 138.202C89.9161 138.202 90.4621 138.304 90.9421 138.508C91.4221 138.7 91.8301 138.988 92.1661 139.372C92.5141 139.744 92.7721 140.2 92.9401 140.74C93.1201 141.28 93.2101 141.886 93.2101 142.558C93.2101 142.762 93.1501 142.918 93.0301 143.026C92.9101 143.122 92.7301 143.17 92.4901 143.17H86.4421V142.054H91.9861L91.6801 142.306C91.6801 141.706 91.5901 141.196 91.4101 140.776C91.2421 140.356 90.9841 140.038 90.6361 139.822C90.3001 139.594 89.8801 139.48 89.3761 139.48C88.8121 139.48 88.3321 139.612 87.9361 139.876C87.5521 140.14 87.2581 140.506 87.0541 140.974C86.8501 141.442 86.7481 141.988 86.7481 142.612V142.72C86.7481 143.776 86.9941 144.574 87.4861 145.114C87.9901 145.642 88.7161 145.906 89.6641 145.906C90.0241 145.906 90.4021 145.858 90.7981 145.762C91.2061 145.666 91.5901 145.504 91.9501 145.276C92.1541 145.156 92.3341 145.102 92.4901 145.114C92.6581 145.126 92.7901 145.18 92.8861 145.276C92.9941 145.372 93.0601 145.492 93.0841 145.636C93.1081 145.78 93.0841 145.93 93.0121 146.086C92.9401 146.23 92.8141 146.362 92.6341 146.482C92.2261 146.758 91.7521 146.968 91.2121 147.112C90.6721 147.244 90.1501 147.31 89.6461 147.31Z" fill="#022C32"/>
</svg>
