<svg width="150" height="176" viewBox="0 0 150 176" fill="none" xmlns="http://www.w3.org/2000/svg">
<path d="M0 10C0 4.47715 4.47715 0 10 0H140C145.523 0 150 4.47715 150 10V166C150 171.523 145.523 176 140 176H10C4.47715 176 0 171.523 0 166V10Z" fill="white"/>
<path d="M100.937 85.8088C98.8005 86.613 96.6776 87.3073 94.6443 88.2038C92.0886 89.3302 89.5561 89.3428 86.947 88.5169C84.6184 87.7797 82.2037 87.723 79.7911 87.7022C77.7374 87.6845 75.6809 87.6361 73.6311 87.7258C72.6717 87.7679 71.6594 87.9549 70.7865 88.3384C69.1445 89.06 68.3454 90.5133 68.3108 92.2491C68.2778 93.9135 68.4861 95.5825 68.5892 97.2494C68.742 99.7177 68.9243 102.185 69.0374 104.655C69.0995 106.005 68.6852 106.274 67.367 105.901C67.2672 105.872 67.1614 105.866 66.9714 105.835C67.0098 106.259 67.0559 106.626 67.0735 106.994C67.1174 107.915 66.8022 108.384 65.882 108.431C64.4389 108.504 62.9895 108.45 61.4498 108.45C61.528 108.255 61.6006 108.063 61.6818 107.873C62.4208 106.153 63.139 104.424 63.9077 102.717C64.6233 101.128 64.4027 99.6269 63.5723 98.1726C63.2342 97.5805 62.828 97.0273 62.4528 96.4565C62.3706 96.4626 62.2885 96.4687 62.2063 96.4748C62.0038 97.4577 61.7543 98.4341 61.6133 99.4256C61.4977 100.239 61.4826 101.07 61.4732 101.894C61.4529 103.664 61.1253 103.907 59.4168 103.265C59.1992 104.036 59.0001 104.807 58.7555 105.564C58.6922 105.76 58.491 106.054 58.3458 106.058C57.0577 106.097 55.7679 106.081 54.3031 106.081C54.9586 105.014 55.5119 104.057 56.1201 103.136C57.2987 101.351 57.9318 99.4158 57.8232 97.2659C57.7985 96.7776 57.7376 96.2887 57.658 95.8059C57.3715 94.0697 57.0533 92.3386 56.7824 90.6001C56.6779 89.9295 56.3751 89.4816 55.7115 89.3054C52.4132 88.4296 49.1345 87.4661 45.8066 86.7226C44.3756 86.4029 42.8428 86.502 41.3551 86.4788C37.144 86.413 33.2701 85.162 29.6397 83.1242C27.8918 82.1431 26.2334 81.0027 24.5329 79.9366C23.8348 79.499 23.151 79.0345 22.4278 78.6432C21.8718 78.3424 21.5082 77.9521 21.4421 77.3161C21.3257 76.1961 21.2006 75.0767 21.1087 73.9547C21.0917 73.7461 21.1982 73.5199 21.2754 73.3123C21.7075 72.1522 21.9151 72.0544 23.1042 72.3497C24.3091 72.649 25.4818 72.5336 26.5008 71.8082C28.263 70.5538 30.0023 69.2648 31.7113 67.9388C32.6474 67.2125 32.8441 66.2982 32.3061 65.1852C30.7583 61.9836 29.8328 58.4717 27.5594 55.6299C27.523 55.5845 27.5237 55.5095 27.5001 55.4221C30.1526 55.0617 32.5719 55.7038 34.8342 57.0981C34.8707 57.0495 34.9071 57.001 34.9436 56.9523C34.6088 55.8094 34.2739 54.6663 33.8987 53.3858C34.4052 53.4914 34.845 53.4981 35.202 53.6734C36.2813 54.2033 37.3604 54.7482 38.3741 55.3906C38.8634 55.7005 39.3197 56.181 39.5923 56.6903C40.234 57.889 41.9179 58.2558 42.9258 57.8316C48.168 55.6262 53.7184 55.172 59.3054 54.887C63.6493 54.6653 68.0056 54.5732 72.3047 53.8138C73.2257 53.6511 74.1648 53.5104 75.0447 53.2103C77.8148 52.2653 80.6946 51.9409 83.5725 51.6035C88.1414 51.0677 92.7232 50.6642 97.3281 50.7767C101.347 50.875 105.354 51.1148 109.232 52.3423C112.043 53.2322 114.644 54.5366 117.067 56.2035C118.37 57.1 119.738 57.9266 120.929 58.9555C122.745 60.5248 123.644 62.7374 124.665 64.8449C124.821 65.1658 124.91 65.5569 125.152 65.7886C125.535 66.1551 125.982 66.5581 126.47 66.6905C127.682 67.0187 128.233 68.1149 127.628 69.234C127.596 69.2927 127.558 69.348 127.522 69.4046C126.891 70.4095 126.899 70.4818 127.875 71.3643C127.422 71.3643 127.102 71.385 126.786 71.3598C126.246 71.3167 125.954 71.0244 126.069 70.4681C126.193 69.8671 126.367 69.2761 126.521 68.6722C125.228 68.637 124.614 69.1011 124.492 70.3075C124.294 72.2591 124.183 74.2193 123.994 76.1718C123.693 79.263 122.779 82.1441 120.995 84.7238C120.061 86.0751 120.047 87.0274 120.983 88.3541C121.805 89.5185 122.672 90.6538 123.569 91.7622C124.292 92.6562 124.576 93.5956 124.324 94.7434C123.984 96.2874 123.696 97.845 123.46 99.4079C123.277 100.617 123.471 101.806 123.918 102.952C124.038 103.259 124.125 103.592 124.156 103.92C124.238 104.806 123.903 105.336 122.967 105.589C122.38 105.747 122.216 106.039 122.173 106.599C122.067 107.981 122.041 107.981 120.688 108.331C119.846 108.548 119.007 108.785 118.155 108.96C116.812 109.237 116.259 108.607 116.733 107.319C117.287 105.813 117.882 104.322 118.484 102.835C119.21 101.039 119.215 99.2462 118.356 97.5198C117.722 96.2477 116.993 95.0154 116.211 93.8276C115.626 92.9387 114.75 92.3454 113.743 91.9514C113.273 91.7676 112.963 91.7886 112.721 92.2887C111.258 95.3163 109.779 98.3359 108.308 101.36C108.221 101.54 108.165 101.735 108.085 101.919C107.784 102.61 107.612 102.679 106.899 102.401C105.826 101.982 105.214 102.272 104.876 103.357C104.162 105.647 103.306 106.08 101.025 105.282C100.486 105.093 99.9663 104.848 99.3999 104.613C100.187 102.764 101.439 101.349 102.786 100.016C103.998 98.8172 104.846 97.4396 105.085 95.7383C105.386 93.596 104.782 91.6836 103.327 90.1208C102.401 89.1255 101.784 88.0091 101.34 86.7584C101.23 86.4494 101.085 86.1532 100.937 85.8088Z" fill="#DBC4B4"/>
<path d="M45.5244 147.309C44.9724 147.309 44.4324 147.267 43.9044 147.183C43.3764 147.099 42.8784 146.973 42.4104 146.805C41.9424 146.625 41.5224 146.409 41.1504 146.157C40.9704 146.025 40.8444 145.875 40.7724 145.707C40.7124 145.539 40.6944 145.377 40.7184 145.221C40.7544 145.053 40.8264 144.909 40.9344 144.789C41.0424 144.669 41.1744 144.597 41.3304 144.573C41.4864 144.537 41.6604 144.585 41.8524 144.717C42.3924 145.065 42.9624 145.323 43.5624 145.491C44.1624 145.647 44.8164 145.725 45.5244 145.725C46.5444 145.725 47.2944 145.545 47.7744 145.185C48.2664 144.813 48.5124 144.333 48.5124 143.745C48.5124 143.265 48.3384 142.887 47.9904 142.611C47.6424 142.323 47.0604 142.095 46.2444 141.927L44.3184 141.531C43.1784 141.291 42.3264 140.895 41.7624 140.343C41.2104 139.791 40.9344 139.047 40.9344 138.111C40.9344 137.547 41.0484 137.031 41.2764 136.563C41.5164 136.095 41.8464 135.693 42.2664 135.357C42.6864 135.009 43.1904 134.745 43.7784 134.565C44.3664 134.385 45.0084 134.295 45.7044 134.295C46.4484 134.295 47.1444 134.391 47.7924 134.583C48.4524 134.775 49.0404 135.069 49.5564 135.465C49.7124 135.573 49.8144 135.711 49.8624 135.879C49.9224 136.035 49.9344 136.191 49.8984 136.347C49.8744 136.503 49.8084 136.635 49.7004 136.743C49.5924 136.851 49.4544 136.917 49.2864 136.941C49.1184 136.953 48.9324 136.893 48.7284 136.761C48.2604 136.449 47.7804 136.227 47.2884 136.095C46.8084 135.951 46.2744 135.879 45.6864 135.879C45.0984 135.879 44.5824 135.969 44.1384 136.149C43.7064 136.329 43.3704 136.581 43.1304 136.905C42.9024 137.229 42.7884 137.613 42.7884 138.057C42.7884 138.561 42.9504 138.963 43.2744 139.263C43.5984 139.563 44.1384 139.791 44.8944 139.947L46.8024 140.343C48.0024 140.595 48.8964 140.985 49.4844 141.513C50.0724 142.041 50.3664 142.743 50.3664 143.619C50.3664 144.183 50.2524 144.693 50.0244 145.149C49.7964 145.593 49.4724 145.977 49.0524 146.301C48.6324 146.625 48.1224 146.877 47.5224 147.057C46.9344 147.225 46.2684 147.309 45.5244 147.309ZM56.1636 147.309C55.2636 147.309 54.4836 147.123 53.8236 146.751C53.1756 146.367 52.6716 145.833 52.3116 145.149C51.9516 144.453 51.7716 143.637 51.7716 142.701C51.7716 142.005 51.8736 141.381 52.0776 140.829C52.2816 140.265 52.5696 139.791 52.9416 139.407C53.3256 139.023 53.7876 138.729 54.3276 138.525C54.8796 138.309 55.4916 138.201 56.1636 138.201C56.5836 138.201 57.0216 138.267 57.4776 138.399C57.9456 138.519 58.3776 138.723 58.7736 139.011C58.9296 139.107 59.0256 139.227 59.0616 139.371C59.1096 139.503 59.1156 139.641 59.0796 139.785C59.0556 139.929 58.9896 140.055 58.8816 140.163C58.7856 140.259 58.6656 140.319 58.5216 140.343C58.3776 140.355 58.2216 140.313 58.0536 140.217C57.7656 140.013 57.4716 139.869 57.1716 139.785C56.8716 139.689 56.5836 139.641 56.3076 139.641C55.8756 139.641 55.4916 139.713 55.1556 139.857C54.8316 139.989 54.5556 140.187 54.3276 140.451C54.0996 140.703 53.9256 141.021 53.8056 141.405C53.6976 141.789 53.6436 142.227 53.6436 142.719C53.6436 143.703 53.8716 144.477 54.3276 145.041C54.7956 145.593 55.4556 145.869 56.3076 145.869C56.5836 145.869 56.8716 145.827 57.1716 145.743C57.4716 145.659 57.7656 145.515 58.0536 145.311C58.2216 145.215 58.3776 145.179 58.5216 145.203C58.6656 145.227 58.7796 145.293 58.8636 145.401C58.9596 145.497 59.0196 145.617 59.0436 145.761C59.0796 145.893 59.0736 146.031 59.0256 146.175C58.9776 146.319 58.8756 146.439 58.7196 146.535C58.3356 146.811 57.9156 147.009 57.4596 147.129C57.0156 147.249 56.5836 147.309 56.1636 147.309ZM61.596 147.273C61.308 147.273 61.086 147.195 60.93 147.039C60.774 146.871 60.696 146.643 60.696 146.355V135.249C60.696 134.949 60.774 134.721 60.93 134.565C61.086 134.409 61.308 134.331 61.596 134.331C61.884 134.331 62.106 134.409 62.262 134.565C62.43 134.721 62.514 134.949 62.514 135.249V140.235H62.262C62.526 139.563 62.94 139.059 63.504 138.723C64.068 138.375 64.716 138.201 65.448 138.201C66.144 138.201 66.72 138.333 67.176 138.597C67.644 138.849 67.992 139.239 68.22 139.767C68.448 140.283 68.562 140.937 68.562 141.729V146.355C68.562 146.643 68.484 146.871 68.328 147.039C68.172 147.195 67.95 147.273 67.662 147.273C67.362 147.273 67.134 147.195 66.978 147.039C66.822 146.871 66.744 146.643 66.744 146.355V141.837C66.744 141.081 66.594 140.529 66.294 140.181C66.006 139.833 65.55 139.659 64.926 139.659C64.194 139.659 63.606 139.887 63.162 140.343C62.73 140.799 62.514 141.411 62.514 142.179V146.355C62.514 146.967 62.208 147.273 61.596 147.273ZM74.1832 147.273C73.9312 147.273 73.7092 147.213 73.5172 147.093C73.3372 146.961 73.1932 146.757 73.0852 146.481L70.4392 139.479C70.3432 139.239 70.3132 139.029 70.3492 138.849C70.3852 138.657 70.4752 138.507 70.6192 138.399C70.7752 138.291 70.9732 138.237 71.2132 138.237C71.4292 138.237 71.6032 138.291 71.7352 138.399C71.8792 138.495 71.9992 138.687 72.0952 138.975L74.4532 145.617H74.0212L76.4692 138.903C76.5532 138.675 76.6672 138.507 76.8112 138.399C76.9552 138.291 77.1412 138.237 77.3692 138.237C77.5972 138.237 77.7832 138.291 77.9272 138.399C78.0832 138.507 78.1972 138.675 78.2692 138.903L80.6632 145.617H80.2672L82.6612 138.939C82.7572 138.663 82.8772 138.477 83.0212 138.381C83.1772 138.285 83.3512 138.237 83.5432 138.237C83.7832 138.237 83.9632 138.297 84.0832 138.417C84.2152 138.537 84.2872 138.693 84.2992 138.885C84.3232 139.065 84.2932 139.263 84.2092 139.479L81.5632 146.481C81.4552 146.745 81.3052 146.943 81.1132 147.075C80.9332 147.207 80.7232 147.273 80.4832 147.273C80.2312 147.273 80.0092 147.207 79.8172 147.075C79.6372 146.943 79.4932 146.745 79.3852 146.481L76.8652 139.659H77.7652L75.2632 146.481C75.1672 146.745 75.0232 146.943 74.8312 147.075C74.6512 147.207 74.4352 147.273 74.1832 147.273ZM90.1656 147.309C89.2056 147.309 88.3776 147.129 87.6816 146.769C86.9976 146.397 86.4636 145.875 86.0796 145.203C85.7076 144.519 85.5216 143.709 85.5216 142.773C85.5216 141.861 85.7076 141.063 86.0796 140.379C86.4516 139.695 86.9616 139.161 87.6096 138.777C88.2576 138.393 88.9956 138.201 89.8236 138.201C90.4356 138.201 90.9816 138.303 91.4616 138.507C91.9416 138.699 92.3496 138.987 92.6856 139.371C93.0336 139.743 93.2916 140.199 93.4596 140.739C93.6396 141.279 93.7296 141.885 93.7296 142.557C93.7296 142.761 93.6696 142.917 93.5496 143.025C93.4296 143.121 93.2496 143.169 93.0096 143.169H86.9616V142.053H92.5056L92.1996 142.305C92.1996 141.705 92.1096 141.195 91.9296 140.775C91.7616 140.355 91.5036 140.037 91.1556 139.821C90.8196 139.593 90.3996 139.479 89.8956 139.479C89.3316 139.479 88.8516 139.611 88.4556 139.875C88.0716 140.139 87.7776 140.505 87.5736 140.973C87.3696 141.441 87.2676 141.987 87.2676 142.611V142.719C87.2676 143.775 87.5136 144.573 88.0056 145.113C88.5096 145.641 89.2356 145.905 90.1836 145.905C90.5436 145.905 90.9216 145.857 91.3176 145.761C91.7256 145.665 92.1096 145.503 92.4696 145.275C92.6736 145.155 92.8536 145.101 93.0096 145.113C93.1776 145.125 93.3096 145.179 93.4056 145.275C93.5136 145.371 93.5796 145.491 93.6036 145.635C93.6276 145.779 93.6036 145.929 93.5316 146.085C93.4596 146.229 93.3336 146.361 93.1536 146.481C92.7456 146.757 92.2716 146.967 91.7316 147.111C91.1916 147.243 90.6696 147.309 90.1656 147.309ZM96.6116 147.255C96.3236 147.255 96.1016 147.171 95.9456 147.003C95.7896 146.823 95.7116 146.577 95.7116 146.265V139.245C95.7116 138.933 95.7896 138.693 95.9456 138.525C96.1016 138.357 96.3236 138.273 96.6116 138.273C96.8996 138.273 97.1216 138.357 97.2776 138.525C97.4456 138.693 97.5296 138.933 97.5296 139.245V146.265C97.5296 146.577 97.4516 146.823 97.2956 147.003C97.1396 147.171 96.9116 147.255 96.6116 147.255ZM96.6116 136.401C96.2516 136.401 95.9696 136.311 95.7656 136.131C95.5736 135.951 95.4776 135.699 95.4776 135.375C95.4776 135.039 95.5736 134.787 95.7656 134.619C95.9696 134.439 96.2516 134.349 96.6116 134.349C96.9716 134.349 97.2476 134.439 97.4396 134.619C97.6436 134.787 97.7456 135.039 97.7456 135.375C97.7456 135.699 97.6436 135.951 97.4396 136.131C97.2476 136.311 96.9716 136.401 96.6116 136.401ZM100.989 147.273C100.701 147.273 100.479 147.195 100.323 147.039C100.167 146.871 100.089 146.643 100.089 146.355V139.155C100.089 138.855 100.167 138.627 100.323 138.471C100.479 138.315 100.695 138.237 100.971 138.237C101.259 138.237 101.475 138.315 101.619 138.471C101.775 138.627 101.853 138.855 101.853 139.155V140.559L101.655 140.235C101.919 139.563 102.333 139.059 102.897 138.723C103.461 138.375 104.109 138.201 104.841 138.201C105.537 138.201 106.113 138.333 106.569 138.597C107.037 138.849 107.385 139.239 107.613 139.767C107.841 140.283 107.955 140.937 107.955 141.729V146.355C107.955 146.643 107.877 146.871 107.721 147.039C107.565 147.195 107.343 147.273 107.055 147.273C106.755 147.273 106.527 147.195 106.371 147.039C106.215 146.871 106.137 146.643 106.137 146.355V141.837C106.137 141.081 105.987 140.529 105.687 140.181C105.399 139.833 104.943 139.659 104.319 139.659C103.587 139.659 102.999 139.887 102.555 140.343C102.123 140.799 101.907 141.411 101.907 142.179V146.355C101.907 146.967 101.601 147.273 100.989 147.273Z" fill="#DBC4B4"/>
</svg>
